<svg xmlns="http://www.w3.org/2000/svg" viewBox="0 0 30 42.9"><defs><style>.cls-1{fill:#00acb2;}</style></defs><g id="Layer_2" data-name="Layer 2"><g id="レイヤー_3" data-name="レイヤー 3"><path class="cls-1" d="M12.69,0h1.25c2.67,2.08,4.33,5.14,7,7.18a1.22,1.22,0,0,0,.83,1l.36.33a2.21,2.21,0,0,0,1.33,1.72l.69.8,1,1.22.4.45c0,.44-.06.93.45,1.18,1.12,1.08,1.55,2.8,3.18,3.4A10.84,10.84,0,0,1,30,20.45l-2.31,3.77-.42.41c-1.5.8-1.79,2.41-2.52,3.73a8.58,8.58,0,0,0-2,3h0a1.39,1.39,0,0,0-.87.79c-.49.09-.41.49-.46.82l-1.1,1.31-.05,0a1.47,1.47,0,0,0-.84,1.17c-.42.72-1.36,1.07-1.45,2a2.75,2.75,0,0,0-1.11,1.25c-.37.22-.73.45-.79.94-.61.8-1.68,2.77-2.7,3.14-.51.19-3.95-1-3.79-1.35.94-2.1,2.78-3.27,4-5.11,1.28-1.59,2.12-3.56,3.34-5,2.37-2.87,4.44-5.93,6.64-8.91,1.67-2.25,1.61-2.87,0-5.15a90.52,90.52,0,0,0-5.85-7.06c-1.47-1.68-2-3.91-3.64-5.35,0-.15,0-.24-.21-.25l-1.1-.87C11.08,2.36,11.08,1.74,12.69,0Z"/><path class="cls-1" d="M1.19,2.26A22.71,22.71,0,0,1,3.41,1C3.52.94,9.22,7.25,9.6,7.74c2.51,3.24,5,6.49,7.64,9.64,2,2.42,2.77,4.21,1.56,5.81C16.26,26.52,13.62,29.75,11,33c-.48.25-.42.78-.61,1.18l-.26.42-.86,1.3c-.63-.07-.89.22-.78.84A2.35,2.35,0,0,0,7.71,38c-1.48.42-2,1.67-2.59,2.9-.14.31-1.33.68-1.66.85a17.66,17.66,0,0,0-2.33-1.31c-.14-.08-.3-.19-.32-.36a.59.59,0,0,1,.2-.45,73.78,73.78,0,0,0,6.72-8.29c.42-.66.84-1.32,1.25-2l1.26-1.65a14.76,14.76,0,0,0,2.49-4.2c1.59-2.59,1.58-2.65-.9-4.57l-.47-.55a11.68,11.68,0,0,0-2-3.39A16.48,16.48,0,0,0,7.7,13.46C6.07,12,5.46,9.8,3.79,8.42c-.25-.21-.25-.83-.48-1.12s-1-.2-1.38-.6S-.11,4.3,0,3.58C.08,3.14.58,2.68,1.19,2.26Z"/></g></g></svg>