<svg xmlns="http://www.w3.org/2000/svg" viewBox="0 0 30 30"><defs><style>.cls-1{fill:#3e3a39;}.cls-2{fill:#fff;}</style></defs><g id="Layer_2" data-name="Layer 2"><g id="レイヤー_3" data-name="レイヤー 3"><circle class="cls-1" cx="15" cy="15" r="15"/><path class="cls-2" d="M12.51,19.93c.07-1.7,0-3.37,0-5.07v-.72c0-.8.06-1.59,0-2.38a18.09,18.09,0,0,1,.12-2.33A6.25,6.25,0,0,1,15,11c.23.26.27.69.7.78a1.78,1.78,0,0,0,.73.71c.18.42.68.24.94.5a1.47,1.47,0,0,0,.74.63l.23.11c.12.12,1.36,1.24,1.18,1.42a21.89,21.89,0,0,1-3.17,2.84l-.4.28a.62.62,0,0,0-.49.47c0,.08-1.11.86-1.27,1s-1.27,1.25-1.57.74a.7.7,0,0,1-.07-.43Z"/></g></g></svg>