<svg xmlns="http://www.w3.org/2000/svg" viewBox="0 0 30 20.98"><defs><style>.cls-1{fill:#ad8533;}</style></defs><g id="Layer_2" data-name="Layer 2"><g id="レイヤー_3" data-name="レイヤー 3"><path class="cls-1" d="M30,8.87v.88c-1.45,1.86-3.59,3-5,4.92a.88.88,0,0,0-.67.58l-.22.25a1.57,1.57,0,0,0-1.21.93l-.56.49-.85.69-.32.29c-.3,0-.64,0-.82.31-.76.78-2,1.08-2.38,2.22A7.34,7.34,0,0,1,15.7,21l-2.64-1.62-.29-.29c-.55-1.05-1.68-1.25-2.6-1.76A5.89,5.89,0,0,0,8.06,15.9v0a1,1,0,0,0-.56-.61c0-.34-.34-.28-.57-.32L6,14.18l0,0a1,1,0,0,0-.82-.59c-.5-.29-.74-1-1.41-1a1.83,1.83,0,0,0-.87-.78c-.16-.26-.32-.51-.66-.56C1.65,10.79.27,10,0,9.33-.12,9,.7,6.57,1,6.68c1.47.65,2.28,1.94,3.57,2.79C5.64,10.36,7,11,8.06,11.8c2,1.66,4.14,3.11,6.23,4.65,1.57,1.17,2,1.12,3.6,0a62.52,62.52,0,0,0,4.93-4.09c1.18-1,2.74-1.37,3.75-2.54.1,0,.16,0,.17-.15l.61-.77C28.35,7.75,28.78,7.75,30,8.87Z"/><path class="cls-1" d="M28.42.83a17.28,17.28,0,0,1,.88,1.55c0,.08-4.37,4.06-4.71,4.33-2.27,1.76-4.54,3.51-6.74,5.35-1.69,1.41-3,1.94-4.07,1.08C11.46,11.37,9.19,9.52,6.9,7.7c-.17-.33-.54-.29-.82-.42L5.79,7.1l-.91-.6c0-.45-.16-.62-.59-.55a1.68,1.68,0,0,0-.89-.56c-.29-1-1.17-1.41-2-1.81C1.15,3.48.9,2.65.78,2.42A13.6,13.6,0,0,0,1.69.79c.06-.1.14-.21.25-.23a.46.46,0,0,1,.32.15,51.13,51.13,0,0,0,5.8,4.7l1.38.87,1.15.88A10.43,10.43,0,0,0,13.53,8.9c1.81,1.11,1.86,1.11,3.2-.63L17.11,8a8.2,8.2,0,0,0,2.37-1.4,10.19,10.19,0,0,0,1.11-1.17c1-1.14,2.56-1.56,3.52-2.73.15-.17.58-.17.78-.34s.15-.7.42-1S27-.08,27.5,0C27.81.05,28.13.4,28.42.83Z"/></g></g></svg>