<svg xmlns="http://www.w3.org/2000/svg" viewBox="0 0 91 36.34"><g id="Layer_2" data-name="Layer 2"><g id="レイヤー_3" data-name="レイヤー 3"><rect x="45" y="9.31" width="1" height="9.8"/><rect x="23.44" y="5.05" width="1" height="20.66" transform="translate(-4.23 11.36) rotate(-24.59)"/><rect x="10.65" y="27.46" width="1" height="10.31" transform="translate(-20.88 19.89) rotate(-49.47)"/><path d="M45.5,2.79a1.4,1.4,0,1,1,1.39-1.4A1.4,1.4,0,0,1,45.5,2.79ZM45.5,1a.4.4,0,1,0,.39.39A.39.39,0,0,0,45.5,1Z"/><path d="M1.39,26.12a1.4,1.4,0,1,1,1.4-1.4A1.4,1.4,0,0,1,1.39,26.12Zm0-1.79a.4.4,0,0,0,0,.79.4.4,0,1,0,0-.79Z"/><rect x="56.73" y="14.87" width="20.66" height="1" transform="translate(25.2 69.97) rotate(-65.44)"/><rect x="74.69" y="32.11" width="10.31" height="1" transform="translate(-2.03 59.74) rotate(-40.55)"/><path d="M89.61,26.12A1.4,1.4,0,1,1,91,24.72,1.4,1.4,0,0,1,89.61,26.12Zm0-1.79a.4.4,0,1,0,.39.39A.4.4,0,0,0,89.61,24.33Z"/></g></g></svg>