<svg xmlns="http://www.w3.org/2000/svg" viewBox="0 0 179.3 8.18"><defs><style>.cls-1{opacity:0.7;}.cls-2{fill:#fff;}</style></defs><g id="Layer_2" data-name="Layer 2"><g id="レイヤー_3" data-name="レイヤー 3"><g class="cls-1"><path class="cls-2" d="M174.55,1.49c-2.18-.12-4.75-.19-7-.19-12.1-.52-24.2-.78-36.29-1S107.05,0,95,0s-24.2.05-36.3.24S34.45.71,22.36,1.29c-2.62,0-5.69.08-8.57.2S8.23,1.79,6.4,2C2.92,2.25-.07,3.07,0,3.61s3.12.57,6.57.27L22.69,2.45c12.06-.57,24.13-.85,36.2-1S83,1.16,95.11,1.18s24.15.12,36.22.31,24.15.47,36.21,1c2.25.2,4.78.38,6.92.5,2.64.15,4.8,0,4.84-.41S177.2,1.65,174.55,1.49Z"/><path class="cls-2" d="M159.81,6.65c-1.81-.13-3.95-.22-5.83-.23C143.92,5.8,133.85,5.35,123.78,5s-20.14-.66-30.21-.85-20.16-.29-30.23-.24-20.16.21-30.24.7c-2.18,0-4.74,0-7.13.13s-4.64.25-6.17.4c-2.9.27-5.37,1-5.3,1.56s2.62.63,5.49.37l13.4-1.3c10-.48,20.09-.65,30.14-.69s20.1.06,30.15.25,20.1.48,30.15.85S143.92,7,154,7.59c1.87.21,4,.41,5.76.53,2.2.16,4,0,4-.43S162,6.8,159.81,6.65Z"/></g></g></g></svg>