<svg xmlns="http://www.w3.org/2000/svg" viewBox="0 0 17.24 22.48"><defs><style>.cls-1{fill:#158ba4;}</style></defs><g id="Layer_2" data-name="Layer 2"><g id="レイヤー_3" data-name="レイヤー 3"><path class="cls-1" d="M1.54,1C0,2-.31,5.09.28,7.64a23.06,23.06,0,0,0,3,7.16,24.26,24.26,0,0,0,5.3,5.71c2.09,1.57,5.08,2.57,6.62,1.57a8,8,0,0,0,2-2.14l-.83-1.28-2.29-3.52c-.16-.26-1.23,0-1.77.28A5.2,5.2,0,0,0,11,17c-.5.28-.92,0-1.79-.41-1.08-.49-2.28-2-3.25-3.42a10.79,10.79,0,0,1-1.8-4.36c0-1-.1-1.46.37-1.8a5.24,5.24,0,0,0,2-.65c.5-.37,1.15-1.25,1-1.51L5.14,1.28,4.31,0A8,8,0,0,0,1.54,1Z"/></g></g></svg>