<svg xmlns="http://www.w3.org/2000/svg" viewBox="0 0 19 24.78"><defs><style>.cls-1{fill:#fff;}</style></defs><g id="Layer_2" data-name="Layer 2"><g id="レイヤー_3" data-name="レイヤー 3"><path class="cls-1" d="M1.7,1.05C0,2.15-.34,5.61.3,8.42a25.81,25.81,0,0,0,3.36,7.9A26.55,26.55,0,0,0,9.5,22.6c2.31,1.74,5.6,2.84,7.3,1.74A8.76,8.76,0,0,0,19,22l-.91-1.41-2.52-3.88c-.19-.29-1.36,0-2,.31a5.69,5.69,0,0,0-1.55,1.68c-.55.32-1,0-2-.44C8.91,17.69,7.58,16,6.52,14.46s-2-3.5-2-4.8c0-1.06-.11-1.61.41-2A5.71,5.71,0,0,0,7.1,7c.55-.41,1.26-1.37,1.08-1.66L5.66,1.41,4.75,0A8.75,8.75,0,0,0,1.7,1.05Z"/></g></g></svg>