<svg xmlns="http://www.w3.org/2000/svg" viewBox="0 0 160 156.31"><defs><style>.cls-1{fill:#ad8533;}.cls-2{fill:#fff;}</style></defs><g id="Layer_2" data-name="Layer 2"><g id="レイヤー_3" data-name="レイヤー 3"><path class="cls-1" d="M160,78.15c0,5.82-8.55,10.59-9.79,16-1.28,5.62,4.33,13.63,1.88,18.69S139.83,118.62,136.3,123s-2,14.11-6.42,17.66-13.49-.14-18.64,2.34-7.82,11.85-13.44,13.12c-5.44,1.24-12-6-17.8-6s-12.36,7.25-17.8,6c-5.62-1.27-8.38-10.68-13.44-13.12s-14.22,1.19-18.64-2.34S27.25,127.49,23.7,123s-13.31-5-15.79-10.17S11.07,99.8,9.79,94.18C8.55,88.74,0,84,0,78.15s8.55-10.59,9.79-16c1.28-5.61-4.33-13.62-1.88-18.69S20.17,37.69,23.7,33.26s2-14.1,6.42-17.66,13.49.15,18.64-2.33S56.58,1.42,62.2.14c5.44-1.23,12,6,17.8,6s12.36-7.24,17.8-6c5.62,1.28,8.38,10.68,13.44,13.13s14.22-1.2,18.64,2.34,2.87,13.21,6.42,17.65,13.31,5,15.79,10.17-3.16,13.08-1.88,18.69C151.45,67.56,160,72.34,160,78.15Z"/><path class="cls-2" d="M95.16,149.83c-2.49,0-5.14-1.61-7.71-3.18s-5.12-3.12-7.45-3.12-4.93,1.59-7.45,3.12c-3,1.82-6.06,3.69-8.88,3s-5-3.77-6.88-6.76c-1.56-2.42-3.17-4.91-5.16-5.87s-5-.69-7.94-.41c-3.51.35-7.14.7-9.44-1.14s-2.78-5.48-3.22-9c-.37-2.88-.74-5.86-2.15-7.62s-4.2-2.76-6.91-3.75c-3.34-1.21-6.79-2.47-8.09-5.16s-.12-6.08,1-9.41c.93-2.78,1.89-5.65,1.38-7.88s-2.54-4.24-4.53-6.28c-2.51-2.57-5.1-5.22-5.1-8.28s2.59-5.71,5.1-8.27c2-2,4-4.16,4.53-6.28s-.45-5.11-1.38-7.88c-1.11-3.33-2.26-6.78-1-9.41s4.75-4,8.09-5.16c2.71-1,5.52-2,6.91-3.76s1.78-4.73,2.15-7.61c.44-3.51.9-7.14,3.22-9s5.93-1.49,9.44-1.15c2.9.29,5.9.58,7.94-.4s3.6-3.46,5.16-5.87c1.93-3,3.94-6.1,6.88-6.77s5.9,1.24,8.88,3.05c2.52,1.54,5.12,3.13,7.45,3.13s4.93-1.59,7.45-3.13c3-1.81,6.07-3.69,8.88-3.05s5,3.77,6.88,6.77c1.56,2.41,3.17,4.91,5.16,5.87s5,.69,7.94.4c3.51-.34,7.14-.7,9.44,1.15s2.78,5.48,3.22,9c.37,2.88.74,5.85,2.15,7.61s4.2,2.77,6.91,3.76c3.34,1.21,6.79,2.46,8.09,5.16s.12,6.08-1,9.41c-.93,2.77-1.89,5.64-1.38,7.88s2.54,4.23,4.53,6.28c2.51,2.56,5.1,5.22,5.1,8.27s-2.59,5.71-5.1,8.28c-2,2-4.05,4.15-4.53,6.28s.45,5.1,1.38,7.88c1.11,3.33,2.26,6.77,1,9.41s-4.75,4-8.09,5.16c-2.71,1-5.52,2-6.91,3.75s-1.78,4.74-2.15,7.62c-.44,3.51-.9,7.14-3.22,9s-5.93,1.49-9.44,1.14c-2.9-.28-5.9-.58-7.94.41s-3.6,3.45-5.16,5.87c-1.93,3-3.94,6.09-6.88,6.76A5.18,5.18,0,0,1,95.16,149.83ZM80,142.53c2.61,0,5.34,1.66,8,3.27,2.94,1.79,5.72,3.48,8.14,2.93s4.43-3.51,6.26-6.34c1.63-2.53,3.32-5.14,5.56-6.22s5.44-.8,8.48-.5c3.31.32,6.73.66,8.72-.93s2.43-5,2.85-8.34c.38-3,.77-6.13,2.35-8.11s4.52-3,7.36-4.07c3.15-1.14,6.41-2.33,7.53-4.66s0-5.51-1-8.65c-1-2.91-2-5.91-1.41-8.42s2.71-4.62,4.8-6.76c2.36-2.42,4.81-4.93,4.81-7.58s-2.45-5.15-4.81-7.58c-2.09-2.14-4.25-4.35-4.8-6.75s.44-5.51,1.41-8.42c1-3.14,2.14-6.39,1-8.66s-4.38-3.51-7.53-4.65c-2.84-1-5.79-2.11-7.36-4.07s-2-5.1-2.35-8.12c-.42-3.31-.85-6.73-2.85-8.33s-5.41-1.25-8.72-.93c-3,.3-6.18.61-8.47-.5s-3.94-3.7-5.57-6.23c-1.83-2.83-3.72-5.75-6.26-6.33S90.91,8.72,88,10.51c-2.63,1.61-5.36,3.27-8,3.27s-5.34-1.66-8-3.27C69.09,8.72,66.32,7,63.89,7.58s-4.43,3.5-6.26,6.33c-1.63,2.53-3.32,5.15-5.56,6.23s-5.44.8-8.48.5c-3.31-.33-6.73-.66-8.72.93s-2.43,5-2.85,8.33c-.38,3-.77,6.14-2.35,8.12s-4.52,3-7.36,4.07c-3.15,1.14-6.41,2.32-7.53,4.65s0,5.52,1,8.66c1,2.91,2,5.91,1.41,8.42s-2.71,4.61-4.8,6.75C10.07,73,7.62,75.5,7.62,78.15s2.45,5.16,4.81,7.58c2.09,2.14,4.25,4.36,4.8,6.76s-.44,5.51-1.41,8.42c-1.05,3.14-2.14,6.38-1,8.65s4.38,3.51,7.53,4.66c2.84,1,5.79,2.1,7.36,4.07s2,5.1,2.35,8.11c.42,3.32.85,6.74,2.85,8.34s5.41,1.25,8.72.93c3-.3,6.18-.61,8.47.5s3.94,3.69,5.57,6.22c1.83,2.83,3.72,5.76,6.26,6.34s5.2-1.14,8.14-2.93C74.66,144.19,77.39,142.53,80,142.53Z"/></g></g></svg>