<svg xmlns="http://www.w3.org/2000/svg" viewBox="0 0 1102 2"><defs><style>.cls-1{fill:#9e9c9c;}</style></defs><g id="Layer_2" data-name="Layer 2"><g id="レイヤー_3" data-name="レイヤー 3"><path class="cls-1" d="M1101,2h-2a1,1,0,0,1,0-2h2a1,1,0,0,1,0,2Zm-8,0h-3a1,1,0,0,1,0-2h3a1,1,0,0,1,0,2Zm-9,0h-3a1,1,0,0,1,0-2h3a1,1,0,0,1,0,2Zm-9,0h-3a1,1,0,0,1,0-2h3a1,1,0,0,1,0,2Zm-9,0h-3a1,1,0,0,1,0-2h3a1,1,0,0,1,0,2Zm-9,0h-3a1,1,0,0,1,0-2h3a1,1,0,0,1,0,2Zm-9,0h-3a1,1,0,0,1,0-2h3a1,1,0,0,1,0,2Zm-9,0h-3a1,1,0,0,1,0-2h3a1,1,0,0,1,0,2Zm-9,0h-3a1,1,0,0,1,0-2h3a1,1,0,0,1,0,2Zm-9,0h-3a1,1,0,0,1,0-2h3a1,1,0,0,1,0,2Zm-9,0h-3a1,1,0,0,1,0-2h3a1,1,0,0,1,0,2Zm-9,0h-3a1,1,0,0,1,0-2h3a1,1,0,0,1,0,2Zm-9,0h-3a1,1,0,0,1,0-2h3a1,1,0,0,1,0,2Zm-9,0h-3a1,1,0,0,1,0-2h3a1,1,0,0,1,0,2Zm-9,0h-3a1,1,0,0,1,0-2h3a1,1,0,0,1,0,2Zm-9,0h-3a1,1,0,0,1,0-2h3a1,1,0,0,1,0,2Zm-9,0h-3a1,1,0,0,1,0-2h3a1,1,0,0,1,0,2Zm-9,0h-3a1,1,0,0,1,0-2h3a1,1,0,0,1,0,2Zm-9,0h-3a1,1,0,0,1,0-2h3a1,1,0,0,1,0,2Zm-9,0h-3a1,1,0,0,1,0-2h3a1,1,0,0,1,0,2Zm-9,0h-3a1,1,0,0,1,0-2h3a1,1,0,0,1,0,2Zm-9,0h-3a1,1,0,0,1,0-2h3a1,1,0,0,1,0,2Zm-9,0h-3a1,1,0,0,1,0-2h3a1,1,0,0,1,0,2Zm-9,0h-3a1,1,0,0,1,0-2h3a1,1,0,0,1,0,2Zm-9,0h-3a1,1,0,0,1,0-2h3a1,1,0,0,1,0,2Zm-9,0h-3a1,1,0,0,1,0-2h3a1,1,0,0,1,0,2Zm-9,0h-3a1,1,0,0,1,0-2h3a1,1,0,0,1,0,2Zm-9,0h-3a1,1,0,0,1,0-2h3a1,1,0,0,1,0,2Zm-9,0h-3a1,1,0,0,1,0-2h3a1,1,0,0,1,0,2Zm-9,0h-3a1,1,0,0,1,0-2h3a1,1,0,0,1,0,2Zm-9,0h-3a1,1,0,0,1,0-2h3a1,1,0,0,1,0,2Zm-9,0h-3a1,1,0,0,1,0-2h3a1,1,0,0,1,0,2Zm-9,0h-3a1,1,0,0,1,0-2h3a1,1,0,0,1,0,2Zm-9,0h-3a1,1,0,0,1,0-2h3a1,1,0,0,1,0,2Zm-9,0h-3a1,1,0,0,1,0-2h3a1,1,0,0,1,0,2Zm-9,0h-3a1,1,0,0,1,0-2h3a1,1,0,0,1,0,2Zm-9,0h-3a1,1,0,0,1,0-2h3a1,1,0,0,1,0,2Zm-9,0h-3a1,1,0,0,1,0-2h3a1,1,0,0,1,0,2Zm-9,0h-3a1,1,0,0,1,0-2h3a1,1,0,0,1,0,2Zm-9,0h-3a1,1,0,0,1,0-2h3a1,1,0,0,1,0,2Zm-9,0h-3a1,1,0,0,1,0-2h3a1,1,0,0,1,0,2Zm-9,0h-3a1,1,0,0,1,0-2h3a1,1,0,0,1,0,2Zm-9,0h-3a1,1,0,0,1,0-2h3a1,1,0,0,1,0,2Zm-9,0h-3a1,1,0,0,1,0-2h3a1,1,0,0,1,0,2Zm-9,0h-3a1,1,0,0,1,0-2h3a1,1,0,0,1,0,2Zm-9,0h-3a1,1,0,0,1,0-2h3a1,1,0,0,1,0,2Zm-9,0h-3a1,1,0,0,1,0-2h3a1,1,0,0,1,0,2Zm-9,0h-3a1,1,0,0,1,0-2h3a1,1,0,0,1,0,2Zm-9,0h-3a1,1,0,0,1,0-2h3a1,1,0,0,1,0,2Zm-9,0h-3a1,1,0,0,1,0-2h3a1,1,0,0,1,0,2Zm-9,0h-3a1,1,0,0,1,0-2h3a1,1,0,0,1,0,2Zm-9,0h-3a1,1,0,0,1,0-2h3a1,1,0,0,1,0,2Zm-9,0h-3a1,1,0,0,1,0-2h3a1,1,0,0,1,0,2Zm-9,0h-3a1,1,0,0,1,0-2h3a1,1,0,0,1,0,2Zm-9,0h-3a1,1,0,0,1,0-2h3a1,1,0,0,1,0,2Zm-9,0h-3a1,1,0,0,1,0-2h3a1,1,0,0,1,0,2Zm-9,0h-3a1,1,0,0,1,0-2h3a1,1,0,0,1,0,2Zm-9,0h-3a1,1,0,0,1,0-2h3a1,1,0,0,1,0,2Zm-9,0h-3a1,1,0,0,1,0-2h3a1,1,0,0,1,0,2Zm-9,0h-3a1,1,0,0,1,0-2h3a1,1,0,0,1,0,2Zm-9,0h-3a1,1,0,0,1,0-2h3a1,1,0,0,1,0,2Zm-9,0h-3a1,1,0,0,1,0-2h3a1,1,0,0,1,0,2Zm-9,0h-3a1,1,0,0,1,0-2h3a1,1,0,0,1,0,2Zm-9,0h-3a1,1,0,0,1,0-2h3a1,1,0,0,1,0,2Zm-9,0h-3a1,1,0,0,1,0-2h3a1,1,0,0,1,0,2Zm-9,0h-3a1,1,0,0,1,0-2h3a1,1,0,0,1,0,2Zm-9,0h-3a1,1,0,0,1,0-2h3a1,1,0,0,1,0,2Zm-9,0h-3a1,1,0,0,1,0-2h3a1,1,0,0,1,0,2Zm-9,0h-3a1,1,0,0,1,0-2h3a1,1,0,0,1,0,2Zm-9,0h-3a1,1,0,0,1,0-2h3a1,1,0,0,1,0,2Zm-9,0h-3a1,1,0,0,1,0-2h3a1,1,0,0,1,0,2Zm-9,0h-3a1,1,0,0,1,0-2h3a1,1,0,0,1,0,2Zm-9,0h-3a1,1,0,0,1,0-2h3a1,1,0,0,1,0,2Zm-9,0h-3a1,1,0,0,1,0-2h3a1,1,0,0,1,0,2Zm-9,0h-3a1,1,0,0,1,0-2h3a1,1,0,0,1,0,2Zm-9,0h-3a1,1,0,0,1,0-2h3a1,1,0,0,1,0,2Zm-9,0h-3a1,1,0,0,1,0-2h3a1,1,0,0,1,0,2Zm-9,0h-3a1,1,0,0,1,0-2h3a1,1,0,0,1,0,2Zm-9,0h-3a1,1,0,0,1,0-2h3a1,1,0,0,1,0,2Zm-9,0h-3a1,1,0,0,1,0-2h3a1,1,0,0,1,0,2Zm-9,0h-3a1,1,0,0,1,0-2h3a1,1,0,0,1,0,2Zm-9,0h-3a1,1,0,0,1,0-2h3a1,1,0,0,1,0,2Zm-9,0h-3a1,1,0,0,1,0-2h3a1,1,0,0,1,0,2Zm-9,0h-3a1,1,0,0,1,0-2h3a1,1,0,0,1,0,2Zm-9,0h-3a1,1,0,0,1,0-2h3a1,1,0,0,1,0,2Zm-9,0h-3a1,1,0,0,1,0-2h3a1,1,0,0,1,0,2Zm-9,0h-3a1,1,0,0,1,0-2h3a1,1,0,0,1,0,2Zm-9,0h-3a1,1,0,0,1,0-2h3a1,1,0,0,1,0,2Zm-9,0h-3a1,1,0,0,1,0-2h3a1,1,0,0,1,0,2Zm-9,0h-3a1,1,0,0,1,0-2h3a1,1,0,0,1,0,2Zm-9,0h-3a1,1,0,0,1,0-2h3a1,1,0,0,1,0,2Zm-9,0h-3a1,1,0,0,1,0-2h3a1,1,0,0,1,0,2Zm-9,0h-3a1,1,0,0,1,0-2h3a1,1,0,0,1,0,2Zm-9,0h-3a1,1,0,0,1,0-2h3a1,1,0,0,1,0,2Zm-9,0h-3a1,1,0,0,1,0-2h3a1,1,0,0,1,0,2Zm-9,0h-3a1,1,0,0,1,0-2h3a1,1,0,0,1,0,2Zm-9,0h-3a1,1,0,0,1,0-2h3a1,1,0,0,1,0,2Zm-9,0h-3a1,1,0,0,1,0-2h3a1,1,0,0,1,0,2Zm-9,0h-3a1,1,0,0,1,0-2h3a1,1,0,0,1,0,2Zm-9,0h-3a1,1,0,0,1,0-2h3a1,1,0,0,1,0,2Zm-9,0h-3a1,1,0,0,1,0-2h3a1,1,0,0,1,0,2Zm-9,0h-3a1,1,0,0,1,0-2h3a1,1,0,0,1,0,2Zm-9,0h-3a1,1,0,0,1,0-2h3a1,1,0,0,1,0,2Zm-9,0h-3a1,1,0,0,1,0-2h3a1,1,0,0,1,0,2Zm-9,0h-3a1,1,0,0,1,0-2h3a1,1,0,0,1,0,2Zm-9,0h-3a1,1,0,0,1,0-2h3a1,1,0,0,1,0,2Zm-9,0h-3a1,1,0,0,1,0-2h3a1,1,0,0,1,0,2Zm-9,0h-3a1,1,0,0,1,0-2h3a1,1,0,0,1,0,2Zm-9,0h-3a1,1,0,0,1,0-2h3a1,1,0,0,1,0,2Zm-9,0h-3a1,1,0,0,1,0-2h3a1,1,0,0,1,0,2Zm-9,0h-3a1,1,0,0,1,0-2h3a1,1,0,0,1,0,2Zm-9,0h-3a1,1,0,0,1,0-2h3a1,1,0,0,1,0,2ZM94,2H91a1,1,0,0,1,0-2h3a1,1,0,0,1,0,2ZM85,2H82a1,1,0,0,1,0-2h3a1,1,0,0,1,0,2ZM76,2H73a1,1,0,0,1,0-2h3a1,1,0,0,1,0,2ZM67,2H64a1,1,0,0,1,0-2h3a1,1,0,0,1,0,2ZM58,2H55a1,1,0,0,1,0-2h3a1,1,0,0,1,0,2ZM49,2H46a1,1,0,0,1,0-2h3a1,1,0,0,1,0,2ZM40,2H37a1,1,0,0,1,0-2h3a1,1,0,0,1,0,2ZM31,2H28a1,1,0,0,1,0-2h3a1,1,0,0,1,0,2ZM22,2H19a1,1,0,0,1,0-2h3a1,1,0,0,1,0,2ZM13,2H10a1,1,0,0,1,0-2h3a1,1,0,0,1,0,2ZM4,2H1A1,1,0,0,1,1,0H4A1,1,0,0,1,4,2Z"/></g></g></svg>