<svg xmlns="http://www.w3.org/2000/svg" viewBox="0 0 213.57 24.78"><defs><style>.cls-1{fill:#fff;}</style></defs><g id="Layer_2" data-name="Layer 2"><g id="レイヤー_3" data-name="レイヤー 3"><path class="cls-1" d="M37.06,11.19a20.48,20.48,0,0,1-.45,4.21,10.56,10.56,0,0,1-.92,3,7.17,7.17,0,0,1-1.51,1.81,5.62,5.62,0,0,1-1.7.84,10.12,10.12,0,0,1-5.35,0,5.36,5.36,0,0,1-1.67-.84A6,6,0,0,1,24,18.4a13.65,13.65,0,0,1-1-3,28,28,0,0,1-.38-4.21A28.42,28.42,0,0,1,22.92,7a12.9,12.9,0,0,1,1-3A4.61,4.61,0,0,1,25.46,2.2a4.63,4.63,0,0,1,1.67-.91A9.3,9.3,0,0,1,29.75.94c.35,0,.67,0,1,.05A7.26,7.26,0,0,1,34.18,2.2,5.68,5.68,0,0,1,35.69,4a9.76,9.76,0,0,1,.92,3A20.74,20.74,0,0,1,37.06,11.19ZM31.83,20a5.79,5.79,0,0,0,1.91-2.51,12.66,12.66,0,0,0,.76-3.13,24.24,24.24,0,0,0,.13-3.19,20.17,20.17,0,0,0-.16-3.64,17,17,0,0,0-.62-2.3,6.93,6.93,0,0,0-1.19-2A3.36,3.36,0,0,0,30.88,2a5.91,5.91,0,0,0-1.37-.17,2.94,2.94,0,0,0-1.35.27A5.28,5.28,0,0,0,26,4.58a11.33,11.33,0,0,0-.89,3.24c-.11,1.13-.19,2.24-.19,3.37a24.87,24.87,0,0,0,.3,3.76,9.67,9.67,0,0,0,1.94,4.48,2.66,2.66,0,0,0,1.89,1h.76A4.78,4.78,0,0,0,31.83,20Z"/><path class="cls-1" d="M51.22,15.92V21.1H48.89V15.92H39.23v-.49L48.89,1.34h2.33V15.43h3.56v.49Zm-2.33-11L41.77,15.35v.08h7.12Z"/><path class="cls-1" d="M71.52,12.06a7.88,7.88,0,0,1,.33,2.51,8.24,8.24,0,0,1-.35,2.67,5.41,5.41,0,0,1-1.33,2.29,6,6,0,0,1-2.53,1.62,8.64,8.64,0,0,1-3,.44,8.55,8.55,0,0,1-3-.6,5.66,5.66,0,0,1-2.4-1.81A8.38,8.38,0,0,1,58,15.94a15.41,15.41,0,0,1-.33-3.51c0-1,.06-2,.14-2.94a18.4,18.4,0,0,1,.48-2.91,9.75,9.75,0,0,1,1.14-2.7,6,6,0,0,1,5.18-2.81h1.86a9.9,9.9,0,0,1,4,.84v.56H68.58a8.39,8.39,0,0,0-3-.83,4.57,4.57,0,0,0-2.25.86,6.62,6.62,0,0,0-1.7,1.76,10.49,10.49,0,0,0-1,2.51,18.17,18.17,0,0,0-.54,2.64.47.47,0,0,1,.38-.19A7.42,7.42,0,0,1,63.7,8a9.75,9.75,0,0,1,3.53.16,6.49,6.49,0,0,1,3,1.73A5.5,5.5,0,0,1,71.52,12.06ZM68,19.18a6.94,6.94,0,0,0,1.49-4.61,7.86,7.86,0,0,0-.59-3,4.77,4.77,0,0,0-2-2.24A4.42,4.42,0,0,0,64.24,9a4.67,4.67,0,0,0-2.41,1.22A5.06,5.06,0,0,0,60.16,14a3.77,3.77,0,0,0,.08,1.13,9.86,9.86,0,0,0,.27,1.7,12.17,12.17,0,0,0,1,1.87,3.44,3.44,0,0,0,1.67,1.4,4.19,4.19,0,0,0,1.81.57A4.31,4.31,0,0,0,68,19.18Z"/><path class="cls-1" d="M83,12.89v.54H75.7v-.54Z"/><path class="cls-1" d="M97.42,21.05H84.68v-.6c1.43-1.29,2.83-2.67,4.18-4.05A38.69,38.69,0,0,0,92.64,12a12.26,12.26,0,0,0,1.54-2.62,8.19,8.19,0,0,0,.62-2.91A5.83,5.83,0,0,0,94.26,4a3.86,3.86,0,0,0-1.65-1.83,3.23,3.23,0,0,0-2.4-.35,8.73,8.73,0,0,0-1.7.48c-.27.14-.51.3-.76.46a2.16,2.16,0,0,1-.81.38H85.05V2.56a1,1,0,0,1,.38-.36c.16-.08.33-.13.49-.21l.48-.22a14.93,14.93,0,0,1,1.65-.48A10.38,10.38,0,0,1,90.67,1a5.86,5.86,0,0,1,.73,0,8.22,8.22,0,0,1,2,.25,5,5,0,0,1,2.43,1.26,5.06,5.06,0,0,1,1,1.87,6.63,6.63,0,0,1,.3,2.08,9.14,9.14,0,0,1-.62,3A13.93,13.93,0,0,1,95,12.14a42.11,42.11,0,0,1-3.65,4.34c-1.32,1.35-2.67,2.68-4,4H97.42Z"/><path class="cls-1" d="M115,11.19a20.48,20.48,0,0,1-.45,4.21,10.56,10.56,0,0,1-.92,3,7.17,7.17,0,0,1-1.51,1.81,5.62,5.62,0,0,1-1.7.84,10.12,10.12,0,0,1-5.35,0,5.36,5.36,0,0,1-1.67-.84,6,6,0,0,1-1.51-1.81,13.65,13.65,0,0,1-1-3,28,28,0,0,1-.38-4.21A28.42,28.42,0,0,1,100.81,7a12.9,12.9,0,0,1,1-3,4.61,4.61,0,0,1,1.51-1.79A4.63,4.63,0,0,1,105,1.29a9.35,9.35,0,0,1,2.62-.35c.35,0,.67,0,1,.05a7.26,7.26,0,0,1,3.4,1.21A5.68,5.68,0,0,1,113.58,4a9.76,9.76,0,0,1,.92,3A20.74,20.74,0,0,1,115,11.19ZM109.72,20a5.79,5.79,0,0,0,1.91-2.51,12.66,12.66,0,0,0,.76-3.13,26.1,26.1,0,0,0,.14-3.19,20.18,20.18,0,0,0-.17-3.64,17,17,0,0,0-.62-2.3,6.93,6.93,0,0,0-1.19-2A3.36,3.36,0,0,0,108.77,2a5.84,5.84,0,0,0-1.37-.17,2.94,2.94,0,0,0-1.35.27,5.28,5.28,0,0,0-2.19,2.46A11.66,11.66,0,0,0,103,7.82c-.11,1.13-.19,2.24-.19,3.37a24.87,24.87,0,0,0,.3,3.76A9.67,9.67,0,0,0,105,19.43a2.66,2.66,0,0,0,1.89,1h.76A4.78,4.78,0,0,0,109.72,20Z"/><path class="cls-1" d="M132.55,11.19a19.82,19.82,0,0,1-.46,4.21,10.24,10.24,0,0,1-.91,3,7.17,7.17,0,0,1-1.51,1.81,5.56,5.56,0,0,1-1.71.84,10.08,10.08,0,0,1-5.34,0,5.36,5.36,0,0,1-1.67-.84,6.14,6.14,0,0,1-1.52-1.81,14.16,14.16,0,0,1-1-3,28,28,0,0,1-.38-4.21A28.42,28.42,0,0,1,118.41,7a13.37,13.37,0,0,1,1-3A4.72,4.72,0,0,1,121,2.2a4.63,4.63,0,0,1,1.67-.91,9.3,9.3,0,0,1,2.62-.35c.35,0,.67,0,1,.05a7.26,7.26,0,0,1,3.41,1.21A5.68,5.68,0,0,1,131.18,4a9.47,9.47,0,0,1,.91,3A20.07,20.07,0,0,1,132.55,11.19ZM127.32,20a5.79,5.79,0,0,0,1.91-2.51,12.66,12.66,0,0,0,.76-3.13,24.24,24.24,0,0,0,.13-3.19A20.17,20.17,0,0,0,130,7.55a17,17,0,0,0-.62-2.3,6.93,6.93,0,0,0-1.19-2A3.4,3.4,0,0,0,126.37,2,5.91,5.91,0,0,0,125,1.85a2.94,2.94,0,0,0-1.35.27,5.28,5.28,0,0,0-2.19,2.46,11.33,11.33,0,0,0-.89,3.24c-.11,1.13-.19,2.24-.19,3.37a24.87,24.87,0,0,0,.3,3.76,9.57,9.57,0,0,0,1.94,4.48,2.66,2.66,0,0,0,1.89,1h.76A4.81,4.81,0,0,0,127.32,20Z"/><path class="cls-1" d="M143.84,12.89v.54h-7.29v-.54Z"/><path class="cls-1" d="M161,6.33a18.42,18.42,0,0,1,.32,3.38,26.77,26.77,0,0,1-.57,5.51,9.52,9.52,0,0,1-1.16,3.29,5,5,0,0,1-2.62,2.24,11,11,0,0,1-4.34.73,12.25,12.25,0,0,1-4.35-1v-.54h1.41a12.22,12.22,0,0,1,2.13.51,4,4,0,0,0,2.18.14,3.76,3.76,0,0,0,1.76-.76A5.85,5.85,0,0,0,157,18.4a6.35,6.35,0,0,0,1.14-2.35c.1-.48.24-1,.37-1.48V14a3.45,3.45,0,0,0,0-.54,1.21,1.21,0,0,1,.16-.52.35.35,0,0,1-.19.19,7.91,7.91,0,0,1-3.32,1.25,10,10,0,0,1-3.56-.17,6.33,6.33,0,0,1-3-1.72,6.27,6.27,0,0,1-1.24-2.35A9.57,9.57,0,0,1,147,7.55a6.34,6.34,0,0,1,1.78-4.7,5.83,5.83,0,0,1,2.54-1.54,9.57,9.57,0,0,1,2.75-.43h.22a9,9,0,0,1,2.94.6,6,6,0,0,1,2.43,1.75A8.62,8.62,0,0,1,161,6.33Zm-3.81,5.81a5.66,5.66,0,0,0,1.59-4.05V7.44a8.81,8.81,0,0,0-.19-.92,3.21,3.21,0,0,0-.29-1.32A3.74,3.74,0,0,0,157.6,4a4.7,4.7,0,0,0-.92-1.25,3.79,3.79,0,0,0-2.94-.89A4.44,4.44,0,0,0,151,3.23a4.61,4.61,0,0,0-1.19,2,6.78,6.78,0,0,0-.32,2.32,7.9,7.9,0,0,0,.29,2.37A6,6,0,0,0,150.85,12a3.76,3.76,0,0,0,3,1.51A4.82,4.82,0,0,0,157.14,12.14Z"/><path class="cls-1" d="M178.12,6.33a17.6,17.6,0,0,1,.33,3.38,26.77,26.77,0,0,1-.57,5.51,9.73,9.73,0,0,1-1.16,3.29,5,5,0,0,1-2.62,2.24,11,11,0,0,1-4.34.73,12.15,12.15,0,0,1-4.35-1v-.54h1.4a12,12,0,0,1,2.13.51,4,4,0,0,0,2.19.14,3.81,3.81,0,0,0,1.76-.76,5.85,5.85,0,0,0,1.32-1.4,6.18,6.18,0,0,0,1.13-2.35c.11-.48.25-1,.38-1.48V14a3.45,3.45,0,0,0,0-.54,1.09,1.09,0,0,1,.16-.52.35.35,0,0,1-.19.19,8,8,0,0,1-3.32,1.25,9.94,9.94,0,0,1-3.56-.17,6.33,6.33,0,0,1-3.05-1.72,6.13,6.13,0,0,1-1.24-2.35,9.21,9.21,0,0,1-.36-2.62A6.34,6.34,0,0,1,166,2.85a5.85,5.85,0,0,1,2.53-1.54,9.63,9.63,0,0,1,2.76-.43h.21a8.86,8.86,0,0,1,2.94.6,5.84,5.84,0,0,1,2.43,1.75A8.44,8.44,0,0,1,178.12,6.33Zm-3.8,5.81a5.66,5.66,0,0,0,1.59-4.05V7.44a8.81,8.81,0,0,0-.19-.92,3.22,3.22,0,0,0-.3-1.32A3.72,3.72,0,0,0,174.78,4a4.93,4.93,0,0,0-.92-1.25,3.81,3.81,0,0,0-2.94-.89,4.44,4.44,0,0,0-2.78,1.38,4.52,4.52,0,0,0-1.19,2,6.79,6.79,0,0,0-.33,2.32,7.91,7.91,0,0,0,.3,2.37A5.79,5.79,0,0,0,168,12a3.73,3.73,0,0,0,3,1.51A4.82,4.82,0,0,0,174.32,12.14Z"/><path class="cls-1" d="M196.11,11.19a19.82,19.82,0,0,1-.46,4.21,10.25,10.25,0,0,1-.92,3,6.78,6.78,0,0,1-1.51,1.81,5.51,5.51,0,0,1-1.7.84,10.08,10.08,0,0,1-5.34,0,5.52,5.52,0,0,1-1.68-.84A6.11,6.11,0,0,1,183,18.4a13.12,13.12,0,0,1-1-3,25.64,25.64,0,0,1-.38-4.21A26,26,0,0,1,182,7a12.42,12.42,0,0,1,1-3A4.69,4.69,0,0,1,184.5,2.2a4.75,4.75,0,0,1,1.68-.91A9.25,9.25,0,0,1,188.8.94c.35,0,.67,0,1,.05a7.22,7.22,0,0,1,3.4,1.21A5.55,5.55,0,0,1,194.73,4a9.49,9.49,0,0,1,.92,3A20.07,20.07,0,0,1,196.11,11.19ZM190.87,20a5.89,5.89,0,0,0,1.92-2.51,12.66,12.66,0,0,0,.76-3.13,26.1,26.1,0,0,0,.13-3.19,21.13,21.13,0,0,0-.16-3.64,17,17,0,0,0-.62-2.3,7.16,7.16,0,0,0-1.19-2A3.4,3.4,0,0,0,189.93,2a5.92,5.92,0,0,0-1.38-.17,3,3,0,0,0-1.35.27A5.2,5.2,0,0,0,185,4.58a11.33,11.33,0,0,0-.89,3.24c-.11,1.13-.19,2.24-.19,3.37a24.86,24.86,0,0,0,.29,3.76,9.58,9.58,0,0,0,2,4.48,2.64,2.64,0,0,0,1.89,1h.75A4.74,4.74,0,0,0,190.87,20Z"/><path class="cls-1" d="M213.24,12.06a7.88,7.88,0,0,1,.33,2.51,8.24,8.24,0,0,1-.35,2.67,5.51,5.51,0,0,1-1.33,2.29,6,6,0,0,1-2.53,1.62,8.67,8.67,0,0,1-3,.44,8.55,8.55,0,0,1-3-.6,5.66,5.66,0,0,1-2.4-1.81,8.38,8.38,0,0,1-1.35-3.24,15.41,15.41,0,0,1-.33-3.51c0-1,.06-2,.14-2.94A18.4,18.4,0,0,1,200,6.58a9.75,9.75,0,0,1,1.14-2.7,6,6,0,0,1,5.18-2.81h1.86a9.9,9.9,0,0,1,4.05.84v.56H210.3a8.39,8.39,0,0,0-3-.83,4.57,4.57,0,0,0-2.25.86,6.62,6.62,0,0,0-1.7,1.76,10.49,10.49,0,0,0-1.05,2.51,18.17,18.17,0,0,0-.54,2.64.47.47,0,0,1,.38-.19A7.42,7.42,0,0,1,205.42,8a9.75,9.75,0,0,1,3.53.16A6.49,6.49,0,0,1,212,9.9,5.5,5.5,0,0,1,213.24,12.06Zm-3.51,7.12a6.94,6.94,0,0,0,1.49-4.61,7.86,7.86,0,0,0-.59-3,4.77,4.77,0,0,0-2-2.24A4.42,4.42,0,0,0,206,9a4.67,4.67,0,0,0-2.41,1.22A5.06,5.06,0,0,0,201.88,14a3.77,3.77,0,0,0,.08,1.13,9.86,9.86,0,0,0,.27,1.7,12.17,12.17,0,0,0,1,1.87,3.44,3.44,0,0,0,1.67,1.4,4.19,4.19,0,0,0,1.81.57A4.31,4.31,0,0,0,209.73,19.18Z"/><path class="cls-1" d="M1.7,1.05C0,2.15-.34,5.61.3,8.42a25.81,25.81,0,0,0,3.36,7.9A26.55,26.55,0,0,0,9.5,22.6c2.31,1.74,5.6,2.84,7.3,1.74A8.76,8.76,0,0,0,19,22l-.91-1.41-2.52-3.88c-.19-.29-1.36,0-2,.31a5.69,5.69,0,0,0-1.55,1.68c-.55.32-1,0-2-.44C8.91,17.69,7.58,16,6.52,14.46s-2-3.5-2-4.8c0-1.06-.11-1.61.41-2A5.71,5.71,0,0,0,7.1,7c.55-.41,1.26-1.37,1.08-1.66L5.66,1.41,4.75,0A8.75,8.75,0,0,0,1.7,1.05Z"/></g></g></svg>