<svg xmlns="http://www.w3.org/2000/svg" viewBox="0 0 229.09 101.38"><defs><style>.cls-1{fill:#fff;}.cls-2{fill:#3e3a39;}</style></defs><g id="Layer_2" data-name="Layer 2"><g id="レイヤー_3" data-name="レイヤー 3"><path class="cls-1" d="M220.28,63.56c-20.41,21.12-51.2,21.58-78.6,22.42-5.85.18-11.71.36-17.56.5a119.26,119.26,0,0,1-4.82,14.4c-2.93-5.47-3.91-9.16-6.27-14.15-2.23,0-4.45,0-6.68,0-9.62,0-21.53-.2-31.15-.79C54.81,84.72,33.15,82.84,16,70.58,5.74,63.26-2,51.82,1.26,38.71,5.36,22,26,13.47,40.78,9,66.48,1.25,94.15-.37,121,.88,149.88,2.24,182,4,208.43,17c9.37,4.63,17.6,12.51,19.78,23.39C229.87,48.74,226.17,57.46,220.28,63.56Z"/><path class="cls-2" d="M119.3,101.38a.54.54,0,0,1-.44-.26A79.44,79.44,0,0,1,115,92.61c-.68-1.7-1.39-3.46-2.29-5.38-2.12,0-4.24,0-6.36,0-11.47,0-22.84-.28-31.18-.79C53.38,85.14,32.43,82.94,15.7,71,9.85,66.81-3.32,55.28.78,38.59,4,25.68,17.36,15.57,40.64,8.53c23-6.94,49.27-9.6,80.35-8.14,27,1.26,60.58,2.84,87.66,16.2C215,19.72,226,27,228.7,40.33c1.55,7.79-1.54,16.82-8.06,23.58h0c-20.09,20.79-50.38,21.71-77.1,22.52l-2.45.07c-5.53.17-11.05.34-16.58.47a120.69,120.69,0,0,1-4.77,14.15A.51.51,0,0,1,119.3,101.38ZM113,86.23a.5.5,0,0,1,.45.28c1,2.06,1.72,3.93,2.45,5.73.93,2.31,1.89,4.69,3.32,7.48a130.37,130.37,0,0,0,4.38-13.36.51.51,0,0,1,.47-.38c5.66-.13,11.31-.31,17-.48l2.45-.07c26.53-.81,56.6-1.72,76.41-22.22h0c6.3-6.52,9.29-15.21,7.8-22.68-2.59-13-13.34-20-19.51-23C181.31,4.22,147.84,2.65,120.94,1.38c-31-1.45-57.14,1.2-80,8.11S4.83,26.29,1.75,38.83C-2.2,54.93,10.6,66.11,16.29,70.18c16.51,11.79,37.3,14,58.94,15.3,8.33.51,19.65.8,31.12.79,2.23,0,4.45,0,6.67,0ZM220.28,63.56h0Z"/></g></g></svg>