<svg xmlns="http://www.w3.org/2000/svg" viewBox="0 0 83.02 80"><defs><style>.cls-1{fill:#e6e6e6;}</style></defs><g id="Layer_2" data-name="Layer 2"><g id="レイヤー_3" data-name="レイヤー 3"><path class="cls-1" d="M51.62,26.82H29.85a.68.68,0,0,1,0-1.35H51.62a.68.68,0,1,1,0,1.35Z"/><path class="cls-1" d="M22.45,26.82H.67a.68.68,0,0,1,0-1.35H22.45a.68.68,0,1,1,0,1.35Z"/><path class="cls-1" d="M26.15,52.3a.67.67,0,0,1-.67-.68V29.85a.67.67,0,0,1,.67-.68.68.68,0,0,1,.68.68V51.62A.68.68,0,0,1,26.15,52.3Z"/><path class="cls-1" d="M26.15,23.12a.67.67,0,0,1-.67-.67V.67A.67.67,0,0,1,26.15,0a.68.68,0,0,1,.68.67V22.45A.68.68,0,0,1,26.15,23.12Z"/><path class="cls-1" d="M36.41,37.08a.67.67,0,0,1-.48-.2l-2.42-2.42-5.22-5.22a.68.68,0,0,1,0-.95.66.66,0,0,1,.95,0l5.22,5.22,2.42,2.42a.66.66,0,0,1,0,1A.67.67,0,0,1,36.41,37.08Z"/><path class="cls-1" d="M23.54,24.21a.67.67,0,0,1-.48-.2L18,18.92l-2.55-2.55a.69.69,0,0,1,0-1,.68.68,0,0,1,1,0L18.92,18c1.7,1.7,3.39,3.4,5.09,5.09a.68.68,0,0,1-.47,1.16Z"/><path class="cls-1" d="M28.77,24.21a.67.67,0,0,1-.48-.2.69.69,0,0,1,0-1l7.64-7.64a.68.68,0,0,1,1,1L29.24,24A.67.67,0,0,1,28.77,24.21Z"/><path class="cls-1" d="M15.9,37.08a.68.68,0,0,1-.48-1.15l7.64-7.64a.67.67,0,0,1,1,.95l-7.64,7.64A.67.67,0,0,1,15.9,37.08Z"/><path class="cls-1" d="M82.34,58.54H64a.68.68,0,1,1,0-1.35H82.34a.68.68,0,1,1,0,1.35Z"/><path class="cls-1" d="M57.77,58.54H39.42a.68.68,0,0,1,0-1.35H57.77a.68.68,0,0,1,0,1.35Z"/><path class="cls-1" d="M60.88,80a.67.67,0,0,1-.67-.67V61a.68.68,0,0,1,.67-.68.69.69,0,0,1,.68.68V79.33A.68.68,0,0,1,60.88,80Z"/><path class="cls-1" d="M60.88,55.42a.67.67,0,0,1-.67-.67V36.4a.67.67,0,0,1,.67-.67.68.68,0,0,1,.68.67V54.75A.68.68,0,0,1,60.88,55.42Z"/><path class="cls-1" d="M69.52,67.18a.67.67,0,0,1-.47-.2l-2-2-4.41-4.42a.67.67,0,1,1,1-.95C65,61.06,66.51,62.53,68,64l2,2a.68.68,0,0,1,0,1A.69.69,0,0,1,69.52,67.18Z"/><path class="cls-1" d="M58.68,56.33a.68.68,0,0,1-.48-.19l-4.41-4.42-2-2a.67.67,0,0,1,.95-1l2,2,4.42,4.41a.69.69,0,0,1,0,1A.7.7,0,0,1,58.68,56.33Z"/><path class="cls-1" d="M63.09,56.33a.66.66,0,0,1-.48-.19.69.69,0,0,1,0-1l6.44-6.43a.66.66,0,0,1,1,0,.68.68,0,0,1,0,1l-6.44,6.44A.66.66,0,0,1,63.09,56.33Z"/><path class="cls-1" d="M52.24,67.18a.67.67,0,0,1-.47-.2.66.66,0,0,1,0-1l6.43-6.44a.69.69,0,0,1,1,0,.68.68,0,0,1,0,.95L52.72,67A.67.67,0,0,1,52.24,67.18Z"/><path class="cls-1" d="M23.92,73.28a.65.65,0,0,1-.48-.2L20.06,69.7a.67.67,0,1,1,1-1l3.38,3.38a.66.66,0,0,1,0,1A.63.63,0,0,1,23.92,73.28Z"/><path class="cls-1" d="M17.49,66.85a.67.67,0,0,1-.48-.2l-3.38-3.39a.66.66,0,0,1,0-.95.68.68,0,0,1,.95,0L18,65.7a.66.66,0,0,1,0,1A.67.67,0,0,1,17.49,66.85Z"/><path class="cls-1" d="M20.53,66.85a.67.67,0,0,1-.47-.2.66.66,0,0,1,0-1l3.38-3.39a.68.68,0,0,1,.95,0,.66.66,0,0,1,0,.95L21,66.65A.67.67,0,0,1,20.53,66.85Z"/><path class="cls-1" d="M14.1,73.28a.63.63,0,0,1-.47-.2.66.66,0,0,1,0-1L17,68.75a.67.67,0,1,1,.95,1l-3.38,3.38A.65.65,0,0,1,14.1,73.28Z"/><path class="cls-1" d="M67.37,19.26a.7.7,0,0,1-.48-.19l-2.32-2.33a.68.68,0,0,1,0-.95.66.66,0,0,1,1,0l2.33,2.32a.69.69,0,0,1,0,1A.68.68,0,0,1,67.37,19.26Z"/><path class="cls-1" d="M63,14.84a.67.67,0,0,1-.48-.2l-2.32-2.32a.68.68,0,0,1,0-1,.66.66,0,0,1,1,0l2.33,2.32a.68.68,0,0,1,0,1A.65.65,0,0,1,63,14.84Z"/><path class="cls-1" d="M65.05,14.84a.63.63,0,0,1-.48-.2.68.68,0,0,1,0-1l2.32-2.32a.68.68,0,1,1,1,1l-2.33,2.32A.63.63,0,0,1,65.05,14.84Z"/><path class="cls-1" d="M60.63,19.26a.66.66,0,0,1-.48-.19.69.69,0,0,1,0-1l2.32-2.32a.68.68,0,1,1,1,.95L61.1,19.07A.66.66,0,0,1,60.63,19.26Z"/></g></g></svg>