<svg xmlns="http://www.w3.org/2000/svg" viewBox="0 0 81 51.76"><defs><style>.cls-1{fill:#3e3a39;}</style></defs><g id="Layer_2" data-name="Layer 2"><g id="レイヤー_3" data-name="レイヤー 3"><path class="cls-1" d="M46.27,46.74a1,1,0,0,1-.25-2,23,23,0,0,0,17.3-22.3,1,1,0,0,1,2,0,25,25,0,0,1-18.8,24.24Z"/><path class="cls-1" d="M64.62,23.16a1,1,0,0,1-.81-.41,1,1,0,0,1-.6-.76,14.15,14.15,0,0,1,2.62-10.76A14.31,14.31,0,0,1,76.24,6a1,1,0,0,1,1,.81,14.36,14.36,0,0,1-2.72,11.35,14.11,14.11,0,0,1-9.85,5.05ZM75.43,8a12.1,12.1,0,0,0-8,4.42,12.18,12.18,0,0,0-2.3,8.65A12.15,12.15,0,0,0,73,16.86,12.06,12.06,0,0,0,75.43,8Z"/><path class="cls-1" d="M68.54,38.17a14.68,14.68,0,0,1-7.36-2.06,1,1,0,0,1-.48-.84,1,1,0,0,1-.05-1A14.08,14.08,0,0,1,69,27a14.35,14.35,0,0,1,11.55,1.69A1,1,0,0,1,80.91,30a14.34,14.34,0,0,1-8.77,7.7A13,13,0,0,1,68.54,38.17Zm-5.83-3.5a11.53,11.53,0,0,0,16-4.73,11.54,11.54,0,0,0-16,4.73Z"/><path class="cls-1" d="M61.55,51.76a12.39,12.39,0,0,1-2.15-.18,14.08,14.08,0,0,1-9.23-6.11,1,1,0,0,1-.07-1,1,1,0,0,1,.37-.9,14.13,14.13,0,0,1,10.65-3,14.3,14.3,0,0,1,9.71,6.48,1,1,0,0,1-.2,1.3A14.73,14.73,0,0,1,61.55,51.76Zm-9.38-6.93a12.19,12.19,0,0,0,7.56,4.78,12.06,12.06,0,0,0,8.89-2.2,12.08,12.08,0,0,0-7.78-4.82A12.23,12.23,0,0,0,52.17,44.83Z"/><path class="cls-1" d="M34.73,46.74l-.25,0a25,25,0,0,1-18.8-24.24,1,1,0,0,1,2,0A23,23,0,0,0,35,44.77a1,1,0,0,1-.25,2Z"/><path class="cls-1" d="M16.38,23.16H16.3a14.11,14.11,0,0,1-9.85-5.05A14.36,14.36,0,0,1,3.73,6.76a1,1,0,0,1,1-.81,14.31,14.31,0,0,1,10.41,5.28A14.14,14.14,0,0,1,17.79,22a1,1,0,0,1-.6.76A1,1,0,0,1,16.38,23.16ZM5.57,8A12.06,12.06,0,0,0,8,16.86a12.22,12.22,0,0,0,7.88,4.25,12.06,12.06,0,0,0-2.3-8.66A12.1,12.1,0,0,0,5.57,8Z"/><path class="cls-1" d="M12.46,38.17a13,13,0,0,1-3.6-.5A14.34,14.34,0,0,1,.09,30a1,1,0,0,1,.37-1.26A14.3,14.3,0,0,1,12,27a14.08,14.08,0,0,1,8.34,7.28,1,1,0,0,1-.05,1,1,1,0,0,1-.48.84A14.68,14.68,0,0,1,12.46,38.17ZM2.32,29.94a12.12,12.12,0,0,0,7.09,5.81,12.18,12.18,0,0,0,8.88-1.08,12.12,12.12,0,0,0-6.87-5.74A12.1,12.1,0,0,0,2.32,29.94Z"/><path class="cls-1" d="M19.45,51.76a14.73,14.73,0,0,1-9.08-3.37,1,1,0,0,1-.2-1.3,14.3,14.3,0,0,1,9.71-6.48,14.13,14.13,0,0,1,10.65,3,1,1,0,0,1,.37.9,1,1,0,0,1-.07,1,14.08,14.08,0,0,1-9.23,6.11A12.39,12.39,0,0,1,19.45,51.76Zm-7.07-4.35a12.07,12.07,0,0,0,8.89,2.2,12.19,12.19,0,0,0,7.56-4.78,12.21,12.21,0,0,0-8.66-2.24A12.08,12.08,0,0,0,12.38,47.41Z"/><path class="cls-1" d="M37.06,1,36.47.8A11.25,11.25,0,0,0,32.36,0,8.32,8.32,0,0,0,26.1,2.6c-1.76,1.92-2.53,4.71-2.24,8.08a20.44,20.44,0,0,0,4.2,10.18,2.07,2.07,0,0,1,.33,1.3c-1.08,6.22.55,12.1,2.73,14.68a3.48,3.48,0,0,0,2.63,1.49c2.35,0,2.91-2.91,3.51-6,.66-3.45,1.31-6.08,3-6.09s2.38,2.64,3,6.09c.6,3.07,1.16,6,3.51,6a3.37,3.37,0,0,0,2.55-1.45c2.16-2.57,3.89-8.58,2.84-14.64A2,2,0,0,1,52.57,21a20.33,20.33,0,0,0,4.17-10.28C57,7.31,56.26,4.52,54.5,2.6A8.3,8.3,0,0,0,48.24,0a11.29,11.29,0,0,0-4.11.8L43.54,1a8.36,8.36,0,0,1-3.21.8A8.31,8.31,0,0,1,37.06,1Zm7.25,1.87.56-.22A9.39,9.39,0,0,1,48.24,2,6.35,6.35,0,0,1,53,4c1.36,1.49,2,3.75,1.7,6.53A18.45,18.45,0,0,1,51,19.7a4,4,0,0,0-.73,2.89c1,5.79-.79,11.08-2.4,13-.45.53-.81.72-1,.72-.67,0-1.2-2.72-1.51-4.34-.67-3.44-1.5-7.72-5-7.73s-4.37,4.29-5,7.73c-.32,1.62-.84,4.34-1.52,4.34-.21,0-.6-.2-1.08-.77-1.83-2.17-3.25-7.47-2.28-13a4.07,4.07,0,0,0-.72-2.89,18.69,18.69,0,0,1-3.78-9.12c-.25-2.78.34-5,1.7-6.53A6.35,6.35,0,0,1,32.36,2a9.39,9.39,0,0,1,3.37.66l.56.23a10.46,10.46,0,0,0,4,1A10.21,10.21,0,0,0,44.31,2.91Z"/></g></g></svg>