<svg xmlns="http://www.w3.org/2000/svg" viewBox="0 0 499.2 22.77"><defs><style>.cls-1{fill:#ffe037;}</style></defs><g id="Layer_2" data-name="Layer 2"><g id="レイヤー_3" data-name="レイヤー 3"><path class="cls-1" d="M486,4.16c-6.06-.36-13.21-.55-19.51-.55-33.68-1.43-67.36-2.17-101-2.73S298,.06,264.35,0,197,.14,163.29.65,95.91,2,62.24,3.59c-7.27,0-15.82.23-23.84.57S22.92,5,17.81,5.43C8.12,6.26-.2,8.56,0,10s8.69,1.59,18.29.76l44.89-4C96.74,5.24,130.35,4.44,164,3.92s67.23-.69,100.84-.64,67.24.34,100.85.88,67.23,1.3,100.8,2.72c6.26.54,13.33,1,19.27,1.4,7.36.42,13.38,0,13.48-1.14S493.36,4.59,486,4.16Z"/><path class="cls-1" d="M444.94,18.5c-5-.36-11-.59-16.24-.64-28-1.7-56-2.95-84.07-4S288.55,12,260.5,11.51s-56.1-.81-84.16-.69-56.13.6-84.18,1.95c-6.06,0-13.19.1-19.87.38s-12.9.69-17.16,1.1c-8.07.75-15,2.87-14.76,4.35s7.29,1.76,15.27,1L93,16c27.93-1.32,55.91-1.79,83.9-1.91s56,.17,83.95.7,56,1.32,83.93,2.35,55.94,2.3,83.87,4c5.2.59,11.08,1.13,16,1.49,6.12.43,11.16-.08,11.26-1.21S451.09,18.94,444.94,18.5Z"/></g></g></svg>