<svg xmlns="http://www.w3.org/2000/svg" viewBox="0 0 283.4 156.78"><defs><style>.cls-1{fill:#158ba4;}.cls-2{fill:#fff;}.cls-3{fill:#ffe037;}</style></defs><g id="Layer_2" data-name="Layer 2"><g id="レイヤー_3" data-name="レイヤー 3"><path class="cls-1" d="M188.41,4.24,26.79,0,0,59.25q14.61,28.5,29.21,57,78.76,18.57,157.57,37L273,127,283.4,68.17c-30-21.24-59.9-42.61-89.88-63.79C191.84,4.46,190.09,4.29,188.41,4.24Z"/><path class="cls-1" d="M122.77,125.39l-21.63-3.81-6.21,35.2,28-31.36Z"/><path class="cls-2" d="M140.61,27.76,142,29.31a1.77,1.77,0,0,1-1,.25l-1.41,8a1.62,1.62,0,0,1-1.18.26l-.2,0,.24-1.4-4.9-.87-1,5.52c1.4-.05,3.05-.14,4.75-.23A14,14,0,0,0,136,38l.3-.11c4.52,3.84,2.7,7.27,1.47,5.78a6,6,0,0,0-.3-2.4c-1.69.38-3.95.9-6.92,1.44a.84.84,0,0,1-.54.4l-.6-1.94c.45,0,1.07,0,1.84,0l2.55-14.45,1.42,1,4.45.78Zm-2,8,.55-3.11-4.9-.86-.55,3.1ZM134.9,28.2l-.53,3,4.9.86.53-3Zm16,2.73a1.59,1.59,0,0,1-1,.26l-2,11.13c-.19,1.09-.52,1.76-2.4,1.64a1.53,1.53,0,0,0-.23-1.11,3.29,3.29,0,0,0-1.48-.81l.06-.33s1.84.47,2.23.54.47,0,.53-.33l2-11.21L144.5,30l-2.86,16.21a1.27,1.27,0,0,1-1.18.28l-.21,0,3.2-18.12,1.43,1.09,3.66.64.85-.72Z"/><path class="cls-2" d="M169.3,34.61a1.67,1.67,0,0,1-1,.23l-2.69,15.24a1.72,1.72,0,0,1-1.29.33l-.21,0,.31-1.73-9.64-1.7-.22,1.28c0,.21-.6.47-1.24.36l-.23,0,3.08-17.45,1.36,1,9.31,1.64,1-.77ZM164.56,48l1.18-6.68-9.63-1.7-1.18,6.68Zm-7.22-15.39-1.13,6.41,9.64,1.7L167,34.35Z"/><path class="cls-2" d="M38.71,43c-1.92,3.18-5.61,9.21-6.27,10.42a8.26,8.26,0,0,0-.87,2.26c-.18,1.19.36,2.53-.11,4.69-.25,1.12-.92,1.76-1.86,1.59-.51-.09-.72-.63-.62-1.47.83-2.68,1-4.78.51-5.29a2.43,2.43,0,0,0-1.3-.61l.1-.6,1.24.22c.35.06.43,0,.76-.42.74-.89.74-.89,8-11Zm-8.86.13c5.78,1.76,4.06,5.56,2.28,4.17a8.44,8.44,0,0,0-2.57-3.95ZM33,37.48c5.95,1.91,4.3,5.78,2.47,4.37a9.25,9.25,0,0,0-2.79-4.15ZM50.14,53.15,51.86,55a1.49,1.49,0,0,1-1.1.27l-1.65,9.33a2,2,0,0,1-1.6.27l-.27,0,.35-1.94L38.31,61.3,38,62.83c0,.16-.66.44-1.55.28l-.29,0,2.07-11.78,1.9,1.22,8.89,1.57Zm-1.42-8.9c7.09,5.08,4.88,9.9,3.06,8a9.13,9.13,0,0,0-.64-2.83c-3.14,0-7.25-.06-12.87-.27a1.06,1.06,0,0,1-.8.44l-.58-2.68c.89.16,2.15.35,3.67.56,1.47-2.51,3.2-5.75,4.3-8.16l2.93,1.26c-.17.33-.53.52-1.15.41a65.72,65.72,0,0,1-5.24,6.61c2.65.36,6,.76,9.49,1.18a21.21,21.21,0,0,0-2.54-4.3Zm-1,17.87L49,54.89l-9.27-1.63-1.28,7.23Z"/><path class="cls-2" d="M81.37,54.39c-.14.17-.4.18-.75,0a16.65,16.65,0,0,1-2.72.77,16.33,16.33,0,0,0,4.53,3l-.08.29a1.81,1.81,0,0,0-1.62,1.15,14.44,14.44,0,0,1-2.49-1.91l-1,5.84a2.2,2.2,0,0,1-1.49.29l-.24,0,.16-.92-3.31-.58-.81,4.57c-.23,1.32-.71,2.15-3.09,2a1.74,1.74,0,0,0-.3-1.3,5,5,0,0,0-2.07-1l.07-.4s2.52.64,3,.72.61,0,.67-.35l.8-4.54-3.33-.59-.11.62c0,.16-.66.43-1.47.29l-.27-.05,1.18-6.66a16.09,16.09,0,0,1-3.83,1.26c-1,3.73-3,7.41-7.16,9.63l-.32-.36c3.43-2.64,5-6.26,6-10.22-1,.69-2.16,1.56-3.51,2.49a1,1,0,0,1-.54.68l-.76-2.3c.88-.23,2.86-1,5-1.8.16-.72.28-1.42.41-2.15l1.49-8.44,1.84,1.33L72,46.87l.48-2.75,2.57.73c-.09.35-.38.55-1,.54l-.31,1.78,6.51,1.15L81.76,47s1.23,1.35,1.95,2.31a.64.64,0,0,1-.78.3l-10.24-1.8,2.07,1c-.19.3-.4.43-1.07.29-.32.52-.69,1.07-1.08,1.58l6.93,1.22L81,50.61s1.11,1.27,1.8,2.2c-.1.29-.42.37-.77.31L75.45,52a10.21,10.21,0,0,0,2,2.73A19.67,19.67,0,0,0,79.6,52.8ZM59.25,46.83c3.82,4,1.32,7.28.07,5.42a10.93,10.93,0,0,0-.48-5.32Zm9,17.51c-.23.21-.49.27-1,0A18.74,18.74,0,0,1,60,66.72l-.2-.42a18.73,18.73,0,0,0,6.63-3.63ZM63.61,53.06c-.18,1-.39,2.09-.67,3.18a16.91,16.91,0,0,0,4.43-2.46,1,1,0,0,1-1-.29A5.13,5.13,0,0,0,65.06,51l.31-.17c2.42.73,2.84,2,2.49,2.58A16.86,16.86,0,0,0,70.15,51l-5.21-.92-.08-.85,5.86,1a17.15,17.15,0,0,0,1.54-2.59l-7.47-1.32Zm12.16,9,.4-2.26-8.36-1.47-.4,2.26ZM68,57.54,76.31,59l.38-2.12-8.37-1.47ZM72,51.36a16.78,16.78,0,0,1-3.51,3.12l.27.19,7.85,1.38.13-.09a13.08,13.08,0,0,1-2-4.12ZM73.74,64.3c7.05,2.79,5.85,6.44,4,5.23a17.49,17.49,0,0,0-4.31-5Z"/><path class="cls-2" d="M96,55.06c-.2.24-.47.33-1.07.14A36.84,36.84,0,0,1,92,57.93l1,.56a1,1,0,0,1-.89.34L89.77,71.92a1.81,1.81,0,0,1-1.48.38l-.35-.06,2.27-12.88a28,28,0,0,1-4,2.53l-.27-.35a36.91,36.91,0,0,0,7.77-8.2Zm.47-5.32c-.21.24-.47.33-1.07.09a27.43,27.43,0,0,1-7.68,4.43l-.24-.37A28.45,28.45,0,0,0,94.3,48Zm11.63,16c-.26.21-.56.21-1.21.12a17.16,17.16,0,0,1-4.45,4,24.76,24.76,0,0,0,7.44,4.33l-.06.32A2,2,0,0,0,108,75.72a20.57,20.57,0,0,1-6.89-5.21A23.88,23.88,0,0,1,91,72.72l-.1-.49a23.27,23.27,0,0,0,9.34-2.84,14.61,14.61,0,0,1-2-4.31,21.43,21.43,0,0,1-6.06,3.2l-.23-.4a25.37,25.37,0,0,0,8-7.07c-1.43-.06-2.94-.16-4.59-.25a1,1,0,0,1-.82.41l-.22-2.37c1.13.2,2.94.46,5.18.8a54.56,54.56,0,0,0,7.73-7l2.19,1.89c-.23.21-.49.27-1.08,0a52.16,52.16,0,0,1-7.78,5.28c2.24.34,4.84.69,7.55,1a20.26,20.26,0,0,0-2-3.1l.33-.16c6.48,4.14,4.58,8.18,2.87,6.52a10.17,10.17,0,0,0-.87-2.62c-2.14-.07-4.62-.18-7.56-.34L102.56,62a.91.91,0,0,1-1.11.16A16.12,16.12,0,0,1,100,63.58l5,.89,1.41-.91Zm-2.69-14.47a1,1,0,0,1-1.11.17,21.12,21.12,0,0,1-4.14,3c2,2.2.75,3.92-.54,2.89a16.93,16.93,0,0,0-2.92-5l.32-.2a12.76,12.76,0,0,1,2.65,1.77A35.72,35.72,0,0,0,103,49.5Zm-6.12,13a5.14,5.14,0,0,1-.55.46,12.27,12.27,0,0,0,2.57,4,14.32,14.32,0,0,0,3.55-3.48Z"/><path class="cls-2" d="M124.35,76c6.79,0,10.56-2.82,11.42-7.69a7.75,7.75,0,0,0-6.6-9.26c-.32-.06-.65-.09-1-.12a5.13,5.13,0,0,1,.66,3.06,13.73,13.73,0,0,1-1.6,4.18c-1.7,3-5.74,7.69-8.48,7.21-1.8-.32-3.18-3.5-2.6-6.81a10.52,10.52,0,0,1,4.91-6.92,11.81,11.81,0,0,1,8.36-1.49c5.54,1,9.17,5.36,8.19,10.92-.79,4.46-4.39,8.54-13.28,7.56Zm2.82-17.08a10.37,10.37,0,0,0-5.55,1.77,8.75,8.75,0,0,0-3.86,5.72c-.46,2.58.38,4.75,1.48,4.94,1.77.32,5-3.49,6.55-5.85a13,13,0,0,0,1.7-4A4.74,4.74,0,0,0,127.17,58.89Z"/><path class="cls-2" d="M158.49,61.31a4.86,4.86,0,0,1,1.7.6c1,.54,2,1.93,1.83,2.63-.09.51-.56.37-1.43,1-1.19.92-2.76,2.14-4.83,3.52.66.62,1.2,1.19,1.13,1.56a13.51,13.51,0,0,0-.48,1.36c-.88,3.86-1.47,8-1.75,9.61-.18,1-.48,1.28-1,1.18-.89-.16-1.12-1.53-1-2.42.08-.48.39-1,.66-1.85a70.49,70.49,0,0,0,1.56-7.48,1.89,1.89,0,0,0-.19-1.26,38.48,38.48,0,0,1-11.2,4.6l-.24-.71a43.36,43.36,0,0,0,15.34-9,3.44,3.44,0,0,0,1-1.24c.07-.43-.32-.89-1.35-1.65Z"/><path class="cls-2" d="M182.65,66.23a5.49,5.49,0,0,1,2,.8,3.41,3.41,0,0,1,1.5,2.51c-.09.51-.72.49-1.33,1.24A68.67,68.67,0,0,1,180.1,76c1.72,1.86,3.8,4.69,3.58,6.1-.11.62-.49,1-1.11.94-1.07-.19-.92-2-3.86-5.73A31.13,31.13,0,0,1,165,84l-.25-.6A38.93,38.93,0,0,0,177.63,76a47.33,47.33,0,0,0-5.54-5.38l.49-.55a38.29,38.29,0,0,1,6.32,4.74c2.23-2.27,4.58-5.26,4.74-6.17.13-.73-.39-1.21-1.26-1.94Z"/><path class="cls-2" d="M192.16,76.73c.43,1,.71,1.92,1.84,2.12,2.39.42,11.91,1.47,13.16,1.63,1.82.18,2.6.15,3.3.28,1,.18,2.15.85,2,1.57-.09.49-.41.74-1.33.57s-1.87-.38-3.51-.67-9.32-1.23-11.37-1.34c-1.56-.11-1.93.24-2.71.1s-1.79-1.67-2-2.65a4.74,4.74,0,0,1,0-1.55Z"/><path class="cls-2" d="M238.6,81.78l.55.51c-4,4.84-10.52,8.54-17,10.78-.59.23-1,.87-1.71.75a5.62,5.62,0,0,1-2.77-2.54,4.7,4.7,0,0,1-.27-1.91l.47-.16c.58,1,1.25,2.05,2.16,2.21C221.82,91.74,232.58,87.65,238.6,81.78Zm-20.11-2,.38-.54a31.41,31.41,0,0,1,3.4,1.76c1.49,1,2.35,2.1,2.17,3.13a.79.79,0,0,1-.93.69c-.83-.15-1.09-1.19-2.31-2.48A18.7,18.7,0,0,0,218.49,79.79ZM223,75.26l.4-.56A21.09,21.09,0,0,1,227.12,77c1.16.92,1.79,1.76,1.63,2.7a.84.84,0,0,1-.94.75c-.75-.14-1.1-1.31-2.32-2.71A17,17,0,0,0,223,75.26ZM236,79a14.76,14.76,0,0,0-2-2.91l.43-.42a11,11,0,0,1,2.77,2.38,2.46,2.46,0,0,1,.63,1.8.67.67,0,0,1-.8.58C236.63,80.38,236.46,79.8,236,79Zm3.09-1.65a16.33,16.33,0,0,0-2-2.68l.41-.4a10.91,10.91,0,0,1,2.8,2.18,2.24,2.24,0,0,1,.68,1.81.64.64,0,0,1-.77.59C239.79,78.8,239.6,78.16,239.13,77.38Z"/><path class="cls-2" d="M258.22,85.92a3.55,3.55,0,0,1,1.43.83,2.47,2.47,0,0,1,.83,1.81c-.07.41-.24.4-1.13.5a41,41,0,0,0-6.31,1.3c-.14,1.19-.41,2.7-.52,3.36-.09.5-.37.77-.79.69a.68.68,0,0,1-.54-.9c.09-.5.37-1.6.58-2.71-2.2.78-3.88,1.85-4.1,3.07s1,1.89,3,2.23c3.06.54,4.37.11,5.36.29.72.12,1.05.44,1,.83s-.21.5-.89.63a22.71,22.71,0,0,1-4.74-.26c-3.84-.68-4.89-2.1-4.6-3.73s2.46-3,5.15-4.06c.2-1.78-.06-2.48-1.13-2.67s-2.73.71-3.76,1.47c-.86.66-1.61,1.53-2.11,1.46a.74.74,0,0,1-.56-1c.1-.56,1-.94,2.06-1.77A20.49,20.49,0,0,0,250,84.07a13.71,13.71,0,0,1-1.51-.16c-1.7-.3-2-.82-2.51-2.6l.49-.19a3,3,0,0,0,2.47,1.78,10.19,10.19,0,0,0,1.88.12,8.16,8.16,0,0,0,1-1.7c.17-.36.11-.5-.21-.7a3.16,3.16,0,0,0-1.15-.54l.07-.4a5,5,0,0,1,1.22,0c.64.1,1.92.71,1.83,1.2,0,.3-.24.41-.55.82a14.85,14.85,0,0,1-.9,1.25,19.52,19.52,0,0,0,2.85-.42c.94-.23,1.11-.4,1.42-.34.46.08.86.32.79.71s-.27.45-.69.54a23.87,23.87,0,0,1-5.25.65,26.14,26.14,0,0,1-2.5,2.57c-.1.09-.06.22.1.15a5.33,5.33,0,0,1,2.4-.31c1.3.23,1.93,1.26,1.87,2.85,1.83-.62,4.09-1.09,5.45-1.53.38-.13.45-.31.22-.69a2.87,2.87,0,0,0-.89-.88Z"/><path class="cls-2" d="M65.45,94.09a12.78,12.78,0,0,1,6-.59A3.8,3.8,0,0,1,74.86,98c-.37,2.11-2.26,3.54-4.87,3.08a4.78,4.78,0,0,1-3.52-2.75l.39-.27a5.13,5.13,0,0,0,3,1.81,2.94,2.94,0,0,0,3.7-2.37c.27-1.55-.51-2.93-2.72-3.32a11.8,11.8,0,0,0-5.59.87c-.42,2.83-.32,3.63-.45,4.38-.17.93-.89,1.78-1.51,1.67s-.41-.73-1-1.45a24,24,0,0,0-1.92-2c-.72.47-1,.59-1.31.54a1,1,0,0,1-.6-.47,1.13,1.13,0,0,1-.22-.91c.08-.48.24-.62.68-.5a1.59,1.59,0,0,0,1.22,0c.85-.32,2.68-1.3,4.21-1.84l.21-1.2.49-2.79a11.24,11.24,0,0,1-2.34,0c-1-.18-1.85-.52-2.36-2.55l.39-.21c.88,1.22,1.15,1.49,2.25,1.64a10.5,10.5,0,0,0,2.26,0c.27-1.53.54-2.91.6-3.41s0-.55-.3-.71a4.07,4.07,0,0,0-1.27-.38v-.4a3.25,3.25,0,0,1,1.52-.14c.78.14,2,1,1.9,1.53s-.45.75-.71,1.39a14.81,14.81,0,0,0-.61,2c1.72-.31,2.53-.88,3-.82s.9.24.84.7-.33.56-.8.69a23.74,23.74,0,0,1-3.26.6c-.23.92-.43,1.91-.59,2.86Zm-1.21,1.38a26.52,26.52,0,0,0-3.33,1.87c.7.53,1.54,1.17,2.13,1.57.4.26.58.12.65-.27ZM72,88a7.24,7.24,0,0,1,2.77.38c1.53.59,2.78,2.22,2.61,3.53,0,.42-.25.75-.65.72s-.59-.55-1.27-.54a8,8,0,0,0-1.7.34L73.57,92a14.62,14.62,0,0,0,1.86-.84c.27-.21.32-.37.15-.74-.62-1.31-2.19-1.73-3.66-1.88Z"/><path class="cls-2" d="M95.93,105.71c.45.23.48.4.43.67-.11.62-.75.77-4,.19L90,106.16c-1.64-.29-1.91-.66-1.73-1.69l.91-5.15-2.34-.41c-1.38,4.06-4.05,5.47-9.49,5.45l0-.35c4.76-.44,6.86-1.9,8-5.37l-1.9-.34-.15.83c0,.15-.62.36-1.19.26l-.23,0,2.25-12.76,1.35.92,8.83,1.56.91-.71L96.66,90a1.9,1.9,0,0,1-1,.28l-1.86,10.55a1.76,1.76,0,0,1-1.21.25l-.21,0,.19-1.07-2.07-.37v0l-.86,4.85c0,.31,0,.39.8.53l2.09.37c.93.16,1.68.29,2,.32a.35.35,0,0,0,.44-.22,18.27,18.27,0,0,0,1.14-2.7l.29.06Zm-12.38-8,9.16,1.62.5-2.83-9.16-1.62Zm10.26-4.63-9.16-1.61-.49,2.79,9.16,1.62Zm-8.57-4.94-.49,2.73,9.16,1.61.49-2.72Z"/><path class="cls-2" d="M111.94,92.9a4.37,4.37,0,0,1,1.36-.1c1,.18,2.08,1.18,2,1.74-.06.35-.48.4-.63,1.12s-.32,1.46-.53,2.43a28.49,28.49,0,0,1,3.42,0c.85.14,1.54.59,1.43,1.23-.07.41-.4.46-1,.36a22.44,22.44,0,0,0-3-.53l-1.1,0a27.28,27.28,0,0,1-1.15,4.11c-.38.91-.93,1.41-1.68,1.28-.29-.05-.44-.14-.6-.58-.2-.67-1-1.18-1.81-1.68l.22-.43a13.14,13.14,0,0,0,2.18.94.62.62,0,0,0,.75-.38,22.43,22.43,0,0,0,.92-3.27c-2.09,0-4.57.15-6.11.29-.33,1.79-.72,3.73-.87,4.68-.3,2.23.08,2.58,2.88,3.07a35,35,0,0,0,4.84.32c.68.12,1.2.47,1.11,1s-.35.54-1,.57a27,27,0,0,1-4.85-.51c-3-.53-4.48-1.45-4.17-3.81.14-1.14.52-3.17.84-5.14-2.61.33-3.56.74-4.12.64a2.38,2.38,0,0,1-1.41-1.78,2.64,2.64,0,0,1,.08-1.05l.33-.07c.23.61.64,1.3,1.14,1.39a36.49,36.49,0,0,0,4.17-.2c.27-1.42.5-2.71.54-3.32s0-.75-.34-.93a5.18,5.18,0,0,0-1.17-.4l.06-.44a4.5,4.5,0,0,1,1.43,0c.77.13,2,1,1.87,1.59-.06.37-.41.39-.61,1.19-.15.48-.32,1.31-.53,2.25,1.43-.09,4.14-.25,6.09-.31.24-1.26.53-2.89.62-3.73.06-.33-.1-.53-.44-.67a8.67,8.67,0,0,0-1.21-.39Z"/><path class="cls-2" d="M123.37,97.63a1.87,1.87,0,0,0,1.13,1.26c1.07.19,5.27-.3,8.82-.49a28.76,28.76,0,0,1,4.85,0,4.2,4.2,0,0,1,1.42.49c.42.28.55.54.5.83s-.35.49-.8.41-1-.24-1.77-.37a7,7,0,0,0-3.61.15c-1,.4-3.43,2-4.16,6.09-.41,2.32.39,3.46,1.34,4.12a7.56,7.56,0,0,0,3.65,1.28c.5.09,1.12.56,1,1.08s-.68.58-1.61.42a8,8,0,0,1-4.45-2c-1.13-1.18-1.6-2.54-1.18-4.88a8.79,8.79,0,0,1,4.33-6.46c.17-.1.17-.23-.07-.21a44.24,44.24,0,0,0-6.86,1,3.53,3.53,0,0,1-1.35.29,2.62,2.62,0,0,1-1.71-2,6,6,0,0,1,.09-1Zm12.26,4.74a7.76,7.76,0,0,1,2.11,1.8,1.77,1.77,0,0,1,.49,1.36.48.48,0,0,1-.59.45c-.32,0-.46-.57-.78-1.18a12.05,12.05,0,0,0-1.58-2.13Zm2.06-1.07a8.37,8.37,0,0,1,2.13,1.62,1.67,1.67,0,0,1,.54,1.41c-.07.35-.26.51-.57.46s-.46-.57-.8-1.17a10.2,10.2,0,0,0-1.63-2Z"/><path class="cls-2" d="M150.14,99.26a3.16,3.16,0,0,1,1.79-.24c.75.13,1.5.43,1.5,1s0,1.53,0,2.4c.68-.1,1.32-.2,1.76-.31,1.06-.22,1.52-.5,1.77-.46.48.07,1,.28.94.68,0,.21-.24.39-.56.52a15.65,15.65,0,0,1-3.75.7,17.88,17.88,0,0,0,.63,2.86,18.46,18.46,0,0,0,1.94-.34c1.41-.3,1.69-.55,2-.49.53,0,1,.28.88.69,0,.22-.17.39-.58.55a15.78,15.78,0,0,1-3.83.8c1.14,2.95,2.24,3.74,2.14,4.28s-.62,1.47-1.12,1.38-.76-.52-1.51-1.08a10.55,10.55,0,0,0-3.93-1.65c-2.21-.39-4,.25-4.27,1.61-.34,1.93,2.24,2.64,4.2,3,1.55.28,2.13.15,2.94.29.57.12,1,.44.9.84-.11.62-1.45.72-4.12.25s-5.41-1.85-5-4.27c.29-1.65,2.27-3,5.77-2.37a18,18,0,0,1,4.23,1.37c.26.13.29.07.18-.16a28.33,28.33,0,0,1-1.45-3.39,22.33,22.33,0,0,1-5.11-.31c-2.89-.51-3.4-2.45-.87-3.63l.3.38c-1.49.91-1.36,1.78.93,2.19a17.18,17.18,0,0,0,4.39.17c-.26-.87-.49-1.85-.71-2.87a18,18,0,0,1-3.22-.14A3.65,3.65,0,0,1,146,100.9l.33-.18a4.56,4.56,0,0,0,3.1,1.74,16.22,16.22,0,0,0,2.93.07c-.13-.6-.22-1.19-.33-1.78a.93.93,0,0,0-.86-.92c-.34-.08-.7-.12-1.05-.17Z"/><path class="cls-2" d="M172.06,110.75a16.75,16.75,0,0,0,3.09-.11,8.85,8.85,0,0,1,1.39-.23c.43.08.93.38.86.82s-.32.47-.72.55a24,24,0,0,1-4.77.1c-.18,1.35-.26,2.53-.33,3.52a11.21,11.21,0,0,1,4.54,3.06,1.57,1.57,0,0,1,.5,1.26.55.55,0,0,1-.66.51c-.37-.07-.57-.32-.88-.73a10.58,10.58,0,0,0-3.61-3c0,.3-.06.57-.1.84-.31,1.76-1.94,2.51-4.23,2.11-2-.36-3.36-1.55-3.1-3,.29-1.63,2.58-2.17,5.16-1.71.46.08.89.18,1.3.29.1-.83.24-2,.42-3.23-.86-.07-1.72-.17-2.55-.32-2.89-.51-4.08-2.11-1.48-3.91l.39.33c-1.63,1.48-.85,2.13,1.22,2.49a21.48,21.48,0,0,0,2.57.31l.15-.83c.12-.68.24-1.41.39-2.11a29,29,0,0,1-3.14-.36,4.38,4.38,0,0,1-3.81-2.89l.4-.22a4.81,4.81,0,0,0,3.42,2,28,28,0,0,0,3.35.33c.23-1.05.39-1.85.43-2,.07-.41,0-.53-.31-.71a8.22,8.22,0,0,0-1.46-.49v-.45a3.56,3.56,0,0,1,1.51-.07c.88.15,2.07,1,2,1.5s-.37.55-.57,1.07c-.13.34-.26.74-.41,1.23a27.62,27.62,0,0,0,3.27-.17,6,6,0,0,1,1.27-.21c.5.09,1,.4,1,.83s-.38.47-.8.55a31.24,31.24,0,0,1-5,.17c-.16.68-.34,1.5-.52,2.47ZM170.34,116a10.93,10.93,0,0,0-1.85-.5c-2-.36-3.46.16-3.61,1s.51,1.46,1.9,1.7C169.28,118.68,170,118,170.34,116Z"/><path class="cls-2" d="M191.85,106.78a3.22,3.22,0,0,1,1.48-.18c.85.14,2,.83,2,1.34s-.45.75-.58,1.26c-.07.27-.14.68-.25,1.18,3.48.23,4.83.27,5.27.35.72.13,1.73.71,1.61,1.37-.07.37-.28.51-.68.44a26.79,26.79,0,0,0-6.36-1.28c-.17,1-.36,2.16-.54,3.19a4,4,0,0,1,.38,3c-.67,3.78-3.93,5.59-8.1,5.88l-.18-.56c2.69-.49,5-1.59,6.12-3.49-2.19.58-3.57-1.31-3.19-3.42a2.78,2.78,0,0,1,3.22-2.43,3.5,3.5,0,0,1,.83.25c.09-.63.2-1.52.33-2.46a46.68,46.68,0,0,0-5.66,0,11.55,11.55,0,0,1-2,.22,2.83,2.83,0,0,1-1.62-1.84,4.17,4.17,0,0,1,0-1.27l.42-.08c.34.76.61,1.49,1.32,1.62s5.13.26,7.62.43c.11-.75.19-1.46.24-2s-.05-.56-.36-.72a8.22,8.22,0,0,0-1.34-.39Zm1,9.71c.24-1.34-.31-2.14-1.19-2.3a1.84,1.84,0,0,0-2,1.67,1.82,1.82,0,0,0,1.33,2.28C192,118.32,192.64,117.92,192.89,116.49Z"/><path class="cls-2" d="M207.09,124.54a1.33,1.33,0,0,1,2.61.46,1.27,1.27,0,0,1-1.53,1A1.29,1.29,0,0,1,207.09,124.54Zm4.81-13c-.21,1.16-.7,3-1.7,6.63l-.87,3.3-.7-.12L209,118c.31-3.78.47-5.65.67-6.79.17-1,.66-1.33,1.38-1.2S212.07,110.6,211.9,111.57Z"/><path class="cls-3" d="M230.92,103.71l-3-.52.35-2,2.95.52Zm-8.87-1.56-3-.52.35-2,3,.52Zm-8.86-1.56-2.95-.52.34-2,3,.52ZM204.33,99l-3-.53.35-2,2.95.53Zm-8.87-1.57-3-.52.35-2,2.95.52ZM186.6,95.9l-2.95-.52.34-2,3,.52Zm-8.86-1.56-3-.52.35-2,3,.52Zm-8.87-1.57-3-.52.35-2,2.95.52ZM160,91.21l-2.95-.52.34-2,3,.52Zm-8.86-1.56-3-.52.35-2,3,.52Zm-8.87-1.56-2.95-.53.35-2,2.95.53Zm-8.86-1.57L130.47,86l.34-2,3,.52ZM124.56,85l-3-.52.35-2,3,.52Zm-8.87-1.56-3-.52.35-2,3,.52Zm-8.86-1.57-3-.52.34-2,3,.52ZM98,80.27l-3-.52.35-2,3,.52ZM89.1,78.71l-2.95-.52.35-2,3,.52Zm-8.86-1.56-2.95-.53.34-2,3,.53Zm-8.86-1.57-3-.52.35-2,3,.52ZM62.51,74l-2.95-.52.35-2,3,.52Zm-8.86-1.56-2.95-.52L51,70l3,.52Zm-8.86-1.57-3-.52.35-2,3,.52Zm-8.87-1.56-3-.52.35-2,3,.52Zm-8.86-1.56-2.95-.52.34-2,3,.52Z"/></g></g></svg>