<svg xmlns="http://www.w3.org/2000/svg" viewBox="0 0 108.67 55.38"><defs><style>.cls-1{fill:#3e3a39;}</style></defs><g id="Layer_2" data-name="Layer 2"><g id="レイヤー_3" data-name="レイヤー 3"><path class="cls-1" d="M7.09,10.54a.85.85,0,0,0-.84.85,5.4,5.4,0,0,1-5.4,5.4.85.85,0,1,0,0,1.69,5.41,5.41,0,0,1,5.4,5.41.85.85,0,0,0,1.69,0,5.41,5.41,0,0,1,5.4-5.41.85.85,0,1,0,0-1.69,5.4,5.4,0,0,1-5.4-5.4A.85.85,0,0,0,7.09,10.54Zm2.9,7.1a7.14,7.14,0,0,0-2.9,2.89A7.12,7.12,0,0,0,4.2,17.64a7.08,7.08,0,0,0,2.89-2.9A7.11,7.11,0,0,0,10,17.64Z"/><path class="cls-1" d="M23.75.84a.85.85,0,0,0-1.69,0,5.41,5.41,0,0,1-5.4,5.41.85.85,0,1,0,0,1.69,5.4,5.4,0,0,1,5.4,5.4.85.85,0,1,0,1.69,0,5.4,5.4,0,0,1,5.4-5.4.85.85,0,1,0,0-1.69A5.41,5.41,0,0,1,23.75.84ZM22.91,10A7.11,7.11,0,0,0,20,7.09a7.08,7.08,0,0,0,2.9-2.89A7.06,7.06,0,0,0,25.8,7.09,7.08,7.08,0,0,0,22.91,10Z"/><path class="cls-1" d="M64.17,32.61h-.41a229.21,229.21,0,0,1-43.28-4.2,1,1,0,0,1,0-2c4.08-.75,8.23-1.54,12.35-2.35a70.91,70.91,0,0,0,9.46-2.83L45,20.33a19.32,19.32,0,0,1,13,.33c.76.3,1.52.59,2.29.87a11.38,11.38,0,0,0,7.68,0l2.29-.87a19.32,19.32,0,0,1,13-.33l2.73.94A70.91,70.91,0,0,0,95.5,24.1c4.11.81,8.27,1.6,12.35,2.35a1,1,0,0,1,0,2A228.68,228.68,0,0,1,64.17,32.61Zm-38-5.19a227.84,227.84,0,0,0,37.58,3.19,230.24,230.24,0,0,0,38.4-3.19l-7-1.36a71.54,71.54,0,0,1-9.74-2.9l-2.71-.93A17.33,17.33,0,0,0,71,22.52c-.77.31-1.55.61-2.32.89a13.42,13.42,0,0,1-9.06,0c-.77-.28-1.55-.58-2.33-.89a17.3,17.3,0,0,0-11.64-.29L43,23.16a72,72,0,0,1-9.74,2.9Z"/><path class="cls-1" d="M64.17,55.38a101.76,101.76,0,0,1-15.71-1.22A25.15,25.15,0,0,1,29.07,38.74l-3.21-8A1,1,0,0,1,27.72,30l3.21,8A23.1,23.1,0,0,0,48.77,52.18a100,100,0,0,0,30.8,0A23.16,23.16,0,0,0,97.41,38l3.21-8a1,1,0,0,1,1.86.74l-3.21,8A25.2,25.2,0,0,1,79.88,54.16,102.05,102.05,0,0,1,64.17,55.38Z"/><path class="cls-1" d="M71.37,45.75H57c-.84,0-1.63,0-2.35-.11a28.18,28.18,0,0,1-10.58-3,28.72,28.72,0,0,1-10-8.51l-1.39-1.91a1,1,0,0,1-.2-.59,1,1,0,0,1,1-1,1,1,0,0,1,.88.5l1.32,1.82A26.62,26.62,0,0,0,45,40.85a26.07,26.07,0,0,0,9.84,2.8c.66.06,1.39.1,2.17.1H71.37a24.65,24.65,0,0,0,4-.33A26.42,26.42,0,0,0,92.8,32.74L94,31a1,1,0,0,1,1.63,1.16L94.43,33.9A28.41,28.41,0,0,1,75.72,45.4,27.16,27.16,0,0,1,71.37,45.75Z"/><path class="cls-1" d="M65.14,45.75a1,1,0,0,1-1-1V31.61a1,1,0,0,1,2,0V44.75A1,1,0,0,1,65.14,45.75Z"/><path class="cls-1" d="M75.57,45.41a1,1,0,0,1-1-1V31.61a1,1,0,0,1,2,0v12.8A1,1,0,0,1,75.57,45.41Z"/><path class="cls-1" d="M54.79,45.65a1,1,0,0,1-1-1V31.42a1,1,0,0,1,2,0V44.65A1,1,0,0,1,54.79,45.65Z"/><path class="cls-1" d="M44.57,42.74a1,1,0,0,1-1-1V30.82a1,1,0,0,1,2,0V41.74A1,1,0,0,1,44.57,42.74Z"/><path class="cls-1" d="M85.24,42a1,1,0,0,1-1-1V30.64a1,1,0,0,1,2,0V41A1,1,0,0,1,85.24,42Z"/></g></g></svg>