<svg xmlns="http://www.w3.org/2000/svg" viewBox="0 0 73 68.15"><defs><style>.cls-1{fill:#3e3a39;}</style></defs><g id="Layer_2" data-name="Layer 2"><g id="レイヤー_3" data-name="レイヤー 3"><path class="cls-1" d="M54.23,32.67l-.57-.23a10.78,10.78,0,0,0-3.91-.76,8,8,0,0,0-6,2.47c-1.67,1.83-2.4,4.49-2.12,7.69a19.51,19.51,0,0,0,4,9.69A1.91,1.91,0,0,1,46,52.76c-1,5.92.53,11.51,2.6,14a3.32,3.32,0,0,0,2.5,1.42c2.24,0,2.77-2.77,3.34-5.7.64-3.27,1.25-5.78,2.89-5.78s2.27,2.51,2.9,5.78c.57,2.93,1.1,5.7,3.34,5.7A3.21,3.21,0,0,0,66,66.77c2.06-2.45,3.71-8.16,2.7-13.93A1.88,1.88,0,0,1,69,51.62a19.2,19.2,0,0,0,4-9.78c.28-3.2-.45-5.86-2.12-7.69a8,8,0,0,0-6-2.47,10.78,10.78,0,0,0-3.91.76l-.56.23a6.62,6.62,0,0,1-6.16,0Zm6.89,1.79.53-.22a8.94,8.94,0,0,1,3.21-.63,6,6,0,0,1,4.53,1.85c1.3,1.41,1.86,3.56,1.63,6.22a17.65,17.65,0,0,1-3.57,8.75,3.83,3.83,0,0,0-.69,2.74c1,5.51-.75,10.55-2.28,12.36-.43.51-.77.69-.94.69-.65,0-1.15-2.59-1.45-4.13-.63-3.28-1.42-7.35-4.79-7.35s-4.15,4.07-4.78,7.35c-.3,1.54-.8,4.13-1.45,4.13-.2,0-.57-.2-1-.73-1.74-2.07-3.09-7.12-2.17-12.4a3.83,3.83,0,0,0-.69-2.74,17.91,17.91,0,0,1-3.6-8.68c-.23-2.65.33-4.8,1.63-6.21a6,6,0,0,1,4.53-1.85,8.94,8.94,0,0,1,3.21.63l.53.22a9.8,9.8,0,0,0,3.84.9A9.75,9.75,0,0,0,61.12,34.46Z"/><polygon class="cls-1" points="26.06 22.91 20.64 22.91 20.64 24.84 24.13 24.84 24.13 28.36 26.06 28.36 26.06 22.91"/><polygon class="cls-1" points="36.45 22.91 31.03 22.91 31.03 24.84 34.52 24.84 34.52 28.36 36.45 28.36 36.45 22.91"/><polygon class="cls-1" points="44.91 28.36 46.84 28.36 46.84 22.91 41.42 22.91 41.42 24.84 44.91 24.84 44.91 28.36"/><polygon class="cls-1" points="26.06 31.2 20.64 31.2 20.64 33.13 24.13 33.13 24.13 36.64 26.06 36.64 26.06 31.2"/><polygon class="cls-1" points="36.45 31.2 31.03 31.2 31.03 33.13 34.52 33.13 34.52 36.64 36.45 36.64 36.45 31.2"/><polygon class="cls-1" points="26.06 44.93 26.06 39.48 20.64 39.48 20.64 41.41 24.13 41.41 24.13 44.93 26.06 44.93"/><polygon class="cls-1" points="36.45 44.93 36.45 39.48 31.03 39.48 31.03 41.41 34.52 41.41 34.52 44.93 36.45 44.93"/><polygon class="cls-1" points="15.68 31.2 10.26 31.2 10.26 33.13 13.74 33.13 13.74 36.64 15.68 36.64 15.68 31.2"/><polygon class="cls-1" points="15.68 44.93 15.68 39.48 10.26 39.48 10.26 41.41 13.74 41.41 13.74 44.93 15.68 44.93"/><path class="cls-1" d="M56.34,30a1,1,0,0,0,1.94,0V15.94a1,1,0,0,0-1-1H5A1,1,0,1,0,5,16.9H56.34Z"/><path class="cls-1" d="M1,52.66H40.56a1,1,0,0,0,0-1.93H1.93v-45H8.76a1,1,0,1,0,0-1.93H1a1,1,0,0,0-1,1v47A1,1,0,0,0,1,52.66Z"/><path class="cls-1" d="M17.52,0H12.79a1,1,0,0,0-1,1V9.78a1,1,0,0,0,1,1h4.73a1,1,0,0,0,1-1V8.05a1,1,0,1,0-1.93,0v.77h-2.8V1.93h2.8V4.75a1,1,0,0,0,1,1h0l20.21,0a1,1,0,1,0,0-1.93h0l-19.25,0V1A1,1,0,0,0,17.52,0Z"/><path class="cls-1" d="M46.45,1a1,1,0,0,0-1-1H40.76a1,1,0,0,0-1,1V9.78a1,1,0,0,0,1,1h4.73a1,1,0,0,0,1-1V8.1a1,1,0,1,0-1.93,0v.72h-2.8V1.93h2.8V4.72a1,1,0,0,0,1,1H56.34V12.4a1,1,0,0,0,1.94,0V4.72a1,1,0,0,0-1-1H46.45Z"/></g></g></svg>