<svg xmlns="http://www.w3.org/2000/svg" xmlns:xlink="http://www.w3.org/1999/xlink" viewBox="0 0 215.45 247.9"><defs><style>.cls-1{fill:none;}.cls-2{fill:#ffe037;}.cls-3{fill:#ceeae8;}.cls-4{fill:#158ba4;}.cls-5{fill:url(#New_Pattern_Swatch_3);}.cls-6{fill:#3e3a39;}</style><pattern id="New_Pattern_Swatch_3" data-name="New Pattern Swatch 3" width="100" height="100" patternTransform="translate(-58.14 -153.27)" patternUnits="userSpaceOnUse" viewBox="0 0 100 100"><rect class="cls-1" width="100" height="100"/><polygon class="cls-1" points="55.96 0 0 55.96 0 62.22 62.22 0 55.96 0"/><polygon class="cls-1" points="46.87 0 0 46.87 0 53.13 53.13 0 46.87 0"/><polygon class="cls-1" points="37.78 0 0 37.78 0 44.04 44.04 0 37.78 0"/><polygon class="cls-1" points="10.51 0 0 10.51 0 16.77 16.77 0 10.51 0"/><polygon class="cls-1" points="1.41 0 0 1.41 0 7.68 7.68 0 1.41 0"/><polygon class="cls-1" points="28.69 0 0 28.69 0 34.95 34.95 0 28.69 0"/><polygon class="cls-1" points="19.6 0 0 19.6 0 25.86 25.86 0 19.6 0"/><polygon class="cls-1" points="92.32 0 0 92.32 0 98.59 98.59 0 92.32 0"/><polygon class="cls-1" points="65.05 0 0 65.05 0 71.31 71.31 0 65.05 0"/><polygon class="cls-1" points="44.04 100 100 44.04 100 37.78 37.78 100 44.04 100"/><polygon class="cls-1" points="62.22 100 100 62.22 100 55.96 55.96 100 62.22 100"/><polygon class="cls-1" points="34.95 100 100 34.95 100 28.69 28.69 100 34.95 100"/><polygon class="cls-1" points="53.13 100 100 53.13 100 46.87 46.87 100 53.13 100"/><polygon class="cls-1" points="100 7.68 100 1.41 1.41 100 7.68 100 100 7.68"/><polygon class="cls-1" points="25.86 100 100 25.86 100 19.6 19.6 100 25.86 100"/><polygon class="cls-1" points="16.77 100 100 16.77 100 10.51 10.51 100 16.77 100"/><polygon class="cls-1" points="71.31 100 100 71.31 100 65.05 65.05 100 71.31 100"/><polygon class="cls-1" points="98.59 100 100 98.59 100 92.32 92.32 100 98.59 100"/><polygon class="cls-1" points="80.4 100 100 80.4 100 74.14 74.14 100 80.4 100"/><polygon class="cls-1" points="89.5 100 100 89.5 100 83.23 83.23 100 89.5 100"/><polygon class="cls-1" points="83.23 0 0 83.23 0 89.5 89.5 0 83.23 0"/><polygon class="cls-1" points="74.14 0 0 74.14 0 80.4 80.4 0 74.14 0"/><polygon class="cls-2" points="37.78 100 100 37.78 100 34.95 34.95 100 37.78 100"/><polygon class="cls-2" points="55.96 100 100 55.96 100 53.13 53.13 100 55.96 100"/><polygon class="cls-2" points="53.13 0 0 53.13 0 55.96 55.96 0 53.13 0"/><polygon class="cls-2" points="34.95 0 0 34.95 0 37.78 37.78 0 34.95 0"/><polygon class="cls-2" points="16.77 0 0 16.77 0 19.6 19.6 0 16.77 0"/><polygon class="cls-2" points="46.87 100 100 46.87 100 44.04 44.04 100 46.87 100"/><polygon class="cls-2" points="25.86 0 0 25.86 0 28.69 28.69 0 25.86 0"/><polygon class="cls-2" points="10.51 100 100 10.51 100 7.68 7.68 100 10.51 100"/><polygon class="cls-2" points="44.04 0 0 44.04 0 46.87 46.87 0 44.04 0"/><polygon class="cls-2" points="28.69 100 100 28.69 100 25.86 25.86 100 28.69 100"/><polygon class="cls-2" points="19.6 100 100 19.6 100 16.77 16.77 100 19.6 100"/><polygon class="cls-2" points="100 0 98.59 0 0 98.59 0 100 1.41 100 100 1.41 100 0"/><polygon class="cls-2" points="62.22 0 0 62.22 0 65.05 65.05 0 62.22 0"/><polygon class="cls-2" points="7.68 0 0 7.68 0 10.51 10.51 0 7.68 0"/><polygon class="cls-2" points="80.4 0 0 80.4 0 83.23 83.23 0 80.4 0"/><polygon class="cls-2" points="92.32 100 100 92.32 100 89.5 89.5 100 92.32 100"/><polygon class="cls-2" points="89.5 0 0 89.5 0 92.32 92.32 0 89.5 0"/><polygon class="cls-2" points="100 100 100 98.59 98.59 100 100 100"/><polygon class="cls-2" points="74.14 100 100 74.14 100 71.31 71.31 100 74.14 100"/><polygon class="cls-2" points="65.05 100 100 65.05 100 62.22 62.22 100 65.05 100"/><polygon class="cls-2" points="71.31 0 0 71.31 0 74.14 74.14 0 71.31 0"/><polygon class="cls-2" points="83.23 100 100 83.23 100 80.4 80.4 100 83.23 100"/><polygon class="cls-2" points="0 0 0 1.41 1.41 0 0 0"/></pattern></defs><g id="Layer_2" data-name="Layer 2"><g id="レイヤー_1" data-name="レイヤー 1"><path class="cls-3" d="M7.55,99.38C-9.54,128,3.37,153.81,36.31,161.7c8.79,29.56,37.61,41.14,69.45,25.81,31.84,15.33,60.66,3.75,69.45-25.81C208.15,153.81,221.05,128,204,99.38c17.08-28.57,4.18-54.43-28.76-62.31C166.42,7.51,137.6-4.07,105.76,11.26,73.92-4.07,45.1,7.51,36.31,37.07,3.37,45-9.54,70.81,7.55,99.38Z"/><ellipse class="cls-3" cx="115.32" cy="219.96" rx="14.36" ry="11.67" transform="translate(-46.81 31.82) rotate(-13.09)"/><path class="cls-3" d="M139.45,231.73c4.49,0,8.27,2.52,8.88,6.24a7,7,0,0,1-1.1,4.93,11.32,11.32,0,0,1-7.47,4.78c-5.45,1-10.47-1.67-11.18-6h0a7,7,0,0,1,1.1-4.93,11.28,11.28,0,0,1,7.46-4.78A12.28,12.28,0,0,1,139.45,231.73Z"/><path class="cls-4" d="M38.36,159.4c-22.9-5.67-36.55-20.13-36.55-38.78,0-7.94,2.46-16.2,7.33-24.54C4.27,87.73,1.81,79.47,1.81,71.53,1.81,55,12.57,41.62,31.33,34.87a1.06,1.06,0,0,1,1.35.76A1.21,1.21,0,0,1,32,37.11c-17.83,6.41-28,19-28,34.42,0,7.68,2.47,15.72,7.36,23.9a1.26,1.26,0,0,1,0,1.3c-4.89,8.17-7.36,16.21-7.36,23.89,0,17.62,13.26,31.3,35.47,36.62a1.1,1.1,0,0,1,.78.78c5.92,19.9,21.27,31.77,41.08,31.77,8.68,0,17.74-2.24,26.93-6.67a1,1,0,0,1,.85,0c9.2,4.43,18.26,6.67,26.94,6.67,19.8,0,35.16-11.87,41.08-31.77a1.1,1.1,0,0,1,.78-.78c22.21-5.32,35.47-19,35.47-36.62a41.26,41.26,0,0,0-2.67-14.17,1.23,1.23,0,0,1,.58-1.54,1,1,0,0,1,1.39.65,43.71,43.71,0,0,1,2.83,15.06c0,18.65-13.65,33.11-36.56,38.78-6.35,20.52-22.34,32.75-42.9,32.75-8.84,0-18-2.24-27.36-6.66-9.32,4.42-18.52,6.66-27.36,6.66C60.71,192.15,44.72,179.92,38.36,159.4ZM210.12,89.87a1.24,1.24,0,0,1-.51-1.57,42.4,42.4,0,0,0,3.71-16.77c0-17.61-13.26-31.3-35.47-36.62a1.08,1.08,0,0,1-.78-.78C171.15,14.23,155.79,2.36,136,2.36c-8.68,0-17.74,2.24-26.94,6.67a1,1,0,0,1-.85,0C99,4.6,90,2.36,81.27,2.36c-16.07,0-29.58,8-37.08,22a1,1,0,0,1-1.46.41,1.24,1.24,0,0,1-.37-1.61C50.25,8.43,64.43,0,81.27,0c8.84,0,18,2.24,27.36,6.67C118,2.24,127.15,0,136,0c20.56,0,36.55,12.23,42.9,32.75,22.91,5.68,36.56,20.14,36.56,38.78a45.09,45.09,0,0,1-3.91,17.79,1.07,1.07,0,0,1-1,.67A1,1,0,0,1,210.12,89.87Z"/><path class="cls-4" d="M101.76,218h0a10.72,10.72,0,0,1-.15-1.79c0-6.43,5.68-12.34,13.22-13.76a18.63,18.63,0,0,1,3.4-.32c7.16,0,12.84,4.17,13.83,10.15a10.72,10.72,0,0,1,.15,1.79c0,6.43-5.68,12.34-13.21,13.76a18.72,18.72,0,0,1-3.4.32C108.44,228.11,102.75,223.94,101.76,218Zm13.42-13.22c-6.52,1.22-11.44,6.14-11.44,11.43a7.93,7.93,0,0,0,.12,1.37c.78,4.76,5.72,8.21,11.74,8.21a16.55,16.55,0,0,0,3-.29c6.52-1.22,11.44-6.14,11.44-11.43a8.94,8.94,0,0,0-.11-1.37c-.79-4.76-5.73-8.21-11.74-8.21A16.66,16.66,0,0,0,115.18,204.74Zm-12.38,13h0Z"/><path class="cls-4" d="M129.12,237a8.91,8.91,0,0,1-.1-1.26,8.58,8.58,0,0,1,1.38-4.56,12.44,12.44,0,0,1,8.16-5.27,13.87,13.87,0,0,1,2.48-.23c5.15,0,9.23,3,9.93,7.2a7.57,7.57,0,0,1,.11,1.26,8.61,8.61,0,0,1-1.38,4.56,12.44,12.44,0,0,1-8.16,5.27,14,14,0,0,1-2.49.23C133.91,244.22,129.83,241.26,129.12,237Zm9.8-8.77a10.29,10.29,0,0,0-6.78,4.3,6.05,6.05,0,0,0-1,3.21,4.57,4.57,0,0,0,.07.83c.5,3.06,3.8,5.27,7.83,5.27a11,11,0,0,0,2.13-.2,10.21,10.21,0,0,0,6.77-4.3,6,6,0,0,0,1-3.2,4.76,4.76,0,0,0-.07-.84c-.5-3-3.8-5.27-7.84-5.27A11.7,11.7,0,0,0,138.92,228.25Z"/><path class="cls-4" d="M128.79,32.34a4.44,4.44,0,0,1-4.43-4.44.7.7,0,0,0-.7-.69.69.69,0,0,0-.69.69,4.44,4.44,0,0,1-4.44,4.44.69.69,0,0,0-.69.69.7.7,0,0,0,.69.7A4.44,4.44,0,0,1,123,38.16a.69.69,0,0,0,.69.7.7.7,0,0,0,.7-.7,4.44,4.44,0,0,1,4.43-4.43.7.7,0,0,0,.7-.7A.69.69,0,0,0,128.79,32.34Zm-5.13,3.07A5.81,5.81,0,0,0,121.28,33a5.81,5.81,0,0,0,2.38-2.38A5.81,5.81,0,0,0,126,33,5.81,5.81,0,0,0,123.66,35.41Z"/><path class="cls-4" d="M114.19,43.69a.69.69,0,0,0-.7.69,4.44,4.44,0,0,1-4.43,4.44.7.7,0,1,0,0,1.39,4.44,4.44,0,0,1,4.43,4.43.7.7,0,1,0,1.39,0,4.44,4.44,0,0,1,4.44-4.43.7.7,0,0,0,0-1.39,4.44,4.44,0,0,1-4.44-4.44A.69.69,0,0,0,114.19,43.69Zm2.37,5.82a5.84,5.84,0,0,0-2.37,2.38,5.87,5.87,0,0,0-2.38-2.38,5.9,5.9,0,0,0,2.38-2.37A5.88,5.88,0,0,0,116.56,49.51Z"/><path class="cls-4" d="M98.17,38.33a.7.7,0,1,0-1.39,0,4.45,4.45,0,0,1-4.44,4.44.69.69,0,0,0,0,1.38,4.44,4.44,0,0,1,4.44,4.44.7.7,0,1,0,1.39,0,4.44,4.44,0,0,1,4.44-4.44.69.69,0,0,0,0-1.38A4.45,4.45,0,0,1,98.17,38.33Zm-.69,7.51a5.87,5.87,0,0,0-2.38-2.38,5.87,5.87,0,0,0,2.38-2.38,5.84,5.84,0,0,0,2.37,2.38A5.84,5.84,0,0,0,97.48,45.84Z"/><path class="cls-4" d="M126.27,46.76a17.72,17.72,0,0,0-.39-5.81,7,7,0,0,1-1.67,1.19,16.26,16.26,0,0,1,.18,4.45,25.74,25.74,0,0,1-5.22,12.85,5,5,0,0,0-.91,3.6c1.4,8.08-1.13,15.49-3.39,18.17a2.68,2.68,0,0,1-1.7,1.15c-1.1,0-1.69-2-2.52-6.31-.88-4.56-2-10.22-6.46-10.23S98.61,71.49,97.73,76c-.81,4.19-1.42,6.32-2.52,6.32a2.84,2.84,0,0,1-1.82-1.21c-2.57-3.06-4.57-10.48-3.23-18.23a5.09,5.09,0,0,0-.9-3.6c-1.1-1.42-4.73-6.53-5.27-12.73-.35-4,.5-7.16,2.45-9.3a9.14,9.14,0,0,1,6.87-2.8,13.27,13.27,0,0,1,4.78.93l.73.3a11.82,11.82,0,0,0,10.7,0l.77-.32a13.76,13.76,0,0,1,4.32-.92,6.92,6.92,0,0,1,.78-1.89,14.85,14.85,0,0,0-5.79,1.06l-.79.32a9.93,9.93,0,0,1-9.22,0l-.81-.33a15.14,15.14,0,0,0-5.47-1.06A11,11,0,0,0,85.06,36c-2.32,2.53-3.34,6.25-3,10.74a27.62,27.62,0,0,0,5.66,13.72,3.14,3.14,0,0,1,.54,2.12C86.85,71,89,78.9,92,82.36a4.36,4.36,0,0,0,3.26,1.88c2.85,0,3.59-3.81,4.37-7.84,1-4.92,1.9-8.69,4.61-8.7s3.66,3.78,4.61,8.7c.78,4,1.52,7.84,4.37,7.84a4.19,4.19,0,0,0,3.14-1.82c2.91-3.45,5.22-11.53,3.8-19.71a3.12,3.12,0,0,1,.54-2.11A27.31,27.31,0,0,0,126.27,46.76Z"/><rect class="cls-5" x="36.76" y="105.39" width="110.11" height="14"/><path class="cls-6" d="M61.24,95.63c.06.17,0,.29-.08.34a.49.49,0,0,1-.35.09l-1,2.32h8.08V114.1H65.28v-1H54.2v1.21H51.62V98.38H57.2c.4-1.15.81-2.41,1.21-3.78l2.15.6C61,95.31,61.19,95.46,61.24,95.63Zm-7,5v4H65.28v-4Zm0,6.19v4H65.28v-4Z"/><path class="cls-6" d="M81.7,96.83q-2.33,2.67-6.62,6.79a.94.94,0,0,0,0,1.46,101.19,101.19,0,0,1,7.65,7l-1.89,2c-2.3-2.52-5.07-5.29-8.34-8.33a1.69,1.69,0,0,1,0-2.84,69.62,69.62,0,0,0,7.82-8.5L82,95.89C82.9,96.63,82.78,97,81.7,96.83Z"/><path class="cls-6" d="M94.5,95.11c.06.17-.06.32-.34.43l.68,3.27L101.2,98l.35,2.41-6.1.77.77,3.36,8.16-.95.35,2.41-7.91.94,1.63,7-2.66.43-1.55-7-8.85.94-.26-2.49,8.6-.86L93,101.56l-5.93.6-.34-2.49,5.59-.52-.78-4,2.24-.26C94.19,94.8,94.44,94.88,94.5,95.11Z"/><path class="cls-6" d="M110.92,96.83c0,.17-.06.35-.35.52v12.8a17.92,17.92,0,0,0,6.45-2.4,16.49,16.49,0,0,0,4.81-5.5l1.8,1.71a17.37,17.37,0,0,1-5.58,5.93,21.53,21.53,0,0,1-7.39,3l-1,.43-1.81-1.55.17-.43V96.57h2.24C110.63,96.57,110.86,96.66,110.92,96.83Z"/><path class="cls-6" d="M140.22,97.69a40.77,40.77,0,0,1-4.47,4.73v11.51h-2.58v-9.54a45.52,45.52,0,0,1-6.61,4l-1.81-2.24a46.62,46.62,0,0,0,7.82-4.55,29.83,29.83,0,0,0,6.19-6.36l1.89,1.63C141.45,97.52,141.31,97.81,140.22,97.69Z"/><path class="cls-6" d="M151.48,95.54c.05.17-.09.29-.43.35l-.69,2.4c.92-.17,1.86-.37,2.84-.6l.43,2.49c-1.38.23-2.73.43-4,.6-.35,1-1,2.55-1.89,4.73a49.49,49.49,0,0,1-2.32,4.81L143.14,109a40.85,40.85,0,0,0,2.41-4.3A22.21,22.21,0,0,0,147,101c-1.38.12-2.49.17-3.35.17l-.26-2.57q2.23,0,4.38-.09c.4-1.32.78-2.72,1.12-4.21l2,.69Q151.48,95.2,151.48,95.54Zm5.93,7a.73.73,0,0,1-.26.43v5a19.94,19.94,0,0,1,4.64,2.32l-1.29,2.07a19.63,19.63,0,0,0-3.44-1.81,4,4,0,0,1-1.11,2.49,4.67,4.67,0,0,1-3.44,1.12,5.16,5.16,0,0,1-2.92-.86,3,3,0,0,1-1.29-2.66,3.09,3.09,0,0,1,1.72-2.75,6.47,6.47,0,0,1,4.72-.52v-5.07h2.07C157.15,102.33,157.35,102.42,157.41,102.59ZM151.05,110a1.06,1.06,0,0,0-.43.86,1,1,0,0,0,.6.86,3.35,3.35,0,0,0,1.46.26,2.41,2.41,0,0,0,1.46-.52,2.44,2.44,0,0,0,.6-1.63,3.4,3.4,0,0,0-.94-.17,9.46,9.46,0,0,0-1.21-.09A2.13,2.13,0,0,0,151.05,110Zm9.71-7.56a40,40,0,0,0-6.19-2.92l1-1.9a27.73,27.73,0,0,1,6.19,2.75Z"/><path class="cls-6" d="M48.61,118.85v1h5.93v2.06H48.61V123h8.85V125H51.19l1.12.6c.28.18.34.35.17.52a.49.49,0,0,1-.35.09,24.1,24.1,0,0,0-1.2,2.14h1.72v2.07H49.47a7.08,7.08,0,0,0,1.63,1.29,6.49,6.49,0,0,0,2.15.85v-7.3h2.06c.69.06.81.29.35.69v12.46H53.25v-.6H41.31v.86H38.9V125.3H41c.69.06.8.29.35.69v6.61a7.31,7.31,0,0,0,1.54-.6,7.76,7.76,0,0,0,2.24-1.54H41.82v-2.07H44a23.59,23.59,0,0,0-1.89-2.32l1.46-1H37.18V123h4v-3.35h2.06c.69.06.8.29.35.69V123H46.2v-4.81h2.07C49,118.22,49.07,118.45,48.61,118.85Zm-.17,16.68H46v-3.18l-.69.68a11.35,11.35,0,0,1-3.17,1.9l-.86-1.81v2.66H53.25V133l-.94,1.9a10,10,0,0,1-3.87-2.75Zm-.35-10.23c.69.06.81.29.35.69v2.4h2L49,127.53A10.85,10.85,0,0,0,50.24,125H43.8a15.81,15.81,0,0,1,2,2.24l-1.54,1.11H46V125.3Z"/><path class="cls-6" d="M63.74,120.75c0,.17-.12.28-.52.34a58.2,58.2,0,0,0-.52,16.07l-2.66.17a63.74,63.74,0,0,1,.69-17.62l2.15.52C63.39,120.35,63.68,120.52,63.74,120.75Zm14.09,12.37v2.58H71.47a6.1,6.1,0,0,1-3-.77,11.75,11.75,0,0,1-2.75-2.07l1.55-1.8a8.54,8.54,0,0,0,2,1.54,5.3,5.3,0,0,0,2.57.52Zm-1.2-8.34a61.37,61.37,0,0,0-10.32.52v-2.49a79.28,79.28,0,0,1,10.32-.52Z"/><path class="cls-6" d="M84,120.23c0,.17-.06.34-.35.52v11.94a2.88,2.88,0,0,0,.69,2c.4.46,1.29.68,2.66.68,2.07,0,4.27-1.25,6.62-3.78l1.81,2q-3.8,4.13-8.17,4.38a6.35,6.35,0,0,1-4.38-1.11A4.52,4.52,0,0,1,81.09,133V120h2.24C83.73,120,84,120.06,84,120.23Z"/><path class="cls-6" d="M104.38,119.46c.06.17-.08.34-.43.51-.11.52-.23,1.06-.34,1.63s-.11,1-.17,1.47c1.14-.18,2.32-.38,3.52-.61l.35,2.41-4.22.69q-.51,3.09-1.46,6.62-.85,3.34-1.63,5.5l-2.66-.61a36.24,36.24,0,0,0,1.8-5.24c.69-2.63,1.15-4.64,1.38-6-.58,0-1.15,0-1.72.08s-1.26.09-1.89.09l-.35-2.49a26.86,26.86,0,0,0,4.3-.18c.23-1.54.46-3.12.69-4.72l2.06.43C104.07,119.08,104.33,119.23,104.38,119.46Zm3.44,15.12a11,11,0,0,0,2.84.35H115v2.49h-4.64a10,10,0,0,1-3.09-.43,12.17,12.17,0,0,1-2.92-1.55l1.12-2A6.48,6.48,0,0,0,107.82,134.58Zm6.7-6.1a28.17,28.17,0,0,0-4.46.34,17,17,0,0,0-3.87,1.12l-.69-2.32a16.35,16.35,0,0,1,4.21-1.29,28.13,28.13,0,0,1,4.47-.34Z"/><path class="cls-6" d="M120.88,121.6c.06.18-.08.35-.43.52a49.85,49.85,0,0,0-.43,5.59,20,20,0,0,0,.43,5.07c.18.8.49,1.23,1,1.29s.94-.49,1.46-1.47l1-2.14,2.15,1.63a26,26,0,0,1-1.29,2.84,3.53,3.53,0,0,1-3.18,2.06q-4-.44-4-8.51c0-2.92.12-5.59.35-8l2.32.6A.82.82,0,0,1,120.88,121.6Zm12,11.09a20.1,20.1,0,0,0-1.12-4.64,18.19,18.19,0,0,0-3-4.9l1.89-1.37a17.57,17.57,0,0,1,3.52,5,17.22,17.22,0,0,1,1.55,5.24Z"/><path class="cls-6" d="M146.24,119.54c0,.17-.09.29-.43.35l-.69,2.4c.91-.17,1.86-.37,2.83-.6l.43,2.49c-1.37.23-2.72.43-4,.6-.34,1-1,2.55-1.89,4.73a47.25,47.25,0,0,1-2.32,4.81L137.9,133a40.85,40.85,0,0,0,2.41-4.3,23.16,23.16,0,0,0,1.46-3.61c-1.38.12-2.5.17-3.35.17l-.26-2.57q2.24,0,4.38-.09c.4-1.32.77-2.72,1.12-4.21l2,.69C146,119.14,146.24,119.31,146.24,119.54Zm5.93,7a.73.73,0,0,1-.26.43v5a19.94,19.94,0,0,1,4.64,2.32l-1.29,2.07a19.63,19.63,0,0,0-3.44-1.81,4,4,0,0,1-1.12,2.49,4.64,4.64,0,0,1-3.43,1.12,5.19,5.19,0,0,1-2.93-.86,3,3,0,0,1-1.28-2.66,3.1,3.1,0,0,1,1.71-2.75,6.5,6.5,0,0,1,4.73-.52v-5.07h2.06C151.91,126.33,152.11,126.42,152.17,126.59ZM145.81,134a1.06,1.06,0,0,0-.43.86,1,1,0,0,0,.6.86,3.35,3.35,0,0,0,1.46.26,2.44,2.44,0,0,0,1.46-.52,2.55,2.55,0,0,0,.6-1.63,3.47,3.47,0,0,0-.94-.17,9.46,9.46,0,0,0-1.21-.09A2.13,2.13,0,0,0,145.81,134Zm9.71-7.56a40.43,40.43,0,0,0-6.19-2.92l1-1.9a27.94,27.94,0,0,1,6.19,2.75Z"/><path class="cls-6" d="M165.4,122c.11.23,0,.41-.34.52l-.18,2.23,5.85-.43.17,2.15-6.1.43v1.21A12,12,0,0,1,167,128l.17-1,1.89.26c.46,0,.69.12.69.34a.52.52,0,0,1-.34.26l-.17.43q4.29,1.13,4.55,4.47a4.73,4.73,0,0,1-1.89,4.56,6.8,6.8,0,0,1-3.87,1.46L167,136.56c3-.57,4.47-1.69,4.47-3.35s-.86-2.55-2.58-3a13.08,13.08,0,0,1-2.67,5.07c.23.29.43.54.6.77l-1.71,1.29a4.49,4.49,0,0,1-.52-.6,4.18,4.18,0,0,1-3,1.37,2.65,2.65,0,0,1-2.83-2.83,7,7,0,0,1,.94-3.7,6.42,6.42,0,0,1,2.92-2.57v-2l-2.83.08-.17-2.14,3.09-.09c0-.52.09-1.55.26-3.09h1.72C165,121.78,165.28,121.86,165.4,122Zm-4.47,12.72c0,.86.32,1.29.95,1.29a2.29,2.29,0,0,0,1.63-1.11,9,9,0,0,1-.77-3.7A4.23,4.23,0,0,0,160.93,134.75Zm3.95-4.47a12.86,12.86,0,0,0,.09,1.47,4.93,4.93,0,0,0,.34,1.28,7.61,7.61,0,0,0,.86-1.71c.23-.63.37-1.06.43-1.29A6.67,6.67,0,0,0,164.88,130.28Z"/></g></g></svg>