<svg xmlns="http://www.w3.org/2000/svg" viewBox="0 0 357.66 66.83"><defs><style>.cls-1{fill:#ad8533;}</style></defs><g id="Layer_2" data-name="Layer 2"><g id="レイヤー_3" data-name="レイヤー 3"><path class="cls-1" d="M45.12,34.24H27.84v10H45.12v1.6H27.84V59.76h-7.2V45.84H3.36v-1.6H20.64v-10H3.36V32.48H20.08L0,1.36H7.28L24.24,28l17-26.64h7.28L28.4,32.48H45.12Z"/><path class="cls-1" d="M82.13,26.88a17,17,0,0,1,6.4,2.8,11.88,11.88,0,0,1,4.08,5.6,21,21,0,0,1,1,7,23.86,23.86,0,0,1-1.12,7.84,14.94,14.94,0,0,1-4.4,6.64,15.21,15.21,0,0,1-6.08,3.12,24.92,24.92,0,0,1-6.8,1c-2.32,0-4.64-.08-6.88-.24a33.36,33.36,0,0,1-5.76-1.12,8.44,8.44,0,0,1-1.52-.4l-1.52-.48c-.4-.16-.88-.4-1.36-.64A3.54,3.54,0,0,1,57,57V55h5.6a18,18,0,0,0,8.4,3.6,12.38,12.38,0,0,0,8.72-1.84,16.79,16.79,0,0,0,5.12-6.48,18.33,18.33,0,0,0,1.84-8,16.78,16.78,0,0,0-1-6.24,11,11,0,0,0-3.84-5A15.9,15.9,0,0,0,76,28.4a35.46,35.46,0,0,0-6.48-.56H63.65V26.16l2.72-2.88L85.33,3H56.45V1.36h36.4V3l-2.8,2.8c-2.08,2.32-4.24,4.56-6.4,6.8-1.76,1.92-3.52,3.76-5.36,5.68-2.32,2.56-4.72,5-7.12,7.52v.32h3.92A35.65,35.65,0,0,1,82.13,26.88Z"/><path class="cls-1" d="M141.23,16.16a52.92,52.92,0,0,1,1,10,79.58,79.58,0,0,1-1.68,16.32,28.46,28.46,0,0,1-3.44,9.76,14.77,14.77,0,0,1-7.76,6.64A32.35,32.35,0,0,1,116.43,61a36.1,36.1,0,0,1-12.88-3V56.4h4.16A34.63,34.63,0,0,1,114,57.92a12,12,0,0,0,6.48.4,11.24,11.24,0,0,0,5.2-2.24,17.58,17.58,0,0,0,3.92-4.16A18.75,18.75,0,0,0,133,45c.32-1.44.72-3,1.12-4.4V39a11.27,11.27,0,0,0,.08-1.6,3.4,3.4,0,0,1,.48-1.52,1.26,1.26,0,0,1-.56.56,23.41,23.41,0,0,1-9.84,3.68,29.37,29.37,0,0,1-10.56-.48,19,19,0,0,1-9-5.12,18.28,18.28,0,0,1-3.68-7,27.94,27.94,0,0,1-1-7.76,18.78,18.78,0,0,1,5.28-13.92,17.36,17.36,0,0,1,7.52-4.56A28.48,28.48,0,0,1,120.91,0h.64a26.87,26.87,0,0,1,8.72,1.76,17.74,17.74,0,0,1,7.2,5.2A25.14,25.14,0,0,1,141.23,16.16ZM130,33.36a16.73,16.73,0,0,0,4.72-12V19.44a27.22,27.22,0,0,0-.56-2.72,9.65,9.65,0,0,0-.88-3.92,11.21,11.21,0,0,0-1.92-3.6,13.73,13.73,0,0,0-2.72-3.68,11.2,11.2,0,0,0-8.72-2.64A13.12,13.12,0,0,0,111.63,7a13.62,13.62,0,0,0-3.52,5.92,20.17,20.17,0,0,0-1,6.88,23.3,23.3,0,0,0,.88,7A17.35,17.35,0,0,0,111.31,33a11.06,11.06,0,0,0,8.88,4.48A14.3,14.3,0,0,0,130,33.36Z"/><path class="cls-1" d="M185.09,31.36a15.45,15.45,0,0,1,5.68,5.44,12.83,12.83,0,0,1,1.92,7.68,14,14,0,0,1-5.2,11.68,17.85,17.85,0,0,1-7.68,3.6,50.24,50.24,0,0,1-8.48,1.12,36.19,36.19,0,0,1-8.8-1,19.32,19.32,0,0,1-7.85-3.76,14.33,14.33,0,0,1-5-11.68,13.14,13.14,0,0,1,2-7.6,14.38,14.38,0,0,1,5.61-5.36,32.35,32.35,0,0,1,7.44-2.88,21,21,0,0,1-9.44-5.84,13.64,13.64,0,0,1-3.37-9.12,10.88,10.88,0,0,1,4.41-9.44,15.3,15.3,0,0,1,7-3.2,31.45,31.45,0,0,1,7.75-.72,18.34,18.34,0,0,1,2.09-.08,28.31,28.31,0,0,1,5.76.64,17.74,17.74,0,0,1,7.12,3.36,11.91,11.91,0,0,1,4.48,9.44,13.68,13.68,0,0,1-3.36,9.12,18.67,18.67,0,0,1-9.44,5.52A32.51,32.51,0,0,1,185.09,31.36Zm-4,23.6a12.79,12.79,0,0,0,4.4-10.48,11.86,11.86,0,0,0-1.84-7.2,13.54,13.54,0,0,0-5.52-4.88,28.11,28.11,0,0,0-7-2.4A29,29,0,0,0,164,32.4a13.5,13.5,0,0,0-5.43,5,12.09,12.09,0,0,0-1.92,7.12A13.07,13.07,0,0,0,161.33,55a14.64,14.64,0,0,0,9.75,3.68A14.88,14.88,0,0,0,181.09,55ZM163,22.8a18.39,18.39,0,0,0,8.08,4.48,20.22,20.22,0,0,0,8.25-4.48,11.78,11.78,0,0,0,4.24-9.12,10.17,10.17,0,0,0-4.24-8.4,13.45,13.45,0,0,0-8.16-2.64A13.85,13.85,0,0,0,163,5.28a10.12,10.12,0,0,0-4.16,8.4A11.74,11.74,0,0,0,163,22.8Z"/><path class="cls-1" d="M203.24,66.83h-5.76l4.86-14.2h5.57Z"/><path class="cls-1" d="M255.1,30.56A59.63,59.63,0,0,1,253.74,43,30.92,30.92,0,0,1,251,51.92a20.77,20.77,0,0,1-4.48,5.36,16.46,16.46,0,0,1-5,2.48,29.58,29.58,0,0,1-15.84,0,16,16,0,0,1-5-2.48,18,18,0,0,1-4.48-5.36,40.2,40.2,0,0,1-3-8.88,81.31,81.31,0,0,1-1.12-12.48A82.35,82.35,0,0,1,213.18,18a38.22,38.22,0,0,1,3-8.8,13.67,13.67,0,0,1,4.48-5.28,13.73,13.73,0,0,1,5-2.72,28.35,28.35,0,0,1,7.76-1c1,0,2,.08,3,.16a21.58,21.58,0,0,1,10.08,3.6A16.78,16.78,0,0,1,251,9.2a28.81,28.81,0,0,1,2.72,8.8A60.38,60.38,0,0,1,255.1,30.56ZM239.58,56.72a17.23,17.23,0,0,0,5.68-7.44A37.42,37.42,0,0,0,247.5,40a74.54,74.54,0,0,0,.4-9.44,61,61,0,0,0-.48-10.8,50.22,50.22,0,0,0-1.84-6.8,20.75,20.75,0,0,0-3.52-6,10.15,10.15,0,0,0-5.28-3.6,17.76,17.76,0,0,0-4.08-.48,8.54,8.54,0,0,0-4,.8A15.48,15.48,0,0,0,222.22,11a34.31,34.31,0,0,0-2.64,9.6c-.32,3.36-.56,6.64-.56,10a73.57,73.57,0,0,0,.88,11.12A28.4,28.4,0,0,0,225.66,55a7.9,7.9,0,0,0,5.6,3h2.24A14.3,14.3,0,0,0,239.58,56.72Z"/><path class="cls-1" d="M306.38,30.56A59.63,59.63,0,0,1,305,43a30.92,30.92,0,0,1-2.72,8.88,20.77,20.77,0,0,1-4.48,5.36,16.46,16.46,0,0,1-5,2.48,29.58,29.58,0,0,1-15.84,0,16,16,0,0,1-5-2.48,18,18,0,0,1-4.48-5.36,40.2,40.2,0,0,1-3-8.88,81.31,81.31,0,0,1-1.12-12.48A82.35,82.35,0,0,1,264.46,18a38.22,38.22,0,0,1,3-8.8A13.67,13.67,0,0,1,272,3.92a13.73,13.73,0,0,1,5-2.72,28.35,28.35,0,0,1,7.76-1c1,0,2,.08,3,.16a21.58,21.58,0,0,1,10.08,3.6A16.78,16.78,0,0,1,302.3,9.2,28.81,28.81,0,0,1,305,18,60.38,60.38,0,0,1,306.38,30.56ZM290.86,56.72a17.23,17.23,0,0,0,5.68-7.44A37.42,37.42,0,0,0,298.78,40a74.54,74.54,0,0,0,.4-9.44,61,61,0,0,0-.48-10.8,50.22,50.22,0,0,0-1.84-6.8,20.75,20.75,0,0,0-3.52-6,10.15,10.15,0,0,0-5.28-3.6A17.76,17.76,0,0,0,284,2.88a8.54,8.54,0,0,0-4,.8A15.48,15.48,0,0,0,273.5,11a34.31,34.31,0,0,0-2.64,9.6c-.32,3.36-.56,6.64-.56,10a73.57,73.57,0,0,0,.88,11.12A28.4,28.4,0,0,0,276.94,55a7.9,7.9,0,0,0,5.6,3h2.24A14.3,14.3,0,0,0,290.86,56.72Z"/><path class="cls-1" d="M357.66,30.56A59.63,59.63,0,0,1,356.3,43a30.92,30.92,0,0,1-2.72,8.88,20.77,20.77,0,0,1-4.48,5.36,16.46,16.46,0,0,1-5,2.48,29.58,29.58,0,0,1-15.84,0,16,16,0,0,1-5-2.48,18,18,0,0,1-4.48-5.36,40.2,40.2,0,0,1-3-8.88,81.31,81.31,0,0,1-1.12-12.48A82.35,82.35,0,0,1,315.74,18a38.22,38.22,0,0,1,3-8.8,13.67,13.67,0,0,1,4.48-5.28,13.73,13.73,0,0,1,5-2.72,28.35,28.35,0,0,1,7.76-1c1,0,2,.08,3,.16a21.58,21.58,0,0,1,10.08,3.6,16.78,16.78,0,0,1,4.48,5.28A28.81,28.81,0,0,1,356.3,18,60.38,60.38,0,0,1,357.66,30.56ZM342.14,56.72a17.23,17.23,0,0,0,5.68-7.44A37.42,37.42,0,0,0,350.06,40a74.54,74.54,0,0,0,.4-9.44,61,61,0,0,0-.48-10.8,50.22,50.22,0,0,0-1.84-6.8,20.75,20.75,0,0,0-3.52-6,10.15,10.15,0,0,0-5.28-3.6,17.76,17.76,0,0,0-4.08-.48,8.54,8.54,0,0,0-4,.8A15.48,15.48,0,0,0,324.78,11a34.31,34.31,0,0,0-2.64,9.6c-.32,3.36-.56,6.64-.56,10a73.57,73.57,0,0,0,.88,11.12A28.4,28.4,0,0,0,328.22,55a7.9,7.9,0,0,0,5.6,3h2.24A14.3,14.3,0,0,0,342.14,56.72Z"/></g></g></svg>