<svg xmlns="http://www.w3.org/2000/svg" viewBox="0 0 283.4 156.78"><defs><style>.cls-1{fill:#158ba4;}.cls-2{fill:#fff;}.cls-3{fill:#ffe037;}</style></defs><g id="Layer_2" data-name="Layer 2"><g id="レイヤー_3" data-name="レイヤー 3"><path class="cls-1" d="M188.41,4.24,26.79,0,0,59.25q14.61,28.5,29.21,57,78.76,18.57,157.57,37L273,127,283.4,68.17c-30-21.24-59.9-42.61-89.88-63.79C191.84,4.46,190.09,4.29,188.41,4.24Z"/><path class="cls-1" d="M122.77,125.39l-21.63-3.81-6.21,35.2,28-31.36Z"/><path class="cls-2" d="M41,44.91c-.51,2.74-.33,5,4.67,5.92a22.86,22.86,0,0,0,6,.19c.54.09,1.14.51,1.05,1s-.34.57-1,.67a20.27,20.27,0,0,1-6.06-.33c-5.51-1-6.68-3.84-5.25-7.52Zm3.56-3.71,3.6-1.53c.26-.11.25-.18,0-.26-2.54-.4-4.07-.85-5.36-2.89l.39-.33a6.94,6.94,0,0,0,4.1,2,23.31,23.31,0,0,0,4,.24c.8.14,1.86.75,1.77,1.25s-.32.52-.87.52a14.1,14.1,0,0,0-2.45.19c-1.15.2-3.3.85-4.93,1.34Z"/><path class="cls-2" d="M65.18,55.32c5.48,0,8.51-2.28,9.2-6.2a6.23,6.23,0,0,0-5.31-7.46c-.26,0-.53-.07-.79-.1A4.14,4.14,0,0,1,68.8,44a10.86,10.86,0,0,1-1.28,3.37c-1.37,2.44-4.63,6.21-6.84,5.82-1.45-.26-2.56-2.83-2.09-5.49a8.46,8.46,0,0,1,3.95-5.58,9.51,9.51,0,0,1,6.74-1.2c4.46.78,7.39,4.32,6.6,8.8-.63,3.6-3.53,6.88-10.7,6.09Zm2.27-13.77A8.37,8.37,0,0,0,63,43a7,7,0,0,0-3.12,4.61c-.36,2.08.31,3.83,1.2,4,1.43.26,4-2.82,5.28-4.72a10.42,10.42,0,0,0,1.37-3.2A3.77,3.77,0,0,0,67.45,41.55Z"/><path class="cls-2" d="M88.94,49.07c-.18,1-.6,3.87-.77,5.61,0,.2,0,.4,0,.57a13.14,13.14,0,0,1,2.94,1.55c1.24.84,2.88,2.3,2.68,3.42a.58.58,0,0,1-.74.52c-.65-.12-1.12-1.47-3-3a9.14,9.14,0,0,0-2-1.24c0,.29-.06.6-.12,1-.32,1.81-1.9,2.79-4.54,2.32-2.26-.4-3.67-1.65-3.4-3.19.36-2,3-2.48,5.63-2,.5.09,1,.19,1.4.31.22-1.66.56-4.68.82-6.15s.63-3.83.66-4.27a.77.77,0,0,0-.45-.88,6.59,6.59,0,0,0-1.48-.49l0-.46a5.12,5.12,0,0,1,1.66,0c1.13.2,2.34,1.15,2.25,1.67s-.38.63-.66,1.25a17.18,17.18,0,0,0-.74,2.55c.23.06.47.1.62.13a12.56,12.56,0,0,0,2.87.06A8.48,8.48,0,0,1,94.08,48c.85.15,1.21.51,1.12,1,0,.26-.32.46-.92.55a15.5,15.5,0,0,1-3.92-.08A4,4,0,0,1,89,48.79Zm-2,6.92a14.23,14.23,0,0,0-2.07-.54c-2.08-.37-3.74.15-3.92,1.19-.13.75.56,1.5,2.18,1.79C85.75,58.9,86.5,58.05,86.89,56Z"/><path class="cls-2" d="M102.73,50.74c.19.95.5,1.5,1,1.59,1,.16,4.1-1.09,6.42-.68s3.48,2.44,3,5.33c-.84,4.79-5,6.79-11,6.67l-.08-.53c5.49-.35,8.86-2.39,9.62-6.68.41-2.32-.38-3.78-1.73-4s-3.77.72-4.69,1.11c-.53.25-1,.61-1.54.51a2.43,2.43,0,0,1-1.5-1.73,2.61,2.61,0,0,1,.18-1.51Zm2.73-5.59.32-.3a7,7,0,0,0,3.87,2c.63.11,1.42.07,1.77.13.78.14,1.63.64,1.52,1.23,0,.28-.33.39-.81.32a7.63,7.63,0,0,0-1.6-.06c-1.14.12-3.07.54-4.21.78l-.12-.44c1-.34,2.09-.71,2.77-1A5.81,5.81,0,0,1,105.46,45.15Z"/><path class="cls-2" d="M125,48.94a3.88,3.88,0,0,1,1.32,0,3.21,3.21,0,0,1,1.52.65c.33.28.17.65-1.11,3.26a10.69,10.69,0,0,0,1.69-.35c.78-.13,1.11-.34,1.48-.27a.74.74,0,0,1,.64.78c-.07.39-.61.58-.88.69a15.21,15.21,0,0,1-3.62.51,39.71,39.71,0,0,1-5.66,8.18c-.38.38-.71.68-1.12.61s-.54-.57-.47-1a1.63,1.63,0,0,1,.57-1,25.74,25.74,0,0,0,5.45-6.86A10.57,10.57,0,0,1,123,54c-1.63-.29-2.26-1-2.68-2.68l.44-.24a3.77,3.77,0,0,0,2.69,1.77,9.19,9.19,0,0,0,1.85.1,15.71,15.71,0,0,0,.83-2.28c.1-.46,0-.65-.32-.87a6.29,6.29,0,0,0-1-.52Zm7.1,5.1a6.13,6.13,0,0,1,2.94.78c1.24.74,1.76,1.7,1.61,2.57-.09.49-.36.74-.77.67s-.8-.5-1.75-.6a3.33,3.33,0,0,0-2.16.49A2.58,2.58,0,0,0,131,59.8c-.09.66-.12,2.06-.17,3.39A10,10,0,0,1,134,65.3c.92.86,1.27,1.54,1.18,2.09s-.32.65-.67.59-.6-.48-1-1a8.87,8.87,0,0,0-2.71-2.51c0,.33-.07.61-.11.87-.32,1.8-1.82,2.61-4,2.22s-3.28-1.72-3-3c.29-1.65,2.25-2.55,5.14-2.05.34.06.67.14,1,.22.11-1,.17-2,.32-2.81a3.53,3.53,0,0,1,1.52-2.52,6.82,6.82,0,0,1,2.65-1c.49-.16.46-.46.14-.81a4.3,4.3,0,0,0-2.38-1.09Zm-2.48,9.86a10.37,10.37,0,0,0-1.83-.5c-2-.35-3.16.29-3.3,1.07s.5,1.5,2.08,1.77c2.08.37,2.74-.58,3-1.86C129.51,64.23,129.55,64.05,129.57,63.9Z"/><path class="cls-2" d="M150.05,61.79a17.44,17.44,0,0,1,8.18-.79c3.24.57,5.19,3,4.64,6.13-.51,2.87-3.09,4.83-6.63,4.2a6.54,6.54,0,0,1-4.8-3.75l.53-.37a7,7,0,0,0,4.15,2.48c2.79.49,4.65-1,5-3.24s-.69-4-3.7-4.51c-2.34-.42-5.17.31-7.62,1.18-.56,3.85-.43,4.95-.61,6-.22,1.27-1.21,2.43-2.06,2.28-.65-.11-.55-1-1.3-2a33.27,33.27,0,0,0-2.63-2.76c-1,.64-1.39.8-1.78.73a1.34,1.34,0,0,1-.82-.64,1.54,1.54,0,0,1-.3-1.24c.11-.65.32-.84.93-.68a2.14,2.14,0,0,0,1.66,0c1.15-.44,3.65-1.77,5.73-2.51l.29-1.63.67-3.8a15.92,15.92,0,0,1-3.19,0c-1.38-.24-2.52-.71-3.22-3.47l.54-.29c1.19,1.67,1.56,2,3.07,2.23a14,14,0,0,0,3.07,0c.37-2.09.73-4,.82-4.65s0-.75-.41-1a5.64,5.64,0,0,0-1.74-.51v-.55a4.37,4.37,0,0,1,2.07-.19c1.07.19,2.71,1.41,2.59,2.09s-.62,1-1,1.89a19.75,19.75,0,0,0-.83,2.7c2.34-.43,3.44-1.2,4-1.12s1.22.33,1.14,1-.45.77-1.09.94a32.62,32.62,0,0,1-4.44.82c-.31,1.25-.58,2.6-.81,3.89Zm-1.64,1.89a33.58,33.58,0,0,0-4.54,2.54c.95.72,2.1,1.59,2.9,2.14.55.35.79.16.88-.37Zm10.53-10.16a9.35,9.35,0,0,1,3.77.52c2.1.8,3.79,3,3.57,4.81-.07.56-.35,1-.9,1s-.8-.75-1.73-.74a11.28,11.28,0,0,0-2.32.46l-.22-.56a22.21,22.21,0,0,0,2.53-1.15c.37-.28.44-.5.21-1-.85-1.78-3-2.35-5-2.56Z"/><path class="cls-2" d="M174.39,56.12c.18,3.11-.76,5.33-1.64,6.19-.6.62-1.62.79-1.95.21a1.26,1.26,0,0,1,.59-1.55,9.34,9.34,0,0,0,2.5-5Zm5.41-4.18c-.15.38-.43.62-1.18.6l-4.23,24c0,.26-.88.55-1.53.43l-.37-.06,4.56-25.83Zm14.37,12.52,2.71.8c-.15.38-.39.6-1.11.56l-2.43,13.77c-.05.25-.91.51-1.58.39l-.31-.06.34-1.94-12-2.12-.27,1.49c0,.23-.9.51-1.55.4l-.33-.06,2.75-15.63,2.71.79c-.15.35-.42.57-1.12.56L179.91,75l12,2.12Zm-15.35-8.25c3.87,3.41,1.6,6.41.33,4.7a10.21,10.21,0,0,0-.72-4.63ZM193,64.46c-.2.31-.48.38-1.14.2a33.6,33.6,0,0,1-3.36,4.06c3.36,4.16,2.07,6.84.57,5.47a13.39,13.39,0,0,0-1.76-4.32A24.43,24.43,0,0,1,181,74.16l-.21-.41a27.52,27.52,0,0,0,5.74-5.06,29.23,29.23,0,0,0-3.33-4.18l.36-.26a26.38,26.38,0,0,1,3.9,3.3,30.13,30.13,0,0,0,3-4.57ZM182.25,53.53c5.2,4.63,2.89,8.5,1.33,6.62a16.6,16.6,0,0,0-1.7-6.51Zm4.94-.32c5,4.95,2.56,8.87,1,6.92a17.35,17.35,0,0,0-1.38-6.81Zm11.38,3.64c-.23.28-.44.35-1.11.18a30.6,30.6,0,0,1-7.53,6l-.31-.41a32.59,32.59,0,0,0,6.35-7.5Z"/><path class="cls-2" d="M219.14,69.42a3.73,3.73,0,0,1,1.52.09c.85.27,1.86,1.14,1.76,1.68a12.15,12.15,0,0,1-.49,1.5c-.18.53-.53,1.51-.93,2.45a15.82,15.82,0,0,1,2.71,2.78,2,2,0,0,1,.38,1.75.73.73,0,0,1-.92.65c-.71-.13-1.26-1.44-3.1-3.34-2.26,3.61-6.18,5.56-11.51,5.81l-.31-.72c4.72-.59,8.44-2.87,10.5-6.36a16.56,16.56,0,0,0-8.82-4.32h-.05c-1.66,2.15-3.64,5-4.65,6s-2,1.67-3.34,1.44c-1.57-.27-2-2.82-1.28-4.75,1.08-2.63,4.74-4,8.44-3.86l.18-.23c1.75-2.19,5-5.79,5.91-7,.3-.41.18-.58-.2-.53-1.07.16-2.94.53-4.09.79-.51.11-1,.49-1.49.41a3.21,3.21,0,0,1-2-2.21,5,5,0,0,1,.1-1.52l.56-.08c.29.84.45,1.59,1.26,1.74a27,27,0,0,0,5.19-.25c1-.14,1.26-.56,1.71-.48.76.13,2.17,1.54,2,2.19s-1.17.69-1.92,1.34a68.93,68.93,0,0,0-5.57,5.87l-.07.11.14,0a22.23,22.23,0,0,1,8.76,3.69,8.6,8.6,0,0,0,.71-2.57.81.81,0,0,0-.3-1,3.88,3.88,0,0,0-1-.58Zm-10.95,1.81c-3.09-.08-5.69,1.15-6.49,2.86-.52,1.16-.18,2.53.58,2.66s1.2-.19,2-.93S206.78,73,208.19,71.23Z"/><path class="cls-2" d="M239.43,76.66c3.07,2.26,4,4.47,3.56,6.84-.37,2.08-2.58,4.21-6.35,3.55-2.95-.52-4.19-2.57-3.73-5.22A17.63,17.63,0,0,1,233.4,80c-2-.79-3-2-2.73-3.25s1.73-2.22,3.52-2.75a5.93,5.93,0,0,1-1.46-1,3.48,3.48,0,0,1-1.11-2.45l.41-.15a4.76,4.76,0,0,0,1.66,2.13,7.72,7.72,0,0,0,2.31,1,30.58,30.58,0,0,0,1.38-3,.68.68,0,0,0-.35-.93,4.39,4.39,0,0,0-1.09-.53l.11-.49a9,9,0,0,1,1.21.12c1,.18,2.13,1.47,2,2-.08.42-.4.49-.76,1a20.77,20.77,0,0,0-1.27,2.14c.28,0,.54.12.8.19.68.18.89.6.83,1s-.38.49-.92.42a10.46,10.46,0,0,1-1.38-.29c-.52,1-1.2,2.49-1.76,3.89,1.07.26,2,.35,2.42.47s.82.44.74.87-.37.56-1.18.49a13.76,13.76,0,0,1-2.48-.51,12.12,12.12,0,0,0-.49,1.73c-.38,2.16.86,3.41,2.89,3.77,2.86.5,4.56-1.12,4.88-2.94.42-2.38-.79-4-2.54-5.86Zm-5.6,2c.49-1.38,1.1-2.82,1.55-3.86-1.47-.14-3.62.77-3.8,1.81C231.46,77.26,231.84,78,233.83,78.66Z"/><path class="cls-2" d="M65.21,80.64l1.68-1.56s1.36,1.56,2.15,2.64c-.11.25-.36.29-.71.23L49.48,78.63l-.09-.78Z"/><path class="cls-2" d="M71.25,91.07a24.8,24.8,0,0,0,2.28-5.41l1.86.82a.72.72,0,0,1-.84.34,15.62,15.62,0,0,1-3,4.48Zm6.27-7-1.65,9.4a1.4,1.4,0,0,1-1.23.23l-.19,0L76.14,84H73.77a.76.76,0,0,1-.62.34l-.34-1.74c.47.09,1.17.19,2,.31a75.44,75.44,0,0,0,4.88-6.29L81.6,77.9a.75.75,0,0,1-.9.18,61.08,61.08,0,0,1-5.24,5c1,.14,2.19.28,3.37.42a12.74,12.74,0,0,0-.57-1.85l.3-.08c3.31,2.8,1.49,5.25.46,3.9A6,6,0,0,0,78.94,84Zm2.21-9.11a.77.77,0,0,1-.88.23,33.23,33.23,0,0,1-3,3c1.32,1.53.24,2.86-.66,2a6.58,6.58,0,0,0-1.47-3.21l.25-.14a6.51,6.51,0,0,1,1.49,1c.7-1.09,1.57-2.61,2.28-4ZM78.11,86.4c2.94,3.09,1.06,5.51.1,4.13a10.13,10.13,0,0,0-.42-4.07Zm13.5-4.08s1,1.07,1.51,1.83a.49.49,0,0,1-.6.26l-5.14-.91a30,30,0,0,1-3.31,2.19l.12.08,5,.88L90,86l1.39,1.48a1.18,1.18,0,0,1-.89.22l-1.4,8a1.54,1.54,0,0,1-1.25.23l-.24,0,.24-1.34-5.31-.94-.18,1a1.36,1.36,0,0,1-1.23.25l-.22,0,1.45-8.21a23.43,23.43,0,0,1-3.13,1.28l-.2-.37a27.59,27.59,0,0,0,3.49-1.84l.15-.82.56.36c.88-.58,1.79-1.25,2.64-1.94l-5.72-1-.06-.66,4.7.83.57-3.21-3.32-.58L82,77.93l3.49.61L86,75.38l2,.58c-.07.28-.3.44-.79.44l-.42,2.39,1.26.22,1.09-1s.51.56,1,1.16c.59-.66,1.15-1.34,1.68-2.05l1.71,1.35a.79.79,0,0,1-1,.12A34.8,34.8,0,0,1,88.08,83l2.36.41ZM88,93.82l.53-3-5.3-.93-.54,3Zm-4.16-7.44-.5,2.86,5.31.94.5-2.87Zm2.73-3.68a33.42,33.42,0,0,0,2.95-2.78l-2.73-.48-.57,3.2Z"/><path class="cls-2" d="M101.41,88.52c-.65,1-2.08,3.32-2.46,4.1a5.89,5.89,0,0,0-.65,1.5c-.11.63.2,1.4.11,1.92a.59.59,0,0,1-.74.54c-.39-.07-.68-.48-.88-1a10,10,0,0,1-.4-5.07,19.77,19.77,0,0,1,2-5.54,13,13,0,0,0,1-2.42,3.55,3.55,0,0,0-.81-2.49l.4-.22a5.41,5.41,0,0,1,1,.85,3.72,3.72,0,0,1,1,2.52c-.09.5-.46.84-1.21,2a12.83,12.83,0,0,0-2.32,5.06,3.36,3.36,0,0,0,0,1.92c.09.29.23.36.48.11.61-.67,2.3-3.17,3-4.19Zm1.84,2.25a8.43,8.43,0,0,0,.3,2c.51,1.41,1.52,2.37,4.19,2.84a20.1,20.1,0,0,0,3.75.26c.59.11,1.12.4,1,.9-.15.86-2.22.77-4.56.36-3.38-.6-5-2.05-5.28-4.38a6.74,6.74,0,0,1,.06-2ZM104.69,84a11.19,11.19,0,0,1,5.41-.43,7.32,7.32,0,0,1,2.93,1,.93.93,0,0,1,.52.88c0,.28-.21.45-.68.43A6.44,6.44,0,0,0,111,86a35.72,35.72,0,0,0-3.9,1.35l-.3-.46c1.1-.52,2.83-1.37,3.36-1.68.3-.2.3-.35-1.13-.6a13.48,13.48,0,0,0-4.24,0Z"/><path class="cls-2" d="M126.62,87.65a27.41,27.41,0,0,1-2.77,6.3c2.32,3.94,1.07,6.22-.17,4.89a11,11,0,0,0-.85-3.41,16.23,16.23,0,0,1-7.27,5.37l-.17-.3a17.6,17.6,0,0,0,6.84-6.45A30.49,30.49,0,0,0,119,88.9l.31-.15A24.35,24.35,0,0,1,123,92.66a28.42,28.42,0,0,0,2-5.29l-6.5-1.15,0-.66,4.55.81.78-4.45,2.13.62c-.08.3-.35.48-.89.45l-.63,3.62,2.21.39,1.22-1.1s1,1.11,1.57,1.88a.48.48,0,0,1-.61.25Zm10.22,1.2a23.69,23.69,0,0,1,1.45,1.88.5.5,0,0,1-.6.26l-2.45-.44-2,11.27c-.2,1.17-.59,1.86-2.71,1.71a1.59,1.59,0,0,0-.31-1.15,4.81,4.81,0,0,0-1.87-.91l.06-.34s2.35.59,2.83.67.56,0,.62-.38l2-11.11-6-1.07-.06-.68,6.2,1.1,1-5.53,2.15.62c-.1.32-.35.48-.89.45l-.82,4.7.32.06ZM128.61,91c3.85,3.65,1.74,6.87.55,5.26a10.33,10.33,0,0,0-.83-5.18Z"/><path class="cls-2" d="M144.75,89.62l-.81,4.59c-.62,3.49-1.63,8.07-5.29,10.71l-.26-.27c2.59-2.9,3.45-6.92,4.11-10.67l1.06-6,1.56,1,6,1.06.56-3.23,2.17.63c-.1.3-.35.47-.9.44l-.43,2.41,5.72,1,1.3-1.14s1,1.15,1.62,2c-.09.24-.3.31-.6.26Zm1.74,6.2c.27,3.07-.8,5.07-1.7,5.83-.54.53-1.4.64-1.69.12a1,1,0,0,1,.5-1.21,7.54,7.54,0,0,0,2.5-4.81Zm8.49,10c.45.24.53.43.48.71-.11.65-.85.77-4.21.18l-2.25-.4c-1.69-.3-2-.74-1.82-1.86L149,94.25l2,.61c-.09.25-.32.41-.81.41l-1.61,9.1c-.07.39,0,.55.87.69l2.05.36c1,.17,1.67.3,2,.33a.48.48,0,0,0,.51-.23,28.09,28.09,0,0,0,1.2-2.91l.29,0Zm-4.53-14.09c5.58,2.46,4.27,6.07,2.74,4.86a9.93,9.93,0,0,0-3-4.7Zm5.87,5.64c5,4,2.51,8.42,1.34,6.6a10.2,10.2,0,0,0-1.6-6.42Z"/><path class="cls-2" d="M166.57,92l.09-.45a6.09,6.09,0,0,1,1.43.09c1,.22,2.31,1.59,2.2,2.2s-.52.53-.89,1.52a57.31,57.31,0,0,0-2.21,8.37c-.49,2.75.13,3.93,2.51,4.35a10.22,10.22,0,0,0,9-3.19l.41.41a9.8,9.8,0,0,1-9.7,4.23c-2.91-.51-4.15-2.18-3.5-5.89.59-3.36,2-8.36,2.23-9.61.14-.78,0-1-.28-1.33A4.56,4.56,0,0,0,166.57,92Z"/><path class="cls-2" d="M192.73,103.66a17.36,17.36,0,0,0,3.23-.12,10.11,10.11,0,0,1,1.45-.24c.46.08,1,.4.9.86s-.33.5-.75.58a24.68,24.68,0,0,1-5,.1c-.18,1.42-.26,2.66-.33,3.69a11.87,11.87,0,0,1,4.75,3.21,1.64,1.64,0,0,1,.52,1.32.57.57,0,0,1-.69.53c-.39-.07-.59-.33-.92-.77a11.12,11.12,0,0,0-3.78-3.1c0,.31-.06.59-.12.87-.32,1.85-2,2.64-4.43,2.22-2.12-.38-3.51-1.63-3.24-3.17.3-1.71,2.7-2.27,5.41-1.79a12.25,12.25,0,0,1,1.35.3c.11-.87.25-2.05.45-3.38a25.62,25.62,0,0,1-2.67-.34c-3-.53-4.28-2.2-1.56-4.09l.41.34c-1.7,1.55-.88,2.23,1.28,2.61a21.71,21.71,0,0,0,2.69.32l.16-.86c.12-.72.26-1.48.41-2.21a31.49,31.49,0,0,1-3.29-.38,4.59,4.59,0,0,1-4-3l.42-.24A5,5,0,0,0,189,99a28.58,28.58,0,0,0,3.51.35c.24-1.1.41-1.94.45-2.13.07-.44,0-.56-.32-.75a8.54,8.54,0,0,0-1.54-.52l0-.47a3.7,3.7,0,0,1,1.58-.08c.93.17,2.16,1,2.07,1.58s-.4.58-.61,1.12c-.13.36-.27.78-.42,1.29a25.64,25.64,0,0,0,3.42-.18,5.94,5.94,0,0,1,1.34-.21c.52.09,1.09.41,1,.87s-.4.49-.84.56a31.33,31.33,0,0,1-5.29.19c-.16.71-.36,1.57-.54,2.59Zm-1.81,5.54a12,12,0,0,0-1.94-.52c-2.12-.38-3.62.16-3.78,1s.54,1.52,2,1.78C189.81,112,190.54,111.25,190.92,109.2Z"/><path class="cls-2" d="M213.44,99.5a3.39,3.39,0,0,1,1.56-.2c.89.16,2.15.87,2.05,1.41s-.47.79-.61,1.32c-.07.28-.15.72-.26,1.23,3.64.24,5.06.29,5.52.37.75.14,1.81.75,1.69,1.44-.07.39-.3.53-.71.46a27.46,27.46,0,0,0-6.67-1.34c-.18,1-.37,2.26-.57,3.34a4.18,4.18,0,0,1,.4,3.09c-.7,4-4.12,5.86-8.48,6.17l-.19-.59c2.82-.51,5.25-1.67,6.41-3.66-2.3.61-3.74-1.37-3.35-3.58a2.92,2.92,0,0,1,3.38-2.55,3.69,3.69,0,0,1,.87.26c.09-.65.21-1.59.34-2.57a49.39,49.39,0,0,0-5.93,0,12,12,0,0,1-2.07.24,2.91,2.91,0,0,1-1.69-1.93,4,4,0,0,1,0-1.34l.44-.07c.35.79.64,1.56,1.37,1.69s5.38.28,8,.45c.12-.79.2-1.53.25-2.08s-.05-.59-.38-.76a8.5,8.5,0,0,0-1.4-.4Zm1.09,10.17c.25-1.4-.32-2.24-1.25-2.41a2.13,2.13,0,0,0-.75,4.14C213.61,111.59,214.27,111.17,214.53,109.67Z"/><path class="cls-3" d="M225.35,94.13l-2.95-.52.34-2,3,.52Zm-8.86-1.56-3-.52.35-2,3,.52ZM207.62,91l-3-.52.35-2L208,89Zm-8.86-1.56-2.95-.53.34-2,3,.53Zm-8.86-1.57-3-.52.35-2,3,.52ZM181,86.32l-2.95-.52.35-2,2.95.52Zm-8.86-1.56-2.95-.52.34-2,3,.52Zm-8.86-1.57-3-.52.35-2,3,.52Zm-8.87-1.56-2.95-.52.35-2,2.95.52Zm-8.86-1.56-3-.52.34-2,3,.52Zm-8.86-1.56-3-.53.35-2,2.95.53Z"/></g></g></svg>