<svg xmlns="http://www.w3.org/2000/svg" viewBox="0 0 65 71.02"><defs><style>.cls-1{fill:#3e3a39;}</style></defs><g id="Layer_2" data-name="Layer 2"><g id="レイヤー_3" data-name="レイヤー 3"><path class="cls-1" d="M10.08,71A9.94,9.94,0,0,1,3.73,68.8,10.57,10.57,0,0,1,0,61.86a1,1,0,0,1,.51-.93,1,1,0,0,1,1.06,0,9.19,9.19,0,0,0,2.58,1.3,3.72,3.72,0,0,0,3.79-1,4,4,0,0,0,1-4A101,101,0,0,1,5,36.15c-.21-2.61-.31-5.29-.31-8A28.59,28.59,0,0,1,8,14.84C8.68,13.52,15.29,2,28.78.23A28.48,28.48,0,0,1,56.06,13.11a28.69,28.69,0,0,1,4.31,15.08c0,2.57-.11,5.25-.33,8a99.21,99.21,0,0,1-1.51,11,.44.44,0,0,1,0,.1l-.86,2.83a34.93,34.93,0,0,0-1.43,8.43,3.73,3.73,0,0,0,2.17,3.64,2.89,2.89,0,0,0,.92.23,4.28,4.28,0,0,0,1.53-.15,9.41,9.41,0,0,0,2.6-1.3,1,1,0,0,1,1.56.89,10.54,10.54,0,0,1-3.69,6.91,10.11,10.11,0,0,1-8.43,2L46.1,69.48a1,1,0,0,1,.38-2l6.78,1.31A8.11,8.11,0,0,0,60,67.23a8.33,8.33,0,0,0,2.44-3.44,10,10,0,0,1-1.07.4,6.47,6.47,0,0,1-2.28.23A5.26,5.26,0,0,1,57.62,64a5.72,5.72,0,0,1-3.4-5.57,36.55,36.55,0,0,1,1.52-8.92l.84-2.78A99.11,99.11,0,0,0,58.05,36c.21-2.66.32-5.28.32-7.8a26.56,26.56,0,0,0-4-14,26.46,26.46,0,0,0-25.32-12C16.53,3.88,10.38,14.57,9.72,15.78A26.63,26.63,0,0,0,6.65,28.19c0,2.62.1,5.25.3,7.8a99,99,0,0,0,3.94,20.73,6,6,0,0,1-1.54,6,5.69,5.69,0,0,1-5.77,1.45,9.68,9.68,0,0,1-1.06-.38A8.48,8.48,0,0,0,5,67.26a8.25,8.25,0,0,0,6.81,1.59l7.83-1.52a1,1,0,1,1,.38,2l-7.83,1.52A10.78,10.78,0,0,1,10.08,71Z"/><path class="cls-1" d="M18.24,54.08a1,1,0,0,1-.9-.56,45.1,45.1,0,0,1-4-12.33l0-.23a34.33,34.33,0,0,1-.59-6.56v-.86a1,1,0,0,1,.57-.9A22.63,22.63,0,0,0,25.3,17.16a1,1,0,0,1,1-.84h0a1,1,0,0,1,1,.85c.1.62,2.7,15.33,24.33,15.61a1,1,0,0,1,1,1v.63A35.94,35.94,0,0,1,52,41.12v.07c-.19,1-.4,2-.67,3.2a1,1,0,0,1-1.95-.45c.27-1.14.47-2.19.65-3.11v0a.09.09,0,0,0,0-.05,33.73,33.73,0,0,0,.59-6c-16.13-.54-22.13-9.12-24.23-14A24.12,24.12,0,0,1,14.67,34.17v.23a32.33,32.33,0,0,0,.56,6.24.91.91,0,0,1,0,.23,43.44,43.44,0,0,0,3.86,11.76,1,1,0,0,1-.89,1.45Z"/><path class="cls-1" d="M31,61.18h0l-9.84-.1a3.38,3.38,0,0,1-2.45-1,3.08,3.08,0,0,1-.5-3.1,2.43,2.43,0,0,1,2-1.65,14.94,14.94,0,0,1,1.66-.06,1,1,0,0,1,1,1,1,1,0,0,1-1,1s-.84,0-1.41,0c-.19,0-.3.23-.34.36a1.15,1.15,0,0,0,.08,1,1.45,1.45,0,0,0,1,.39l9.84.1a1,1,0,0,1,0,2Z"/><path class="cls-1" d="M21.86,57.24a1,1,0,0,1-.94-.64,3.91,3.91,0,0,1-.05-3.06l.07-.16c1-1.93,4-2,6.07-2.09.31,0,.59,0,.82,0,1.09-.07,2.22,0,3.3,0a25.42,25.42,0,0,0,3.39,0h.16a11.65,11.65,0,0,0,3.57-.63c.16,0,.5-.15.59-.31a.71.71,0,0,0,0-.57c-.17-.3-1.69-.28-2.5-.27-1.75,0-3.92,0-5.48-1.15a2.45,2.45,0,0,1-1.12-1.86c0-1.4,1.47-2.21,1.92-2.43a1.07,1.07,0,0,1,.43-.09h2.64c2.53,0,4.5-.06,6.08-.11,1.42,0,2.54-.07,3.53,0a4.62,4.62,0,0,1,1.7.28c1,.38,1.45.88,2.66,2.39l.14.17a11.17,11.17,0,0,0,3,2.67l-1,1.74a13.05,13.05,0,0,1-3.61-3.15l-.14-.17c-1.2-1.48-1.31-1.6-1.8-1.78a3.14,3.14,0,0,0-1-.15c-.94,0-2,0-3.43,0-1.6.05-3.58.09-6.14.11h-2.4a1.51,1.51,0,0,0-.58.49,2.59,2.59,0,0,0,.32.3c1,.77,2.73.75,4.25.74,1.8,0,3.5,0,4.25,1.27a2.69,2.69,0,0,1,0,2.54,2.83,2.83,0,0,1-1.76,1.26,14,14,0,0,1-4.18.71,28.67,28.67,0,0,1-3.59,0,29.18,29.18,0,0,0-3.1,0l-.89,0c-1.26,0-3.9.12-4.35,1l0,.09a1.86,1.86,0,0,0,.11,1.49,1,1,0,0,1-.57,1.29A.92.92,0,0,1,21.86,57.24Z"/><path class="cls-1" d="M29,65c-1.41,0-2.74,0-4,0l-.24,0-1.74-.13a5.22,5.22,0,0,1-3-.76,2.78,2.78,0,0,1-1-1.24,3.2,3.2,0,0,1,.48-3.36A1,1,0,0,1,21,59.3a1,1,0,0,1,.23,1.34l-.09.11A1.22,1.22,0,0,0,21,62.1a.83.83,0,0,0,.29.36c.34.25.71.29,1.94.38L25,63l.05,1,.06-1c1.64,0,3.48.05,5.46,0h0a1,1,0,0,1,1,1,1,1,0,0,1-1,1Z"/><path class="cls-1" d="M35.73,68.78h0l-10.17-.11a3.45,3.45,0,0,1-3.09-1.47,3,3,0,0,1,.1-3.3A2.81,2.81,0,0,1,23.65,63a1,1,0,1,1,.81,1.83.71.71,0,0,0-.3.23,1,1,0,0,0,0,1c.08.13.32.51,1.42.53l4.82.09,5.32,0h0a11,11,0,0,0,2.8-.36,81.18,81.18,0,0,0,8.41-2.6,6.68,6.68,0,0,1,3.52,0,9.32,9.32,0,0,0,1,.14,1,1,0,0,1,1,1,1,1,0,0,1-1,1,9.77,9.77,0,0,1-1.29-.17,5.63,5.63,0,0,0-2.46-.09A83.82,83.82,0,0,1,39,68.36,13,13,0,0,1,35.73,68.78Z"/><path class="cls-1" d="M32,57.41h0c-1.67,0-3.39-.07-5.11-.08s-3.46,0-5.14-.08a1,1,0,0,1-1-1,1,1,0,0,1,1-1c1.67,0,3.38.06,5.09.08s3.47,0,5.16.08a1,1,0,0,1,0,2Z"/></g></g></svg>