<svg xmlns="http://www.w3.org/2000/svg" viewBox="0 0 82 82"><defs><style>.cls-1{fill:#3e3a39;}</style></defs><g id="Layer_2" data-name="Layer 2"><g id="レイヤー_3" data-name="レイヤー 3"><path class="cls-1" d="M40.47,46.24A1.47,1.47,0,0,0,42,44.77a1.5,1.5,0,0,0-1.48-1.48A1.48,1.48,0,0,0,39,44.77a1.47,1.47,0,0,0,1.47,1.47Z"/><path class="cls-1" d="M36.13,53.19a1.48,1.48,0,0,0,1-2.52,1.5,1.5,0,0,0-1-.43,1.48,1.48,0,0,0,0,2.95Z"/><path class="cls-1" d="M45.11,51.47A1.47,1.47,0,0,0,43.64,50a1.48,1.48,0,0,0-1.48,1.47A1.5,1.5,0,0,0,43.64,53,1.48,1.48,0,0,0,45.11,51.47Z"/><path class="cls-1" d="M28.44,56.59a1.49,1.49,0,1,0,1,.43A1.43,1.43,0,0,0,28.44,56.59Z"/><path class="cls-1" d="M28.29,49.08a1.47,1.47,0,0,0-.44-1,1.43,1.43,0,0,0-1-.43,1.48,1.48,0,1,0,1.48,1.47Z"/><path class="cls-1" d="M33.22,40.86a1.47,1.47,0,0,0-1.48,1.47,1.51,1.51,0,0,0,.43,1.05,1.48,1.48,0,1,0,1-2.52Z"/><path class="cls-1" d="M63.79,35.06a4.32,4.32,0,0,0-2.28-1.21L62,33.4a4.43,4.43,0,0,0-2.28-7.49l0-.05a4.45,4.45,0,0,0,0-6.28,4.44,4.44,0,0,0-6.28,0l-.05.05a4.43,4.43,0,0,0-7.49-2.28c-.34.35-5.44,5.44-10.19,10.19a7.59,7.59,0,0,0-2.22-5.75L33,21.23a1,1,0,0,0-1.39,0c-.07.07-7,7-11.33,11.33C18,34.77,18.81,38,19.5,40.88c.62,2.59,1.21,5-.22,6.47L17.2,49.43a1,1,0,0,0,1.39,1.39l2.08-2.08c2.21-2.21,1.43-5.46.74-8.32-.62-2.59-1.21-5,.22-6.47,3.5-3.53,8.75-8.76,10.62-10.63a5.64,5.64,0,0,1-.14,7.83L27,36.27a1,1,0,1,0,1.39,1.39S46.87,19.18,47.3,18.74a2.47,2.47,0,0,1,3.5,3.49L39.72,33.32a1,1,0,0,0,0,1.39,1,1,0,0,0,1.39,0L54.84,21a2.49,2.49,0,0,1,3.5,0,2.49,2.49,0,0,1,0,3.5L44.6,38.2a1,1,0,0,0,0,1.39,1,1,0,0,0,1.39,0L57.07,28.52A2.47,2.47,0,0,1,60.57,32L49.49,43.09a1,1,0,0,0,0,1.39,1,1,0,0,0,1.39,0l8-8A2.47,2.47,0,1,1,62.4,40c-.08.08-15,14.94-18.1,18.09a6.4,6.4,0,0,1-5,1.93A6.28,6.28,0,0,0,34.8,61.5L32,64.27a1,1,0,1,0,1.39,1.39l2.75-2.76c.89-.85,1.93-.9,3.24-1a8.33,8.33,0,0,0,6.3-2.51c3.1-3.15,18-18,18.08-18.08A4.45,4.45,0,0,0,63.79,35.06Z"/><path class="cls-1" d="M41,82A41,41,0,1,1,82,41,41,41,0,0,1,41,82ZM41,2A39,39,0,1,0,80,41,39.05,39.05,0,0,0,41,2Z"/><path class="cls-1" d="M69.28,70.29a1,1,0,0,1-.71-.29L12,13.43A1,1,0,1,1,13.43,12L70,68.59A1,1,0,0,1,70,70,1,1,0,0,1,69.28,70.29Z"/></g></g></svg>