<svg xmlns="http://www.w3.org/2000/svg" viewBox="0 0 349.94 66.67"><defs><style>.cls-1{fill:#00acb2;}</style></defs><g id="Layer_2" data-name="Layer 2"><g id="レイヤー_3" data-name="レイヤー 3"><path class="cls-1" d="M45.12,34.08H27.84v10H45.12v1.6H27.84V59.6h-7.2V45.68H3.36v-1.6H20.64v-10H3.36V32.32H20.08L0,1.2H7.28l17,26.64L41.2,1.2h7.28L28.4,32.32H45.12Z"/><path class="cls-1" d="M92.64,59.6H54.88V57.84c4.24-3.84,8.4-7.92,12.4-12a116.37,116.37,0,0,0,11.2-13.2A35.93,35.93,0,0,0,83,24.88a24.2,24.2,0,0,0,1.84-8.64,17.11,17.11,0,0,0-1.6-7.12A11.51,11.51,0,0,0,78.4,3.68a9.59,9.59,0,0,0-7.12-1,26.11,26.11,0,0,0-5,1.44A20.85,20.85,0,0,0,64,5.44a6.6,6.6,0,0,1-2.4,1.12H56V4.8a2.83,2.83,0,0,1,1.12-1c.48-.24,1-.4,1.44-.64s1-.4,1.44-.64A49,49,0,0,1,64.88,1,31.21,31.21,0,0,1,72.64.16,19.49,19.49,0,0,1,74.8.08a25.63,25.63,0,0,1,6,.72A14.93,14.93,0,0,1,88,4.56a14.79,14.79,0,0,1,3,5.52,20.13,20.13,0,0,1,.88,6.16,26.34,26.34,0,0,1-1.84,9,39.69,39.69,0,0,1-4.56,8,127.83,127.83,0,0,1-10.8,12.88q-5.88,6-12,11.76h30Z"/><path class="cls-1" d="M138.51,2.88a250.07,250.07,0,0,0-13.12,27.68c-3.76,9.52-7,19.2-9.92,29h-7.2q4.2-14.76,9.84-29a219.35,219.35,0,0,1,13.2-27.68H99.39V1.2h39.12Z"/><path class="cls-1" d="M182.86,34.4a19.72,19.72,0,0,1,1,6.8,24.49,24.49,0,0,1-1,7.6,15.84,15.84,0,0,1-3.76,6.56,15.24,15.24,0,0,1-6.48,4,30.11,30.11,0,0,1-7.52,1.2,61.75,61.75,0,0,1-7.68-.4A14.85,14.85,0,0,1,152.14,59a12.37,12.37,0,0,1-1.84-.56,8.76,8.76,0,0,1-1.84-.72,6.54,6.54,0,0,1-1.6-1v-2h5.6a19.78,19.78,0,0,0,10.32,3.36,13.12,13.12,0,0,0,9.92-3.84,15.5,15.5,0,0,0,3.36-6.16,25.13,25.13,0,0,0,.8-7A18.7,18.7,0,0,0,176,35a12.82,12.82,0,0,0-3.28-5.36,12.51,12.51,0,0,0-11.36-3.36c-1.12.4-2.24.72-3.36,1.12a7.17,7.17,0,0,0-1.52,1.2,5.12,5.12,0,0,1-1.52,1h-7.28c1.52-22.08,1.76-25.2,1.92-28.4h32V2.88h-25l-.72,11c-.24,2.56-.48,5-.64,7.52l-.24,3.44a1.35,1.35,0,0,1,.88-.48,4.68,4.68,0,0,1,1-.16,23.38,23.38,0,0,1,4.08-.32,62.78,62.78,0,0,1,6.72-.08A28.92,28.92,0,0,1,174,25.2a14.28,14.28,0,0,1,5.36,3.28A13.62,13.62,0,0,1,182.86,34.4Z"/><path class="cls-1" d="M195.52,66.67h-5.76l4.86-14.2h5.57Z"/><path class="cls-1" d="M247.38,30.4A59.63,59.63,0,0,1,246,42.88a30.92,30.92,0,0,1-2.72,8.88,20.77,20.77,0,0,1-4.48,5.36,16.46,16.46,0,0,1-5,2.48,29.58,29.58,0,0,1-15.84,0,16,16,0,0,1-5-2.48,18,18,0,0,1-4.48-5.36,40.2,40.2,0,0,1-3-8.88,81.31,81.31,0,0,1-1.12-12.48,82.35,82.35,0,0,1,1.12-12.56,38.22,38.22,0,0,1,3-8.8A13.67,13.67,0,0,1,213,3.76a13.73,13.73,0,0,1,5-2.72,28.35,28.35,0,0,1,7.76-1c1,0,2,.08,3,.16a21.58,21.58,0,0,1,10.08,3.6A16.78,16.78,0,0,1,243.3,9a28.81,28.81,0,0,1,2.72,8.8A60.38,60.38,0,0,1,247.38,30.4ZM231.86,56.56a17.23,17.23,0,0,0,5.68-7.44,37.42,37.42,0,0,0,2.24-9.28,74.54,74.54,0,0,0,.4-9.44,61,61,0,0,0-.48-10.8,50.22,50.22,0,0,0-1.84-6.8,20.75,20.75,0,0,0-3.52-6,10.15,10.15,0,0,0-5.28-3.6A17.76,17.76,0,0,0,225,2.72a8.54,8.54,0,0,0-4,.8,15.48,15.48,0,0,0-6.48,7.28,34.31,34.31,0,0,0-2.64,9.6c-.32,3.36-.56,6.64-.56,10a73.57,73.57,0,0,0,.88,11.12,28.4,28.4,0,0,0,5.76,13.28,7.9,7.9,0,0,0,5.6,3h2.24A14.3,14.3,0,0,0,231.86,56.56Z"/><path class="cls-1" d="M298.66,30.4a59.63,59.63,0,0,1-1.36,12.48,30.92,30.92,0,0,1-2.72,8.88,20.77,20.77,0,0,1-4.48,5.36,16.46,16.46,0,0,1-5,2.48,29.58,29.58,0,0,1-15.84,0,16,16,0,0,1-5-2.48,18,18,0,0,1-4.48-5.36,40.2,40.2,0,0,1-3-8.88,81.31,81.31,0,0,1-1.12-12.48,82.35,82.35,0,0,1,1.12-12.56,38.22,38.22,0,0,1,3-8.8,13.67,13.67,0,0,1,4.48-5.28,13.73,13.73,0,0,1,5-2.72A28.35,28.35,0,0,1,277,0c1,0,2,.08,3,.16a21.58,21.58,0,0,1,10.08,3.6A16.78,16.78,0,0,1,294.58,9a28.81,28.81,0,0,1,2.72,8.8A60.38,60.38,0,0,1,298.66,30.4ZM283.14,56.56a17.23,17.23,0,0,0,5.68-7.44,37.42,37.42,0,0,0,2.24-9.28,74.54,74.54,0,0,0,.4-9.44A61,61,0,0,0,291,19.6a50.22,50.22,0,0,0-1.84-6.8,20.75,20.75,0,0,0-3.52-6,10.15,10.15,0,0,0-5.28-3.6,17.76,17.76,0,0,0-4.08-.48,8.54,8.54,0,0,0-4,.8,15.48,15.48,0,0,0-6.48,7.28,34.31,34.31,0,0,0-2.64,9.6c-.32,3.36-.56,6.64-.56,10a73.57,73.57,0,0,0,.88,11.12,28.4,28.4,0,0,0,5.76,13.28,7.9,7.9,0,0,0,5.6,3h2.24A14.3,14.3,0,0,0,283.14,56.56Z"/><path class="cls-1" d="M349.94,30.4a59.63,59.63,0,0,1-1.36,12.48,30.92,30.92,0,0,1-2.72,8.88,20.77,20.77,0,0,1-4.48,5.36,16.46,16.46,0,0,1-5,2.48,29.58,29.58,0,0,1-15.84,0,16,16,0,0,1-5-2.48,18,18,0,0,1-4.48-5.36,40.2,40.2,0,0,1-3-8.88A81.31,81.31,0,0,1,306.9,30.4,82.35,82.35,0,0,1,308,17.84a38.22,38.22,0,0,1,3-8.8,13.67,13.67,0,0,1,4.48-5.28,13.73,13.73,0,0,1,5-2.72,28.35,28.35,0,0,1,7.76-1c1,0,2,.08,3,.16a21.58,21.58,0,0,1,10.08,3.6A16.78,16.78,0,0,1,345.86,9a28.81,28.81,0,0,1,2.72,8.8A60.38,60.38,0,0,1,349.94,30.4ZM334.42,56.56a17.23,17.23,0,0,0,5.68-7.44,37.42,37.42,0,0,0,2.24-9.28,74.54,74.54,0,0,0,.4-9.44,61,61,0,0,0-.48-10.8,50.22,50.22,0,0,0-1.84-6.8,20.75,20.75,0,0,0-3.52-6,10.15,10.15,0,0,0-5.28-3.6,17.76,17.76,0,0,0-4.08-.48,8.54,8.54,0,0,0-4,.8,15.48,15.48,0,0,0-6.48,7.28,34.31,34.31,0,0,0-2.64,9.6c-.32,3.36-.56,6.64-.56,10a73.57,73.57,0,0,0,.88,11.12A28.4,28.4,0,0,0,320.5,54.8a7.9,7.9,0,0,0,5.6,3h2.24A14.3,14.3,0,0,0,334.42,56.56Z"/></g></g></svg>