<svg xmlns="http://www.w3.org/2000/svg" viewBox="0 0 66.97 58.87"><defs><style>.cls-1{fill:#3e3a39;}</style></defs><g id="Layer_2" data-name="Layer 2"><g id="レイヤー_3" data-name="レイヤー 3"><path class="cls-1" d="M57.88,10.16a1,1,0,0,1-.7-.29,1,1,0,0,1,0-1.41l6.38-6.38A1,1,0,0,1,65,3.49L58.59,9.87A1,1,0,0,1,57.88,10.16Z"/><path class="cls-1" d="M55.09,7.25a1,1,0,0,1-.52-.15,1,1,0,0,1-.33-1.37L57.43.48A1,1,0,0,1,58.81.15a1,1,0,0,1,.33,1.37L56,6.77A1,1,0,0,1,55.09,7.25Z"/><path class="cls-1" d="M60.72,12.87a1,1,0,0,1-.86-.48A1,1,0,0,1,60.2,11l5.24-3.2a1,1,0,0,1,1.38.34,1,1,0,0,1-.33,1.37l-5.25,3.2A1,1,0,0,1,60.72,12.87Z"/><path class="cls-1" d="M13.05,10.16a1,1,0,0,1-.71-.29L6,3.49A1,1,0,0,1,7.37,2.08l6.38,6.38a1,1,0,0,1,0,1.41A1,1,0,0,1,13.05,10.16Z"/><path class="cls-1" d="M15.84,7.25A1,1,0,0,1,15,6.77L11.79,1.52A1,1,0,0,1,12.12.15,1,1,0,0,1,13.5.48l3.19,5.25a1,1,0,0,1-.33,1.37A1,1,0,0,1,15.84,7.25Z"/><path class="cls-1" d="M10.21,12.87a1,1,0,0,1-.52-.14L4.44,9.53a1,1,0,0,1-.33-1.37,1,1,0,0,1,1.38-.34L10.73,11a1,1,0,0,1,.34,1.37A1,1,0,0,1,10.21,12.87Z"/><path class="cls-1" d="M39.72,58.87a6.57,6.57,0,0,1-2.17-.38c-2.58-.9-4.78-3.28-6.54-7.08a.6.6,0,0,0-1.09,0c-1.76,3.8-4,6.18-6.54,7.08a6.38,6.38,0,0,1-5-.29c-4.17-2.1-6.25-8.38-7.27-13.27a2.49,2.49,0,0,0-2.44-2H1a1,1,0,0,1,0-2H8.67a4.51,4.51,0,0,1,4.4,3.57c.76,3.66,2.57,10.06,6.21,11.89a4.37,4.37,0,0,0,3.45.19c2-.7,3.87-2.79,5.38-6a2.59,2.59,0,0,1,4.71,0c1.51,3.24,3.37,5.33,5.38,6a4.37,4.37,0,0,0,3.45-.19c3.64-1.83,5.45-8.23,6.21-11.89A4.51,4.51,0,0,1,52.26,41h7.67a1,1,0,0,1,0,2H52.26a2.49,2.49,0,0,0-2.44,2c-1,4.89-3.1,11.17-7.27,13.27A6.36,6.36,0,0,1,39.72,58.87Z"/><path class="cls-1" d="M27.16,10.27l-.6-.25a11.56,11.56,0,0,0-4.2-.81A8.53,8.53,0,0,0,16,11.86c-1.79,2-2.58,4.81-2.28,8.25A21,21,0,0,0,18,30.51a2,2,0,0,1,.33,1.32c-1.1,6.35.57,12.35,2.79,15a3.57,3.57,0,0,0,2.68,1.52c2.41,0,3-3,3.59-6.11C28,38.71,28.7,36,30.46,36s2.43,2.69,3.11,6.21c.61,3.14,1.18,6.11,3.58,6.11a3.44,3.44,0,0,0,2.6-1.48c2.21-2.63,4-8.76,2.9-14.95A2,2,0,0,1,43,30.6a20.62,20.62,0,0,0,4.25-10.49c.31-3.44-.48-6.29-2.27-8.25a8.53,8.53,0,0,0-6.4-2.65,11.56,11.56,0,0,0-4.2.81l-.6.25a8.32,8.32,0,0,1-3.28.81A8.35,8.35,0,0,1,27.16,10.27Zm7.4,1.91.57-.23a9.6,9.6,0,0,1,3.44-.67,6.47,6.47,0,0,1,4.87,2c1.39,1.52,2,3.82,1.74,6.67a18.83,18.83,0,0,1-3.82,9.39,4.08,4.08,0,0,0-.75,2.94c1,5.92-.81,11.32-2.44,13.27-.46.54-.84.74-1,.74-.69,0-1.22-2.78-1.54-4.44C34.93,38.32,34.08,34,30.46,34S26,38.32,25.32,41.83c-.32,1.66-.85,4.44-1.55,4.44-.21,0-.61-.21-1.09-.79-1.87-2.21-3.32-7.63-2.34-13.3a4.06,4.06,0,0,0-.73-2.94,19.07,19.07,0,0,1-3.86-9.31c-.25-2.85.35-5.15,1.74-6.67a6.47,6.47,0,0,1,4.87-2A9.6,9.6,0,0,1,25.8,12l.57.23a10.45,10.45,0,0,0,4.12,1A10.36,10.36,0,0,0,34.56,12.18Z"/></g></g></svg>