<svg xmlns="http://www.w3.org/2000/svg" viewBox="0 0 700 87.53"><defs><style>.cls-1{fill:#f7ce43;}</style></defs><g id="Layer_2" data-name="Layer 2"><g id="レイヤー_3" data-name="レイヤー 3"><rect class="cls-1" x="85.17" width="529.67" height="72.94" rx="5"/><path class="cls-1" d="M697.81,87.53h-66.2a2.19,2.19,0,0,1-2.19-2.19V16.78a2.19,2.19,0,0,1,2.19-2.19h66.2a2.19,2.19,0,0,1,1.71,3.55L674.28,49.69a2.18,2.18,0,0,0,0,2.73L699.52,84A2.2,2.2,0,0,1,697.81,87.53Z"/><path class="cls-1" d="M2.19,14.59h66.2a2.19,2.19,0,0,1,2.19,2.19V85.34a2.19,2.19,0,0,1-2.19,2.19H2.19A2.2,2.2,0,0,1,.48,84L25.72,52.42a2.18,2.18,0,0,0,0-2.73L.48,18.14A2.19,2.19,0,0,1,2.19,14.59Z"/></g></g></svg>