<svg xmlns="http://www.w3.org/2000/svg" viewBox="0 0 226.62 143.35"><defs><style>.cls-1{fill:#158ba4;}.cls-2{fill:#fff;}.cls-3{fill:#ffe037;}</style></defs><g id="Layer_2" data-name="Layer 2"><g id="レイヤー_3" data-name="レイヤー 3"><path class="cls-1" d="M128.19,1.31,4,42.87Q2,69.14,0,95.4l38,35.29q65.11-7.68,130.22-15.46l58.37-43.95-8.4-47.62C189.52,15.79,160.81,7.82,132.12,0,130.86.53,129.49.88,128.19,1.31Z"/><path class="cls-1" d="M111.79,111.73l-17.53,3.09,5,28.53q6.33-15.82,12.65-31.64Z"/><path class="cls-2" d="M60.2,67.33s1.84,1,3,1.71c0,.33-.27.52-.67.59L37,74.14l-.39-.83,5.62-1-1-5.56,2.86-.24c0,.42-.23.73-.86.93l.8,4.55,5-.88L47.83,64.2l3-.2c0,.39-.23.73-.88.93l.35,2,5.16-.91,1.06-1.92s1.75.92,2.86,1.64c0,.34-.3.51-.7.58L50.43,67.8l.53,3,8.1-1.43Zm-.81,4.53,3-.2c0,.42-.23.76-.94,1l2.7,15.29c0,.24-.66.81-1.36.93l-.38.07-.35-2L43.85,90.1l.25,1.39c0,.23-.7.78-1.4.9l-.31,0-3-17.17,2.9-.15c0,.39-.2.72-.88.93L43.7,89.23,61.88,86Zm-15,15.31a19.76,19.76,0,0,0,4.72-7.61l-5.38,1-.39-.83,6.81-1.2-1-5.68L52,72.59c0,.42-.22.76-.9,1l.81,4.57,3.94-.69,1-1.66s1.54.8,2.58,1.45c0,.33-.26.53-.67.6L52.08,79l.19,1c7.89.76,7.87,5,5.71,4.28-1-1.34-3.65-2.91-5.63-3.78L53.3,86c0,.23-.64.77-1.3.89l-.38.06-1-6a20.87,20.87,0,0,1-5.83,6.58Zm-.12-12.73c5.13,1.15,4.1,4.8,2.27,3.75A8.51,8.51,0,0,0,44,74.73Zm13.12-1.3c-.07.31-.31.47-1,.5-.64,1-2,2.64-2.83,3.75l-.37-.23c.51-1.32,1.11-3.51,1.46-4.74Z"/><path class="cls-2" d="M77,83.63c4.91-1.78,6.89-4.82,6.23-8.56a6,6,0,0,0-7.21-4.95,6.41,6.41,0,0,0-.73.17,3.93,3.93,0,0,1,1.27,2,10.31,10.31,0,0,1,0,3.45c-.43,2.63-2.12,7.06-4.23,7.44-1.39.24-3.22-1.7-3.67-4.24a8,8,0,0,1,1.73-6.29A9.06,9.06,0,0,1,76,69.4c4.26-.75,8,1.46,8.8,5.74.6,3.43-.93,7.33-7.61,9ZM74.58,70.55A7.92,7.92,0,0,0,71,73.28a6.77,6.77,0,0,0-1.29,5.16c.35,2,1.53,3.33,2.37,3.18,1.37-.24,2.69-3.84,3.2-6a10.16,10.16,0,0,0,.18-3.31A3.64,3.64,0,0,0,74.58,70.55Z"/><path class="cls-2" d="M112.91,77.29c.7.09.83.3.89.68.16.87-.62,1.37-5.23,2.18l-3.21.56c-2.29.41-2.83.06-3.08-1.39L101,72.11l-3.27.57c.14,6-2.72,9.14-9.88,11.72L87.66,84c6.06-2.86,8.11-5.79,7.93-10.89l-2.66.47.2,1.16c0,.2-.64.77-1.45.91l-.32.06L88.21,57.79l2.22.57,12.36-2.18.87-1.38,2.66,1.41a2.63,2.63,0,0,1-1.13.83l2.6,14.77a2.48,2.48,0,0,1-1.48.91l-.29,0-.27-1.5-2.89.51v0l1.2,6.8c.08.44.21.5,1.31.31l2.93-.52c1.3-.23,2.34-.41,2.74-.51s.42-.19.48-.5a26.49,26.49,0,0,0,.2-4.1l.41-.07Zm-22.5-18,.67,3.82,12.83-2.26L103.24,57Zm13.65,2.4L91.23,63.92l.69,3.91,12.83-2.27Zm-11.29,11L105.6,70.4l-.7-4L92.07,68.7Z"/><path class="cls-2" d="M120.13,53.33a6.49,6.49,0,0,1,1.78-.53c1.06-.12,3,.25,3.15.91a13.41,13.41,0,0,1-.34,2.45c-.06.55-.1,1.3-.19,2.15a27.69,27.69,0,0,0,3.38-2.17,2.66,2.66,0,0,1,.91-.58c.49-.09,1.29.07,1.39.59s-.17.9-1.16,1.55a43.26,43.26,0,0,1-4.73,2.5c-.15,1.49-.37,3.14-.64,4.63a71.75,71.75,0,0,1-2.6,11.38c-.28.74-.53,1.05-1.11,1.15s-.93-.37-1-1,.11-.94.4-1.8a40.1,40.1,0,0,0,2.91-10c.18-1.14.35-2.42.48-3.7a18.52,18.52,0,0,1-3.27.94c-1.68.3-3.18-.1-4.52-2.13l.42-.46c1.44.88,2.41,1.28,3.82,1a17,17,0,0,0,3.69-1.13,29.26,29.26,0,0,0,.06-3.89c-.06-.65-.25-.89-.81-1.06a13.7,13.7,0,0,0-1.92-.17Zm8,15.29a8.21,8.21,0,0,0,1.47,2.57c1.29,1.39,3.17,1.74,5.66,1.3a27.62,27.62,0,0,0,4.56-1.37c.67-.12,1.48.07,1.6.74s-.6,1-1.41,1.35a18.43,18.43,0,0,1-3.81,1.06c-3.36.59-6.2,0-7.55-2.34a8.26,8.26,0,0,1-1.2-3.1Zm.45-7.07a15.15,15.15,0,0,1,5.06-2,9.8,9.8,0,0,1,4,0c.73.26,1.18.6,1.27,1.09s-.38.75-1.06.93a5.65,5.65,0,0,0-1.63.77c-.83.5-2.08,1.41-3,2.07l-.46-.45a34.72,34.72,0,0,0,2.66-2.65c.2-.21.09-.34-.18-.39a8,8,0,0,0-2.61.11,17.84,17.84,0,0,0-3.8,1.14Z"/><path class="cls-2" d="M164,46.69a2.57,2.57,0,0,1-1.27.88l3.88,22a2.38,2.38,0,0,1-1.55,1l-.29,0-.39-2.23-13.84,2.44.28,1.59c.05.26-.59.91-1.42,1.06l-.38.07L144.6,48.41l2.29.62,13.35-2.36.92-1.53ZM146.86,49.9,147.93,56l13.84-2.44-1.07-6Zm1.22,6.89,1.08,6.14L163,60.49l-1.08-6.14Zm16.18,10.85-1.11-6.28L149.31,63.8l1.11,6.28Z"/><path class="cls-2" d="M176.88,58.67c-.24,1.15-.78,3.66-.87,4.48a6,6,0,0,0-.09,1.55c.11.6.64,1.19.72,1.69a.55.55,0,0,1-.48.72,1.31,1.31,0,0,1-1.11-.59,9.54,9.54,0,0,1-2-4.42,19,19,0,0,1,0-5.63,12.39,12.39,0,0,0,.1-2.49,3.39,3.39,0,0,0-1.54-2l.28-.33a4.63,4.63,0,0,1,1.16.44c.5.27,1.58,1.06,1.73,1.93a8,8,0,0,1-.42,2.23,12.53,12.53,0,0,0-.43,5.3,3.24,3.24,0,0,0,.65,1.72c.17.22.32.24.46-.06.32-.81,1-3.6,1.29-4.73Zm1.47-5.1a10.69,10.69,0,0,1,4.72-2.15,6.88,6.88,0,0,1,3-.07.85.85,0,0,1,.74.61c.05.27,0,.48-.46.62a5.37,5.37,0,0,0-1.63.69,33,33,0,0,0-3.06,2.48l-.41-.31c.81-.83,2.09-2.16,2.46-2.61.2-.27.16-.41-1.21-.17A13.36,13.36,0,0,0,178.64,54Zm.91,6.51a8.1,8.1,0,0,0,.92,1.7c.92,1.09,2.14,1.62,4.69,1.17a19.76,19.76,0,0,0,3.45-1c.55-.1,1.12,0,1.21.47.14.83-1.73,1.42-4,1.81-3.22.57-5.17-.2-6.16-2.2a6.62,6.62,0,0,1-.6-1.79Z"/><path class="cls-3" d="M37.15,103.12l-.38-2,2.94-.57.39,2ZM46,101.4l-.38-2,2.95-.57.38,2Zm8.84-1.71-.38-2,2.94-.57.38,2ZM63.65,98l-.38-2,2.95-.58.38,2Zm8.84-1.72-.38-2,2.94-.57.38,2Zm8.83-1.72-.38-2,3-.57.38,2Zm8.84-1.71-.38-2,2.94-.57.38,2ZM99,91.1l-.38-2,3-.58.38,2Zm8.84-1.72-.38-2,2.94-.57.38,2Zm8.83-1.71-.38-2,3-.57.38,2ZM125.5,86l-.38-2,2.94-.58.38,2Zm8.83-1.72-.38-2,2.94-.57.39,2Zm8.84-1.72-.39-2,2.95-.57.38,2ZM152,80.8l-.38-2,2.94-.57.38,2Zm8.84-1.72-.39-2,3-.58.38,2Zm8.83-1.72-.38-2,2.94-.57.38,2Zm8.83-1.72-.38-2,2.95-.57.38,2Zm8.84-1.71L187,72l2.94-.57.38,2Zm8.83-1.72-.38-2,2-.38.38,2Z"/></g></g></svg>