<svg xmlns="http://www.w3.org/2000/svg" xmlns:xlink="http://www.w3.org/1999/xlink" viewBox="0 0 216.37 246.14"><defs><style>.cls-1,.cls-5{fill:none;}.cls-2{fill:#ffe037;}.cls-3{fill:#ceeae8;}.cls-4{fill:#158ba4;}.cls-5{stroke:#158ba4;stroke-miterlimit:10;stroke-width:2px;}.cls-6{fill:url(#New_Pattern_Swatch_3);}.cls-7{fill:#3e3a39;}</style><pattern id="New_Pattern_Swatch_3" data-name="New Pattern Swatch 3" width="100" height="100" patternTransform="translate(-58.14 -153.27)" patternUnits="userSpaceOnUse" viewBox="0 0 100 100"><rect class="cls-1" width="100" height="100"/><polygon class="cls-1" points="55.96 0 0 55.96 0 62.22 62.22 0 55.96 0"/><polygon class="cls-1" points="46.87 0 0 46.87 0 53.13 53.13 0 46.87 0"/><polygon class="cls-1" points="37.78 0 0 37.78 0 44.04 44.04 0 37.78 0"/><polygon class="cls-1" points="10.51 0 0 10.51 0 16.77 16.77 0 10.51 0"/><polygon class="cls-1" points="1.41 0 0 1.41 0 7.68 7.68 0 1.41 0"/><polygon class="cls-1" points="28.69 0 0 28.69 0 34.95 34.95 0 28.69 0"/><polygon class="cls-1" points="19.6 0 0 19.6 0 25.86 25.86 0 19.6 0"/><polygon class="cls-1" points="92.32 0 0 92.32 0 98.59 98.59 0 92.32 0"/><polygon class="cls-1" points="65.05 0 0 65.05 0 71.31 71.31 0 65.05 0"/><polygon class="cls-1" points="44.04 100 100 44.04 100 37.78 37.78 100 44.04 100"/><polygon class="cls-1" points="62.22 100 100 62.22 100 55.96 55.96 100 62.22 100"/><polygon class="cls-1" points="34.95 100 100 34.95 100 28.69 28.69 100 34.95 100"/><polygon class="cls-1" points="53.13 100 100 53.13 100 46.87 46.87 100 53.13 100"/><polygon class="cls-1" points="100 7.68 100 1.41 1.41 100 7.68 100 100 7.68"/><polygon class="cls-1" points="25.86 100 100 25.86 100 19.6 19.6 100 25.86 100"/><polygon class="cls-1" points="16.77 100 100 16.77 100 10.51 10.51 100 16.77 100"/><polygon class="cls-1" points="71.31 100 100 71.31 100 65.05 65.05 100 71.31 100"/><polygon class="cls-1" points="98.59 100 100 98.59 100 92.32 92.32 100 98.59 100"/><polygon class="cls-1" points="80.4 100 100 80.4 100 74.14 74.14 100 80.4 100"/><polygon class="cls-1" points="89.5 100 100 89.5 100 83.23 83.23 100 89.5 100"/><polygon class="cls-1" points="83.23 0 0 83.23 0 89.5 89.5 0 83.23 0"/><polygon class="cls-1" points="74.14 0 0 74.14 0 80.4 80.4 0 74.14 0"/><polygon class="cls-2" points="37.78 100 100 37.78 100 34.95 34.95 100 37.78 100"/><polygon class="cls-2" points="55.96 100 100 55.96 100 53.13 53.13 100 55.96 100"/><polygon class="cls-2" points="53.13 0 0 53.13 0 55.96 55.96 0 53.13 0"/><polygon class="cls-2" points="34.95 0 0 34.95 0 37.78 37.78 0 34.95 0"/><polygon class="cls-2" points="16.77 0 0 16.77 0 19.6 19.6 0 16.77 0"/><polygon class="cls-2" points="46.87 100 100 46.87 100 44.04 44.04 100 46.87 100"/><polygon class="cls-2" points="25.86 0 0 25.86 0 28.69 28.69 0 25.86 0"/><polygon class="cls-2" points="10.51 100 100 10.51 100 7.68 7.68 100 10.51 100"/><polygon class="cls-2" points="44.04 0 0 44.04 0 46.87 46.87 0 44.04 0"/><polygon class="cls-2" points="28.69 100 100 28.69 100 25.86 25.86 100 28.69 100"/><polygon class="cls-2" points="19.6 100 100 19.6 100 16.77 16.77 100 19.6 100"/><polygon class="cls-2" points="100 0 98.59 0 0 98.59 0 100 1.41 100 100 1.41 100 0"/><polygon class="cls-2" points="62.22 0 0 62.22 0 65.05 65.05 0 62.22 0"/><polygon class="cls-2" points="7.68 0 0 7.68 0 10.51 10.51 0 7.68 0"/><polygon class="cls-2" points="80.4 0 0 80.4 0 83.23 83.23 0 80.4 0"/><polygon class="cls-2" points="92.32 100 100 92.32 100 89.5 89.5 100 92.32 100"/><polygon class="cls-2" points="89.5 0 0 89.5 0 92.32 92.32 0 89.5 0"/><polygon class="cls-2" points="100 100 100 98.59 98.59 100 100 100"/><polygon class="cls-2" points="74.14 100 100 74.14 100 71.31 71.31 100 74.14 100"/><polygon class="cls-2" points="65.05 100 100 65.05 100 62.22 62.22 100 65.05 100"/><polygon class="cls-2" points="71.31 0 0 71.31 0 74.14 74.14 0 71.31 0"/><polygon class="cls-2" points="83.23 100 100 83.23 100 80.4 80.4 100 83.23 100"/><polygon class="cls-2" points="0 0 0 1.41 1.41 0 0 0"/></pattern></defs><g id="Layer_2" data-name="Layer 2"><g id="レイヤー_1" data-name="レイヤー 1"><path class="cls-3" d="M208.83,100.25c17.08,28.57,4.17,54.43-28.77,62.31-8.78,29.56-37.61,41.14-69.44,25.82C78.78,203.7,50,192.12,41.17,162.56,8.23,154.68-4.68,128.82,12.4,100.25-4.68,71.68,8.23,45.82,41.17,37.93,50,8.37,78.78-3.21,110.62,12.12c31.83-15.33,60.66-3.75,69.44,25.81C213,45.82,225.91,71.68,208.83,100.25Z"/><ellipse class="cls-3" cx="64.76" cy="218.2" rx="11.67" ry="14.36" transform="translate(-162.44 231.87) rotate(-76.91)"/><path class="cls-3" d="M40.63,230c-4.5,0-8.27,2.51-8.89,6.24a7,7,0,0,0,1.1,4.92,11.34,11.34,0,0,0,7.47,4.79c5.45,1,10.47-1.68,11.19-6h0A7,7,0,0,0,50.4,235a11.32,11.32,0,0,0-7.47-4.78A12.17,12.17,0,0,0,40.63,230Z"/><path class="cls-4" d="M134.18,192.15c-8.83,0-18-2.24-27.36-6.66-9.32,4.42-18.52,6.66-27.35,6.66-20.56,0-36.56-12.23-42.91-32.75C13.65,153.73,0,139.27,0,120.62a43.71,43.71,0,0,1,2.83-15.06,1,1,0,0,1,1.39-.65,1.23,1.23,0,0,1,.58,1.54,41.26,41.26,0,0,0-2.67,14.17c0,17.62,13.26,31.3,35.47,36.62a1.13,1.13,0,0,1,.79.78c5.91,19.9,21.27,31.77,41.08,31.77,8.67,0,17.73-2.24,26.93-6.67a1,1,0,0,1,.85,0c9.19,4.43,18.26,6.67,26.93,6.67,19.81,0,35.17-11.87,41.08-31.77a1.13,1.13,0,0,1,.79-.78c22.21-5.32,35.47-19,35.47-36.62,0-7.68-2.48-15.72-7.37-23.89a1.26,1.26,0,0,1,0-1.3c4.89-8.18,7.37-16.22,7.37-23.9,0-15.46-10.23-28-28.06-34.42a1.2,1.2,0,0,1-.68-1.48,1,1,0,0,1,1.34-.76c18.76,6.75,29.53,20.11,29.53,36.66,0,7.94-2.47,16.2-7.34,24.55,4.87,8.34,7.34,16.6,7.34,24.54,0,18.65-13.66,33.11-36.56,38.78C170.74,179.92,154.74,192.15,134.18,192.15ZM4.88,90a1.08,1.08,0,0,1-1-.67A45.27,45.27,0,0,1,0,71.53c0-18.64,13.65-33.1,36.56-38.78C42.91,12.23,58.91,0,79.47,0c8.83,0,18,2.24,27.35,6.67C116.14,2.24,125.35,0,134.18,0c16.84,0,31,8.43,38.92,23.14a1.24,1.24,0,0,1-.38,1.61,1,1,0,0,1-1.46-.41c-7.49-14-21-22-37.08-22-8.67,0-17.74,2.24-26.93,6.67a1,1,0,0,1-.85,0C97.2,4.6,88.14,2.36,79.47,2.36c-19.81,0-35.17,11.87-41.08,31.77a1.11,1.11,0,0,1-.79.78c-22.21,5.32-35.47,19-35.47,36.62A42.57,42.57,0,0,0,5.84,88.3a1.24,1.24,0,0,1-.51,1.57A.92.92,0,0,1,4.88,90Z"/><path class="cls-4" d="M63.48,226.85a18.63,18.63,0,0,1-3.4-.32c-7.53-1.41-13.22-7.33-13.22-13.75A10.84,10.84,0,0,1,47,211c1-6,6.68-10.14,13.84-10.14a18.72,18.72,0,0,1,3.4.32c7.53,1.41,13.21,7.33,13.21,13.75a10.84,10.84,0,0,1-.15,1.8h0C76.33,222.68,70.64,226.85,63.48,226.85ZM60.85,203.2c-6,0-11,3.45-11.74,8.21a7.84,7.84,0,0,0-.12,1.37c0,5.29,4.92,10.2,11.44,11.43a16.64,16.64,0,0,0,3,.28c6,0,11-3.45,11.74-8.21a8.94,8.94,0,0,0,.11-1.37c0-5.29-4.92-10.2-11.44-11.43A16.46,16.46,0,0,0,60.85,203.2Zm15.42,13.3Z"/><path class="cls-4" d="M40,243a13,13,0,0,1-2.48-.24,12.33,12.33,0,0,1-8.16-5.27A8.49,8.49,0,0,1,28,232.9a7.64,7.64,0,0,1,.1-1.26c.7-4.24,4.79-7.2,9.93-7.2a13,13,0,0,1,2.48.24A12.33,12.33,0,0,1,48.67,230a8.46,8.46,0,0,1,1.38,4.55,7.56,7.56,0,0,1-.1,1.26C49.25,240,45.17,243,40,243ZM38,226.8c-4,0-7.33,2.22-7.84,5.27a5.79,5.79,0,0,0-.06.83,6,6,0,0,0,1,3.21,10.26,10.26,0,0,0,6.77,4.3,11.9,11.9,0,0,0,2.13.2c4,0,7.33-2.22,7.84-5.27a5.71,5.71,0,0,0-.93-4,10.26,10.26,0,0,0-6.77-4.3A11.81,11.81,0,0,0,38,226.8Z"/><path class="cls-5" d="M108.88,66.2a3.14,3.14,0,0,1-4.52,1.26A4,4,0,0,1,103,62.34l2.25-4.47a1.64,1.64,0,0,1,2.2-.72L111,59a1.36,1.36,0,0,1,.6,1.82Z"/><path class="cls-5" d="M100.92,66.57a4,4,0,0,1-4.74-3.91V57.51a1.5,1.5,0,0,1,1.5-1.5h4"/><path class="cls-5" d="M96.18,63.22a3.94,3.94,0,0,1-7-2.5V55.57a1.5,1.5,0,0,1,1.49-1.5h4"/><text/><path class="cls-5" d="M106.77,51.13h-4.41a1.71,1.71,0,0,1-1.7-1.71V41.35a3.56,3.56,0,0,1,3.56-3.56h0a3.56,3.56,0,0,1,2.93,1.54l1.33,1.93"/><path class="cls-5" d="M119.82,49.35H125a1.59,1.59,0,0,0,1.59-1.59V42.89a3.87,3.87,0,0,0-4.76-3.76"/><path class="cls-5" d="M126.7,47.54h5.21A1.59,1.59,0,0,0,133.5,46V41.08A3.85,3.85,0,0,0,127,38.25"/><path class="cls-5" d="M93.68,47.54h-5.2A1.59,1.59,0,0,1,86.89,46V41.08a3.85,3.85,0,0,1,6.21-3"/><path class="cls-5" d="M100.57,49.35h-5.2a1.6,1.6,0,0,1-1.6-1.59V42.89a3.88,3.88,0,0,1,4.67-3.78"/><path class="cls-5" d="M132.46,37.79a11.81,11.81,0,0,0,.13-3.7,4,4,0,0,0-2.05-3,6,6,0,0,0-3.82.09l-11.93,3c-3.71.93-4.5,1.13-9,0l-11.93-3A6,6,0,0,0,90,31.14a3.94,3.94,0,0,0-2,3,11.51,11.51,0,0,0,.12,3.7"/><path class="cls-5" d="M113.85,73.66c-1.19.09-2.41.13-3.66.13-12.43,0-22.51-4.59-22.51-10.26a5.64,5.64,0,0,1,1.48-3.66"/><circle class="cls-5" cx="124.28" cy="66.83" r="10.06" transform="translate(30.95 172.67) rotate(-76.86)"/><line class="cls-5" x1="120.71" y1="63.26" x2="127.85" y2="70.4"/><line class="cls-5" x1="127.85" y1="63.26" x2="120.71" y2="70.4"/><path class="cls-5" d="M116,50.31a3.83,3.83,0,0,1-5.5,1.53,4.82,4.82,0,0,1-1.67-6.23l2.74-5.43a2,2,0,0,1,2.68-.88l4.34,2.19a1.64,1.64,0,0,1,.72,2.21Z"/><rect class="cls-6" x="9.77" y="124.67" width="137.12" height="14"/><path class="cls-7" d="M53.68,95h-6.1V98.3h8.25v2.58H47.58v3.61c0,.46.2.68.6.68h7.13l-.08,2.58H47.15a2,2,0,0,1-2.32-2.32v-4.55H38.38V98.3h6.45V95H40V92.46H53.68Z"/><path class="cls-7" d="M75.77,99.59H69.15a13.22,13.22,0,0,1-1.2,5.93,16.77,16.77,0,0,1-3.18,4.29l-2.15-1.71a10.09,10.09,0,0,0,3.09-3.87,13.05,13.05,0,0,0,.78-4.64H58.15V97H75.77Zm-3.7-5.24H61.24V91.77H72.07Zm2.67.17a19.3,19.3,0,0,0-3-3.44l1.29-1a15.6,15.6,0,0,1,3,3.26Zm3.35-2.41-1.38,1.2a14.36,14.36,0,0,0-2.92-3.43l1.38-1A21.3,21.3,0,0,1,78.09,92.11Z"/><path class="cls-7" d="M86.17,93.14c0,.17-.06.35-.35.52v4.12a16.53,16.53,0,0,1-1.11,5.93A13.62,13.62,0,0,1,81,109L79,107.49a16.29,16.29,0,0,0,3.35-4.55,12.05,12.05,0,0,0,.94-4.38V92.88h2.24C85.88,92.88,86.11,93,86.17,93.14Zm5.32-.94c.06.17,0,.34-.34.51v12.12A17.22,17.22,0,0,0,97.94,99l1.63,1.89a21.34,21.34,0,0,1-8.42,6.87l-.77.69-2.24-2.15.43-.17V91.94h2.24C91.21,91.94,91.44,92,91.49,92.2Z"/><path class="cls-7" d="M110.74,91.17l1.72,1.46c.46.4.35.74-.34,1l-1.89,4.64a28,28,0,0,1,5.15,1.2c.06-1.77.06-3.44,0-5l2.24.43c.4.11.63.26.69.43s-.15.28-.43.34a36.24,36.24,0,0,1-.17,4.56,24.75,24.75,0,0,1,3.86,1.89l-1.2,2.23a27.08,27.08,0,0,0-3.09-1.63,14.16,14.16,0,0,1-3.61,6.27l-2.07-1.63a11.34,11.34,0,0,0,3.44-5.5,22.77,22.77,0,0,0-5.67-1.38,22,22,0,0,1-1.55,3.35,10.24,10.24,0,0,1-1.8,2.41,2.94,2.94,0,0,1-2.15.86,2.63,2.63,0,0,1-1.89-.86,3.37,3.37,0,0,1-1-2.49,5.11,5.11,0,0,1,1.64-3.7,7.09,7.09,0,0,1,5.24-2c.4-.86.91-2.24,1.55-4.13-1.32.29-2.84.63-4.56,1l-.77-2.49a20,20,0,0,0,3.35-.34,22.38,22.38,0,0,0,2.23-.52A4,4,0,0,0,110.74,91.17Zm-6.87,13.57c.34.06.77-.25,1.29-.94q.95-1.55,1.8-3.27-3.34.34-3.69,3.27A.76.76,0,0,0,103.87,104.74Z"/><path class="cls-7" d="M130.77,90.74c0,.17-.09.34-.43.51-.12.52-.23,1.06-.35,1.63s-.11,1-.17,1.47c1.15-.18,2.32-.38,3.53-.61l.34,2.41-4.21.69c-.35,2.06-.83,4.27-1.46,6.62s-1.12,4.06-1.64,5.5l-2.66-.61a35.9,35.9,0,0,0,1.81-5.24c.68-2.63,1.14-4.64,1.37-6-.57,0-1.15,0-1.72.08s-1.26.09-1.89.09L123,94.78a26.79,26.79,0,0,0,4.29-.18c.23-1.54.46-3.12.69-4.72l2.06.43C130.45,90.36,130.71,90.51,130.77,90.74Zm3.44,15.12a10.86,10.86,0,0,0,2.83.35h4.3v2.49H136.7a10,10,0,0,1-3.1-.43,12.36,12.36,0,0,1-2.92-1.55l1.12-2A6.6,6.6,0,0,0,134.21,105.86Zm6.7-6.1a28.2,28.2,0,0,0-4.47.34,17.16,17.16,0,0,0-3.87,1.12l-.69-2.32a16.3,16.3,0,0,1,4.22-1.29,28.1,28.1,0,0,1,4.46-.34Z"/><path class="cls-7" d="M147.27,92.88c0,.18-.09.35-.43.52a47.77,47.77,0,0,0-.43,5.59,19.1,19.1,0,0,0,.43,5.07c.17.8.48,1.23.94,1.29s.95-.49,1.46-1.47l1-2.14,2.14,1.63a26,26,0,0,1-1.29,2.84,3.51,3.51,0,0,1-3.17,2.06q-4.05-.43-4-8.51c0-2.92.11-5.59.34-8l2.32.6A.85.85,0,0,1,147.27,92.88Zm12,11.09a19.6,19.6,0,0,0-1.12-4.64,18.19,18.19,0,0,0-3-4.9l1.89-1.37a17.61,17.61,0,0,1,3.53,5,17.17,17.17,0,0,1,1.54,5.24Z"/><path class="cls-7" d="M172.62,90.82c.06.17-.09.29-.43.35l-.69,2.4c.92-.17,1.86-.37,2.84-.6l.43,2.49c-1.38.23-2.72.43-4,.6-.35,1-1,2.55-1.89,4.73a47.25,47.25,0,0,1-2.32,4.81l-2.24-1.37a40.85,40.85,0,0,0,2.41-4.3,22.21,22.21,0,0,0,1.46-3.61c-1.37.12-2.49.17-3.35.17l-.26-2.57q2.24,0,4.38-.09c.4-1.32.78-2.72,1.12-4.21l2,.69Q172.62,90.48,172.62,90.82Zm5.93,7.05a.73.73,0,0,1-.26.43v5a19.94,19.94,0,0,1,4.64,2.32l-1.29,2.07a19.57,19.57,0,0,0-3.43-1.81,4.06,4.06,0,0,1-1.12,2.49,4.67,4.67,0,0,1-3.44,1.12,5.16,5.16,0,0,1-2.92-.86,3,3,0,0,1-1.29-2.66,3.09,3.09,0,0,1,1.72-2.75,6.47,6.47,0,0,1,4.72-.52V97.61H178C178.29,97.61,178.49,97.7,178.55,97.87Zm-6.36,7.39a1.06,1.06,0,0,0-.43.86,1,1,0,0,0,.6.86,3.38,3.38,0,0,0,1.46.26,2.41,2.41,0,0,0,1.46-.52,2.44,2.44,0,0,0,.6-1.63,3.4,3.4,0,0,0-.94-.17,9.44,9.44,0,0,0-1.2-.09A2.16,2.16,0,0,0,172.19,105.26Zm9.71-7.56a40,40,0,0,0-6.19-2.92l1-1.9a27.73,27.73,0,0,1,6.19,2.75Z"/><path class="cls-7" d="M29,114.13v1H35v2.06H29v1.12h8.85v2.06H31.6l1.11.6c.29.18.35.35.17.52a.46.46,0,0,1-.34.09,24.1,24.1,0,0,0-1.2,2.14h1.72v2.07H29.88A6.87,6.87,0,0,0,31.51,127a6.49,6.49,0,0,0,2.15.85v-7.3h2.06c.69.06.8.29.34.69v12.46h-2.4v-.6H21.71V134h-2.4V120.58h2.06c.69.06.8.29.34.69v6.61a7.17,7.17,0,0,0,1.55-.6,7.71,7.71,0,0,0,2.23-1.54H22.23v-2.07h2.15a23.59,23.59,0,0,0-1.89-2.32l1.46-1H17.59v-2.06h4v-3.35h2.06c.69.06.8.29.34.69v2.66h2.58v-4.81h2.06C29.36,113.51,29.48,113.73,29,114.13Zm-.17,16.68H26.44v-3.18l-.69.68a11.41,11.41,0,0,1-3.18,1.9l-.86-1.81v2.66H33.66v-2.75l-.95,1.9a10,10,0,0,1-3.86-2.75Zm-.35-10.23c.69.06.8.29.35.69v2.4h2l-1.46-.86a10.85,10.85,0,0,0,1.29-2.49H24.21a17.18,17.18,0,0,1,2,2.24l-1.55,1.11h1.81v-3.09Z"/><path class="cls-7" d="M55.14,114.65a.61.61,0,0,1-.43.26,30,30,0,0,0-1.2,2.92H59v2.23H53.25v10.75h6.36V133H40.19v-2.23h6.19V120.06H40.79v-2.23H46a11.33,11.33,0,0,0-1.89-2.58l2-1.46c.51.52,1,1.06,1.46,1.63a8.12,8.12,0,0,1,1.12,1.72l-1,.69H51l1.37-4.47,2.15.69Q55.32,114.31,55.14,114.65ZM46.29,127.8l-2.66.86a34.07,34.07,0,0,0-1.72-6.28l2.32-.6A24.49,24.49,0,0,1,46.29,127.8Zm2.49-7.74v10.75h2.07V120.06Zm9.46,2.41a.22.22,0,0,1,0,.34.58.58,0,0,1-.43.26c-.58,2.12-1.21,4.16-1.89,6.1l-2.5-.86a35.82,35.82,0,0,0,2-6.78l2.23.6A.89.89,0,0,1,58.24,122.47Z"/><path class="cls-7" d="M70.35,118l-.6.17a4,4,0,0,0-.69.35,14.66,14.66,0,0,0-3.26,6.7c-.34,2,0,3.52,1,4.56a4.25,4.25,0,0,0,3.09,1.28,4,4,0,0,0,2.93-1.2c1.08-1.09,1.63-3.23,1.63-6.44a22.34,22.34,0,0,0-1-6.71l2.93-.25a11.54,11.54,0,0,0,.34,2.83,14.57,14.57,0,0,0,.86,2.41c.34.68.86,1.57,1.55,2.66A13.87,13.87,0,0,0,81.27,127l-1.89,1.8a8.85,8.85,0,0,1-1.46-1.89c-.46-.74-.89-1.49-1.29-2.23.05,3.32-.63,5.7-2.07,7.13a7.17,7.17,0,0,1-9.71-.35,5.92,5.92,0,0,1-1.54-4.38A14.5,14.5,0,0,1,66,119.29a22.09,22.09,0,0,0-3.44.77l-.43-2.83a13.43,13.43,0,0,0,3.78-.43,10.61,10.61,0,0,0,3-1.12Zm10.49-.69-1.21,1.38a11.81,11.81,0,0,0-3.52-2.58l1-1.37A11.44,11.44,0,0,1,80.84,117.31Zm1.37-1.89L81,116.8a12.33,12.33,0,0,0-3.61-2.58l1-1.29A18.47,18.47,0,0,1,82.21,115.42Z"/><path class="cls-7" d="M87.8,116c.06.17-.12.28-.52.34a58.21,58.21,0,0,0-.51,16.07l-2.67.17A63.74,63.74,0,0,1,84.79,115l2.15.52C87.46,115.63,87.74,115.8,87.8,116Zm14.09,12.37V131H95.53a6,6,0,0,1-3-.77,11.35,11.35,0,0,1-2.75-2.07l1.54-1.8a8.75,8.75,0,0,0,2,1.54,5.34,5.34,0,0,0,2.58.52Zm-1.2-8.34a61.25,61.25,0,0,0-10.31.52v-2.49a79,79,0,0,1,10.31-.52Z"/><path class="cls-7" d="M105.76,125.05l-2.32-.6a22.55,22.55,0,0,0,.69-6.71l2.23.35Q106.2,122,105.76,125.05Zm12.29-10.92v1H123v2.06H120.8l-.6,1.29h4v2.06H111.26l-1.12,1a15.79,15.79,0,0,0-1.29-1.9V133.9h-2.4V113.53h2.06c.69.06.8.29.34.69v4l1-.94a11.61,11.61,0,0,1,1,1.2h2.66l-.51-1.29h-2.24v-2.06h4.9v-1.63h2.07C118.39,113.51,118.51,113.73,118.05,114.13Zm4.47,13.67H118v.69h4.9v2.06H118v.77h6.28v2.24H109.63v-2.24h6.1v-.77h-4.81v-2.06h4.81v-.69h-4.47v-6.62h11.26Zm-8.85-5.07v.77h2.06v-.77Zm0,2.49v.86h2.06v-.86Zm1.8-8.08.43,1.29h1.89l.52-1.29Zm2.49,5.59v.77h2.15v-.77Zm0,2.49v.86h2.15v-.86Z"/><path class="cls-7" d="M133.35,114a.7.7,0,0,1-.26.43v4.13l1.29.94-.6.69c-.23.34-.46.66-.69.95v.34c2.23-2.29,4.24-3.41,6-3.35A2.85,2.85,0,0,1,141,119a2.38,2.38,0,0,1,.61,2.32q-.34,3.18-.61,6.61c-.05,1.09.26,1.7.95,1.81s1.32-.4,1.89-1.55l.77-1.46,1.89,1.55-.86,1.55a4.19,4.19,0,0,1-3.78,2.4,3.16,3.16,0,0,1-2.32-.86,3.36,3.36,0,0,1-.94-2.49,38.7,38.7,0,0,1,.26-4.47c.11-1.55.2-2.4.25-2.58q.18-1.45-1.29-1.11a6.93,6.93,0,0,0-2.14,1.29,20.34,20.34,0,0,0-2.58,2.32v9.1h-2.41v-6.53a53.57,53.57,0,0,1-3.35,4.3l-1.8-1.8a56.83,56.83,0,0,0,5.15-6.45v-1.63a37.85,37.85,0,0,1-3.69,1.2l-.78-2.49c1.55-.29,3-.63,4.47-1v-5.24h2.06C133.09,113.71,133.29,113.79,133.35,114Z"/><path class="cls-7" d="M161.28,115.34c.45.46.4.69-.18.69q-2.15,2.49-5,5.5c3.15-.52,5.5,0,7,1.54a5.28,5.28,0,0,1,1.71,3.78,6.54,6.54,0,0,1-1.71,4.82q-1.81,1.8-5.76,1.8a5.66,5.66,0,0,1-4.13-1.29,3.93,3.93,0,0,1-1.29-2.83,3.19,3.19,0,0,1,1-2.32,3.15,3.15,0,0,1,2.32-1,3.6,3.6,0,0,1,2.66,1,7.3,7.3,0,0,1,1.55,3.78,2.73,2.73,0,0,0,1.89-.95,3.6,3.6,0,0,0,.94-2.66,3.26,3.26,0,0,0-.94-2.41,5.2,5.2,0,0,0-3.78-1.2,8.7,8.7,0,0,0-2.58.26,5,5,0,0,0-1.63.94,23.87,23.87,0,0,0-3.53,3.61l-1.8-1.63c1.54-1.61,3.18-3.27,4.9-5a39.24,39.24,0,0,0,4.12-4.9c-1.6.18-3.38.35-5.33.52l-.6-2.66h4.3a16.29,16.29,0,0,0,3.69-.52l.69-.26Zm-6.71,13.06a1.17,1.17,0,0,0-.34.86,1.64,1.64,0,0,0,.51,1.2,3.51,3.51,0,0,0,2.41.6c-.11-2-.69-3-1.72-3A1.17,1.17,0,0,0,154.57,128.4Z"/><path class="cls-7" d="M175.54,114.82c.06.17-.08.29-.43.35l-.69,2.4c.92-.17,1.87-.37,2.84-.6l.43,2.49c-1.38.23-2.72.43-4,.6-.34,1-1,2.55-1.89,4.73a47.25,47.25,0,0,1-2.32,4.81l-2.23-1.37a43,43,0,0,0,2.4-4.3,22.21,22.21,0,0,0,1.46-3.61c-1.37.12-2.49.17-3.35.17l-.26-2.57c1.49,0,2.95,0,4.39-.09.4-1.32.77-2.72,1.11-4.21l2,.69Q175.54,114.48,175.54,114.82Zm5.93,7.05a.73.73,0,0,1-.26.43v5a19.94,19.94,0,0,1,4.64,2.32l-1.29,2.07a19.57,19.57,0,0,0-3.43-1.81,4.06,4.06,0,0,1-1.12,2.49,4.67,4.67,0,0,1-3.44,1.12,5.16,5.16,0,0,1-2.92-.86,3,3,0,0,1-1.29-2.66,3.09,3.09,0,0,1,1.72-2.75,6.49,6.49,0,0,1,4.73-.52v-5.07h2.06C181.21,121.61,181.41,121.7,181.47,121.87Zm-6.36,7.39a1.06,1.06,0,0,0-.43.86,1,1,0,0,0,.6.86,3.38,3.38,0,0,0,1.46.26,2.44,2.44,0,0,0,1.47-.52,2.55,2.55,0,0,0,.6-1.63,3.46,3.46,0,0,0-.95-.17,9.44,9.44,0,0,0-1.2-.09A2.16,2.16,0,0,0,175.11,129.26Zm9.71-7.56a40,40,0,0,0-6.19-2.92l1-1.9a27.86,27.86,0,0,1,6.18,2.75Z"/><path class="cls-7" d="M194.71,117.31c.11.23,0,.41-.35.52-.06.75-.11,1.49-.17,2.23l5.84-.43.18,2.15-6.11.43v1.21a12.16,12.16,0,0,1,2.24-.18l.17-1,1.89.26c.46,0,.69.12.69.34a.52.52,0,0,1-.35.26l-.17.43q4.31,1.13,4.56,4.47a4.73,4.73,0,0,1-1.89,4.56,6.85,6.85,0,0,1-3.87,1.46l-1.12-2.15q4.47-.85,4.47-3.35c0-1.55-.86-2.55-2.58-3a13.06,13.06,0,0,1-2.66,5.07c.23.29.43.54.6.77l-1.72,1.29a5.32,5.32,0,0,1-.51-.6,4.18,4.18,0,0,1-3,1.37,2.67,2.67,0,0,1-2.84-2.83,7,7,0,0,1,.95-3.7,6.37,6.37,0,0,1,2.92-2.57v-2l-2.84.08-.17-2.14,3.1-.09c0-.52.08-1.55.25-3.09h1.72C194.33,117.06,194.59,117.14,194.71,117.31ZM190.24,130c0,.86.31,1.29.94,1.29s1.06-.37,1.63-1.11a9.32,9.32,0,0,1-.77-3.7A4.25,4.25,0,0,0,190.24,130Zm3.95-4.47a12.86,12.86,0,0,0,.09,1.47,4.56,4.56,0,0,0,.34,1.28,8,8,0,0,0,.86-1.71c.23-.63.37-1.06.43-1.29A6.61,6.61,0,0,0,194.19,125.56Z"/></g></g></svg>