<svg xmlns="http://www.w3.org/2000/svg" viewBox="0 0 99.88 116.27"><defs><style>.cls-1{fill:#09adec;}</style></defs><g id="Layer_2" data-name="Layer 2"><g id="レイヤー_3" data-name="レイヤー 3"><path class="cls-1" d="M78.83,19.05H65.29a.48.48,0,0,1-.48-.48.49.49,0,0,1,.48-.48H78.83a.49.49,0,0,1,.48.48A.48.48,0,0,1,78.83,19.05Z"/><path class="cls-1" d="M56.18,19.05H42.64a.47.47,0,0,1-.48-.48.48.48,0,0,1,.48-.48H56.18a.49.49,0,0,1,.48.48A.48.48,0,0,1,56.18,19.05Z"/><path class="cls-1" d="M60.73,37.14a.48.48,0,0,1-.48-.48V23.13a.48.48,0,0,1,.48-.48.47.47,0,0,1,.48.48V36.66A.47.47,0,0,1,60.73,37.14Z"/><path class="cls-1" d="M60.73,14.49a.48.48,0,0,1-.48-.47V.48A.48.48,0,0,1,60.73,0a.47.47,0,0,1,.48.48V14A.47.47,0,0,1,60.73,14.49Z"/><path class="cls-1" d="M68,26.34a.48.48,0,0,1-.34-.14l-4.07-4.07a.48.48,0,0,1,0-.67.48.48,0,0,1,.68,0l4.06,4.06a.48.48,0,0,1,0,.68A.47.47,0,0,1,68,26.34Z"/><path class="cls-1" d="M57.51,15.83a.51.51,0,0,1-.34-.14l-4.06-4.06a.48.48,0,0,1,.68-.68L57.85,15a.48.48,0,0,1,0,.68A.49.49,0,0,1,57.51,15.83Z"/><path class="cls-1" d="M53.45,26.34a.49.49,0,0,1-.34-.14.48.48,0,0,1,0-.68l4.06-4.06a.48.48,0,0,1,.68,0,.47.47,0,0,1,0,.67L53.79,26.2A.51.51,0,0,1,53.45,26.34Z"/><path class="cls-1" d="M64,15.83a.48.48,0,0,1-.34-.82L67.68,11a.47.47,0,0,1,.67,0,.48.48,0,0,1,0,.68l-4.06,4.06A.47.47,0,0,1,64,15.83Z"/><path class="cls-1" d="M99.4,43.57H88.23a.48.48,0,0,1-.48-.48.49.49,0,0,1,.48-.48H99.4a.48.48,0,0,1,.48.48A.47.47,0,0,1,99.4,43.57Z"/><path class="cls-1" d="M80.71,43.57H69.53a.48.48,0,0,1-.48-.48.49.49,0,0,1,.48-.48H80.71a.49.49,0,0,1,.48.48A.48.48,0,0,1,80.71,43.57Z"/><path class="cls-1" d="M84.47,58.5A.47.47,0,0,1,84,58V46.85a.48.48,0,0,1,.48-.48.49.49,0,0,1,.48.48V58A.48.48,0,0,1,84.47,58.5Z"/><path class="cls-1" d="M84.47,39.81a.48.48,0,0,1-.48-.48V28.15a.48.48,0,0,1,.48-.48.49.49,0,0,1,.48.48V39.33A.49.49,0,0,1,84.47,39.81Z"/><path class="cls-1" d="M90.48,49.58a.47.47,0,0,1-.34-.14l-3.35-3.35a.48.48,0,0,1,0-.68.47.47,0,0,1,.67,0l3.36,3.36a.47.47,0,0,1,0,.67A.45.45,0,0,1,90.48,49.58Z"/><path class="cls-1" d="M81.81,40.91a.49.49,0,0,1-.34-.14l-3.35-3.35a.48.48,0,0,1,0-.68.47.47,0,0,1,.67,0l3.36,3.35a.5.5,0,0,1,0,.68A.51.51,0,0,1,81.81,40.91Z"/><path class="cls-1" d="M78.45,49.58a.43.43,0,0,1-.33-.14.47.47,0,0,1,0-.67l3.35-3.36a.48.48,0,0,1,.68,0,.5.5,0,0,1,0,.68l-3.36,3.35A.44.44,0,0,1,78.45,49.58Z"/><path class="cls-1" d="M87.13,40.91a.49.49,0,0,1-.34-.14.48.48,0,0,1,0-.68l3.35-3.35a.48.48,0,0,1,.68.68l-3.35,3.35A.51.51,0,0,1,87.13,40.91Z"/><path class="cls-1" d="M58.85,47.33h-3.6a.48.48,0,0,1-.48-.48.47.47,0,0,1,.48-.48h3.6a.47.47,0,0,1,.48.48A.48.48,0,0,1,58.85,47.33Z"/><path class="cls-1" d="M51.65,47.33h-3.6a.48.48,0,0,1-.48-.48.47.47,0,0,1,.48-.48h3.6a.48.48,0,0,1,.48.48A.49.49,0,0,1,51.65,47.33Z"/><path class="cls-1" d="M53.45,52.73a.47.47,0,0,1-.48-.47V48.65a.48.48,0,0,1,.48-.48.49.49,0,0,1,.48.48v3.61A.48.48,0,0,1,53.45,52.73Z"/><path class="cls-1" d="M53.45,45.53a.48.48,0,0,1-.48-.48v-3.6a.47.47,0,0,1,.48-.48.48.48,0,0,1,.48.48v3.6A.49.49,0,0,1,53.45,45.53Z"/><path class="cls-1" d="M93.1,13.8h-3a.47.47,0,0,1-.47-.48.48.48,0,0,1,.47-.48h3a.49.49,0,0,1,.48.48A.48.48,0,0,1,93.1,13.8Z"/><path class="cls-1" d="M87.09,13.8h-3a.48.48,0,0,1-.48-.48.49.49,0,0,1,.48-.48h3a.48.48,0,0,1,.48.48A.47.47,0,0,1,87.09,13.8Z"/><path class="cls-1" d="M88.59,18.31a.48.48,0,0,1-.47-.48v-3a.48.48,0,0,1,.95,0v3A.48.48,0,0,1,88.59,18.31Z"/><path class="cls-1" d="M88.59,12.3a.47.47,0,0,1-.47-.48v-3a.48.48,0,1,1,.95,0v3A.47.47,0,0,1,88.59,12.3Z"/><path class="cls-1" d="M21.06,97.22H34.59a.48.48,0,1,1,0,1H21.06a.48.48,0,1,1,0-1Z"/><path class="cls-1" d="M43.71,97.22H57.25a.48.48,0,0,1,0,1H43.71a.48.48,0,1,1,0-1Z"/><path class="cls-1" d="M39.15,79.12a.48.48,0,0,1,.48.48V93.14a.48.48,0,0,1-.48.48.49.49,0,0,1-.48-.48V79.6A.49.49,0,0,1,39.15,79.12Z"/><path class="cls-1" d="M39.15,101.77a.48.48,0,0,1,.48.48v13.54a.48.48,0,0,1-.48.48.49.49,0,0,1-.48-.48V102.25A.49.49,0,0,1,39.15,101.77Z"/><path class="cls-1" d="M31.87,89.93a.51.51,0,0,1,.34.14l4.06,4.06a.48.48,0,1,1-.68.68l-4.06-4.06a.48.48,0,0,1,.34-.82Z"/><path class="cls-1" d="M42.37,100.44a.45.45,0,0,1,.34.14l4.06,4.06a.48.48,0,0,1,0,.68.48.48,0,0,1-.67,0L42,101.25a.48.48,0,0,1,0-.67A.47.47,0,0,1,42.37,100.44Z"/><path class="cls-1" d="M46.43,89.93a.48.48,0,0,1,.34.82l-4.06,4.06a.48.48,0,0,1-.68,0,.5.5,0,0,1,0-.68l4.07-4.06A.47.47,0,0,1,46.43,89.93Z"/><path class="cls-1" d="M35.93,100.44a.51.51,0,0,1,.34.14.5.5,0,0,1,0,.68l-4.06,4.06a.5.5,0,0,1-.68,0,.48.48,0,0,1,0-.68l4.06-4.06A.48.48,0,0,1,35.93,100.44Z"/><path class="cls-1" d="M.48,72.7H11.65a.47.47,0,0,1,.48.48.48.48,0,0,1-.48.48H.48A.48.48,0,0,1,0,73.18.47.47,0,0,1,.48,72.7Z"/><path class="cls-1" d="M19.18,72.7H30.35a.47.47,0,0,1,.48.48.48.48,0,0,1-.48.48H19.18a.48.48,0,0,1-.48-.48A.47.47,0,0,1,19.18,72.7Z"/><path class="cls-1" d="M15.42,57.76a.48.48,0,0,1,.47.48V69.42a.48.48,0,0,1-1,0V58.24A.48.48,0,0,1,15.42,57.76Z"/><path class="cls-1" d="M15.42,76.46a.47.47,0,0,1,.47.48V88.11a.48.48,0,1,1-1,0V76.94A.47.47,0,0,1,15.42,76.46Z"/><path class="cls-1" d="M9.4,66.68a.48.48,0,0,1,.34.14l3.36,3.36a.48.48,0,1,1-.68.68L9.06,67.5a.5.5,0,0,1,0-.68A.51.51,0,0,1,9.4,66.68Z"/><path class="cls-1" d="M18.07,75.36a.44.44,0,0,1,.34.14l3.36,3.35a.48.48,0,0,1-.68.68l-3.35-3.36a.47.47,0,0,1,0-.67A.43.43,0,0,1,18.07,75.36Z"/><path class="cls-1" d="M21.43,66.68a.51.51,0,0,1,.34.14.5.5,0,0,1,0,.68l-3.36,3.36a.48.48,0,0,1-.67,0,.48.48,0,0,1,0-.68l3.35-3.36A.49.49,0,0,1,21.43,66.68Z"/><path class="cls-1" d="M12.75,75.36a.48.48,0,0,1,.34.82L9.74,79.53a.48.48,0,0,1-.68-.68l3.36-3.35A.47.47,0,0,1,12.75,75.36Z"/><path class="cls-1" d="M41,68.94h3.6a.47.47,0,0,1,.48.48.48.48,0,0,1-.48.48H41a.49.49,0,0,1-.48-.48A.48.48,0,0,1,41,68.94Z"/><path class="cls-1" d="M48.23,68.94h3.61a.48.48,0,0,1,.48.48.49.49,0,0,1-.48.48H48.23a.48.48,0,0,1-.47-.48A.47.47,0,0,1,48.23,68.94Z"/><path class="cls-1" d="M46.43,63.53a.48.48,0,0,1,.48.48v3.6a.48.48,0,1,1-.95,0V64A.48.48,0,0,1,46.43,63.53Z"/><path class="cls-1" d="M46.43,70.74a.47.47,0,0,1,.48.48v3.6a.48.48,0,1,1-.95,0v-3.6A.47.47,0,0,1,46.43,70.74Z"/><path class="cls-1" d="M6.79,102.47h3a.48.48,0,1,1,0,1h-3a.48.48,0,1,1,0-1Z"/><path class="cls-1" d="M12.79,102.47h3a.48.48,0,1,1,0,1h-3a.48.48,0,1,1,0-1Z"/><path class="cls-1" d="M11.29,98a.49.49,0,0,1,.48.48v3a.48.48,0,0,1-.48.48.47.47,0,0,1-.48-.48v-3A.48.48,0,0,1,11.29,98Z"/><path class="cls-1" d="M11.29,104a.48.48,0,0,1,.48.48v3a.49.49,0,0,1-.48.48.48.48,0,0,1-.48-.48v-3A.47.47,0,0,1,11.29,104Z"/></g></g></svg>