<svg xmlns="http://www.w3.org/2000/svg" viewBox="0 0 68.99 71.49"><defs><style>.cls-1{fill:#3e3a39;}</style></defs><g id="Layer_2" data-name="Layer 2"><g id="レイヤー_3" data-name="レイヤー 3"><path class="cls-1" d="M7.24,24.25C3.43,24.13.65,23.2.14,22.37V21.6h2.2A8.22,8.22,0,0,0,7,23.36c2.62,0,4.47-2.37,4.31-5.35A5.53,5.53,0,0,0,8,12.64C5,11.2-.12,10.14,0,5.12-.15,1.66,2.34,0,6.44,0c.35,0,4.41.1,6.69,1.22a1.89,1.89,0,0,1,.57.38v.64H11.56C10.09,2,9.45.86,7.27.86S2.66,2.21,2.79,5.12C2.7,7.94,4.9,9.92,8.14,11c3.42,1,6.11,3.39,6,7C14.28,21.82,12.2,24.25,7.24,24.25Z"/><path class="cls-1" d="M23.8,19.36c0,2,.51,4.13,2.33,3.84a14.92,14.92,0,0,0,1.67-.29h1.89v.77a10.63,10.63,0,0,1-5,.45c-2.88-.2-3.67-1.57-3.67-4.77V8.45H17.24V7.81H21V1.7H23.8V7.81H30v.64H23.8Z"/><path class="cls-1" d="M42.5,23.26c1.92,0,2.43-.19,3.36-.8h2.2v.64c-.54.74-4.22,1.09-5.34,1.09-5.44,0-8.54-2.14-8.54-8.74-.13-5,1.6-8.7,7.84-8.7,5,0,6.94,2.59,6.94,8.7H37C37,20,38.94,23.26,42.5,23.26ZM41.73,7.68c-2.18,0-4.77,2.49-4.77,7.13h9.22C46.18,9.25,43.81,7.68,41.73,7.68Z"/><path class="cls-1" d="M61.47,24.22a9.05,9.05,0,0,1-4.35-1v7.59H54.24V7.14h2.88v.54a10.61,10.61,0,0,1,4.64-.9c5.89,0,7.23,3.78,7.23,9.15C69,21.73,66.5,24.22,61.47,24.22Zm4.77-8.73c.1-3.59-1.12-7.43-4.38-7.68a4.7,4.7,0,0,0-4.74,5v5.44a4.8,4.8,0,0,0,4.42,5C65.6,23.26,66.24,18.17,66.24,15.49Z"/><path class="cls-1" d="M32.13,53.32a35.72,35.72,0,0,1-.82,7.49,18.45,18.45,0,0,1-1.63,5.32A12.34,12.34,0,0,1,27,69.35a10,10,0,0,1-3,1.49,17.85,17.85,0,0,1-9.51,0,9.75,9.75,0,0,1-3-1.49A10.66,10.66,0,0,1,8.8,66.13,24.11,24.11,0,0,1,7,60.81a49.41,49.41,0,0,1-.67-7.49A50,50,0,0,1,7,45.78,23.11,23.11,0,0,1,8.8,40.5a8.11,8.11,0,0,1,2.69-3.17,8.26,8.26,0,0,1,3-1.63,17.15,17.15,0,0,1,4.66-.62c.62,0,1.2,0,1.82.09a12.91,12.91,0,0,1,6,2.16,10,10,0,0,1,2.69,3.17,17.2,17.2,0,0,1,1.63,5.28A36.12,36.12,0,0,1,32.13,53.32ZM22.82,69a10.32,10.32,0,0,0,3.4-4.46A22,22,0,0,0,27.57,59a44.66,44.66,0,0,0,.24-5.66,37,37,0,0,0-.29-6.48,29.94,29.94,0,0,0-1.1-4.08,12.19,12.19,0,0,0-2.12-3.6A6,6,0,0,0,21.14,37a10.31,10.31,0,0,0-2.45-.29,5,5,0,0,0-2.4.48,9.23,9.23,0,0,0-3.89,4.37,20.77,20.77,0,0,0-1.59,5.76c-.19,2-.33,4-.33,6A43.69,43.69,0,0,0,11,60a17.09,17.09,0,0,0,3.45,8,4.76,4.76,0,0,0,3.36,1.82h1.35A8.61,8.61,0,0,0,22.82,69Z"/><path class="cls-1" d="M53.52,51.11a10.24,10.24,0,0,1,3.84,1.68,7.08,7.08,0,0,1,2.44,3.36,12.35,12.35,0,0,1,.63,4.18,14.27,14.27,0,0,1-.67,4.7,9,9,0,0,1-2.64,4,9.16,9.16,0,0,1-3.65,1.88,15.16,15.16,0,0,1-4.08.57c-1.39,0-2.79,0-4.13-.14a21.39,21.39,0,0,1-3.46-.67,6,6,0,0,1-.91-.24L40,70.12c-.24-.1-.53-.24-.82-.39a2,2,0,0,1-.72-.57V68H41.8a10.84,10.84,0,0,0,5,2.16A7.43,7.43,0,0,0,52.08,69a10.07,10.07,0,0,0,3.07-3.88,11,11,0,0,0,1.1-4.8,10.09,10.09,0,0,0-.62-3.75,6.5,6.5,0,0,0-2.31-3A9.47,9.47,0,0,0,49.82,52a21.3,21.3,0,0,0-3.89-.34h-3.5v-1L44.06,49,55.44,36.8H38.11v-1H60v1l-1.68,1.68c-1.25,1.4-2.55,2.74-3.84,4.08-1.06,1.16-2.11,2.26-3.22,3.41-1.39,1.54-2.83,3-4.27,4.51v.2h2.35A21.31,21.31,0,0,1,53.52,51.11Z"/></g></g></svg>