<svg xmlns="http://www.w3.org/2000/svg" xmlns:xlink="http://www.w3.org/1999/xlink" viewBox="0 0 215.99 253.11"><defs><style>.cls-1{fill:none;}.cls-2{fill:#ffe037;}.cls-3{fill:#ceeae8;}.cls-4{fill:#158ba4;}.cls-5{fill:url(#New_Pattern_Swatch_3);}.cls-6{fill:#3e3a39;}</style><pattern id="New_Pattern_Swatch_3" data-name="New Pattern Swatch 3" width="100" height="100" patternTransform="translate(-58.14 -153.27)" patternUnits="userSpaceOnUse" viewBox="0 0 100 100"><rect class="cls-1" width="100" height="100"/><polygon class="cls-1" points="55.96 0 0 55.96 0 62.22 62.22 0 55.96 0"/><polygon class="cls-1" points="46.87 0 0 46.87 0 53.13 53.13 0 46.87 0"/><polygon class="cls-1" points="37.78 0 0 37.78 0 44.04 44.04 0 37.78 0"/><polygon class="cls-1" points="10.51 0 0 10.51 0 16.77 16.77 0 10.51 0"/><polygon class="cls-1" points="1.41 0 0 1.41 0 7.68 7.68 0 1.41 0"/><polygon class="cls-1" points="28.69 0 0 28.69 0 34.95 34.95 0 28.69 0"/><polygon class="cls-1" points="19.6 0 0 19.6 0 25.86 25.86 0 19.6 0"/><polygon class="cls-1" points="92.32 0 0 92.32 0 98.59 98.59 0 92.32 0"/><polygon class="cls-1" points="65.05 0 0 65.05 0 71.31 71.31 0 65.05 0"/><polygon class="cls-1" points="44.04 100 100 44.04 100 37.78 37.78 100 44.04 100"/><polygon class="cls-1" points="62.22 100 100 62.22 100 55.96 55.96 100 62.22 100"/><polygon class="cls-1" points="34.95 100 100 34.95 100 28.69 28.69 100 34.95 100"/><polygon class="cls-1" points="53.13 100 100 53.13 100 46.87 46.87 100 53.13 100"/><polygon class="cls-1" points="100 7.68 100 1.41 1.41 100 7.68 100 100 7.68"/><polygon class="cls-1" points="25.86 100 100 25.86 100 19.6 19.6 100 25.86 100"/><polygon class="cls-1" points="16.77 100 100 16.77 100 10.51 10.51 100 16.77 100"/><polygon class="cls-1" points="71.31 100 100 71.31 100 65.05 65.05 100 71.31 100"/><polygon class="cls-1" points="98.59 100 100 98.59 100 92.32 92.32 100 98.59 100"/><polygon class="cls-1" points="80.4 100 100 80.4 100 74.14 74.14 100 80.4 100"/><polygon class="cls-1" points="89.5 100 100 89.5 100 83.23 83.23 100 89.5 100"/><polygon class="cls-1" points="83.23 0 0 83.23 0 89.5 89.5 0 83.23 0"/><polygon class="cls-1" points="74.14 0 0 74.14 0 80.4 80.4 0 74.14 0"/><polygon class="cls-2" points="37.78 100 100 37.78 100 34.95 34.95 100 37.78 100"/><polygon class="cls-2" points="55.96 100 100 55.96 100 53.13 53.13 100 55.96 100"/><polygon class="cls-2" points="53.13 0 0 53.13 0 55.96 55.96 0 53.13 0"/><polygon class="cls-2" points="34.95 0 0 34.95 0 37.78 37.78 0 34.95 0"/><polygon class="cls-2" points="16.77 0 0 16.77 0 19.6 19.6 0 16.77 0"/><polygon class="cls-2" points="46.87 100 100 46.87 100 44.04 44.04 100 46.87 100"/><polygon class="cls-2" points="25.86 0 0 25.86 0 28.69 28.69 0 25.86 0"/><polygon class="cls-2" points="10.51 100 100 10.51 100 7.68 7.68 100 10.51 100"/><polygon class="cls-2" points="44.04 0 0 44.04 0 46.87 46.87 0 44.04 0"/><polygon class="cls-2" points="28.69 100 100 28.69 100 25.86 25.86 100 28.69 100"/><polygon class="cls-2" points="19.6 100 100 19.6 100 16.77 16.77 100 19.6 100"/><polygon class="cls-2" points="100 0 98.59 0 0 98.59 0 100 1.41 100 100 1.41 100 0"/><polygon class="cls-2" points="62.22 0 0 62.22 0 65.05 65.05 0 62.22 0"/><polygon class="cls-2" points="7.68 0 0 7.68 0 10.51 10.51 0 7.68 0"/><polygon class="cls-2" points="80.4 0 0 80.4 0 83.23 83.23 0 80.4 0"/><polygon class="cls-2" points="92.32 100 100 92.32 100 89.5 89.5 100 92.32 100"/><polygon class="cls-2" points="89.5 0 0 89.5 0 92.32 92.32 0 89.5 0"/><polygon class="cls-2" points="100 100 100 98.59 98.59 100 100 100"/><polygon class="cls-2" points="74.14 100 100 74.14 100 71.31 71.31 100 74.14 100"/><polygon class="cls-2" points="65.05 100 100 65.05 100 62.22 62.22 100 65.05 100"/><polygon class="cls-2" points="71.31 0 0 71.31 0 74.14 74.14 0 71.31 0"/><polygon class="cls-2" points="83.23 100 100 83.23 100 80.4 80.4 100 83.23 100"/><polygon class="cls-2" points="0 0 0 1.41 1.41 0 0 0"/></pattern></defs><g id="Layer_2" data-name="Layer 2"><g id="レイヤー_1" data-name="レイヤー 1"><path class="cls-3" d="M208.44,100.8c17.09,28.56,4.18,54.43-28.76,62.31-8.79,29.56-37.61,41.14-69.45,25.81-31.84,15.33-60.66,3.75-69.45-25.81C7.84,155.23-5.06,129.36,12,100.8-5.06,72.23,7.84,46.36,40.78,38.48,49.57,8.92,78.39-2.66,110.23,12.67c31.84-15.33,60.66-3.75,69.45,25.81C212.62,46.36,225.53,72.23,208.44,100.8Z"/><path class="cls-4" d="M134.18,192.15c-8.83,0-18-2.24-27.36-6.66-9.32,4.42-18.52,6.66-27.35,6.66-20.56,0-36.56-12.23-42.91-32.75C13.65,153.73,0,139.27,0,120.62a43.71,43.71,0,0,1,2.83-15.06,1,1,0,0,1,1.39-.65,1.23,1.23,0,0,1,.58,1.54,41.26,41.26,0,0,0-2.67,14.17c0,17.62,13.26,31.3,35.47,36.62a1.13,1.13,0,0,1,.79.78c5.91,19.9,21.27,31.77,41.08,31.77,8.67,0,17.73-2.24,26.93-6.67a1,1,0,0,1,.85,0c9.19,4.43,18.26,6.67,26.93,6.67,19.81,0,35.17-11.87,41.08-31.77a1.13,1.13,0,0,1,.79-.78c22.21-5.32,35.47-19,35.47-36.62,0-7.68-2.48-15.72-7.37-23.89a1.26,1.26,0,0,1,0-1.3c4.89-8.18,7.37-16.22,7.37-23.9,0-15.46-10.23-28-28.06-34.42a1.2,1.2,0,0,1-.68-1.48,1,1,0,0,1,1.34-.76c18.76,6.75,29.53,20.11,29.53,36.66,0,7.94-2.47,16.2-7.34,24.55,4.87,8.34,7.34,16.6,7.34,24.54,0,18.65-13.66,33.11-36.56,38.78C170.74,179.92,154.74,192.15,134.18,192.15ZM4.88,90a1.08,1.08,0,0,1-1-.67A45.27,45.27,0,0,1,0,71.53c0-18.64,13.65-33.1,36.56-38.78C42.91,12.23,58.91,0,79.47,0c8.83,0,18,2.24,27.35,6.67C116.14,2.24,125.35,0,134.18,0c16.84,0,31,8.43,38.92,23.14a1.24,1.24,0,0,1-.38,1.61,1,1,0,0,1-1.46-.41c-7.49-14-21-22-37.08-22-8.67,0-17.74,2.24-26.93,6.67a1,1,0,0,1-.85,0C97.2,4.6,88.14,2.36,79.47,2.36c-19.81,0-35.17,11.87-41.08,31.77a1.11,1.11,0,0,1-.79.78c-22.21,5.32-35.47,19-35.47,36.62A42.57,42.57,0,0,0,5.84,88.3a1.24,1.24,0,0,1-.51,1.57A.92.92,0,0,1,4.88,90Z"/><path class="cls-4" d="M123.88,35.41A10.52,10.52,0,0,0,116,32.13a14.32,14.32,0,0,0-5.25,1l-.77.31a9.52,9.52,0,0,1-8.81,0l-.77-.31a14.36,14.36,0,0,0-5.25-1,10.54,10.54,0,0,0-7.93,3.28c-2.23,2.43-3.2,6-2.82,10.3a26.49,26.49,0,0,0,5.42,13.16,3,3,0,0,1,.51,2c-1.4,8,.7,15.62,3.5,19a4.2,4.2,0,0,0,3.14,1.81c2.75,0,3.46-3.66,4.21-7.53.91-4.71,1.81-8.31,4.39-8.32h0c2.58,0,3.49,3.61,4.4,8.32.75,3.87,1.45,7.53,4.21,7.53a4.06,4.06,0,0,0,3-1.76c2.78-3.31,5-11.06,3.64-18.9a3,3,0,0,1,.51-2,26.16,26.16,0,0,0,5.39-13.28C127.09,41.4,126.11,37.84,123.88,35.41Zm1,10.14a24.66,24.66,0,0,1-5,12.3,4.8,4.8,0,0,0-.87,3.46c1.34,7.74-1.09,14.83-3.24,17.39a2.54,2.54,0,0,1-1.61,1.1c-1.14,0-1.71-2.5-2.4-6-.84-4.37-1.89-9.81-6.21-9.82s-5.36,5.45-6.21,9.82c-.68,3.53-1.25,6-2.39,6a2.72,2.72,0,0,1-1.73-1.15c-2.46-2.93-4.37-10-3.09-17.45a4.79,4.79,0,0,0-.86-3.46,24.89,24.89,0,0,1-5-12.19c-.33-3.78.48-6.85,2.35-8.89A8.71,8.71,0,0,1,95.11,34a12.79,12.79,0,0,1,4.57.89l.65.26.09,0a11.33,11.33,0,0,0,10.23,0l0,0,.69-.28A12.85,12.85,0,0,1,116,34a8.74,8.74,0,0,1,6.56,2.67C124.39,38.7,125.2,41.77,124.87,45.55Z"/><path class="cls-4" d="M125.78,44H115.46a3.26,3.26,0,0,0-3.31,3.21v2.37a2.9,2.9,0,0,1-2.9,2.9h-7.13a2.9,2.9,0,0,1-2.9-2.9V47.22A3.27,3.27,0,0,0,95.9,44H86.11a.83.83,0,1,0,0,1.66H95.9a1.61,1.61,0,0,1,1.66,1.55v2.37a4.56,4.56,0,0,0,4.56,4.56h7.13a4.56,4.56,0,0,0,4.55-4.56V47.22a1.61,1.61,0,0,1,1.66-1.55h10.32Z"/><rect class="cls-5" x="30.17" y="112.47" width="52.52" height="14"/><ellipse class="cls-3" cx="102.95" cy="225.17" rx="11.67" ry="14.36" transform="translate(-139.69 274.46) rotate(-76.91)"/><path class="cls-3" d="M78.82,237c-4.5,0-8.27,2.51-8.89,6.23a7,7,0,0,0,1.1,4.93,11.34,11.34,0,0,0,7.47,4.79c5.45,1,10.47-1.68,11.19-6h0a7,7,0,0,0-1.1-4.93,11.32,11.32,0,0,0-7.47-4.78A12.17,12.17,0,0,0,78.82,237Z"/><path class="cls-4" d="M101.17,233.82a18.63,18.63,0,0,1-3.4-.32c-7.54-1.41-13.22-7.33-13.22-13.75a10.84,10.84,0,0,1,.15-1.8c1-6,6.68-10.14,13.84-10.14a18.72,18.72,0,0,1,3.4.32c7.53,1.41,13.21,7.33,13.21,13.75a10.84,10.84,0,0,1-.15,1.8h0C114,229.65,108.33,233.82,101.17,233.82Zm-2.63-23.66c-6,0-11,3.46-11.74,8.22a7.84,7.84,0,0,0-.12,1.37c0,5.29,4.92,10.2,11.44,11.43a16.64,16.64,0,0,0,3,.28c6,0,11-3.45,11.74-8.21a8.94,8.94,0,0,0,.11-1.37c0-5.29-4.92-10.2-11.44-11.43A16.55,16.55,0,0,0,98.54,210.16ZM114,223.47Z"/><path class="cls-4" d="M77.71,249.94a13.21,13.21,0,0,1-2.49-.24,12.37,12.37,0,0,1-8.16-5.27,8.57,8.57,0,0,1-1.37-4.56,7.64,7.64,0,0,1,.1-1.26c.7-4.24,4.78-7.2,9.93-7.2a13,13,0,0,1,2.48.24,12.33,12.33,0,0,1,8.16,5.27,8.46,8.46,0,0,1,1.38,4.55,7.56,7.56,0,0,1-.1,1.26C86.94,247,82.85,249.94,77.71,249.94Zm-2-16.17c-4,0-7.33,2.22-7.84,5.27a5.69,5.69,0,0,0-.07.83,6,6,0,0,0,1,3.21,10.26,10.26,0,0,0,6.77,4.3,11.9,11.9,0,0,0,2.13.2c4,0,7.33-2.22,7.83-5.27a4.76,4.76,0,0,0,.07-.84,5.94,5.94,0,0,0-1-3.2,10.26,10.26,0,0,0-6.77-4.3A11.9,11.9,0,0,0,75.72,233.77Z"/><path class="cls-6" d="M46.34,113.28a1,1,0,0,1,.34.17.38.38,0,0,1-.09.43.32.32,0,0,1-.25.09c-.29,1.14-.61,2.2-1,3.18l.69-.18.17,1.89L39,120.76c-.11.17-.2.31-.26.42-.28.18-.51.06-.68-.34l-.69-2.32,3.61-.6v-1l-2.32.86a21.4,21.4,0,0,0-1-4.3l2.23-.52A23.08,23.08,0,0,1,41,116.54v-4H37.74v-2.07H41v-2H39.89c-.11.17-.29.4-.51.68s-.41.38-.69.61L37.23,108a10.46,10.46,0,0,0,2.23-2.49,21.43,21.43,0,0,0,2.24-4.38l2,.94q.69.35,0,.69a22.78,22.78,0,0,1,3.44,2.92v-3.44H56v9.71h-.51l1.2,1c.51.46.46.69-.17.69l-2.84,2.58a14,14,0,0,0,3.87,3.61l-1.63,2a23.8,23.8,0,0,1-3.44-3.44l.34,1.2-5.58,1.63a1.08,1.08,0,0,1-.26.43.36.36,0,0,1-.35,0c-.11,0-.23-.25-.34-.6l-.52-1.89,1.38-.26V106.32L45.82,108l-.69-.86v1.29H43.24v2h2.92v2.07H43.24v3.95a23.09,23.09,0,0,0,1-3.78Zm-4.9-6.88h3a11.84,11.84,0,0,0-1.89-1.8C42.15,105.23,41.78,105.83,41.44,106.4Zm1.8,10.23v1l1.89-.35Zm6.1-12.37v1.63h4.39v-1.63Zm0,3.69v1.89h4.39V108Zm0,4v6.53l2.58-.77a10.66,10.66,0,0,1-.69-1.2A19.85,19.85,0,0,1,50,111.9Zm5.85,0h-3a7.55,7.55,0,0,0,.6,2.41Z"/><path class="cls-6" d="M70.57,101.93v.95H76.5v2.06H70.57v1.12h8.85v2.06H73.15l1.12.6c.28.18.34.35.17.52a.49.49,0,0,1-.35.09,24.1,24.1,0,0,0-1.2,2.14h1.72v2.07H71.43a7.08,7.08,0,0,0,1.63,1.29,6.49,6.49,0,0,0,2.15.85v-7.3h2.06c.69.06.81.29.35.69v12.46H75.21v-.6H63.27v.86H60.86V108.38h2.06c.69.06.8.29.35.69v6.61a7.31,7.31,0,0,0,1.54-.6,7.76,7.76,0,0,0,2.24-1.54H63.78v-2.07h2.15A23.59,23.59,0,0,0,64,109.15l1.46-1H59.14v-2.06h4v-3.35h2.06c.69.06.8.29.35.69v2.66h2.57v-4.81h2.07C70.91,101.3,71,101.53,70.57,101.93Zm-.17,16.68H68v-3.18l-.68.68a11.41,11.41,0,0,1-3.18,1.9l-.86-1.81v2.66H75.21v-2.75l-.94,1.9a10,10,0,0,1-3.87-2.75Zm-.34-10.23c.68.06.8.29.34.69v2.4h2l-1.47-.86a10.85,10.85,0,0,0,1.29-2.49H65.76a15.81,15.81,0,0,1,2,2.24l-1.54,1.11H68v-3.09Z"/><path class="cls-6" d="M89.39,102.71c1,.46,1.12.74.26.86-.29,1.09-.6,2.26-1,3.52a13.41,13.41,0,0,1,1.55-.08,5,5,0,0,1,1.12.08,2.62,2.62,0,0,1,1.29.69,3,3,0,0,1,.77,2c.06.85.09,1.71.09,2.57a26,26,0,0,1-.26,3.44,13.24,13.24,0,0,1-.69,2.75,2.57,2.57,0,0,1-1.72,1.72,4,4,0,0,1-1,.17q-1.54,0-3.61-2.4l1.46-1.9c.8,1,1.49,1.47,2.06,1.47s.78-.35,1-1a18.08,18.08,0,0,0,.52-4.12,6,6,0,0,0-.35-2.75,1.26,1.26,0,0,0-1.12-.34L88,109.5c-.35,1.14-1,3-2,5.5a37.55,37.55,0,0,1-2.75,5.76L81,119.47a26.92,26.92,0,0,0,2.66-5.07,41.8,41.8,0,0,0,1.72-4.56c-1,.12-2.2.23-3.52.34l-.17-2.57c.8,0,1.57,0,2.32-.09l2.15-.17a40,40,0,0,0,1.2-5.5Zm6.45,2.75a15.86,15.86,0,0,1,5.15,9.19l-2.66.86a16.07,16.07,0,0,0-4.47-8.68Zm4.29.17L98.67,107a17.31,17.31,0,0,0-3.86-2.67l1.37-1.29A13.84,13.84,0,0,1,100.13,105.63Zm-.34-3.52a9,9,0,0,1,2,1.54L100.39,105a14.52,14.52,0,0,0-3.78-2.67l1.2-1.28C98.5,101.42,99.16,101.76,99.79,102.11Z"/><path class="cls-6" d="M119.9,121.27h-2.58v-1h-9v1.29h-2.58V102.45H119.9Zm-11.6-16.41v2.66h9v-2.66Zm0,5.07v2.75h9v-2.75Zm0,5.15v2.75h9v-2.75Z"/><path class="cls-6" d="M141.3,109.24a.28.28,0,0,1-.09.34.67.67,0,0,1-.51.18q-1.12,4.2-2.58,8.33h6.62v2.41H125v-2.41h10.48A45.49,45.49,0,0,0,138,108l2.75.86C141,108.93,141.24,109.07,141.3,109.24Zm-5-7.22a.84.84,0,0,1-.34.34v2.84h7.65v2.41H126V105.2h7.39v-3.61h2.24C136.2,101.59,136.43,101.73,136.31,102Zm-2.92,14.27-2.75.77a31.07,31.07,0,0,0-2.15-7.73l2.41-.78A42.3,42.3,0,0,1,133.39,116.29Z"/><path class="cls-6" d="M156.51,107.86a6,6,0,0,1,4.38,1.72,5.06,5.06,0,0,1,1.55,3.7,6.7,6.7,0,0,1-.86,3.44,4.65,4.65,0,0,1-1.81,1.71,13.13,13.13,0,0,1-3,.95,37.38,37.38,0,0,1-4.13.69l-.69-2.49a27.61,27.61,0,0,0,3.87-.26,15.5,15.5,0,0,0,2.58-.69,3.15,3.15,0,0,0,1.72-3.27,3,3,0,0,0-.78-2.06,3.44,3.44,0,0,0-3.69-.86A39.61,39.61,0,0,0,148,113l-1-2.58c1.55-.46,3-.91,4.3-1.37A18.35,18.35,0,0,1,156.51,107.86Z"/><path class="cls-6" d="M182.89,106.32a11.18,11.18,0,0,0-4.3.26,9.09,9.09,0,0,0-4,2.06,5.6,5.6,0,0,0-1.72,4.12,4.51,4.51,0,0,0,1.29,3.35q1.71,1.73,6.79,1.9l-.69,2.57a21.68,21.68,0,0,1-2.67-.34,19.35,19.35,0,0,1-2.83-.77,6.35,6.35,0,0,1-3.27-2.58,6.62,6.62,0,0,1-1-3.44,8,8,0,0,1,.43-3.18,6.58,6.58,0,0,1,2.06-2.92q-3.18.44-7.47,1.12l-.52-2.75a168.57,168.57,0,0,0,17.62-2.07Z"/><path class="cls-6" d="M64.21,128.68c.06.18-.08.35-.43.52a49.85,49.85,0,0,0-.43,5.59,19.53,19.53,0,0,0,.43,5.07c.17.8.49,1.23,1,1.29s.94-.49,1.46-1.47l1-2.14,2.15,1.63A26,26,0,0,1,68.08,142a3.53,3.53,0,0,1-3.18,2.06q-4-.44-4-8.51c0-2.92.11-5.59.34-8l2.32.6A.83.83,0,0,1,64.21,128.68Zm12,11.09a19.57,19.57,0,0,0-1.11-4.64,18.72,18.72,0,0,0-3-4.9L74,128.86a17.57,17.57,0,0,1,3.52,5,17.22,17.22,0,0,1,1.55,5.24Z"/><path class="cls-6" d="M95,126.45c0,.23-.06.4-.35.52,0,1-.11,1.92-.17,2.83q3.44-.51,5.16,1.21a4.71,4.71,0,0,1,1.46,3.43,5,5,0,0,1-1.29,3.7,4.32,4.32,0,0,1-3.18,1.29,9.48,9.48,0,0,1-2.41-.26,8.88,8.88,0,0,1-2.57-1.12l1.11-2.32a15.15,15.15,0,0,0,1.89,1,5.08,5.08,0,0,0,1.72.34c1.55,0,2.32-.74,2.32-2.23a2.72,2.72,0,0,0-.68-2,3.54,3.54,0,0,0-2.58-.86,9.78,9.78,0,0,0-3.27.69A31.44,31.44,0,0,0,88.79,134a47.88,47.88,0,0,0,3.7,9.89l-2.41,1.28a54.62,54.62,0,0,1-3.61-10.31q-1.89.94-3.87,1.89l-1.29-2.49a35.76,35.76,0,0,0,4.56-1.8,38.37,38.37,0,0,1-.69-5.42h2.23c.46,0,.75.09.86.26s-.08.4-.43.52a21.72,21.72,0,0,0,.43,3.78c1.32-.52,2.55-1,3.7-1.29.06-1.38.09-2.75.09-4.13h2.23C94.69,126.19,94.92,126.28,95,126.45Z"/><path class="cls-6" d="M110.79,126.54c.06.17-.09.34-.43.51-.11.52-.23,1.06-.34,1.63s-.12.95-.18,1.47c1.15-.18,2.33-.38,3.53-.61l.34,2.41-4.21.69q-.51,3.09-1.46,6.62c-.57,2.23-1.12,4.06-1.63,5.5l-2.67-.61a35.9,35.9,0,0,0,1.81-5.24c.69-2.63,1.14-4.64,1.37-6-.57,0-1.14,0-1.72.08s-1.26.09-1.89.09l-.34-2.49a27,27,0,0,0,4.3-.18c.23-1.54.45-3.12.68-4.72l2.07.43C110.47,126.16,110.73,126.31,110.79,126.54Zm3.44,15.12a10.91,10.91,0,0,0,2.83.35h4.3v2.49h-4.64a10,10,0,0,1-3.09-.43,12.23,12.23,0,0,1-2.93-1.55l1.12-2A6.6,6.6,0,0,0,114.23,141.66Zm6.7-6.1a28.39,28.39,0,0,0-4.47.34,17.32,17.32,0,0,0-3.87,1.12l-.68-2.32a16.23,16.23,0,0,1,4.21-1.29,28.13,28.13,0,0,1,4.47-.34Zm-.43-5.93L119.3,131a22.82,22.82,0,0,0-3.7-2.41l1.12-1.29A15.5,15.5,0,0,1,120.5,129.63Zm1.72-1.8L121,129.2a26.67,26.67,0,0,0-3.7-2.41l1.12-1.28A14.75,14.75,0,0,1,122.22,127.83Z"/><path class="cls-6" d="M132,126.62c0,.17-.09.29-.43.35l-.69,2.4c.92-.17,1.86-.37,2.84-.6l.43,2.49c-1.38.23-2.73.43-4,.6-.35,1-1,2.55-1.89,4.73a49.49,49.49,0,0,1-2.32,4.81L123.68,140a40.85,40.85,0,0,0,2.41-4.3,23.16,23.16,0,0,0,1.46-3.61c-1.38.12-2.49.17-3.35.17l-.26-2.57q2.24,0,4.38-.09c.4-1.32.77-2.72,1.12-4.21l2,.69Q132,126.28,132,126.62Zm5.93,7a.73.73,0,0,1-.26.43v5a19.94,19.94,0,0,1,4.64,2.32L141,143.47a19.63,19.63,0,0,0-3.44-1.81,4,4,0,0,1-1.11,2.49,4.69,4.69,0,0,1-3.44,1.12,5.16,5.16,0,0,1-2.92-.86,3,3,0,0,1-1.29-2.66,3.09,3.09,0,0,1,1.72-2.75,6.47,6.47,0,0,1,4.72-.52v-5.07h2.06C137.69,133.41,137.89,133.5,138,133.67Zm-6.36,7.39a1.06,1.06,0,0,0-.43.86,1,1,0,0,0,.6.86,3.35,3.35,0,0,0,1.46.26,2.41,2.41,0,0,0,1.46-.52,2.55,2.55,0,0,0,.6-1.63,3.4,3.4,0,0,0-.94-.17,9.46,9.46,0,0,0-1.21-.09A2.13,2.13,0,0,0,131.59,141.06Zm9.71-7.56a40.43,40.43,0,0,0-6.19-2.92l1-1.9a27.73,27.73,0,0,1,6.19,2.75Z"/><path class="cls-6" d="M151.18,129.11c.11.23,0,.41-.34.52-.06.75-.12,1.49-.17,2.23l5.84-.43.17,2.15-6.1.43v1.21a12,12,0,0,1,2.23-.18l.18-1,1.89.26c.45,0,.68.12.68.34a.5.5,0,0,1-.34.26l-.17.43q4.29,1.13,4.55,4.47a4.73,4.73,0,0,1-1.89,4.56,6.8,6.8,0,0,1-3.87,1.46l-1.11-2.15q4.47-.85,4.47-3.35c0-1.55-.86-2.55-2.58-3a13.08,13.08,0,0,1-2.67,5.07l.61.77-1.72,1.29a5.35,5.35,0,0,1-.52-.6,4.18,4.18,0,0,1-3,1.37,2.65,2.65,0,0,1-2.83-2.83,7,7,0,0,1,.94-3.7,6.42,6.42,0,0,1,2.92-2.57v-2l-2.83.08-.17-2.14,3.09-.09c0-.52.09-1.55.26-3.09h1.72C150.81,128.86,151.07,128.94,151.18,129.11Zm-4.47,12.72c0,.86.32,1.29.95,1.29a2.29,2.29,0,0,0,1.63-1.11,9,9,0,0,1-.77-3.7A4.23,4.23,0,0,0,146.71,141.83Zm4-4.47a12.75,12.75,0,0,0,.08,1.47,4.93,4.93,0,0,0,.34,1.28,7.61,7.61,0,0,0,.86-1.71,13.12,13.12,0,0,0,.43-1.29A6.54,6.54,0,0,0,150.67,137.36Z"/></g></g></svg>