<svg xmlns="http://www.w3.org/2000/svg" viewBox="0 0 123.8 28.65"><defs><style>.cls-1{fill:#3e3a39;}</style></defs><g id="Layer_2" data-name="Layer 2"><g id="レイヤー_3" data-name="レイヤー 3"><path class="cls-1" d="M2.11,14a3.34,3.34,0,0,1-.2,3.19c-.47.58-1.27.84-1.71.38a1.07,1.07,0,0,1,.19-1.43,3.28,3.28,0,0,0,.39-3.55l.42-.16a7.71,7.71,0,0,1,.59.91L8.91,11l-.65-2L.8,11.49l-.44-.62L14.78,6.15l.67-1.66S17,5,18,5.44c0,.28-.14.46-.47.57L9.83,8.54l.65,2L18,8.06l.63-1.28L21,7.9c-.11.22-.35.35-.8.52a15.64,15.64,0,0,1-1.41,3.07l-.4-.08a21.65,21.65,0,0,0,0-2.69l-7.65,2.5,1.79,5.49c0,.12-.38.62-1.18.88l-.24.08L9.14,11.73Zm4.49.56.51-1.17s1.1.38,1.89.72c0,.26-.16.45-.5.56L3.59,16.31l-.41-.6ZM8,15.77s1.12.37,1.94.71a.6.6,0,0,1-.49.58L3.9,18.86l-.41-.6L7.43,17ZM24.8,23.13c.78,0,.89.05,1,.33.2.62-.35,1.2-2.53,1.91l-6,2c-2.21.72-2.79.56-3.41-1.34l-.41-1.23L8.29,26.45l.4,1.21c.05.14-.53.72-1.14.92l-.22.07L4.47,19.89l1.91.21L18,16.29l.56-1.18,2.29.8a1.77,1.77,0,0,1-.79.73L22,22.53c0,.18-.61.78-1.14.95l-.23.08-.34-1L15,24.27l.42,1.31c.26.78.4.81,1.45.47l6.08-2c.55-.17.82-.29.89-.58a10.57,10.57,0,0,0-.07-2.37l.33-.11ZM6.46,20.84l.68,2.09,5.14-1.68-.69-2.09Zm6.74,3.24-.71-2.16L7.36,23.59l.71,2.17Zm3-13.69s1.15.39,1.93.76c0,.26-.14.44-.48.55l-5,1.64-.41-.6,3.45-1.13ZM13,15.15l4-1.3.56-1.26s1.2.37,2,.73c0,.28-.16.47-.49.58l-5.66,1.85Zm.1,3.51.69,2.09L19.17,19l-.69-2.09Zm7,3.17-.71-2.17L14,21.42l.71,2.16Z"/><path class="cls-1" d="M46.71,7.92s1.63.92,2.67,1.63c0,.28-.22.41-.59.47l-9.7,1.42,1.27,8.61c.2,1.36,0,2.3-2.77,3A1.6,1.6,0,0,0,36.65,22a8,8,0,0,0-3-.26l-.06-.4S37.32,21,38,20.9s.72-.25.65-.72l-1.25-8.49L27.1,13.21l-.28-.69L37.31,11,36.7,6.89l1.44-.06a31.94,31.94,0,0,0,4.27-4.77L28.34,4.14,28,3.45,42.67,1.29,43.7,0,46,1.51A2.17,2.17,0,0,1,44.9,2a42.1,42.1,0,0,1-6.09,4.86l.46,0c0,.39-.22.59-.75.77L39,10.73l6.63-1Z"/><path class="cls-1" d="M54.74,4.12c.44.6.9,1.49,1.75,1.5,1.85,0,12.59-1,14.5-1.16.47,0,.73-.46,1.15-.45.75,0,2.58,1.55,2.56,2.25s-1,.45-1.69,1.07a67.62,67.62,0,0,1-7.31,6c1.35,1.33,2.3,2.77,2.27,4a.82.82,0,0,1-.86.86c-.88,0-.75-1.66-3.52-4.74A21.36,21.36,0,0,0,60,10.11l.35-.44a19.69,19.69,0,0,1,4.6,2.91A34.51,34.51,0,0,0,71.5,6.1c.19-.3.11-.45-.21-.43-2.55.08-10.77,1-13,1.39-.6.11-1.08.6-1.58.59a3.34,3.34,0,0,1-2.17-1.76,4.33,4.33,0,0,1-.32-1.56Z"/><path class="cls-1" d="M84.25,5.62c.29.61.58,1.53,1.34,1.67a66.29,66.29,0,0,0,8.06.14c.77,0,1-.44,1.31-.38.64.12,1.92,1.47,1.83,2s-1.09.44-1.43.76a27.78,27.78,0,0,1-4.53,3.37,1.3,1.3,0,0,1,.4,1c-.11.61-.4,1.53-1.14,5.58-.14.79-.21,1.74-.31,2.28s-.4,1.08-1.09.95-.72-1.35-.61-2,.22-.63.49-1.57c.2-.65.83-3.43,1.05-4.68a3.3,3.3,0,0,0,.08-1,36.38,36.38,0,0,1-11,4l-.23-.65c5.41-1.54,12.55-5,15.23-8.22.22-.26.21-.34-.11-.37-1,0-5.22.17-6.61.27-.82.06-1,.51-1.57.4a3.11,3.11,0,0,1-1.7-1.93,4.66,4.66,0,0,1,0-1.57Zm5.19-4.57C91.79,2,94.25,3.55,94,5.22a.86.86,0,0,1-1,.71c-.51-.09-.7-.59-1-1.28A12.6,12.6,0,0,0,89.1,1.42Zm3.81,12.38c3.12,1.4,5.67,3.59,5.32,5.56a.77.77,0,0,1-.93.64c-.45-.08-.66-.32-.92-.95a12.34,12.34,0,0,0-3.83-4.84Z"/><path class="cls-1" d="M106.26,14.61c.23,1,.35,1.85,1.34,2.2,2.1.74,10.54,3.12,11.64,3.46,1.62.44,2.33.53,2.94.75.9.32,1.81,1.09,1.59,1.73-.15.42-.48.6-1.28.31s-1.63-.63-3.07-1.14-8.23-2.51-10.07-2.93c-1.4-.33-1.78-.07-2.46-.31s-1.36-1.78-1.41-2.7a4.33,4.33,0,0,1,.26-1.39Z"/></g></g></svg>