<svg xmlns="http://www.w3.org/2000/svg" viewBox="0 0 218.15 42.8"><defs><style>.cls-1{fill:#3e3a39;}</style></defs><g id="Layer_2" data-name="Layer 2"><g id="レイヤー_3" data-name="レイヤー 3"><path class="cls-1" d="M28.2,21.3H17.4v6.25H28.2v1H17.4v8.7H12.9v-8.7H2.1v-1H12.9V21.3H2.1V20.2H12.55L0,.75H4.55L15.15,17.4,25.75.75H30.3L17.75,20.2H28.2Z"/><path class="cls-1" d="M47.79,37.25H43.44V5.1l-6.8,6H33.19V9.8l10.25-9h4.35Z"/><path class="cls-1" d="M73,37.25H68.67V5.1l-6.8,6H58.42V9.8l10.25-9H73Z"/><path class="cls-1" d="M110.47,19a37.27,37.27,0,0,1-.85,7.8,19.33,19.33,0,0,1-1.7,5.55,13,13,0,0,1-2.8,3.35A10.29,10.29,0,0,1,102,37.25a18.49,18.49,0,0,1-9.9,0A10,10,0,0,1,89,35.7a11.26,11.26,0,0,1-2.8-3.35,25.12,25.12,0,0,1-1.9-5.55,50.82,50.82,0,0,1-.7-7.8,51.47,51.47,0,0,1,.7-7.85,23.88,23.88,0,0,1,1.9-5.5A8.54,8.54,0,0,1,89,2.35a8.58,8.58,0,0,1,3.1-1.7A17.72,17.72,0,0,1,96.92,0c.65,0,1.25.05,1.9.1a13.49,13.49,0,0,1,6.3,2.25,10.49,10.49,0,0,1,2.8,3.3,18,18,0,0,1,1.7,5.5A37.74,37.74,0,0,1,110.47,19Zm-9.7,16.35a10.77,10.77,0,0,0,3.55-4.65,23.39,23.39,0,0,0,1.4-5.8A46.59,46.59,0,0,0,106,19a38.16,38.16,0,0,0-.3-6.75A31.39,31.39,0,0,0,104.52,8a13,13,0,0,0-2.2-3.75A6.34,6.34,0,0,0,99,2a11.1,11.1,0,0,0-2.55-.3,5.34,5.34,0,0,0-2.5.5,9.67,9.67,0,0,0-4,4.55,21.45,21.45,0,0,0-1.65,6c-.2,2.1-.35,4.15-.35,6.25a46,46,0,0,0,.55,7,17.75,17.75,0,0,0,3.6,8.3,4.94,4.94,0,0,0,3.5,1.9H97A8.94,8.94,0,0,0,100.77,35.35Z"/><path class="cls-1" d="M118.2,42.8h-4.5l3.8-11.1h4.35Z"/><path class="cls-1" d="M153.52,19a37.27,37.27,0,0,1-.85,7.8,19.33,19.33,0,0,1-1.7,5.55,13,13,0,0,1-2.8,3.35A10.29,10.29,0,0,1,145,37.25a18.49,18.49,0,0,1-9.9,0A10,10,0,0,1,132,35.7a11.26,11.26,0,0,1-2.8-3.35,25.12,25.12,0,0,1-1.9-5.55,50.82,50.82,0,0,1-.7-7.8,51.47,51.47,0,0,1,.7-7.85,23.88,23.88,0,0,1,1.9-5.5,8.54,8.54,0,0,1,2.8-3.3,8.58,8.58,0,0,1,3.1-1.7A17.72,17.72,0,0,1,140,0c.65,0,1.25.05,1.9.1a13.49,13.49,0,0,1,6.3,2.25,10.49,10.49,0,0,1,2.8,3.3,18,18,0,0,1,1.7,5.5A37.74,37.74,0,0,1,153.52,19Zm-9.7,16.35a10.77,10.77,0,0,0,3.55-4.65,23.39,23.39,0,0,0,1.4-5.8A46.59,46.59,0,0,0,149,19a38.16,38.16,0,0,0-.3-6.75A31.39,31.39,0,0,0,147.57,8a13,13,0,0,0-2.2-3.75A6.34,6.34,0,0,0,142.07,2a11.1,11.1,0,0,0-2.55-.3,5.34,5.34,0,0,0-2.5.5A9.67,9.67,0,0,0,133,6.75a21.45,21.45,0,0,0-1.65,6c-.2,2.1-.35,4.15-.35,6.25a46,46,0,0,0,.55,7,17.75,17.75,0,0,0,3.6,8.3,4.94,4.94,0,0,0,3.5,1.9H140A8.94,8.94,0,0,0,143.82,35.35Z"/><path class="cls-1" d="M185.84,19a37.27,37.27,0,0,1-.85,7.8,19.33,19.33,0,0,1-1.7,5.55,13,13,0,0,1-2.8,3.35,10.29,10.29,0,0,1-3.15,1.55,18.49,18.49,0,0,1-9.9,0,10,10,0,0,1-3.1-1.55,11.26,11.26,0,0,1-2.8-3.35,25.12,25.12,0,0,1-1.9-5.55,50.82,50.82,0,0,1-.7-7.8,51.47,51.47,0,0,1,.7-7.85,23.88,23.88,0,0,1,1.9-5.5,8.54,8.54,0,0,1,2.8-3.3,8.58,8.58,0,0,1,3.1-1.7A17.72,17.72,0,0,1,172.29,0c.65,0,1.25.05,1.9.1a13.49,13.49,0,0,1,6.3,2.25,10.49,10.49,0,0,1,2.8,3.3,18,18,0,0,1,1.7,5.5A37.74,37.74,0,0,1,185.84,19Zm-9.7,16.35a10.77,10.77,0,0,0,3.55-4.65,23.39,23.39,0,0,0,1.4-5.8,46.59,46.59,0,0,0,.25-5.9,38.16,38.16,0,0,0-.3-6.75A31.39,31.39,0,0,0,179.89,8a13,13,0,0,0-2.2-3.75A6.34,6.34,0,0,0,174.39,2a11.1,11.1,0,0,0-2.55-.3,5.34,5.34,0,0,0-2.5.5,9.67,9.67,0,0,0-4.05,4.55,21.45,21.45,0,0,0-1.65,6c-.2,2.1-.35,4.15-.35,6.25a46,46,0,0,0,.55,7,17.75,17.75,0,0,0,3.6,8.3,4.94,4.94,0,0,0,3.5,1.9h1.4A8.94,8.94,0,0,0,176.14,35.35Z"/><path class="cls-1" d="M218.15,19a37.27,37.27,0,0,1-.85,7.8,19.33,19.33,0,0,1-1.7,5.55,13,13,0,0,1-2.8,3.35,10.29,10.29,0,0,1-3.15,1.55,18.49,18.49,0,0,1-9.9,0,10,10,0,0,1-3.1-1.55,11.26,11.26,0,0,1-2.8-3.35A25.12,25.12,0,0,1,192,26.8a50.82,50.82,0,0,1-.7-7.8,51.47,51.47,0,0,1,.7-7.85,23.88,23.88,0,0,1,1.9-5.5,8.54,8.54,0,0,1,2.8-3.3,8.58,8.58,0,0,1,3.1-1.7A17.72,17.72,0,0,1,204.6,0c.65,0,1.25.05,1.9.1a13.49,13.49,0,0,1,6.3,2.25,10.49,10.49,0,0,1,2.8,3.3,18,18,0,0,1,1.7,5.5A37.74,37.74,0,0,1,218.15,19Zm-9.7,16.35A10.77,10.77,0,0,0,212,30.7a23.39,23.39,0,0,0,1.4-5.8,46.59,46.59,0,0,0,.25-5.9,38.16,38.16,0,0,0-.3-6.75A31.39,31.39,0,0,0,212.2,8,13,13,0,0,0,210,4.25,6.34,6.34,0,0,0,206.7,2a11.1,11.1,0,0,0-2.55-.3,5.34,5.34,0,0,0-2.5.5,9.67,9.67,0,0,0-4.05,4.55,21.45,21.45,0,0,0-1.65,6c-.2,2.1-.35,4.15-.35,6.25a46,46,0,0,0,.55,7,17.75,17.75,0,0,0,3.6,8.3,4.94,4.94,0,0,0,3.5,1.9h1.4A8.94,8.94,0,0,0,208.45,35.35Z"/></g></g></svg>