<svg xmlns="http://www.w3.org/2000/svg" viewBox="0 0 167.38 37.97"><defs><style>.cls-1{fill:#3e3a39;}</style></defs><g id="Layer_2" data-name="Layer 2"><g id="レイヤー_3" data-name="レイヤー 3"><path class="cls-1" d="M.3,26.31c.73.39,1.47.75,2.05.46,1.52-.76,6.77-4.46,10.7-6.88a25,25,0,0,0,2.06-1.53c.92-.46,2.44-.61,2.76,0,.18.36.15.63-.34.88s-1.28.47-2.37,1S12.29,21.78,10.34,23c.77,0,1.49.17,1.67.53s-.25.8-.16,1.59A16.58,16.58,0,0,1,8.8,38l-.68-.25c3.62-6.21,2.32-11.93,1.72-13.14a1.51,1.51,0,0,0-.83-.7c-1.74,1.15-3.65,2.53-4.24,3a9.94,9.94,0,0,1-1.55,1.37,3.11,3.11,0,0,1-2.51-.61,4,4,0,0,1-.71-1Zm1.06-6.43A3.83,3.83,0,0,0,4,19.67a23.11,23.11,0,0,0,3.77-2.53c1.17-1,1.28-1.46,1.75-1.69,1-.49,1.87-.52,2.14,0,.17.33,0,.66-.63,1.15A52.13,52.13,0,0,1,4.58,20.9c-1.14.57-2.09.23-3.41-.56ZM12.05,14a9.49,9.49,0,0,1,3.2.3c.8.25,1.21.51,1.42,1a.61.61,0,0,1-.28.84c-.34.15-.79-.24-1.53-.6a11.33,11.33,0,0,0-2.95-1Zm.8-2.61a10.92,10.92,0,0,1,3.09.1,2,2,0,0,1,1.5,1,.53.53,0,0,1-.25.82c-.38.19-.82-.23-1.57-.55a11,11,0,0,0-2.89-.85Z"/><path class="cls-1" d="M25.85,9.72c3-.06,6.76.56,7.31,2.41a.84.84,0,0,1-.57,1.13c-.55.17-1.3-.43-2.18-.93a16.44,16.44,0,0,0-4.69-2ZM42.61,7.1l.66.19c-1.33,6-4.62,11.14-8.84,16.08-.39.43-.48,1.11-1,1.27a4.92,4.92,0,0,1-3.41-1,5.4,5.4,0,0,1-1-1.41l.31-.35c.95.57,1.95,1.1,2.72.87C33.92,22.21,40.76,13.22,42.61,7.1Z"/><path class="cls-1" d="M58,3.7a40.86,40.86,0,0,0,5-1.29c.68-.22.76-.68,1.18-.74.62-.09,2.26.76,2.35,1.4.07.47-.75.77-1,1.43a38.31,38.31,0,0,1-2.95,6.23c1.67.92,3.12,2,3.25,2.94a.79.79,0,0,1-.69,1c-.69.12-1.29-.9-3.45-2.56a30.52,30.52,0,0,1-10,9.25l-.42-.52a34.86,34.86,0,0,0,9.18-9.62,21.1,21.1,0,0,0-5.7-2.59A23.21,23.21,0,0,1,50.38,13l-.47-.46c3.42-3.29,6.82-9.56,6.61-11-.06-.45-.76-.73-1.68-1L54.9.13A5.43,5.43,0,0,1,56.4,0c1,.09,2.36.63,2.43,1.1s-.28.69-.54,1.39c-.17.4-.36.83-.55,1.24Zm5.45-.34c-.86.19-3.1.89-3.94,1.21a7.41,7.41,0,0,1-1.32.49,1.8,1.8,0,0,1-1-.29A36.09,36.09,0,0,1,55.13,8.1a33.86,33.86,0,0,1,6,1.92,21.77,21.77,0,0,0,2.61-6.31C63.85,3.37,63.71,3.32,63.44,3.36Z"/><path class="cls-1" d="M76.72,3.87V3.34a4.23,4.23,0,0,1,1.45-.15c.87.09,2.63,1.07,2.62,1.82,0,.52-.49.69-.62,1.31A16.68,16.68,0,0,1,72.3,16.87l-.41-.53c4-3,6.63-8.19,6.68-11.22C78.59,4.35,77.32,4,76.72,3.87Zm5-3.12A4.63,4.63,0,0,1,83.33.47c1,0,2.6,1,2.59,1.55s-.5.54-.59,1.31c-.15,1.15-.46,8-.49,9.82,0,.35.14.4.4.33a29.38,29.38,0,0,0,9.53-6.59l.52.43a29.12,29.12,0,0,1-9.36,7.77c-.58.34-.91,1-1.41,1S83,14.89,83,14.42s.28-.6.37-1.59c.15-1.43.41-8.15.3-10.55,0-.62-.69-.86-2-1Z"/><path class="cls-1" d="M114.74,5.75c.87.08,1.06-.44,1.53-.36.62.11,2.07,1.79,2,2.38s-.89.61-1.16,1.24c-.41,1.05-1.55,4.27-2.52,6.87.88.23,1.43.68,1.35,1.15a.66.66,0,0,1-.85.59c-.54-.1-1.82-.48-3-.68-1.92-.34-5.27-.76-8.25-1.12,0,.33-.09.62-.16,1-.11.61-.38.87-.9.78s-.89-.85-.71-1.86c.09-.49.44-2,.63-3.06a42,42,0,0,0,.52-6.94,3.82,3.82,0,0,0-1-2.3l.42-.36a6.07,6.07,0,0,1,2.43,1.75C107.58,5.16,113.75,5.7,114.74,5.75ZM113,15.6a82.26,82.26,0,0,0,2.53-8.16c0-.19,0-.28-.25-.32-1.58-.28-5.77-.7-7.15-.79-.82-.08-1.56,0-2,0a2.59,2.59,0,0,1-.93-.5c-.19,1.52-.77,6-1.16,8.79C106.71,14.88,110.7,15.29,113,15.6Z"/><path class="cls-1" d="M125.65,12.83c.24,1,.36,1.84,1.35,2.19,2.1.74,10.54,3.1,11.65,3.43,1.62.44,2.33.53,2.94.74.9.32,1.82,1.09,1.6,1.73-.15.42-.48.6-1.28.32s-1.64-.63-3.08-1.13-8.24-2.5-10.08-2.91c-1.39-.33-1.78-.07-2.46-.31s-1.36-1.78-1.41-2.69a4.44,4.44,0,0,1,.25-1.4Z"/><path class="cls-1" d="M167.05,26.48l.33.6c-5.15,3.29-11.13,4.64-17.61,5.15-.58,0-1.12.45-1.6.19a4.82,4.82,0,0,1-1.72-3.09,4.93,4.93,0,0,1,.3-1.68l.47,0c.27,1.08.6,2.17,1.31,2.54C150.23,31.06,161.41,29.51,167.05,26.48Zm-13.72-10c2.14,2,4.38,5.17,3.48,6.87a.86.86,0,0,1-1.21.4c-.51-.27-.62-1.23-.89-2.2a16.48,16.48,0,0,0-1.89-4.75Z"/></g></g></svg>