<svg xmlns="http://www.w3.org/2000/svg" viewBox="0 0 180.35 43.42"><defs><style>.cls-1{fill:#3e3a39;}</style></defs><g id="Layer_2" data-name="Layer 2"><g id="レイヤー_3" data-name="レイヤー 3"><path class="cls-1" d="M0,22.92a7.07,7.07,0,0,1,1.35-.66c1-.29,2.48-.3,2.71.09s0,.76,0,1.49c0,.52,0,1.07-.06,1.59.16-.07.29-.14.42-.21a49.77,49.77,0,0,0,4.08-2.89c.51-.47.45-.93.82-1.14.52-.3,2.4-.19,2.72.37s-.39,1-.37,1.71A31.42,31.42,0,0,1,5.32,43.42l-.6-.29c3.9-6.1,5.78-14.62,5-19.89,0-.36-.2-.35-.4-.2-.76.49-2.45,1.87-3.14,2.47a8.78,8.78,0,0,1-1.06,1,2.15,2.15,0,0,1-1.23,0A23,23,0,0,1,.72,35.82l-.58-.27c2-4.37,2.63-10.62,1.91-11.88-.21-.37-1-.39-1.92-.28Z"/><path class="cls-1" d="M19.68,15.79a5.59,5.59,0,0,1,1.42-1c1-.37,2.87.14,3.08.7.15.39-.23.86,0,1.63.37,1.33,2.75,7.76,3.58,9.91.07.18.14.23.31.12,3.71-3,7.7-8.76,9.59-13.34l.61.27C36.87,19,33.67,24,29.61,28.29c-.59.63-.43,1.21-.92,1.39a3,3,0,0,1-2.37-1.15c-.12-.33.14-.77-.17-1.65-.5-1.44-3.22-8.69-4-10.39-.17-.39-.53-.63-2.24-.27Z"/><path class="cls-1" d="M45.58,11.42l.14-.58a28.35,28.35,0,0,1,3.49.37c1.61.37,2.7,1,2.89,1.95a.72.72,0,0,1-.56.9c-.76.15-1.33-.65-2.79-1.35A18,18,0,0,0,45.58,11.42Zm17.83-5L64,6.7c-1.81,5.46-6.13,10.79-11,14.86-.43.39-.57,1.08-1.21,1.21a5.17,5.17,0,0,1-3.21-1.25A4.18,4.18,0,0,1,47.8,20l.35-.3c.81.66,1.74,1.34,2.57,1.17C52.39,20.52,60.21,13.46,63.41,6.45ZM47.93,6.06l.16-.62a20.34,20.34,0,0,1,3.91.7c1.31.41,2.12.91,2.29,1.77a.75.75,0,0,1-.55.95c-.69.13-1.37-.75-2.88-1.55A16,16,0,0,0,47.93,6.06ZM60.3,5a12.62,12.62,0,0,0-2.68-1.81l.23-.51A10,10,0,0,1,61,3.74c.71.49,1,.86,1.13,1.33a.6.6,0,0,1-.49.76C61.26,5.91,60.92,5.46,60.3,5Zm2.1-2.43A15.11,15.11,0,0,0,59.78.9L60,.42a10,10,0,0,1,3.12.94c.72.41,1.08.8,1.18,1.32a.58.58,0,0,1-.46.75C63.43,3.51,63.06,3,62.4,2.52Z"/><path class="cls-1" d="M72.7,7.94,73,7.65a8.53,8.53,0,0,1,1.8,1.2,3.68,3.68,0,0,1,1.67,2.49c0,.52-.21.91-.73.93-.8,0-.87-.94-1.62-2.26A11.69,11.69,0,0,0,72.7,7.94Zm2.47,12.13-.32-.43c6.48-3.72,10-10.32,9.91-12.22,0-.4-.38-.69-1.37-1L83.5,6a4.51,4.51,0,0,1,1.18,0c.93.11,2.17,1.16,2.2,1.78,0,.4-.4.62-.66,1.21A20.48,20.48,0,0,1,75.17,20.07ZM77,6.46l.29-.29a8.57,8.57,0,0,1,1.9,1.25,3.21,3.21,0,0,1,1.42,2.34.78.78,0,0,1-.79.89c-.75,0-.79-1-1.44-2.19A10.31,10.31,0,0,0,77,6.46Z"/><path class="cls-1" d="M97.78.15A5.9,5.9,0,0,1,99.57,0c1,.14,2.48,1.15,2.43,1.73s-.5.55-.68,1.37c-.23,1.18-.45,3-.6,4.36a21.5,21.5,0,0,1,5.94,2.86,2.47,2.47,0,0,1,1.22,2,.8.8,0,0,1-.87.78c-.82-.08-1-1-2.41-2.23a19.79,19.79,0,0,0-4-2.53c-.18,1.72-.58,5.8-.8,8.44-.08,1.1-.1,1.85-.14,2.28,0,.64-.33.92-.88.87-.82-.08-1.12-1.49-1-2.33,0-.55.32-1,.5-1.92.37-1.82.75-5.9.92-7.8s.43-4.7.4-6c0-.81-.54-1-1.84-1.28Z"/><path class="cls-1" d="M124.3,3.86a7.62,7.62,0,0,1,1.82.13c.92.24,2.34,1.51,2.19,2.12s-.68.4-1.08,1.28C127,8,126.5,9,126,10l4,.46c.68.08,1-.4,1.39-.31s1.67,1.61,1.55,2.12-.72.32-1,1A29.41,29.41,0,0,1,127.15,22a3.23,3.23,0,0,1-3,1.23c-.42-.1-.56-.36-.58-.91,0-.95-.71-1.56-1.85-2.91l.41-.39c.91.71,2,1.56,2.46,1.85.61.35.85.39,1.29.06,2-1.55,4.42-7.25,4.79-8.8a.26.26,0,0,0-.22-.34,43.63,43.63,0,0,0-5-.66,19.85,19.85,0,0,1-13.08,10.46l-.27-.58a21.76,21.76,0,0,0,11.64-10c-1.62-.11-3.85-.24-4.57-.23s-1,.3-1.51.18c-.63-.15-1.32-1.58-1.38-2.18a3.81,3.81,0,0,1,.22-1.57H117c.18.74.35,1.66,1,1.81.81.2,3.55.55,6.3.85A29.12,29.12,0,0,0,125.9,6c.12-.47.08-.65-.25-.89a9.46,9.46,0,0,0-1.47-.71Z"/><path class="cls-1" d="M140.3,16.86c.17,1,.24,1.86,1.2,2.27,2.05.87,10.34,3.75,11.42,4.16,1.59.53,2.29.67,2.89.92.87.37,1.74,1.2,1.48,1.82-.17.42-.51.57-1.3.24s-1.59-.73-3-1.32-8.07-3-9.88-3.53c-1.37-.42-1.77-.18-2.44-.47s-1.25-1.85-1.24-2.77a4.11,4.11,0,0,1,.34-1.38Z"/><path class="cls-1" d="M169.8,21.86a6,6,0,0,1,1.66.69c.8.54,1.72,2.12,1.42,2.61s-.7.28-1.21.94c-.73,1-1.72,2.49-2.45,3.66a21.47,21.47,0,0,1,4.08,5.17,2.47,2.47,0,0,1,.23,2.33.81.81,0,0,1-1.13.31c-.7-.43-.5-1.3-1.18-3.06a19.49,19.49,0,0,0-2.46-4c-.91,1.47-3.06,5-4.42,7.24-.54.95-.89,1.62-1.11,2-.34.56-.71.69-1.18.4-.7-.43-.35-1.82.09-2.55.28-.47.71-.74,1.29-1.5,1.13-1.48,3.25-5,4.24-6.61s2.45-4,3-5.19c.35-.72,0-1.13-1.1-1.95Zm5.83,5.67a11.34,11.34,0,0,1,1.6,2.85,2.06,2.06,0,0,1-.07,1.8.55.55,0,0,1-.83.22c-.35-.2-.3-.82-.41-1.65a12.15,12.15,0,0,0-.81-3Zm2.83-.67a9.2,9.2,0,0,1,1.69,2.71,2,2,0,0,1,0,1.81.55.55,0,0,1-.82.24c-.34-.21-.3-.86-.43-1.67a13,13,0,0,0-.9-2.89Z"/></g></g></svg>