<svg xmlns="http://www.w3.org/2000/svg" viewBox="0 0 166.74 39.61"><defs><style>.cls-1{fill:#3e3a39;}</style></defs><g id="Layer_2" data-name="Layer 2"><g id="レイヤー_3" data-name="レイヤー 3"><path class="cls-1" d="M13.34,31.53c-1.23,1.63-2.91,3.95-5.2,6.84A.82.82,0,0,1,8,39.1L6.36,37.7c.59-.48,1.6-1.41,2.8-2.55L6.23,29.29,3.65,30.58l-.47-.52,2.75-1.37L3.24,23.32.47,24.7,0,24.14l5.22-2.62.33-1.75s1.59.34,2.61.66c.07.26-.09.47-.39.62L4.62,22.63,7.3,28l.84-.42.23-1.68s1.46.4,2.35.71a.56.56,0,0,1-.37.61L7.6,28.6,10.31,34c.88-.87,1.81-1.79,2.76-2.75Zm14-1.33c.49,0,.66.13.79.39.29.58-.11,1.13-2.51,2.33l-1.49.74c-1.37.69-1.78.46-2.26-.5L19,27.49l-1.52.76c1.49,4.6.31,7.71-4.25,11.36l-.28-.29c3.68-3.64,4.34-6.41,2.94-10.27l-1,.48.39.77c.08.15-.32.76-.9,1.05l-.24.11L7.75,18.65l1.81-.08L16,15.35l.38-1.29,2.44.47a2.2,2.2,0,0,1-.72.93L23.36,26c0,.2-.46.85-.95,1.1l-.2.1-.51-1-1.31.65.11.22,2.57,5.15c.13.26.22.32.73.06L25,31.63c.54-.27,1-.5,1.13-.59a.35.35,0,0,0,.18-.44c-.05-.43-.44-1.85-.81-3.19l.28-.14ZM9.78,19.27,11.14,22l6.79-3.4-1.37-2.73Zm8.47,0-6.78,3.4,1.37,2.75L19.62,22Zm-3.64,9.69,6.79-3.39L20,22.64,13.16,26Z"/><path class="cls-1" d="M37.94,6.4c0,.29-.22.51-.79.71,2.92,2.21,7.5,3.47,12,3.84l.08.35A2,2,0,0,0,48.15,13c-4.29-.75-8.7-2.69-11.35-5.46a30.8,30.8,0,0,1-8.37,12.22l-.26-.27c3.19-3.31,6.54-9.29,6.86-12.92ZM49.58,22.23s1.62.64,2.7,1.15c0,.25-.19.43-.54.54L32.13,29.77l-.41-.6L41,26.39l-2.09-7-8,2.39-.4-.59,8.19-2.44-1.1-3.68-4.71,1.41-.39-.61,8.33-2.49.67-1.53s1.43.5,2.38.94c0,.28-.16.45-.48.55L39.2,14.61l1.09,3.68,5.48-1.63L46.46,15S48,15.54,49,16c0,.25-.18.42-.5.52l-8,2.4,2.08,7,6.28-1.88ZM33.85,22c5.44,1.38,4.9,5.27,3,4.31a10.44,10.44,0,0,0-3.25-4.09ZM44,24.48a37,37,0,0,0,.83-5.93l2.52.22c0,.29-.23.55-.74.62a25.69,25.69,0,0,1-2.2,5.22Z"/><path class="cls-1" d="M58.82,14.69a2.21,2.21,0,1,1,1.81-2.54A2.21,2.21,0,0,1,58.82,14.69Z"/><path class="cls-1" d="M78.15,12.22a14.62,14.62,0,0,1,6.6-2c2.76-.07,4.77,1.6,4.84,4.27.06,2.44-1.74,4.48-4.76,4.56a5.49,5.49,0,0,1-4.57-2.29l.38-.39a5.9,5.9,0,0,0,3.82,1.34,3.35,3.35,0,0,0,3.61-3.5c0-1.8-1.23-3.16-3.8-3.09a13.34,13.34,0,0,0-6.06,2.24c.18,3.26.46,4.14.48,5,0,1.08-.59,2.2-1.31,2.22-.55,0-.62-.73-1.4-1.4a26,26,0,0,0-2.62-1.83c-.7.69-1,.89-1.34.9a1.24,1.24,0,0,1-.78-.39,1.34,1.34,0,0,1-.46-1c0-.56.13-.75.66-.72a1.78,1.78,0,0,0,1.36-.3c.87-.55,2.71-2.06,4.29-3l0-1.39L77,8.22a12.86,12.86,0,0,1-2.62.5c-1.18,0-2.19-.16-3.23-2.32l.4-.32c1.25,1.17,1.62,1.4,2.89,1.32a11.54,11.54,0,0,0,2.53-.5c0-1.77-.06-3.38-.1-4s-.11-.62-.5-.73a4.88,4.88,0,0,0-1.52-.13l-.08-.45a3.7,3.7,0,0,1,1.67-.5c.91,0,2.46.71,2.48,1.28s-.34.95-.49,1.72a17.07,17.07,0,0,0-.22,2.36C80,5.74,80.8,4.93,81.3,4.89s1.06.07,1.1.6-.25.7-.74,1a26.61,26.61,0,0,1-3.52,1.4c0,1.09,0,2.24,0,3.34Zm-1,1.83a29,29,0,0,0-3.31,2.84c.9.44,2,1,2.74,1.28.51.2.68,0,.66-.45Zm7-10.11a8,8,0,0,1,3.19-.21C89.13,4.05,90.9,5.59,91,7.1c0,.47-.12.89-.58,1s-.78-.49-1.54-.32a8.71,8.71,0,0,0-1.83.76l-.27-.42A19.92,19.92,0,0,0,88.67,6.7c.26-.3.28-.49,0-.87-1-1.31-2.84-1.43-4.52-1.27Z"/><path class="cls-1" d="M104.44,10.81c-.89.31-2,.71-3.22,1.19l-1.1,7.69c-.18,1.29-.53,2-2.6,2a1.81,1.81,0,0,0-.29-1.2,3.31,3.31,0,0,0-1.7-.83l.06-.4s2,.46,2.47.52.54,0,.59-.4l1-6.77c-.79.27-1.63.57-2.55.87a.89.89,0,0,1-.56.55l-.6-2.1c.77-.08,2.18-.29,3.9-.6l.73-5.16-3.16-.45-.06-.74,3.32.48L101.4,0l2.34.6c-.12.32-.39.53-1,.52l-.64,4.51.52.07,1.14-1.19s1,1.13,1.5,1.91c-.09.25-.32.34-.65.3L102,6.34,101.36,11l3-.56ZM118.23,15a.76.76,0,0,1-1,.1A28.34,28.34,0,0,1,113,17.31a10.73,10.73,0,0,0,4.46,5.39l-.06.26a1.9,1.9,0,0,0-1.56,1.25c-3.32-2.7-4.48-6.79-4.6-12.26l-1.76-.25-1.19,8.38c1.25-.13,2.61-.3,4-.47l0,.39c-1.57.51-3.86,1.22-7,2a.88.88,0,0,1-.53.5l-1-2.05c.65,0,1.71-.12,3-.26L108,11.49l-1.83-.26c-.7,3.75-2,8-5.5,10.68l-.34-.31c3.1-3.54,4.07-8.32,4.72-12.88l1-7,1.68,1L116.42,4l1.29-1.22s1.12,1.15,1.77,2c-.1.26-.33.34-.67.3L107.36,3.44l-.78,5.47c-.07.52-.15,1.07-.25,1.61l9.15,1.3,1.26-1.22s1.14,1.16,1.8,2a.56.56,0,0,1-.67.29L111.71,12a19.62,19.62,0,0,0,1.13,4.89,29.3,29.3,0,0,0,3.58-3.51ZM114.8,7.75,116,6.55s1.06,1.12,1.71,1.94c-.1.25-.36.33-.69.29l-8.86-1.27-.09-.71Z"/><path class="cls-1" d="M126.85,22.75c1,2.34,2.62,3.19,6.54,4.48,2.67.87,6.27,2.06,9,2.86l-.11.32a1.4,1.4,0,0,0-1.55.88l-7.84-2.57c-4.15-1.37-5.8-2.49-6.56-5.65a38.28,38.28,0,0,1-4.38,2c-.06.33-.19.44-.46.48l-.41-2.29c1-.09,2.64-.34,4.17-.62l2.21-6.73-3.35-1.1.09-.73,3.17,1.05,1.25-.88,1.44,2.29a1.82,1.82,0,0,1-1.23.05Zm.32,0a21.18,21.18,0,0,0,11.68-10.25c.09-.58.21-1.17.34-1.79l-4.54-1.49V8.52l4.18,1.37L140,9l1.63,2.26a2.67,2.67,0,0,1-1.87,0c-.93,5.68-.42,11.43,3.67,15.5l-.17.22a2.18,2.18,0,0,0-1.82.77c-2.52-3.18-3.31-6.92-3.07-11.34a19.71,19.71,0,0,1-11,6.83Zm1.1-17.32c5.12,3.63,2.81,7,1.41,5.24A11.11,11.11,0,0,0,128,5.57Z"/><path class="cls-1" d="M164.53,29.37a3.33,3.33,0,0,1,1.19.47c.61.44,1.19,1.4,1,1.8s-.47.62-.79,1.08-.81,1.06-1.37,1.71A13.46,13.46,0,0,1,166,37.34a1.7,1.7,0,0,1-.15,1.5.61.61,0,0,1-.91.28c-.53-.28-.62-1.47-1.61-3.46-2.74,2.29-6.37,2.83-10.69,1.65l-.06-.65a11.56,11.56,0,0,0,10-2.36,14,14,0,0,0-5.93-5.73l0,0c-1.88,1.28-4.19,3-5.25,3.54s-2.06.81-3,.29c-1.18-.63-.88-2.78.21-4.13,1.54-1.82,4.82-1.95,7.73-.89l.21-.14c2-1.29,5.49-3.33,6.52-4,.35-.24.3-.41,0-.47-.9-.15-2.48-.34-3.47-.43-.44,0-.91.14-1.3-.06a2.66,2.66,0,0,1-1-2.27,4.26,4.26,0,0,1,.47-1.19l.47.09c0,.74-.06,1.38.56,1.71a22.19,22.19,0,0,0,4.2,1.14c.86.16,1.15-.12,1.49.06.57.3,1.33,1.79,1.07,2.28s-1.11.25-1.88.58a55.94,55.94,0,0,0-6,3.24l-.08.06.1.06a18.5,18.5,0,0,1,6,5.22,7.52,7.52,0,0,0,1.24-1.87.69.69,0,0,0,0-.84,3.42,3.42,0,0,0-.64-.72ZM155.32,28c-2.45-.87-4.84-.56-5.92.6-.71.79-.8,2-.23,2.27s1,.16,1.81-.23S153.75,29,155.32,28Z"/></g></g></svg>