<svg xmlns="http://www.w3.org/2000/svg" viewBox="0 0 197.54 42.8"><defs><style>.cls-1{fill:#3e3a39;}</style></defs><g id="Layer_2" data-name="Layer 2"><g id="レイヤー_3" data-name="レイヤー 3"><path class="cls-1" d="M28.2,21.3H17.4v6.25H28.2v1H17.4v8.7H12.9v-8.7H2.1v-1H12.9V21.3H2.1V20.2H12.55L0,.75H4.55L15.15,17.4,25.75.75H30.3L17.75,20.2H28.2Z"/><path class="cls-1" d="M59.65,20.6a14.68,14.68,0,0,1,.6,4.65,15,15,0,0,1-.65,4.95,10.1,10.1,0,0,1-2.45,4.25,11.48,11.48,0,0,1-4.7,3,16.44,16.44,0,0,1-11-.3A10.53,10.53,0,0,1,37,33.8a15.82,15.82,0,0,1-2.5-6,28.62,28.62,0,0,1-.6-6.5c0-1.85.1-3.65.25-5.45a33.81,33.81,0,0,1,.9-5.4,18.31,18.31,0,0,1,2.1-5A11.17,11.17,0,0,1,46.75.25H50.2A18.49,18.49,0,0,1,57.7,1.8V2.85H54.2A15.34,15.34,0,0,0,48.65,1.3,8.28,8.28,0,0,0,44.5,2.9a12.22,12.22,0,0,0-3.16,3.25,19.47,19.47,0,0,0-2,4.65,32.75,32.75,0,0,0-1,4.9.87.87,0,0,1,.7-.35,14,14,0,0,1,6-2.25,18.1,18.1,0,0,1,6.56.3,12.09,12.09,0,0,1,5.65,3.2A10.35,10.35,0,0,1,59.65,20.6Zm-6.5,13.2a12.91,12.91,0,0,0,2.75-8.55,14.34,14.34,0,0,0-1.1-5.6,8.75,8.75,0,0,0-3.7-4.15,8.09,8.09,0,0,0-5-.65,8.68,8.68,0,0,0-4.46,2.25,9.36,9.36,0,0,0-3.1,7.1,7.18,7.18,0,0,0,.15,2.1,16.41,16.41,0,0,0,.51,3.15A21.5,21.5,0,0,0,41,32.9a6.36,6.36,0,0,0,3.09,2.6,7.59,7.59,0,0,0,3.36,1A8,8,0,0,0,53.15,33.8Z"/><path class="cls-1" d="M80.66,16.7a10.63,10.63,0,0,1,4,1.75A7.43,7.43,0,0,1,87.21,22a13.13,13.13,0,0,1,.65,4.35,14.91,14.91,0,0,1-.7,4.9,9.33,9.33,0,0,1-2.75,4.15,9.64,9.64,0,0,1-3.8,1.95,15.65,15.65,0,0,1-4.26.6c-1.45,0-2.89,0-4.3-.15a20.85,20.85,0,0,1-3.6-.7,5.27,5.27,0,0,1-1-.25l-1-.3c-.25-.1-.55-.25-.85-.4a2.21,2.21,0,0,1-.75-.6V34.25h3.5a11.22,11.22,0,0,0,5.26,2.25,7.75,7.75,0,0,0,5.45-1.15,10.59,10.59,0,0,0,3.2-4.05,11.45,11.45,0,0,0,1.14-5,10.28,10.28,0,0,0-.64-3.9,6.85,6.85,0,0,0-2.4-3.15,10,10,0,0,0-3.66-1.6,22.09,22.09,0,0,0-4-.35H69.1V16.25l1.7-1.8L82.66,1.8H64.6v-1H87.36V1.8L85.61,3.55C84.31,5,83,6.4,81.61,7.8c-1.11,1.2-2.2,2.35-3.36,3.55-1.45,1.6-3,3.15-4.45,4.7v.2h2.45A22.3,22.3,0,0,1,80.66,16.7Z"/><path class="cls-1" d="M97.2,42.8H92.7l3.8-11.1h4.35Z"/><path class="cls-1" d="M128.74,19.5a9.65,9.65,0,0,1,3.55,3.4,8,8,0,0,1,1.2,4.8,8.75,8.75,0,0,1-3.25,7.3,11.16,11.16,0,0,1-4.8,2.25,31.4,31.4,0,0,1-5.3.7,22.62,22.62,0,0,1-5.5-.6,12,12,0,0,1-4.9-2.35,8.93,8.93,0,0,1-3.15-7.3A8.17,8.17,0,0,1,107.84,23a9,9,0,0,1,3.5-3.35A20.33,20.33,0,0,1,116,17.8a13.22,13.22,0,0,1-5.9-3.65,8.55,8.55,0,0,1-2.1-5.7,6.79,6.79,0,0,1,2.75-5.9,9.56,9.56,0,0,1,4.4-2A19.7,19.7,0,0,1,120,.1a11.3,11.3,0,0,1,1.3,0,17.65,17.65,0,0,1,3.6.4,11.09,11.09,0,0,1,4.45,2.1,7.44,7.44,0,0,1,2.8,5.9,8.55,8.55,0,0,1-2.1,5.7,11.67,11.67,0,0,1-5.9,3.45A20.32,20.32,0,0,1,128.74,19.5Zm-2.5,14.75A8,8,0,0,0,129,27.7a7.42,7.42,0,0,0-1.15-4.5,8.46,8.46,0,0,0-3.45-3.05,17.61,17.61,0,0,0-4.4-1.5,18,18,0,0,0-4.45,1.5,8.45,8.45,0,0,0-3.4,3.1,7.55,7.55,0,0,0-1.2,4.45,8.19,8.19,0,0,0,3,6.55,9.17,9.17,0,0,0,6.1,2.3A9.3,9.3,0,0,0,126.24,34.25Zm-11.3-20.1a11.46,11.46,0,0,0,5,2.8,12.65,12.65,0,0,0,5.15-2.8,7.36,7.36,0,0,0,2.65-5.7,6.35,6.35,0,0,0-2.65-5.25A8.41,8.41,0,0,0,120,1.55a8.62,8.62,0,0,0-5.1,1.65,6.31,6.31,0,0,0-2.6,5.25A7.32,7.32,0,0,0,114.94,14.15Z"/><path class="cls-1" d="M165.22,19a37.27,37.27,0,0,1-.85,7.8,19.33,19.33,0,0,1-1.7,5.55,13,13,0,0,1-2.8,3.35,10.29,10.29,0,0,1-3.15,1.55,18.49,18.49,0,0,1-9.9,0,10,10,0,0,1-3.1-1.55,11.26,11.26,0,0,1-2.8-3.35A25.12,25.12,0,0,1,139,26.8a50.82,50.82,0,0,1-.7-7.8,51.47,51.47,0,0,1,.7-7.85,23.88,23.88,0,0,1,1.9-5.5,8.54,8.54,0,0,1,2.8-3.3,8.58,8.58,0,0,1,3.1-1.7A17.72,17.72,0,0,1,151.67,0c.65,0,1.25.05,1.9.1a13.49,13.49,0,0,1,6.3,2.25,10.49,10.49,0,0,1,2.8,3.3,18,18,0,0,1,1.7,5.5A37.74,37.74,0,0,1,165.22,19Zm-9.7,16.35a10.77,10.77,0,0,0,3.55-4.65,23.39,23.39,0,0,0,1.4-5.8,46.59,46.59,0,0,0,.25-5.9,38.16,38.16,0,0,0-.3-6.75A31.39,31.39,0,0,0,159.27,8a13,13,0,0,0-2.2-3.75A6.34,6.34,0,0,0,153.77,2a11.1,11.1,0,0,0-2.55-.3,5.34,5.34,0,0,0-2.5.5,9.67,9.67,0,0,0-4.05,4.55,21.45,21.45,0,0,0-1.65,6c-.2,2.1-.35,4.15-.35,6.25a46,46,0,0,0,.55,7,17.75,17.75,0,0,0,3.6,8.3,4.94,4.94,0,0,0,3.5,1.9h1.4A8.94,8.94,0,0,0,155.52,35.35Z"/><path class="cls-1" d="M197.54,19a37.27,37.27,0,0,1-.85,7.8,19.33,19.33,0,0,1-1.7,5.55,13,13,0,0,1-2.8,3.35A10.29,10.29,0,0,1,189,37.25a18.49,18.49,0,0,1-9.9,0A10,10,0,0,1,176,35.7a11.26,11.26,0,0,1-2.8-3.35,25.12,25.12,0,0,1-1.9-5.55,50.82,50.82,0,0,1-.7-7.8,51.47,51.47,0,0,1,.7-7.85,23.88,23.88,0,0,1,1.9-5.5,8.54,8.54,0,0,1,2.8-3.3,8.58,8.58,0,0,1,3.1-1.7A17.72,17.72,0,0,1,184,0c.65,0,1.25.05,1.9.1a13.49,13.49,0,0,1,6.3,2.25,10.49,10.49,0,0,1,2.8,3.3,18,18,0,0,1,1.7,5.5A37.74,37.74,0,0,1,197.54,19Zm-9.7,16.35a10.77,10.77,0,0,0,3.55-4.65,23.39,23.39,0,0,0,1.4-5.8A46.59,46.59,0,0,0,193,19a38.16,38.16,0,0,0-.3-6.75A31.39,31.39,0,0,0,191.59,8a13,13,0,0,0-2.2-3.75A6.34,6.34,0,0,0,186.09,2a11.1,11.1,0,0,0-2.55-.3,5.34,5.34,0,0,0-2.5.5,9.67,9.67,0,0,0-4,4.55,21.45,21.45,0,0,0-1.65,6c-.2,2.1-.35,4.15-.35,6.25a46,46,0,0,0,.55,7,17.75,17.75,0,0,0,3.6,8.3,4.94,4.94,0,0,0,3.5,1.9H184A8.94,8.94,0,0,0,187.84,35.35Z"/></g></g></svg>