<svg xmlns="http://www.w3.org/2000/svg" viewBox="0 0 62 60.54"><defs><style>.cls-1{fill:#93d1cc;}</style></defs><g id="Layer_2" data-name="Layer 2"><g id="レイヤー_3" data-name="レイヤー 3"><path class="cls-1" d="M62,30.27c0,2.22-4.2,3.94-4.67,6s2.54,5.51,1.61,7.45-5.48,1.69-6.83,3.37-.08,6-1.78,7.41-5.65-.85-7.61.09S40,60,37.9,60.5s-4.68-3.23-6.9-3.23S26.18,61,24.1,60.5s-2.88-5-4.82-5.9-5.92,1.26-7.61-.09-.43-5.71-1.78-7.41S4,45.69,3.06,43.73s2.1-5.3,1.61-7.45S0,32.49,0,30.27s4.2-3.94,4.67-6-2.54-5.51-1.61-7.44,5.48-1.69,6.83-3.38S10,7.39,11.67,6s5.65.86,7.61-.09S22,.53,24.1,0,28.78,3.27,31,3.27,35.82-.43,37.9,0s2.88,5,4.82,5.9,5.92-1.25,7.61.09.43,5.71,1.78,7.41,5.88,1.41,6.83,3.38-2.1,5.3-1.61,7.44S62,28.05,62,30.27Z"/></g></g></svg>