<svg xmlns="http://www.w3.org/2000/svg" viewBox="0 0 196.37 42.8"><defs><style>.cls-1{fill:#3e3a39;}</style></defs><g id="Layer_2" data-name="Layer 2"><g id="レイヤー_3" data-name="レイヤー 3"><path class="cls-1" d="M28.2,21.3H17.4v6.25H28.2v1H17.4v8.7H12.9v-8.7H2.1v-1H12.9V21.3H2.1V20.2H12.55L0,.75H4.55L15.15,17.4,25.75.75H30.3L17.75,20.2H28.2Z"/><path class="cls-1" d="M57.34,21.5a12.32,12.32,0,0,1,.6,4.25,15.31,15.31,0,0,1-.6,4.75A9.9,9.9,0,0,1,55,34.6a9.52,9.52,0,0,1-4.05,2.5,18.82,18.82,0,0,1-4.7.75,38.59,38.59,0,0,1-4.8-.25,9.38,9.38,0,0,1-3.31-.7A7.73,7.73,0,0,1,37,36.55a5.47,5.47,0,0,1-1.15-.45,4.09,4.09,0,0,1-1-.6V34.25h3.5a12.43,12.43,0,0,0,6.46,2.1A8.2,8.2,0,0,0,51,34a9.69,9.69,0,0,0,2.1-3.85,15.71,15.71,0,0,0,.5-4.35,11.69,11.69,0,0,0-.55-3.9,8,8,0,0,0-2-3.35,7.82,7.82,0,0,0-7.1-2.1c-.7.25-1.4.45-2.1.7a4.8,4.8,0,0,0-1,.75,3.15,3.15,0,0,1-.94.65H35.33c1-13.8,1.11-15.75,1.2-17.75h20V1.8H40.89l-.45,6.85c-.15,1.6-.3,3.15-.4,4.7l-.15,2.15a.82.82,0,0,1,.55-.3,2.93,2.93,0,0,1,.64-.1,14.8,14.8,0,0,1,2.56-.2,39.24,39.24,0,0,1,4.2-.05,18.08,18.08,0,0,1,3.95.9,8.93,8.93,0,0,1,3.35,2.05A8.51,8.51,0,0,1,57.34,21.5Z"/><path class="cls-1" d="M86.5,37.25H62.9v-1.1c2.65-2.4,5.25-4.95,7.75-7.5a72.73,72.73,0,0,0,7-8.25,22.46,22.46,0,0,0,2.85-4.85,15.13,15.13,0,0,0,1.15-5.4,10.69,10.69,0,0,0-1-4.45A7.19,7.19,0,0,0,77.6,2.3a6,6,0,0,0-4.45-.65,16.32,16.32,0,0,0-3.15.9,13,13,0,0,0-1.4.85,4.13,4.13,0,0,1-1.5.7H63.6V3a1.77,1.77,0,0,1,.7-.65c.3-.15.6-.25.9-.4s.6-.25.9-.4a30.65,30.65,0,0,1,3.05-.9A19.51,19.51,0,0,1,74,.1a12.18,12.18,0,0,1,1.35,0A16,16,0,0,1,79.1.5a9.33,9.33,0,0,1,4.5,2.35A9.25,9.25,0,0,1,85.45,6.3,12.58,12.58,0,0,1,86,10.15a16.46,16.46,0,0,1-1.15,5.6,24.81,24.81,0,0,1-2.85,5,79.9,79.9,0,0,1-6.75,8.05q-3.68,3.75-7.5,7.35H86.5Z"/><path class="cls-1" d="M96,42.8h-4.5l3.8-11.1h4.35Z"/><path class="cls-1" d="M127.57,19.5a9.65,9.65,0,0,1,3.55,3.4,8,8,0,0,1,1.2,4.8,8.75,8.75,0,0,1-3.25,7.3,11.16,11.16,0,0,1-4.8,2.25,31.4,31.4,0,0,1-5.3.7,22.62,22.62,0,0,1-5.5-.6,12,12,0,0,1-4.9-2.35,8.93,8.93,0,0,1-3.15-7.3A8.17,8.17,0,0,1,106.67,23a9,9,0,0,1,3.5-3.35,20.33,20.33,0,0,1,4.65-1.8,13.22,13.22,0,0,1-5.9-3.65,8.55,8.55,0,0,1-2.1-5.7,6.79,6.79,0,0,1,2.75-5.9,9.56,9.56,0,0,1,4.4-2A19.7,19.7,0,0,1,118.82.1a11.3,11.3,0,0,1,1.3,0,17.65,17.65,0,0,1,3.6.4,11.09,11.09,0,0,1,4.45,2.1,7.44,7.44,0,0,1,2.8,5.9,8.55,8.55,0,0,1-2.1,5.7A11.67,11.67,0,0,1,123,17.6,20.32,20.32,0,0,1,127.57,19.5Zm-2.5,14.75a8,8,0,0,0,2.75-6.55,7.42,7.42,0,0,0-1.15-4.5,8.46,8.46,0,0,0-3.45-3.05,17.61,17.61,0,0,0-4.4-1.5,18,18,0,0,0-4.45,1.5,8.45,8.45,0,0,0-3.4,3.1,7.55,7.55,0,0,0-1.2,4.45,8.19,8.19,0,0,0,3,6.55,9.17,9.17,0,0,0,6.1,2.3A9.3,9.3,0,0,0,125.07,34.25Zm-11.3-20.1a11.46,11.46,0,0,0,5,2.8,12.65,12.65,0,0,0,5.15-2.8,7.36,7.36,0,0,0,2.65-5.7A6.35,6.35,0,0,0,124,3.2a8.41,8.41,0,0,0-5.1-1.65,8.62,8.62,0,0,0-5.1,1.65,6.31,6.31,0,0,0-2.6,5.25A7.32,7.32,0,0,0,113.77,14.15Z"/><path class="cls-1" d="M164.05,19a37.27,37.27,0,0,1-.85,7.8,19.33,19.33,0,0,1-1.7,5.55,13,13,0,0,1-2.8,3.35,10.29,10.29,0,0,1-3.15,1.55,18.49,18.49,0,0,1-9.9,0,10,10,0,0,1-3.1-1.55,11.26,11.26,0,0,1-2.8-3.35,25.12,25.12,0,0,1-1.9-5.55,50.82,50.82,0,0,1-.7-7.8,51.47,51.47,0,0,1,.7-7.85,23.88,23.88,0,0,1,1.9-5.5,8.54,8.54,0,0,1,2.8-3.3,8.58,8.58,0,0,1,3.1-1.7A17.72,17.72,0,0,1,150.5,0c.65,0,1.25.05,1.9.1a13.49,13.49,0,0,1,6.3,2.25,10.49,10.49,0,0,1,2.8,3.3,18,18,0,0,1,1.7,5.5A37.74,37.74,0,0,1,164.05,19Zm-9.7,16.35a10.77,10.77,0,0,0,3.55-4.65,23.39,23.39,0,0,0,1.4-5.8,46.59,46.59,0,0,0,.25-5.9,38.16,38.16,0,0,0-.3-6.75A31.39,31.39,0,0,0,158.1,8a13,13,0,0,0-2.2-3.75A6.34,6.34,0,0,0,152.6,2a11.1,11.1,0,0,0-2.55-.3,5.34,5.34,0,0,0-2.5.5,9.67,9.67,0,0,0-4.05,4.55,21.45,21.45,0,0,0-1.65,6c-.2,2.1-.35,4.15-.35,6.25a46,46,0,0,0,.55,7,17.75,17.75,0,0,0,3.6,8.3,4.94,4.94,0,0,0,3.5,1.9h1.4A8.94,8.94,0,0,0,154.35,35.35Z"/><path class="cls-1" d="M196.37,19a37.27,37.27,0,0,1-.85,7.8,19.33,19.33,0,0,1-1.7,5.55A13,13,0,0,1,191,35.7a10.29,10.29,0,0,1-3.15,1.55,18.49,18.49,0,0,1-9.9,0,10,10,0,0,1-3.1-1.55,11.26,11.26,0,0,1-2.8-3.35,25.12,25.12,0,0,1-1.9-5.55,50.82,50.82,0,0,1-.7-7.8,51.47,51.47,0,0,1,.7-7.85,23.88,23.88,0,0,1,1.9-5.5,8.54,8.54,0,0,1,2.8-3.3A8.58,8.58,0,0,1,178,.65,17.72,17.72,0,0,1,182.82,0c.65,0,1.25.05,1.9.1A13.49,13.49,0,0,1,191,2.35a10.49,10.49,0,0,1,2.8,3.3,18,18,0,0,1,1.7,5.5A37.74,37.74,0,0,1,196.37,19Zm-9.7,16.35a10.77,10.77,0,0,0,3.55-4.65,23.39,23.39,0,0,0,1.4-5.8,46.59,46.59,0,0,0,.25-5.9,38.16,38.16,0,0,0-.3-6.75A31.39,31.39,0,0,0,190.42,8a13,13,0,0,0-2.2-3.75A6.34,6.34,0,0,0,184.92,2a11.1,11.1,0,0,0-2.55-.3,5.34,5.34,0,0,0-2.5.5,9.67,9.67,0,0,0-4.05,4.55,21.45,21.45,0,0,0-1.65,6c-.2,2.1-.35,4.15-.35,6.25a46,46,0,0,0,.55,7,17.75,17.75,0,0,0,3.6,8.3,4.94,4.94,0,0,0,3.5,1.9h1.4A8.94,8.94,0,0,0,186.67,35.35Z"/></g></g></svg>