<svg xmlns="http://www.w3.org/2000/svg" viewBox="0 0 222.23 42.8"><defs><style>.cls-1{fill:#3e3a39;}</style></defs><g id="Layer_2" data-name="Layer 2"><g id="レイヤー_3" data-name="レイヤー 3"><path class="cls-1" d="M28.2,21.3H17.4v6.25H28.2v1H17.4v8.7H12.9v-8.7H2.1v-1H12.9V21.3H2.1V20.2H12.55L0,.75H4.55L15.15,17.4,25.75.75H30.3L17.75,20.2H28.2Z"/><path class="cls-1" d="M47.79,37.25H43.44V5.1l-6.8,6H33.19V9.8l10.25-9h4.35Z"/><path class="cls-1" d="M84.3,20.6a14.68,14.68,0,0,1,.6,4.65,15,15,0,0,1-.65,4.95,10.1,10.1,0,0,1-2.45,4.25,11.48,11.48,0,0,1-4.7,3,16.41,16.41,0,0,1-11-.3,10.53,10.53,0,0,1-4.45-3.35,15.82,15.82,0,0,1-2.5-6,28.62,28.62,0,0,1-.6-6.5c0-1.85.1-3.65.25-5.45a33.81,33.81,0,0,1,.9-5.4,18.31,18.31,0,0,1,2.1-5A11.16,11.16,0,0,1,71.4.25h3.45a18.49,18.49,0,0,1,7.5,1.55V2.85h-3.5A15.34,15.34,0,0,0,73.3,1.3a8.32,8.32,0,0,0-4.15,1.6A12.18,12.18,0,0,0,66,6.15a19.08,19.08,0,0,0-2,4.65,32.75,32.75,0,0,0-1,4.9.87.87,0,0,1,.7-.35,13.91,13.91,0,0,1,6-2.25,18,18,0,0,1,6.55.3A12.09,12.09,0,0,1,82,16.6,10.35,10.35,0,0,1,84.3,20.6ZM77.8,33.8a12.91,12.91,0,0,0,2.75-8.55,14.34,14.34,0,0,0-1.1-5.6,8.75,8.75,0,0,0-3.7-4.15,8.08,8.08,0,0,0-5-.65,8.61,8.61,0,0,0-4.45,2.25,9.36,9.36,0,0,0-3.1,7.1,7.18,7.18,0,0,0,.15,2.1,17.2,17.2,0,0,0,.5,3.15,22.35,22.35,0,0,0,1.75,3.45,6.34,6.34,0,0,0,3.1,2.6,7.55,7.55,0,0,0,3.35,1A8,8,0,0,0,77.8,33.8Z"/><path class="cls-1" d="M112.43,21.5a12.32,12.32,0,0,1,.6,4.25,15.31,15.31,0,0,1-.6,4.75,9.9,9.9,0,0,1-2.35,4.1,9.52,9.52,0,0,1-4,2.5,18.82,18.82,0,0,1-4.7.75,38.59,38.59,0,0,1-4.8-.25,9.28,9.28,0,0,1-3.3-.7,7.73,7.73,0,0,1-1.15-.35,5.47,5.47,0,0,1-1.15-.45,4.09,4.09,0,0,1-1-.6V34.25h3.5a12.36,12.36,0,0,0,6.45,2.1,8.2,8.2,0,0,0,6.2-2.4,9.69,9.69,0,0,0,2.1-3.85,15.71,15.71,0,0,0,.5-4.35,11.69,11.69,0,0,0-.55-3.9,8,8,0,0,0-2-3.35A7.82,7.82,0,0,0,99,16.4c-.7.25-1.4.45-2.1.7a4.48,4.48,0,0,0-.95.75,3.2,3.2,0,0,1-1,.65H90.43c.95-13.8,1.1-15.75,1.2-17.75h20V1.8H96l-.45,6.85c-.15,1.6-.3,3.15-.4,4.7L95,15.5a.84.84,0,0,1,.55-.3,2.93,2.93,0,0,1,.65-.1,14.61,14.61,0,0,1,2.55-.2,39.24,39.24,0,0,1,4.2-.05,18.08,18.08,0,0,1,3.95.9,8.93,8.93,0,0,1,3.35,2.05A8.51,8.51,0,0,1,112.43,21.5Z"/><path class="cls-1" d="M122.28,42.8h-4.5l3.8-11.1h4.35Z"/><path class="cls-1" d="M157.6,19a37.27,37.27,0,0,1-.85,7.8,19.33,19.33,0,0,1-1.7,5.55,13,13,0,0,1-2.8,3.35,10.29,10.29,0,0,1-3.15,1.55,18.49,18.49,0,0,1-9.9,0,10,10,0,0,1-3.1-1.55,11.26,11.26,0,0,1-2.8-3.35,25.12,25.12,0,0,1-1.9-5.55,50.82,50.82,0,0,1-.7-7.8,51.47,51.47,0,0,1,.7-7.85,23.88,23.88,0,0,1,1.9-5.5,8.54,8.54,0,0,1,2.8-3.3,8.58,8.58,0,0,1,3.1-1.7A17.72,17.72,0,0,1,144.05,0c.65,0,1.25.05,1.9.1a13.49,13.49,0,0,1,6.3,2.25,10.49,10.49,0,0,1,2.8,3.3,18,18,0,0,1,1.7,5.5A37.74,37.74,0,0,1,157.6,19Zm-9.7,16.35a10.77,10.77,0,0,0,3.55-4.65,23.39,23.39,0,0,0,1.4-5.8,46.59,46.59,0,0,0,.25-5.9,38.16,38.16,0,0,0-.3-6.75A31.39,31.39,0,0,0,151.65,8a13,13,0,0,0-2.2-3.75A6.34,6.34,0,0,0,146.15,2a11.1,11.1,0,0,0-2.55-.3,5.34,5.34,0,0,0-2.5.5,9.67,9.67,0,0,0-4,4.55,21.45,21.45,0,0,0-1.65,6c-.2,2.1-.35,4.15-.35,6.25a46,46,0,0,0,.55,7,17.75,17.75,0,0,0,3.6,8.3,4.94,4.94,0,0,0,3.5,1.9h1.4A8.94,8.94,0,0,0,147.9,35.35Z"/><path class="cls-1" d="M189.91,19a37.27,37.27,0,0,1-.85,7.8,19.33,19.33,0,0,1-1.7,5.55,13,13,0,0,1-2.8,3.35,10.29,10.29,0,0,1-3.15,1.55,18.49,18.49,0,0,1-9.9,0,10,10,0,0,1-3.1-1.55,11.26,11.26,0,0,1-2.8-3.35,25.12,25.12,0,0,1-1.9-5.55A50.82,50.82,0,0,1,163,19a51.47,51.47,0,0,1,.7-7.85,23.88,23.88,0,0,1,1.9-5.5,8.54,8.54,0,0,1,2.8-3.3,8.58,8.58,0,0,1,3.1-1.7A17.72,17.72,0,0,1,176.36,0c.65,0,1.25.05,1.9.1a13.49,13.49,0,0,1,6.3,2.25,10.49,10.49,0,0,1,2.8,3.3,18,18,0,0,1,1.7,5.5A37.74,37.74,0,0,1,189.91,19Zm-9.7,16.35a10.77,10.77,0,0,0,3.55-4.65,23.39,23.39,0,0,0,1.4-5.8,46.59,46.59,0,0,0,.25-5.9,38.16,38.16,0,0,0-.3-6.75A31.39,31.39,0,0,0,184,8a13,13,0,0,0-2.2-3.75A6.34,6.34,0,0,0,178.46,2a11.1,11.1,0,0,0-2.55-.3,5.34,5.34,0,0,0-2.5.5,9.67,9.67,0,0,0-4,4.55,21.45,21.45,0,0,0-1.65,6c-.2,2.1-.35,4.15-.35,6.25a46,46,0,0,0,.55,7,17.75,17.75,0,0,0,3.6,8.3,4.94,4.94,0,0,0,3.5,1.9h1.4A8.94,8.94,0,0,0,180.21,35.35Z"/><path class="cls-1" d="M222.23,19a37.27,37.27,0,0,1-.85,7.8,19.33,19.33,0,0,1-1.7,5.55,13,13,0,0,1-2.8,3.35,10.29,10.29,0,0,1-3.15,1.55,18.49,18.49,0,0,1-9.9,0,10,10,0,0,1-3.1-1.55,11.26,11.26,0,0,1-2.8-3.35A25.12,25.12,0,0,1,196,26.8a50.82,50.82,0,0,1-.7-7.8,51.47,51.47,0,0,1,.7-7.85,23.88,23.88,0,0,1,1.9-5.5,8.54,8.54,0,0,1,2.8-3.3,8.58,8.58,0,0,1,3.1-1.7A17.72,17.72,0,0,1,208.68,0c.65,0,1.25.05,1.9.1a13.49,13.49,0,0,1,6.3,2.25,10.49,10.49,0,0,1,2.8,3.3,18,18,0,0,1,1.7,5.5A37.74,37.74,0,0,1,222.23,19Zm-9.7,16.35a10.77,10.77,0,0,0,3.55-4.65,23.39,23.39,0,0,0,1.4-5.8,46.59,46.59,0,0,0,.25-5.9,38.16,38.16,0,0,0-.3-6.75A31.39,31.39,0,0,0,216.28,8a13,13,0,0,0-2.2-3.75A6.34,6.34,0,0,0,210.78,2a11.1,11.1,0,0,0-2.55-.3,5.34,5.34,0,0,0-2.5.5,9.67,9.67,0,0,0-4,4.55,21.45,21.45,0,0,0-1.65,6c-.2,2.1-.35,4.15-.35,6.25a46,46,0,0,0,.55,7,17.75,17.75,0,0,0,3.6,8.3,4.94,4.94,0,0,0,3.5,1.9h1.4A8.94,8.94,0,0,0,212.53,35.35Z"/></g></g></svg>