<svg xmlns="http://www.w3.org/2000/svg" viewBox="0 0 224.71 42.8"><defs><style>.cls-1{fill:#3e3a39;}</style></defs><g id="Layer_2" data-name="Layer 2"><g id="レイヤー_3" data-name="レイヤー 3"><path class="cls-1" d="M28.2,21.3H17.4v6.25H28.2v1H17.4v8.7H12.9v-8.7H2.1v-1H12.9V21.3H2.1V20.2H12.55L0,.75H4.55L15.15,17.4,25.75.75H30.3L17.75,20.2H28.2Z"/><path class="cls-1" d="M47.79,37.25H43.44V5.1l-6.8,6H33.19V9.8l10.25-9h4.35Z"/><path class="cls-1" d="M78.61,27.75v9.6h-4.3v-9.6H56.4v-.9L74.31.75h4.3v26.1h6.6v.9ZM74.31,7.4,61.1,26.7v.15H74.31Z"/><path class="cls-1" d="M116.64,19a37.27,37.27,0,0,1-.85,7.8,19.33,19.33,0,0,1-1.7,5.55,13,13,0,0,1-2.8,3.35,10.29,10.29,0,0,1-3.15,1.55,18.49,18.49,0,0,1-9.9,0,10,10,0,0,1-3.1-1.55,11.26,11.26,0,0,1-2.8-3.35,25.12,25.12,0,0,1-1.9-5.55,50.82,50.82,0,0,1-.7-7.8,51.47,51.47,0,0,1,.7-7.85,23.88,23.88,0,0,1,1.9-5.5,8.54,8.54,0,0,1,2.8-3.3,8.58,8.58,0,0,1,3.1-1.7A17.72,17.72,0,0,1,103.09,0c.65,0,1.25.05,1.9.1a13.49,13.49,0,0,1,6.3,2.25,10.49,10.49,0,0,1,2.8,3.3,18,18,0,0,1,1.7,5.5A37.74,37.74,0,0,1,116.64,19Zm-9.7,16.35a10.77,10.77,0,0,0,3.55-4.65,23.39,23.39,0,0,0,1.4-5.8,46.59,46.59,0,0,0,.25-5.9,38.16,38.16,0,0,0-.3-6.75A31.39,31.39,0,0,0,110.69,8a13,13,0,0,0-2.2-3.75A6.34,6.34,0,0,0,105.19,2a11.1,11.1,0,0,0-2.55-.3,5.34,5.34,0,0,0-2.5.5,9.67,9.67,0,0,0-4,4.55,21.45,21.45,0,0,0-1.65,6c-.2,2.1-.35,4.15-.35,6.25a46,46,0,0,0,.55,7,17.75,17.75,0,0,0,3.6,8.3,4.94,4.94,0,0,0,3.5,1.9h1.4A8.94,8.94,0,0,0,106.94,35.35Z"/><path class="cls-1" d="M124.37,42.8h-4.5l3.8-11.1H128Z"/><path class="cls-1" d="M155.91,19.5a9.65,9.65,0,0,1,3.55,3.4,8,8,0,0,1,1.2,4.8,8.75,8.75,0,0,1-3.25,7.3,11.16,11.16,0,0,1-4.8,2.25,31.4,31.4,0,0,1-5.3.7,22.62,22.62,0,0,1-5.5-.6,12,12,0,0,1-4.9-2.35,8.93,8.93,0,0,1-3.15-7.3A8.17,8.17,0,0,1,135,23a9,9,0,0,1,3.5-3.35,20.33,20.33,0,0,1,4.65-1.8,13.22,13.22,0,0,1-5.9-3.65,8.55,8.55,0,0,1-2.1-5.7,6.79,6.79,0,0,1,2.75-5.9,9.56,9.56,0,0,1,4.4-2A19.7,19.7,0,0,1,147.16.1a11.3,11.3,0,0,1,1.3,0,17.65,17.65,0,0,1,3.6.4,11.09,11.09,0,0,1,4.45,2.1,7.44,7.44,0,0,1,2.8,5.9,8.55,8.55,0,0,1-2.1,5.7,11.67,11.67,0,0,1-5.9,3.45A20.32,20.32,0,0,1,155.91,19.5Zm-2.5,14.75a8,8,0,0,0,2.75-6.55A7.42,7.42,0,0,0,155,23.2a8.46,8.46,0,0,0-3.45-3.05,17.61,17.61,0,0,0-4.4-1.5,18,18,0,0,0-4.45,1.5,8.45,8.45,0,0,0-3.4,3.1,7.55,7.55,0,0,0-1.2,4.45,8.19,8.19,0,0,0,2.95,6.55,9.17,9.17,0,0,0,6.1,2.3A9.3,9.3,0,0,0,153.41,34.25Zm-11.3-20.1a11.46,11.46,0,0,0,5,2.8,12.65,12.65,0,0,0,5.15-2.8A7.36,7.36,0,0,0,155,8.45a6.35,6.35,0,0,0-2.65-5.25,8.41,8.41,0,0,0-5.1-1.65,8.62,8.62,0,0,0-5.1,1.65,6.31,6.31,0,0,0-2.6,5.25A7.32,7.32,0,0,0,142.11,14.15Z"/><path class="cls-1" d="M192.4,19a37.27,37.27,0,0,1-.85,7.8,19.33,19.33,0,0,1-1.7,5.55,13,13,0,0,1-2.8,3.35,10.29,10.29,0,0,1-3.15,1.55,18.49,18.49,0,0,1-9.9,0,10,10,0,0,1-3.1-1.55,11.26,11.26,0,0,1-2.8-3.35,25.12,25.12,0,0,1-1.9-5.55,50.82,50.82,0,0,1-.7-7.8,51.47,51.47,0,0,1,.7-7.85,23.88,23.88,0,0,1,1.9-5.5,8.54,8.54,0,0,1,2.8-3.3A8.58,8.58,0,0,1,174,.65,17.72,17.72,0,0,1,178.85,0c.65,0,1.25.05,1.9.1a13.49,13.49,0,0,1,6.3,2.25,10.49,10.49,0,0,1,2.8,3.3,18,18,0,0,1,1.7,5.5A37.74,37.74,0,0,1,192.4,19Zm-9.7,16.35a10.77,10.77,0,0,0,3.55-4.65,23.39,23.39,0,0,0,1.4-5.8,46.59,46.59,0,0,0,.25-5.9,38.16,38.16,0,0,0-.3-6.75A31.39,31.39,0,0,0,186.45,8a13,13,0,0,0-2.2-3.75A6.34,6.34,0,0,0,181,2a11.1,11.1,0,0,0-2.55-.3,5.34,5.34,0,0,0-2.5.5,9.67,9.67,0,0,0-4.05,4.55,21.45,21.45,0,0,0-1.65,6c-.2,2.1-.35,4.15-.35,6.25a46,46,0,0,0,.55,7,17.75,17.75,0,0,0,3.6,8.3,4.94,4.94,0,0,0,3.5,1.9h1.4A8.94,8.94,0,0,0,182.7,35.35Z"/><path class="cls-1" d="M224.71,19a37.27,37.27,0,0,1-.85,7.8,19.33,19.33,0,0,1-1.7,5.55,13,13,0,0,1-2.8,3.35,10.29,10.29,0,0,1-3.15,1.55,18.49,18.49,0,0,1-9.9,0,10,10,0,0,1-3.1-1.55,11.26,11.26,0,0,1-2.8-3.35,25.12,25.12,0,0,1-1.9-5.55,50.82,50.82,0,0,1-.7-7.8,51.47,51.47,0,0,1,.7-7.85,23.88,23.88,0,0,1,1.9-5.5,8.54,8.54,0,0,1,2.8-3.3,8.58,8.58,0,0,1,3.1-1.7A17.72,17.72,0,0,1,211.16,0c.65,0,1.25.05,1.9.1a13.49,13.49,0,0,1,6.3,2.25,10.49,10.49,0,0,1,2.8,3.3,18,18,0,0,1,1.7,5.5A37.74,37.74,0,0,1,224.71,19ZM215,35.35a10.77,10.77,0,0,0,3.55-4.65,23.39,23.39,0,0,0,1.4-5.8,46.59,46.59,0,0,0,.25-5.9,38.16,38.16,0,0,0-.3-6.75A31.39,31.39,0,0,0,218.76,8a13,13,0,0,0-2.2-3.75A6.34,6.34,0,0,0,213.26,2a11.1,11.1,0,0,0-2.55-.3,5.34,5.34,0,0,0-2.5.5,9.67,9.67,0,0,0-4.05,4.55,21.45,21.45,0,0,0-1.65,6c-.2,2.1-.35,4.15-.35,6.25a46,46,0,0,0,.55,7,17.75,17.75,0,0,0,3.6,8.3,4.94,4.94,0,0,0,3.5,1.9h1.4A8.94,8.94,0,0,0,215,35.35Z"/></g></g></svg>