<svg xmlns="http://www.w3.org/2000/svg" viewBox="0 0 41.51 40"><defs><style>.cls-1{fill:#09adec;}</style></defs><g id="Layer_2" data-name="Layer 2"><g id="レイヤー_3" data-name="レイヤー 3"><path class="cls-1" d="M25.81,13.41H14.92a.34.34,0,0,1,0-.67H25.81a.34.34,0,1,1,0,.67Z"/><path class="cls-1" d="M11.23,13.41H.34a.34.34,0,1,1,0-.67H11.23a.34.34,0,0,1,0,.67Z"/><path class="cls-1" d="M13.08,26.15a.34.34,0,0,1-.34-.34V14.92a.34.34,0,0,1,.67,0V25.81A.34.34,0,0,1,13.08,26.15Z"/><path class="cls-1" d="M13.08,11.56a.34.34,0,0,1-.34-.34V.34a.34.34,0,1,1,.67,0V11.22A.34.34,0,0,1,13.08,11.56Z"/><path class="cls-1" d="M18.2,18.54a.3.3,0,0,1-.23-.1l-1.22-1.21-2.61-2.61a.34.34,0,0,1,.48-.48l2.61,2.61L18.44,18a.34.34,0,0,1,0,.48A.31.31,0,0,1,18.2,18.54Z"/><path class="cls-1" d="M11.77,12.1a.33.33,0,0,1-.24-.1L9,9.46,7.71,8.18a.33.33,0,0,1,0-.47.34.34,0,0,1,.48,0L9.46,9,12,11.53A.33.33,0,0,1,12,12,.34.34,0,0,1,11.77,12.1Z"/><path class="cls-1" d="M14.38,12.1a.3.3,0,0,1-.23-.1.32.32,0,0,1,0-.47L18,7.71a.33.33,0,0,1,.47.47L14.62,12A.31.31,0,0,1,14.38,12.1Z"/><path class="cls-1" d="M8,18.54a.33.33,0,0,1-.24-.1.34.34,0,0,1,0-.48l3.82-3.82a.34.34,0,1,1,.48.48L8.19,18.44A.34.34,0,0,1,8,18.54Z"/><path class="cls-1" d="M41.17,29.27H32a.34.34,0,0,1-.34-.34.34.34,0,0,1,.34-.34h9.17a.34.34,0,0,1,.34.34A.34.34,0,0,1,41.17,29.27Z"/><path class="cls-1" d="M28.88,29.27H19.71a.34.34,0,0,1-.34-.34.34.34,0,0,1,.34-.34h9.17a.34.34,0,0,1,.34.34A.34.34,0,0,1,28.88,29.27Z"/><path class="cls-1" d="M30.44,40a.34.34,0,0,1-.34-.34V30.49a.34.34,0,0,1,.34-.34.34.34,0,0,1,.34.34v9.17A.34.34,0,0,1,30.44,40Z"/><path class="cls-1" d="M30.44,27.71a.34.34,0,0,1-.34-.34V18.2a.34.34,0,0,1,.34-.33.34.34,0,0,1,.34.33v9.17A.34.34,0,0,1,30.44,27.71Z"/><path class="cls-1" d="M34.76,33.59a.33.33,0,0,1-.24-.1l-1-1C32.78,31.74,32,31,31.3,30.27a.34.34,0,0,1,0-.48.34.34,0,0,1,.48,0L34,32l1,1a.34.34,0,0,1,0,.48A.33.33,0,0,1,34.76,33.59Z"/><path class="cls-1" d="M29.34,28.17a.37.37,0,0,1-.24-.1l-2.21-2.21-1-1a.34.34,0,1,1,.48-.48l1,1,2.21,2.21a.34.34,0,0,1,0,.48A.37.37,0,0,1,29.34,28.17Z"/><path class="cls-1" d="M31.54,28.17a.39.39,0,0,1-.24-.1.34.34,0,0,1,0-.48l3.22-3.22a.34.34,0,1,1,.48.48l-3.22,3.22A.35.35,0,0,1,31.54,28.17Z"/><path class="cls-1" d="M26.12,33.59a.34.34,0,0,1-.24-.58l3.22-3.22a.34.34,0,0,1,.48.48l-3.22,3.22A.33.33,0,0,1,26.12,33.59Z"/><path class="cls-1" d="M12,36.64a.33.33,0,0,1-.24-.1L10,34.85a.34.34,0,0,1,.48-.48l1.69,1.7a.33.33,0,0,1,0,.47A.33.33,0,0,1,12,36.64Z"/><path class="cls-1" d="M8.74,33.42a.3.3,0,0,1-.23-.1l-1.7-1.69a.33.33,0,0,1,0-.47.33.33,0,0,1,.48,0L9,32.85a.33.33,0,0,1,0,.47A.31.31,0,0,1,8.74,33.42Z"/><path class="cls-1" d="M10.27,33.42a.31.31,0,0,1-.24-.1.33.33,0,0,1,0-.47l1.69-1.69a.33.33,0,0,1,.48,0,.33.33,0,0,1,0,.47l-1.69,1.69A.34.34,0,0,1,10.27,33.42Z"/><path class="cls-1" d="M7.05,36.64a.34.34,0,0,1-.24-.1.33.33,0,0,1,0-.47l1.7-1.7a.33.33,0,0,1,.47,0,.34.34,0,0,1,0,.48L7.29,36.54A.33.33,0,0,1,7.05,36.64Z"/><path class="cls-1" d="M33.69,9.63a.31.31,0,0,1-.24-.1L32.28,8.37a.34.34,0,1,1,.48-.48l1.16,1.17a.32.32,0,0,1,0,.47A.3.3,0,0,1,33.69,9.63Z"/><path class="cls-1" d="M31.48,7.42a.31.31,0,0,1-.24-.1L30.07,6.16a.34.34,0,0,1,.48-.48l1.16,1.17a.32.32,0,0,1,0,.47A.3.3,0,0,1,31.48,7.42Z"/><path class="cls-1" d="M32.52,7.42a.34.34,0,0,1-.24-.1.33.33,0,0,1,0-.47l1.17-1.17a.33.33,0,0,1,.47,0,.33.33,0,0,1,0,.48L32.76,7.32A.31.31,0,0,1,32.52,7.42Z"/><path class="cls-1" d="M30.31,9.63a.34.34,0,0,1-.24-.1.33.33,0,0,1,0-.47l1.17-1.17a.33.33,0,0,1,.47,0,.33.33,0,0,1,0,.48L30.55,9.53A.31.31,0,0,1,30.31,9.63Z"/></g></g></svg>