<svg xmlns="http://www.w3.org/2000/svg" viewBox="0 0 196.15 19.13"><defs><style>.cls-1{fill:#fff;}</style></defs><g id="Layer_2" data-name="Layer 2"><g id="レイヤー_1" data-name="レイヤー 1"><path class="cls-1" d="M32.12,9.2A17.77,17.77,0,0,1,31.71,13a9.54,9.54,0,0,1-.82,2.69,6.48,6.48,0,0,1-1.36,1.62A5,5,0,0,1,28,18a9.05,9.05,0,0,1-4.79,0,4.85,4.85,0,0,1-1.51-.75,5.54,5.54,0,0,1-1.35-1.62A12.05,12.05,0,0,1,19.44,13,25,25,0,0,1,19.1,9.2a25.2,25.2,0,0,1,.34-3.8,11.56,11.56,0,0,1,.92-2.67,4.08,4.08,0,0,1,1.35-1.59A4.15,4.15,0,0,1,23.22.31,8.8,8.8,0,0,1,25.56,0c.32,0,.61,0,.92.05a6.49,6.49,0,0,1,3.05,1.09,5.07,5.07,0,0,1,1.36,1.59,8.79,8.79,0,0,1,.82,2.67A17.91,17.91,0,0,1,32.12,9.2Zm-4.69,7.91a5.22,5.22,0,0,0,1.71-2.25,11,11,0,0,0,.68-2.81,20.91,20.91,0,0,0,.12-2.85,18.85,18.85,0,0,0-.14-3.27,16.51,16.51,0,0,0-.56-2.06,6.15,6.15,0,0,0-1.06-1.81A3,3,0,0,0,26.58,1,5.17,5.17,0,0,0,25.35.82a2.66,2.66,0,0,0-1.22.24,4.78,4.78,0,0,0-2,2.21,10.33,10.33,0,0,0-.79,2.9c-.1,1-.17,2-.17,3a22.17,22.17,0,0,0,.26,3.36,8.58,8.58,0,0,0,1.75,4,2.42,2.42,0,0,0,1.69.92h.68A4.28,4.28,0,0,0,27.43,17.11Z"/><path class="cls-1" d="M43.11,8.08a5.35,5.35,0,0,1,1.94.85,3.63,3.63,0,0,1,1.23,1.69,6.21,6.21,0,0,1,.31,2.11,7.08,7.08,0,0,1-.33,2.37,4.45,4.45,0,0,1-3.17,3,7.32,7.32,0,0,1-2.06.29c-.7,0-1.4,0-2.08-.07a9.85,9.85,0,0,1-1.75-.34,2.12,2.12,0,0,1-.45-.12l-.46-.14c-.13-.05-.27-.13-.42-.2a1.12,1.12,0,0,1-.36-.29v-.6H37.2a5.54,5.54,0,0,0,2.55,1.09,3.75,3.75,0,0,0,2.63-.56,5.09,5.09,0,0,0,1.55-2,5.44,5.44,0,0,0,.56-2.42,5.15,5.15,0,0,0-.32-1.89A3.2,3.2,0,0,0,43,9.32a4.8,4.8,0,0,0-1.76-.78,10.89,10.89,0,0,0-2-.17H37.52V7.86L38.34,7,44.08.87H35.34V.36h11V.87l-.84.85c-.63.7-1.29,1.38-1.94,2.05S42.5,4.91,42,5.49c-.7.78-1.43,1.53-2.16,2.28v.09H41A11.25,11.25,0,0,1,43.11,8.08Z"/><path class="cls-1" d="M58.15,10.72v.48H51.62v-.48Z"/><path class="cls-1" d="M75.58,10a6.9,6.9,0,0,1,.29,2.25,7.2,7.2,0,0,1-.31,2.4,4.88,4.88,0,0,1-1.19,2.05,5.62,5.62,0,0,1-2.27,1.46A8,8,0,0,1,66.77,18a5.14,5.14,0,0,1-2.15-1.62,7.54,7.54,0,0,1-1.21-2.9,13.49,13.49,0,0,1-.29-3.15c0-.9.05-1.77.12-2.64a15.81,15.81,0,0,1,.44-2.61,8.56,8.56,0,0,1,1-2.42A5.38,5.38,0,0,1,69.34.12H71a8.91,8.91,0,0,1,3.63.75v.51h-1.7A7.35,7.35,0,0,0,70.26.63a4,4,0,0,0-2,.77A6.05,6.05,0,0,0,66.72,3a9.31,9.31,0,0,0-.94,2.25A14.64,14.64,0,0,0,65.3,7.6a.41.41,0,0,1,.34-.17,6.69,6.69,0,0,1,2.92-1.09,8.66,8.66,0,0,1,3.17.15A5.86,5.86,0,0,1,74.47,8,5,5,0,0,1,75.58,10Zm-3.14,6.39a6.32,6.32,0,0,0,1.33-4.14,6.83,6.83,0,0,0-.54-2.71,4.2,4.2,0,0,0-1.79-2,3.88,3.88,0,0,0-2.39-.31,4.13,4.13,0,0,0-2.16,1.09,4.53,4.53,0,0,0-1.5,3.43,3.38,3.38,0,0,0,.08,1,7.89,7.89,0,0,0,.24,1.52,10.49,10.49,0,0,0,.85,1.67,3,3,0,0,0,1.5,1.26,3.64,3.64,0,0,0,1.62.51A3.88,3.88,0,0,0,72.44,16.36Z"/><path class="cls-1" d="M90,13.43v4.65H87.89V13.43H79.23V13L87.89.36H90V13h3.2v.43ZM87.89,3.58,81.5,12.92V13h6.39Z"/><path class="cls-1" d="M107,10.41a5.72,5.72,0,0,1,.29,2.05,7.16,7.16,0,0,1-.29,2.3,4.87,4.87,0,0,1-1.13,2,4.72,4.72,0,0,1-2,1.21,9.85,9.85,0,0,1-2.28.36,20,20,0,0,1-2.32-.12,4.58,4.58,0,0,1-1.6-.34,4.58,4.58,0,0,1-.56-.17,2.53,2.53,0,0,1-.55-.22,2,2,0,0,1-.49-.29v-.6h1.7a6,6,0,0,0,3.12,1,4,4,0,0,0,3-1.16,4.78,4.78,0,0,0,1-1.86,8.18,8.18,0,0,0,.24-2.11,5.78,5.78,0,0,0-.27-1.88,3.86,3.86,0,0,0-1-1.63,3.79,3.79,0,0,0-3.44-1l-1,.34a1.74,1.74,0,0,0-.46.36,1.49,1.49,0,0,1-.46.31H96.32c.46-6.68.54-7.62.59-8.59h9.68V.87H99l-.22,3.32c-.07.77-.14,1.52-.19,2.27l-.07,1a.39.39,0,0,1,.26-.14,1.19,1.19,0,0,1,.32-.05,7.29,7.29,0,0,1,1.23-.1,17.21,17.21,0,0,1,2,0,9,9,0,0,1,1.92.43,4.4,4.4,0,0,1,1.62,1A4,4,0,0,1,107,10.41Z"/><path class="cls-1" d="M122.28,10.41a5.72,5.72,0,0,1,.29,2.05,7.16,7.16,0,0,1-.29,2.3,4.78,4.78,0,0,1-1.14,2,4.66,4.66,0,0,1-2,1.21,9.77,9.77,0,0,1-2.27.36,19.92,19.92,0,0,1-2.32-.12,4.58,4.58,0,0,1-1.6-.34,4.1,4.1,0,0,1-.56-.17,2.53,2.53,0,0,1-.55-.22,2,2,0,0,1-.49-.29v-.6h1.69a6,6,0,0,0,3.13,1,4,4,0,0,0,3-1.16,4.64,4.64,0,0,0,1-1.86,7.77,7.77,0,0,0,.25-2.11,5.78,5.78,0,0,0-.27-1.88,3.86,3.86,0,0,0-1-1.63,3.79,3.79,0,0,0-3.44-1l-1,.34a1.87,1.87,0,0,0-.45.36,1.77,1.77,0,0,1-.46.31h-2.21c.46-6.68.54-7.62.58-8.59h9.68V.87h-7.57l-.22,3.32c-.07.77-.14,1.52-.19,2.27l-.07,1a.37.37,0,0,1,.26-.14,1.19,1.19,0,0,1,.32-.05,7.29,7.29,0,0,1,1.23-.1,17.21,17.21,0,0,1,2,0,9,9,0,0,1,1.92.43,4.4,4.4,0,0,1,1.62,1A4.09,4.09,0,0,1,122.28,10.41Z"/><path class="cls-1" d="M134.13,10.72v.48H127.6v-.48Z"/><path class="cls-1" d="M148.31,18H136.89V17.5c1.28-1.17,2.54-2.4,3.75-3.63a34.56,34.56,0,0,0,3.38-4,10.59,10.59,0,0,0,1.38-2.34A7.27,7.27,0,0,0,146,4.91a5.22,5.22,0,0,0-.48-2.15A3.54,3.54,0,0,0,144,1.11,2.93,2.93,0,0,0,141.85.8a7.69,7.69,0,0,0-1.53.43,5.92,5.92,0,0,0-.68.42,2.06,2.06,0,0,1-.72.33h-1.7V1.45a.93.93,0,0,1,.34-.31c.15-.08.29-.12.44-.2l.43-.19c.49-.17,1-.31,1.48-.44a9.62,9.62,0,0,1,2.35-.26,4.72,4.72,0,0,1,.65,0,8.09,8.09,0,0,1,1.82.22,4.52,4.52,0,0,1,2.17,1.14,4.38,4.38,0,0,1,.9,1.67,6.16,6.16,0,0,1,.27,1.86,8,8,0,0,1-.56,2.71A11.63,11.63,0,0,1,146.13,10a38.14,38.14,0,0,1-3.27,3.9c-1.18,1.21-2.39,2.39-3.63,3.56h9.08Z"/><path class="cls-1" d="M160.6,8.08a5.23,5.23,0,0,1,1.93.85,3.58,3.58,0,0,1,1.24,1.69,6.21,6.21,0,0,1,.31,2.11,6.84,6.84,0,0,1-.34,2.37,4.47,4.47,0,0,1-1.33,2,4.54,4.54,0,0,1-1.84.94,7.25,7.25,0,0,1-2,.29c-.7,0-1.41,0-2.08-.07a9.85,9.85,0,0,1-1.75-.34,2.22,2.22,0,0,1-.46-.12l-.46-.14-.41-.2a1.12,1.12,0,0,1-.36-.29v-.6h1.69a5.51,5.51,0,0,0,2.54,1.09,3.76,3.76,0,0,0,2.64-.56,5.09,5.09,0,0,0,1.55-2,5.58,5.58,0,0,0,.56-2.42,5.15,5.15,0,0,0-.32-1.89,3.26,3.26,0,0,0-1.16-1.52,4.85,4.85,0,0,0-1.77-.78,10.74,10.74,0,0,0-2-.17H155V7.86l.82-.87L161.57.87h-8.74V.36h11V.87l-.85.85c-.62.7-1.28,1.38-1.93,2.05S160,4.91,159.44,5.49c-.71.78-1.43,1.53-2.16,2.28v.09h1.19A11.25,11.25,0,0,1,160.6,8.08Z"/><path class="cls-1" d="M179,9.44a4.67,4.67,0,0,1,1.72,1.64,3.94,3.94,0,0,1,.58,2.33,4.26,4.26,0,0,1-1.57,3.53A5.42,5.42,0,0,1,177.4,18a15.6,15.6,0,0,1-2.56.34,11.3,11.3,0,0,1-2.66-.29,5.91,5.91,0,0,1-2.38-1.14,4.32,4.32,0,0,1-1.52-3.53,4,4,0,0,1,.6-2.3,4.41,4.41,0,0,1,1.7-1.62,9.36,9.36,0,0,1,2.25-.87A6.43,6.43,0,0,1,170,6.85a4.18,4.18,0,0,1-1-2.76,3.29,3.29,0,0,1,1.33-2.86,4.65,4.65,0,0,1,2.13-1,9.2,9.2,0,0,1,2.34-.22,4.5,4.5,0,0,1,.63,0,8.7,8.7,0,0,1,1.75.2,5.4,5.4,0,0,1,2.15,1,3.63,3.63,0,0,1,1.36,2.86,4.14,4.14,0,0,1-1,2.76,5.65,5.65,0,0,1-2.86,1.67A10,10,0,0,1,179,9.44Zm-1.21,7.14a3.88,3.88,0,0,0,1.33-3.17,3.52,3.52,0,0,0-.56-2.18,4.05,4.05,0,0,0-1.67-1.48A8.11,8.11,0,0,0,174.76,9a8.38,8.38,0,0,0-2.15.72,4.08,4.08,0,0,0-1.64,1.5,3.65,3.65,0,0,0-.59,2.16,4,4,0,0,0,1.43,3.17,4.58,4.58,0,0,0,6,0Zm-5.47-9.73a5.55,5.55,0,0,0,2.44,1.35,6.09,6.09,0,0,0,2.5-1.35,3.58,3.58,0,0,0,1.28-2.76,3.07,3.07,0,0,0-1.28-2.54,4.1,4.1,0,0,0-2.47-.8,4.19,4.19,0,0,0-2.47.8,3.06,3.06,0,0,0-1.26,2.54A3.56,3.56,0,0,0,172.32,6.85Z"/><path class="cls-1" d="M192.66,8.08a5.23,5.23,0,0,1,1.93.85,3.65,3.65,0,0,1,1.24,1.69,6.21,6.21,0,0,1,.31,2.11,6.84,6.84,0,0,1-.34,2.37,4.47,4.47,0,0,1-1.33,2,4.54,4.54,0,0,1-1.84.94,7.25,7.25,0,0,1-2,.29c-.71,0-1.41,0-2.08-.07a9.85,9.85,0,0,1-1.75-.34,2.22,2.22,0,0,1-.46-.12l-.46-.14-.41-.2a1.12,1.12,0,0,1-.36-.29v-.6h1.69a5.51,5.51,0,0,0,2.54,1.09,3.76,3.76,0,0,0,2.64-.56,5.09,5.09,0,0,0,1.55-2,5.58,5.58,0,0,0,.56-2.42,5.15,5.15,0,0,0-.32-1.89,3.26,3.26,0,0,0-1.16-1.52,4.85,4.85,0,0,0-1.77-.78,10.74,10.74,0,0,0-2-.17h-1.76V7.86l.82-.87L193.63.87h-8.74V.36h11V.87l-.85.85c-.63.7-1.28,1.38-1.93,2.05s-1.07,1.14-1.62,1.72c-.71.78-1.43,1.53-2.16,2.28v.09h1.19A11.25,11.25,0,0,1,192.66,8.08Z"/><path class="cls-1" d="M1.25,1.69C0,2.5-.25,5,.22,7.1a18.8,18.8,0,0,0,2.47,5.81A19.4,19.4,0,0,0,7,17.53c1.69,1.27,4.11,2.08,5.36,1.27A6.54,6.54,0,0,0,14,17.07l-.68-1-1.85-2.85c-.13-.21-1,0-1.43.23a4.3,4.3,0,0,0-1.14,1.23c-.4.24-.74,0-1.45-.32a8.7,8.7,0,0,1-2.63-2.77A8.71,8.71,0,0,1,3.33,8c0-.78-.08-1.18.3-1.45A4.31,4.31,0,0,0,5.22,6c.4-.3.93-1,.79-1.22L4.16,2l-.67-1A6,6,0,0,0,1.25,1.69Z"/></g></g></svg>