<svg xmlns="http://www.w3.org/2000/svg" viewBox="0 0 168 168"><defs><style>.cls-1{fill:#158ba4;}.cls-2{fill:#fff;}</style></defs><g id="Layer_2" data-name="Layer 2"><g id="レイヤー_3" data-name="レイヤー 3"><path class="cls-1" d="M168,84c0,7.16-8.81,13.07-10.57,19.68-1.83,6.83,2.79,16.35-.67,22.33s-14.09,6.8-19,11.73-5.66,15.5-11.73,19-15.5-1.16-22.33.67C97.07,159.19,91.16,168,84,168s-13.07-8.81-19.68-10.57C57.49,155.6,48,160.22,42,156.76s-6.8-14.09-11.73-19-15.5-5.66-19-11.73,1.16-15.5-.67-22.33C8.81,97.07,0,91.16,0,84S8.81,70.93,10.57,64.32C12.4,57.49,7.78,48,11.24,42s14.09-6.8,19-11.73,5.66-15.5,11.73-19,15.5,1.16,22.33-.67C70.93,8.81,76.84,0,84,0s13.07,8.81,19.68,10.57c6.83,1.83,16.35-2.79,22.33.67s6.8,14.09,11.73,19,15.5,5.66,19,11.73-1.16,15.5.67,22.33C159.19,70.93,168,76.84,168,84Z"/><path class="cls-2" d="M84,161.5c-4,0-7.4-2.86-10.7-5.62-2.5-2.1-4.86-4.08-7.29-4.73-2.58-.69-5.86-.12-9,.42-4.16.72-8.45,1.46-11.75-.44s-4.86-6.08-6.33-10.07c-1.09-3-2.21-6.08-4-7.92s-4.93-3-7.91-4c-4-1.46-8.13-3-10.07-6.33s-1.17-7.6-.45-11.75c.54-3.17,1.11-6.44.42-9s-2.63-4.8-4.73-7.3C9.36,91.4,6.5,88,6.5,84s2.86-7.4,5.62-10.7c2.1-2.5,4.08-4.86,4.73-7.3s.12-5.84-.42-9c-.72-4.15-1.46-8.45.45-11.75S23,40.37,27,38.91c3-1.09,6.07-2.22,7.91-4s3-4.93,4.06-7.92c1.46-4,3-8.12,6.32-10.07s7.59-1.16,11.75-.44c3.17.55,6.44,1.11,9,.42,2.43-.65,4.79-2.63,7.29-4.73C76.6,9.36,80,6.5,84,6.5s7.4,2.86,10.7,5.62c2.5,2.1,4.86,4.08,7.29,4.73,2.58.69,5.86.12,9-.42,4.16-.72,8.45-1.46,11.75.45s4.87,6.07,6.33,10.06c1.09,3,2.21,6.08,4,7.92s4.93,3,7.91,4c4,1.47,8.13,3,10.07,6.33s1.17,7.6.45,11.75c-.54,3.17-1.11,6.44-.42,9s2.63,4.8,4.73,7.3c2.76,3.3,5.62,6.71,5.62,10.7s-2.86,7.4-5.62,10.7c-2.1,2.5-4.08,4.86-4.73,7.3s-.12,5.84.42,9c.72,4.15,1.46,8.45-.45,11.75s-6.07,4.87-10.07,6.33c-3,1.09-6.07,2.22-7.91,4s-3,4.93-4.06,7.92c-1.46,4-3,8.12-6.32,10.07s-7.6,1.16-11.75.44c-3.17-.54-6.44-1.11-9-.42-2.43.65-4.79,2.63-7.29,4.73C91.4,158.64,88,161.5,84,161.5ZM63.26,148.83a12.5,12.5,0,0,1,3.26.39c2.86.76,5.51,3,8.07,5.12,3,2.54,6.15,5.16,9.41,5.16s6.38-2.62,9.41-5.16c2.56-2.14,5.21-4.36,8.07-5.12s6.49-.2,9.87.38c4,.69,7.74,1.34,10.41-.2s4-5.2,5.45-9c1.16-3.19,2.37-6.49,4.52-8.64s5.45-3.36,8.64-4.52c3.83-1.4,7.44-2.72,9-5.45s.9-6.43.21-10.41c-.58-3.38-1.19-6.87-.39-9.87s3-5.51,5.13-8.07c2.54-3,5.16-6.15,5.16-9.41s-2.62-6.39-5.16-9.41c-2.14-2.56-4.36-5.21-5.13-8.07s-.19-6.49.39-9.87c.69-4,1.34-7.74-.21-10.41s-5.19-4.05-9-5.45c-3.19-1.16-6.49-2.37-8.64-4.52s-3.36-5.45-4.52-8.64c-1.4-3.83-2.72-7.45-5.45-9s-6.43-.9-10.41-.21c-3.38.58-6.88,1.19-9.87.38s-5.51-3-8.07-5.12c-3-2.54-6.15-5.16-9.41-5.16s-6.38,2.62-9.41,5.16C72,15.8,69.38,18,66.52,18.78S60,19,56.65,18.4c-4-.69-7.74-1.34-10.41.2s-4.05,5.2-5.45,9c-1.16,3.19-2.37,6.49-4.52,8.64s-5.45,3.36-8.64,4.52c-3.83,1.4-7.44,2.72-9,5.45s-.9,6.43-.21,10.41c.58,3.38,1.19,6.87.39,9.87s-3,5.51-5.13,8.07c-2.54,3-5.16,6.15-5.16,9.41s2.62,6.39,5.16,9.41C15.8,96,18,98.62,18.79,101.48s.19,6.49-.39,9.87c-.69,4-1.34,7.74.21,10.41s5.19,4,9,5.45c3.19,1.16,6.49,2.37,8.64,4.52s3.36,5.45,4.52,8.64c1.4,3.83,2.72,7.45,5.45,9s6.43.9,10.41.21A40,40,0,0,1,63.26,148.83Z"/><path class="cls-2" d="M82.89,65.65a.8.8,0,0,1,.51.2.66.66,0,0,1,.25.54.69.69,0,0,1-.37.62s-.19.14-.54.38a7.26,7.26,0,0,0-1.22,1.09,24.5,24.5,0,0,0,3,.18,15.92,15.92,0,0,0,2.7-.21,11.25,11.25,0,0,0,2.19-.57A7.54,7.54,0,0,0,91.08,67,5.33,5.33,0,0,0,92.26,66a.85.85,0,0,1,.28-.22.63.63,0,0,1,.33-.09.66.66,0,0,1,.51.23.76.76,0,0,1,.21.51.65.65,0,0,1-.14.43A6.33,6.33,0,0,1,92.2,68a8.42,8.42,0,0,1-1.89,1.06,12.7,12.7,0,0,1-2.56.76,16.72,16.72,0,0,1-3.22.28c-.68,0-1.36,0-2-.09s-1.36-.14-2-.24a10.89,10.89,0,0,0-.83,1.44A9.83,9.83,0,0,0,79,73a16.07,16.07,0,0,0-.46,3.48c0,1.22-.06,2.47-.08,3.74S78.4,82.76,78.3,84a15.39,15.39,0,0,1-.75,3.64,10,10,0,0,1-1.2,2.46,7.94,7.94,0,0,1-1.83,2A8.63,8.63,0,0,1,72,93.39a9.63,9.63,0,0,1-3.14.48,11.56,11.56,0,0,1-5.15-1.13,10.68,10.68,0,0,1-4-3.58,2.67,2.67,0,0,1-.15-.27.67.67,0,0,1-.1-.35.86.86,0,0,1,.19-.53.66.66,0,0,1,.55-.25.73.73,0,0,1,.39.1.77.77,0,0,1,.27.27,8.72,8.72,0,0,0,8,4.28,8.37,8.37,0,0,0,2.6-.37,6.53,6.53,0,0,0,2-1,6.71,6.71,0,0,0,1.53-1.65,10,10,0,0,0,1.08-2.23A12.35,12.35,0,0,0,76.72,84c.09-1.19.14-2.44.17-3.73s.07-2.6.15-3.9a20.37,20.37,0,0,1,.53-3.69,10.27,10.27,0,0,1,.57-1.7c.24-.52.48-1,.74-1.45a50.84,50.84,0,0,1-5.2-1.33l-5.06-1.57q-2.48-.75-4.77-1.29a18.4,18.4,0,0,0-4.32-.55,10.5,10.5,0,0,0-3.43.53,8.29,8.29,0,0,0-2.72,1.48,6.68,6.68,0,0,0-1.77,2.31,6.78,6.78,0,0,0-.64,3,5.55,5.55,0,0,0,.42,2.19A5.42,5.42,0,0,0,52.55,76a5.34,5.34,0,0,0,1.76,1.14,5.79,5.79,0,0,0,2.23.41,6.12,6.12,0,0,0,2.26-.38,7,7,0,0,0,1.76-1A6.65,6.65,0,0,0,61.86,75a10,10,0,0,0,.88-1.24,11.73,11.73,0,0,0,.67-1.33.71.71,0,0,1,.28-.36.73.73,0,0,1,.43-.13.67.67,0,0,1,.53.22.73.73,0,0,1,.21.52.41.41,0,0,1,0,.11l0,.1s-.09.2-.21.52A8.92,8.92,0,0,1,64,74.54,12.08,12.08,0,0,1,63,76a8.47,8.47,0,0,1-1.57,1.45,8.69,8.69,0,0,1-2.12,1.12,8,8,0,0,1-2.74.44,7.18,7.18,0,0,1-2.76-.53A6.77,6.77,0,0,1,51.53,77,6.66,6.66,0,0,1,50,74.85a7.21,7.21,0,0,1-.53-2.78,8.29,8.29,0,0,1,.76-3.6,8.17,8.17,0,0,1,2.11-2.76,9.67,9.67,0,0,1,3.18-1.78,12.23,12.23,0,0,1,4-.63,17.62,17.62,0,0,1,3.14.28,32,32,0,0,1,3.21.72c1.09.3,2.19.63,3.31,1l3.41,1.1c1.16.37,2.33.72,3.52,1a36.24,36.24,0,0,0,3.64.81,11.82,11.82,0,0,1,1-1.08,10.54,10.54,0,0,1,.86-.77c.25-.2.46-.36.63-.47l.3-.18A.69.69,0,0,1,82.89,65.65Z"/><path class="cls-2" d="M95.17,90.69a4.34,4.34,0,0,1-.86-.08,5.55,5.55,0,0,1-.7,1.08,4.91,4.91,0,0,1-1,.87,4.49,4.49,0,0,1-2.65.8A4.37,4.37,0,0,1,88.33,93a4,4,0,0,1-2.2-2.29A4.86,4.86,0,0,1,85.81,89a4.93,4.93,0,0,1,.45-2.18,6,6,0,0,1,1-1.54,4.49,4.49,0,0,1,1.17-.92,2.19,2.19,0,0,1,.88-.3.69.69,0,0,1,.5.17.67.67,0,0,1,.16.47.6.6,0,0,1-.2.5,2.75,2.75,0,0,1-.52.32A3.78,3.78,0,0,0,88,86.64a4.4,4.4,0,0,0-.5,1A4.15,4.15,0,0,0,87.28,89a3.59,3.59,0,0,0,.19,1.2,2.88,2.88,0,0,0,.57,1,2.75,2.75,0,0,0,.88.62,2.78,2.78,0,0,0,1.13.23,3.18,3.18,0,0,0,1.85-.52A3.48,3.48,0,0,0,93,90.14a5,5,0,0,1-1.89-1.72,4.36,4.36,0,0,1-.75-2.5,2.92,2.92,0,0,1,.54-1.82,1.72,1.72,0,0,1,1.42-.7,2,2,0,0,1,1,.26,2.17,2.17,0,0,1,.83.8,4.22,4.22,0,0,1,.58,1.4,8.75,8.75,0,0,1,.22,2,6.09,6.09,0,0,1-.16,1.31l.23,0h.26a4.35,4.35,0,0,0,1.19-.15,3.57,3.57,0,0,0,1-.47,3.68,3.68,0,0,0,.77-.8,9.85,9.85,0,0,0,.65-1.14.54.54,0,0,1,.26-.22.82.82,0,0,1,.39-.11.66.66,0,0,1,.47.21.67.67,0,0,1,.23.53.88.88,0,0,1-.08.34,2.84,2.84,0,0,1-.16.35,7.44,7.44,0,0,1-.77,1.12,4.63,4.63,0,0,1-1,.94,5.33,5.33,0,0,1-1.34.63A5.1,5.1,0,0,1,95.17,90.69Zm-3.34-4.93a3.23,3.23,0,0,0,.1.79,3.33,3.33,0,0,0,.3.81,4.59,4.59,0,0,0,.51.76,3,3,0,0,0,.71.61,5.49,5.49,0,0,0,.06-.8,7.82,7.82,0,0,0-.08-1.07,6.87,6.87,0,0,0-.22-1,2.69,2.69,0,0,0-.36-.74.64.64,0,0,0-.51-.28A.57.57,0,0,0,92,85C91.89,85.12,91.83,85.37,91.83,85.76Z"/><path class="cls-2" d="M113,87.39a6.68,6.68,0,0,1-.65,3.06,5.28,5.28,0,0,1-1.58,1.94h.08a4.39,4.39,0,0,0,2.1-.52,7,7,0,0,0,1.71-1.33A10.84,10.84,0,0,0,116,88.73c.41-.66.77-1.31,1.08-1.93a.75.75,0,0,1,.28-.33.75.75,0,0,1,.4-.12.65.65,0,0,1,.53.24.75.75,0,0,1,.19.5.94.94,0,0,1,0,.3,20.18,20.18,0,0,1-1.22,2.27,10.25,10.25,0,0,1-1.64,2.06,8.09,8.09,0,0,1-2.11,1.5,5.82,5.82,0,0,1-2.59.57,6.5,6.5,0,0,1-2-.32,4.58,4.58,0,0,1-1.72-1,2.28,2.28,0,0,1-.47-.46,2.61,2.61,0,0,1-.31-.45.12.12,0,0,1,0-.08.65.65,0,0,1-.12-.37.75.75,0,0,1,.17-.47l0,0,0,0a.77.77,0,0,1,.43-.2H107a.41.41,0,0,1,.14,0h0s0,0,0,0a.38.38,0,0,1,.13,0s0,0,0,0a1.07,1.07,0,0,1,.3.3,2.17,2.17,0,0,0,.31.42,1.83,1.83,0,0,0,.37.29,1,1,0,0,0,.49.13,1.83,1.83,0,0,0,1-.3,2.79,2.79,0,0,0,.88-.84,4.84,4.84,0,0,0,.64-1.33,5.88,5.88,0,0,0,.24-1.73,4.73,4.73,0,0,0-.14-1.21,2.78,2.78,0,0,0-.38-.81,1.42,1.42,0,0,0-.47-.45,1,1,0,0,0-.49-.15,1.53,1.53,0,0,0-1.07.55,7.77,7.77,0,0,0-1.06,1.38q-.52.84-1,1.86c-.34.67-.69,1.33-1,2,0,2.11-.06,4.12-.11,6s-.12,3.69-.23,5.33-.27,3.12-.46,4.45a19.11,19.11,0,0,1-.8,3.41,6.14,6.14,0,0,1-1.25,2.18,2.48,2.48,0,0,1-1.82.76,2.62,2.62,0,0,1-.76-.14,1.81,1.81,0,0,1-.8-.56,3.36,3.36,0,0,1-.63-1.2,6.92,6.92,0,0,1-.25-2.09,21.42,21.42,0,0,1,.41-3.84,41.9,41.9,0,0,1,1.16-4.64c.5-1.64,1.1-3.31,1.79-5s1.45-3.39,2.28-5c0-.46,0-.91,0-1.35s0-.87,0-1.29a.77.77,0,0,1-.6.3.65.65,0,0,1-.53-.24.78.78,0,0,1-.2-.51.79.79,0,0,1,.06-.29,13.69,13.69,0,0,0,.73-2c.17-.65.29-1.21.38-1.7a10.07,10.07,0,0,0,.14-1.16c0-.29,0-.44,0-.45a.7.7,0,0,1,.22-.51.72.72,0,0,1,.53-.21.72.72,0,0,1,.72.72v6l.9-1.5a10.76,10.76,0,0,1,.94-1.33,4.92,4.92,0,0,1,1.08-.94A2.28,2.28,0,0,1,110,83.3a2.4,2.4,0,0,1,1.21.32,2.84,2.84,0,0,1,.94.86,4,4,0,0,1,.59,1.29A6,6,0,0,1,113,87.39Zm-8.68,6.27c-.63,1.43-1.21,2.87-1.72,4.31s-1,2.84-1.31,4.18a38.33,38.33,0,0,0-.83,3.77,18.61,18.61,0,0,0-.3,3.09c0,.22,0,.46,0,.72a3.16,3.16,0,0,0,.16.72,1.63,1.63,0,0,0,.33.56.74.74,0,0,0,.57.22,1.32,1.32,0,0,0,1.11-.81,8.1,8.1,0,0,0,.79-2.18,27.68,27.68,0,0,0,.54-3.17c.14-1.19.26-2.44.34-3.74s.15-2.61.19-3.93S104.29,94.83,104.31,93.66Z"/></g></g></svg>