<svg xmlns="http://www.w3.org/2000/svg" xmlns:xlink="http://www.w3.org/1999/xlink" viewBox="0 0 56.9 65.86"><defs><linearGradient id="b" x1="3" y1="-3.65" x2="52.44" y2="60.32" gradientUnits="userSpaceOnUse"><stop offset="0" stop-color="#efcc7d"/><stop offset=".38" stop-color="#e7c37e"/><stop offset=".82" stop-color="#c78903"/><stop offset=".95" stop-color="#e2b65e"/><stop offset="1" stop-color="#eec983"/></linearGradient><linearGradient id="a" x1="4.7" y1="-4.57" x2="65.24" y2="71.07" gradientUnits="userSpaceOnUse"><stop offset="0" stop-color="#886e47"/><stop offset=".38" stop-color="#b0954f"/><stop offset=".55" stop-color="#c0a97f"/><stop offset=".8" stop-color="#a28258"/><stop offset="1" stop-color="#886e47"/></linearGradient><linearGradient id="c" x1="56.26" y1="66.87" x2="22.75" y2="15.76" xlink:href="#a"/><linearGradient id="d" x1="1.11" y1="-10.07" x2="58.85" y2="64.63" xlink:href="#b"/><linearGradient id="e" x1="-1.85" y1=".67" x2="58.69" y2="76.31" xlink:href="#a"/></defs><path d="M39.3 37.97s-2.34 3.14-4.11 3.93c-1.78.79-3.57.63-4.48.63h-3.34l.53-1.58c5.4-.87 6.48-7.46 3.83-10.55-.07-.09-.15-.17-.23-.26l2.46-7.41s.9-3.33 3.74-3.39v-.33h-6.16V14.6s-.7.12-1.37.02c-.66-.1-4.17-1.57-7.49 1.09-3.32 2.66-2.17 6.32-1.83 7.18.34.86 1.71 2.58 5.23 5.58 1.34 1.14 2.27 1.96 2.94 2.63-1.37 4.13-2.72 8.21-2.97 8.97-2.39.2-4.29-1.24-4.71-2.07-.52-1.04-.83-2.68-.74-4.21-.12-.02-.3-.03-.3-.03s-.55 2.71-.53 5.25c0 0 1.35 2.01 5.89 2.07-.45.88-1.41 2.11-3.23 2.17v.45h13.48l3.7-5.73h-.29ZM22.52 20.49c-.28-2.24.88-4.78 3.65-5.13 2.65-.33 4.42.94 5.08 3.64h-.96v.33s2.8-.44 1.6 3.07c-.39 1.16-1.17 3.48-2.03 6.08-3.01-2.88-7.12-6.17-7.35-7.99Zm8.19 13.28c.38 1.39.3 4.05-2.28 5.53l2.06-6.18c.09.21.16.43.22.66Z" style="fill-rule:evenodd;fill:url(#b)"/><path d="M51.94 7.58 28.39 0 4.86 7.58s-.09 11.92.22 21.33c0 0 .3 7.42.51 8.74.29 1.8.62 2.95.62 2.95C10.35 56.18 28.4 63.29 28.4 63.29s18.05-7.11 22.19-22.69c.15-.5.29-1.12.41-1.82.13-.72.24-1.45.31-2.2 1.12-9.76.64-28.94.64-28.99ZM50.69 36.5c-.07.74-.17 1.46-.3 2.16-.07.39-.14.75-.21 1.07l-.19.7C46.23 54.6 30.49 61.72 28.4 62.61c-2.09-.89-17.83-8.03-21.59-22.18l-.13-.48c-.12-.49-.31-1.33-.48-2.41-.19-1.18-.47-7.77-.5-8.66-.28-8.26-.24-18.6-.23-20.85L28.39.65l22.94 7.38c.06 3 .37 19.66-.64 28.47Z" style="fill:url(#a)"/><path d="M28.39.65 5.47 8.03c-.01 2.26-.05 12.59.23 20.85.03.9.31 7.48.5 8.66.17 1.07.36 1.91.48 2.41l.13.48c3.76 14.16 19.5 21.29 21.59 22.18 2.09-.89 17.83-8.01 21.59-22.18l.19-.7c.07-.32.15-.68.21-1.07.13-.7.23-1.42.3-2.16 1.01-8.81.71-25.47.64-28.47L28.39.65Zm21.99 35.82c-.07.74-.17 1.45-.3 2.14-.07.39-.14.74-.21 1.06l-.18.69C46.02 54.18 30.7 61.29 28.4 62.28c-2.29-1-17.62-8.12-21.29-21.92l-.13-.48c-.12-.5-.31-1.33-.48-2.38-.19-1.16-.47-7.73-.5-8.62-.27-8.03-.24-18.13-.23-20.62L28.39.98l22.63 7.28c.08 3.68.33 19.64-.64 28.21Z" style="fill:url(#c)"/><path d="M28.39 1.96 6.71 8.94c-.01 3.5-.02 12.57.23 19.9.05 1.45.32 7.49.49 8.51.17 1.02.34 1.81.46 2.29l.13.48c1.49 5.61 5.14 10.75 10.84 15.28 4.08 3.24 7.99 5.17 9.55 5.87 1.56-.7 5.47-2.63 9.55-5.86 5.7-4.52 9.35-9.66 10.84-15.28l.18-.66c.07-.3.14-.63.2-1.02.12-.66.22-1.35.29-2.07.93-8.1.73-23.08.65-27.42l-21.73-7ZM48.84 36.3c-.07.71-.16 1.39-.28 2.03-.07.38-.13.7-.2.99l-.17.64c-1.46 5.49-5.03 10.52-10.62 14.96-3.83 3.04-7.52 4.91-9.16 5.67-1.64-.76-5.33-2.63-9.16-5.67-5.59-4.44-9.17-9.47-10.62-14.95l-.13-.48c-.11-.46-.28-1.23-.44-2.23-.15-.93-.42-6.72-.48-8.43-.23-7.01-.24-15.61-.23-19.43l21.04-6.79 21.1 6.79c.08 4.86.24 19.1-.66 26.89Z" style="fill:url(#d)"/><path d="M56.77 39.66c-.17-.1-.29.1-.39.23-.35.46-.85.73-1.32 1.03-1.11.7-1.96 1.65-2.68 2.74-.54.82-1.03 1.69-1.69 2.42-.47.52-.88 1.11-1.58 1.47.3-.82.81-1.47 1.2-2.18 1.15-2.08 2.09-4.26 2.94-6.49.35-.93.85-1.71 1.59-2.35 1.05-.9 1.6-2.06 1.8-3.44.14-.96.27-1.91.26-2.88 0-.23.02-.49-.25-.57-.23-.06-.35.16-.45.31-.66.99-1.22 2.02-1.61 3.16-.36 1.06-.71 2.12-1.2 3.18-.13-.76-.28-1.52-.38-2.29-.15-1.17-.65-2.23-1.27-3.15 0 .3-.04.66-.05.96.93 1.82 1.49 3.83 1.32 5.08-.65-.4-1.22-1.08-1.58-1.59-.02.19-.06.58-.08.76.1.1.32.2.43.29.94.75 1.21 1.61.81 2.81-.75 2.3-1.79 4.46-2.98 6.54-.25.44-.52.87-.78 1.31-.07.11-1.96 3.33-3.09 4.84-1.24 1.67-2.89 3.05-4.69 4.19-.05.31-.21.6-.49.82a40.35 40.35 0 0 1-8.2 4.96c-.04.02-.1 0-.3 0 .8-.78 1.5-1.52 2.26-2.18.25-.22.48-.44.69-.68-.33.12-.65.23-.96.34-.5.5-1.05.92-1.67 1.26.08-.27.15-.53.22-.8-.15.04-.29.09-.43.13-.14.4-.31.79-.53 1.16-.49.87-1.19 1.49-2.15 1.74-1.52.4-3.04.82-4.61 1.01-.22.03-.53 0-.54.27 0 .25.34.22.53.28 1.23.44 2.39-.04 3.55-.34.61-.16 1.21-.41 1.79-.66.36-.16.69-.2 1.02.02 2.41 1.62 5.03 1.73 7.74 1.13 1.15-.26 2.29-.32 3.43.04.2.06.41.14.49-.11.09-.26-.17-.34-.33-.41-1.83-.79-3.65-1.64-5.66-1.82-1.15-.11-2.25.22-3.35.51-.61.16-1.22.27-1.88.07 1.38-.57 2.67-1.31 4-1.97.53-.26 1.15-.03 1.72-.04 3.19-.04 6.33-.38 9.3-1.71.64-.29 1.2-.71 1.66-1.26.16-.19.31-.41.39-.64.08-.2.13-.47-.07-.64-.16-.13-.37-.09-.55 0l-.3.15c-1.49.76-3.03 1.16-4.72 1.02-1.14-.09-2.13.53-3.11 1.05-.81.43-1.6.87-2.51 1.01 1.95-1.33 3.82-2.73 5.51-4.38.17-.17.35-.24.59-.26.66-.06 1.32-.16 1.98-.21 1.56-.11 2.98-.62 4.24-1.56 1.33-.98 2.57-2.07 3.64-3.36.12-.14.34-.29.18-.5-.17-.23-.34-.02-.5.06-.42.23-.87.37-1.34.44-2.44.32-4.57 1.26-6.26 3.14-.21.23-.43.5-.8.55.03-.27.21-.4.35-.57.62-.8 1.37-1.52 1.86-2.4.71-1.28 1.77-1.93 3.06-2.39 2.83-1.02 4.77-3 5.88-5.86.3-.76.63-1.52.93-2.28.07-.18.15-.42-.05-.54Zm-1.58-7.09c.3-.73.64-1.44 1.09-2.1.06-.09.11-.22.24-.19.14.04.09.18.09.29.03.57-.15 1.12-.2 1.69-.17 1.97-.99 3.56-2.7 4.77.53-1.56.89-3.05 1.48-4.47ZM40.97 63.9c-.78-.06-1.39-.02-1.97.15-1.38.4-2.78.37-4.18.26-.88-.07-1.69-.37-2.33-.87 2.81-1.06 5.61-1.18 8.49.47Zm-.5-4.91c1.16-.63 2.39-1.02 3.73-.9 1.05.09 2.02-.2 2.95-.65.4-.2.82-.36 1.35-.59-.47 1.11-1.3 1.56-2.15 1.96-2.56 1.19-5.34 1.18-8.04 1.63a3.25 3.25 0 0 0-.06-.17c.74-.43 1.47-.87 2.22-1.27Zm12.09-8.62c-2.09 2.64-5.65 4.47-8.01 4.14 2.23-2.23 4.67-4.09 8.01-4.14ZM49.35 48c1.33-1.21 2.4-2.56 3.32-4.06a8.57 8.57 0 0 1 3.44-3.2c-1.14 3.92-3.99 6.98-6.76 7.26ZM31.99 63.81c-1.57-.19-3.08-.62-4.61-1.01-.97-.25-1.66-.87-2.16-1.74a8.1 8.1 0 0 1-.53-1.16c-.14-.04-.28-.08-.43-.13.07.27.14.53.22.8-.62-.34-1.17-.76-1.67-1.26-.31-.11-.63-.22-.96-.34.22.23.45.46.69.68.76.67 1.46 1.4 2.26 2.18-.19 0-.26.03-.3 0a40.35 40.35 0 0 1-8.2-4.96c-.28-.22-.44-.51-.49-.82-1.79-1.14-3.45-2.52-4.69-4.19-1.12-1.51-3.02-4.73-3.09-4.84-.26-.43-.53-.87-.78-1.31-1.19-2.09-2.23-4.24-2.98-6.54-.39-1.2-.13-2.06.81-2.81.11-.09.24-.18.34-.28-.02-.18-.03-.44-.04-.62-.36.51-.87 1.04-1.52 1.44-.16-1.25.4-3.27 1.33-5.09 0-.3-.04-.62-.04-.92-.62.93-1.14 1.95-1.29 3.12-.1.77-.25 1.52-.38 2.29-.49-1.06-.84-2.12-1.2-3.18-.38-1.13-.95-2.17-1.61-3.16-.1-.16-.22-.38-.45-.31-.27.08-.25.34-.25.57 0 .97.12 1.92.26 2.88.2 1.38.75 2.54 1.8 3.44.74.63 1.23 1.42 1.59 2.35.85 2.22 1.79 4.41 2.94 6.49.39.71.9 1.36 1.2 2.18-.71-.36-1.11-.95-1.58-1.47-.66-.73-1.15-1.6-1.69-2.42-.72-1.1-1.57-2.05-2.68-2.74-.47-.29-.96-.57-1.32-1.03-.1-.13-.22-.33-.39-.23-.2.12-.12.36-.05.54.3.76.63 1.51.93 2.28 1.11 2.86 3.06 4.84 5.88 5.86 1.29.46 2.35 1.11 3.06 2.39.49.88 1.23 1.6 1.86 2.4.13.17.31.31.35.57-.37-.05-.59-.32-.8-.55-1.7-1.88-3.83-2.82-6.26-3.14-.46-.06-.92-.21-1.34-.44-.16-.09-.34-.3-.5-.06-.15.21.06.36.18.5 1.06 1.29 2.31 2.37 3.64 3.36 1.26.93 2.68 1.45 4.24 1.56.66.05 1.32.15 1.98.21.23.02.41.09.59.26 1.69 1.65 3.56 3.05 5.51 4.38-.92-.14-1.71-.58-2.51-1.01-.98-.52-1.97-1.14-3.11-1.05-1.69.13-3.23-.26-4.72-1.02l-.3-.15c-.18-.09-.39-.13-.55 0-.2.16-.15.43-.07.64.09.23.23.45.39.64.46.54 1.02.97 1.66 1.26 2.97 1.33 6.11 1.67 9.3 1.71.58 0 1.2-.23 1.72.04 1.33.67 2.62 1.41 4 1.97-.65.2-1.26.09-1.88-.07-1.1-.28-2.2-.62-3.35-.51-2.01.19-3.83 1.03-5.66 1.82-.16.07-.42.16-.33.41.08.25.3.17.49.11 1.14-.36 2.27-.3 3.43-.04 2.71.6 5.33.49 7.74-1.13.33-.22.66-.18 1.02-.02.58.25 1.18.5 1.79.66 1.16.3 2.32.78 3.55.34.19-.07.53-.03.53-.28 0-.26-.32-.24-.54-.27ZM.49 32.27c-.05-.56-.23-1.11-.2-1.69 0-.1-.05-.25.09-.29.13-.04.18.1.24.19.45.65.78 1.37 1.09 2.1.59 1.42.96 2.91 1.48 4.47-1.71-1.22-2.53-2.81-2.7-4.77Zm.29 8.49c1.48.76 2.61 1.82 3.44 3.2.91 1.5 1.99 2.85 3.32 4.06-2.77-.27-5.62-3.33-6.76-7.26Zm3.55 9.63c3.34.05 5.78 1.91 8.01 4.14-2.35.33-5.91-1.5-8.01-4.14Zm14.26 10.06c-2.7-.45-5.48-.44-8.04-1.63-.85-.4-1.68-.85-2.15-1.96.53.23.94.4 1.35.59.94.45 1.91.74 2.95.65 1.34-.12 2.56.27 3.73.9.75.4 1.48.85 2.22 1.27-.02.06-.04.12-.06.17Zm3.49 3.87c-1.4.11-2.8.15-4.18-.26-.58-.17-1.19-.2-1.97-.15 2.88-1.64 5.68-1.53 8.49-.47-.64.5-1.45.8-2.33.87Zm22.06-7.43c-.82.41-1.72.5-2.6.65-1.34.23-2.59.69-3.7 1.53-.37.28-.62.66-.92 1-.63.72-1.32 1.3-2.45 1 2.15-1.51 3.99-3.26 5.54-5.31.8-1.22 1.6-2.45 2.08-3.86.11-.31.4-.46.61-.65 1.89-1.68 2.49-3.89 2.47-6.35 0-.69-.13-1.38-.31-2.04-.04-.14-.03-.33-.22-.36-.2-.03-.31.09-.39.26-.06.12-.11.24-.16.36-.16.42-.38.78-.75 1.05-.32.24-.54.58-.73.93-1.11 2-1.61 4.12-1.2 6.42.06.36 0 .68-.1 1.02-.48 1.69-1.48 3.05-2.59 4.33-1.55 1.79-3.33 3.31-5.34 4.5-2.89 1.71-5.96 2.84-9.38 2.53h-.06c-.12 0-.3-.08-.33.11-.03.22.19.21.32.22.43.05.86.09 1.28.1.77.01 1.53-.08 2.28-.24.28-.06.51-.01.71.19.09.09.2.17.29.27 1.38 1.44 3.05 1.55 4.83 1.07.76-.21 1.5-.47 2.28-.56.14-.02.34 0 .38-.19.05-.23-.19-.24-.31-.34-1.6-1.32-3.44-1.45-5.37-1.11a.97.97 0 0 1-.34 0c1.32-.48 2.56-1.13 3.74-1.89.25-.16.47-.06.69.05 1.16.56 2.38.7 3.66.66 1.34-.04 2.4-.64 3.38-1.48 1.17-1.01 1.89-2.41 2.89-3.58.07-.08.15-.19.05-.31-.08-.1-.17 0-.24.04Zm.5-13.44c.75 2.4-.26 6.4-2.26 7.59 1.32-2.38 2.21-4.85 2.26-7.59Zm-.35.56c-.04 1.87-.47 3.64-1.37 5.27.21-1.82.46-3.63 1.37-5.27Zm-.49.2s.02.08.01.11c-.68 1.48-.93 3.06-1.17 4.66-.14.9-.38 1.78-.85 2.61-.68-2.28.47-6.46 2.01-7.37ZM33.06 65.37c-.75.17-1.5.32-2.26.11-.69-.18-1.3-.52-1.74-1.15 1.87.67 3.79.6 5.72.51-.57.21-1.13.39-1.71.52Zm1.52-1.15c-1.12-.38-2.28-.44-3.43-.57 1.2-.18 2.37-.16 3.43.57Zm-.38.3c-1.75.18-3.48.21-5.13-.59 1.73.03 3.46.04 5.13.59Zm7.39-6.69c-1.22.51-2.27 1.28-3.28 2.13-.47.4-.94.81-1.59.89 1.09-1.95 2.85-2.7 4.88-3.02Zm-5.93 3.84c2.36.03 5.1-1.19 7.03-2.9-1.1 2.38-4.4 3.75-7.03 2.9Zm.75-.33c.36-.27.81-.31 1.19-.54.71-.43 1.32-.99 1.97-1.5 1.1-.86 2.37-1.3 3.66-1.69-1.74 2.3-4.12 3.34-6.83 3.74Zm-7.63 1.21c.57.08 1.11-.1 1.64-.26.3-.09.58-.26.76-.34 1.56-1.05 2.86-2.18 3.4-3.98.09-.3.14-.59.19-.9.18-1.19.24-2.41.64-3.55.04-.1.08-.23-.03-.32-.13-.1-.2.02-.27.11-.77 1.1-1.8 1.93-2.86 2.72-1.23.92-1.94 2.19-2.46 3.62-.1.29-.19.58-.28.87-.18.58-.44 1.1-.91 1.48-.11.09-.22.2-.19.33.04.16.21.19.36.21Zm3.97-6.38c-1.09 1.35-1.82 2.92-2.74 4.36.45-1.77 1.22-3.33 2.74-4.36Zm1.39-.98c-.53 2.6-2.12 4.42-4.2 6.05 1.32-2.18 2.33-4.43 4.2-6.05Zm-4.99 6.84c.58-.35 1.14-.72 1.65-1.18 1.67-1.47 3.02-3.16 3.58-5.42.06-.26.12-.55.34-.79.09.22 0 .38-.02.53-.13.87-.13 1.76-.38 2.61-.47 1.63-1.56 2.75-2.91 3.65-.67.44-1.39.73-2.18.82-.07 0-.18 0-.21-.03-.06-.12.06-.16.13-.2Zm17.69-12.71c0-.07-.03-.17-.08-.2-.09-.07-.18 0-.23.09-.59.81-1.44 1.27-2.27 1.73-1.26.7-2.18 1.72-2.85 3-.36.69-.75 1.37-1.41 1.83-.03.23 0 .41.29.42 1.02.03 2.04 0 2.95-.51.86-.48 1.57-1.17 2.08-2.05.72-1.25 1.11-2.64 1.48-4.03.02-.09.04-.19.04-.28Zm-2.35 2.01c-1.02 1.29-1.83 2.74-3.22 3.63 1.59-2.69 2.24-3.41 3.22-3.63Zm-3.67 4.47c1.96-1.03 3.9-2.03 4.97-4.12-.7 2.53-2.56 4.37-4.97 4.12Zm.97-.81c1.66-1.32 2.45-3.46 4.25-4.64-.86 2.09-2.18 3.73-4.25 4.64Zm-5.97 4.42c1.3-1.21 2.58-2.43 3.27-4.15.41-1.01.55-2.01.28-3.09-.2-.78-.34-1.58-.11-2.38.02-.09.08-.19-.04-.25-.08-.04-.14.02-.19.08-.98 1.25-2.15 2.36-2.59 3.98-.26.95-.28 1.93-.41 2.9-.12.89-.13 1.8-.42 2.66-.02.07-.03.15-.04.21.08.1.17.1.25.03Zm3.06-8.48c.09.69.24 1.36.37 2.03.05.24.03.49 0 .74-.24 1.67-1.14 2.95-2.24 4.24 0-.33.17-.46.28-.63.49-.75.95-1.51 1.13-2.42.13-.64.18-1.29.17-1.94-.01-.69.04-1.37.29-2.03Zm-1.89 6.27c.47-1.84.52-3.69 1.32-5.34.07 1.89.08 3.75-1.32 5.34Zm-.4-2.77a6.47 6.47 0 0 1 1.63-3.27c-.77 1.7-.99 3.53-1.31 5.34-.11.62-.36 1.19-.71 1.72.18-1.26.17-2.54.39-3.78Zm-24.21 2.43c-.1.11-.01.23.05.31 1 1.16 1.72 2.57 2.89 3.58.98.84 2.04 1.44 3.38 1.48 1.27.04 2.5-.09 3.66-.66.22-.11.43-.21.69-.05 1.19.76 2.42 1.41 3.74 1.89a.97.97 0 0 1-.34 0c-1.93-.34-3.76-.21-5.37 1.11-.12.1-.37.1-.31.34.04.18.24.17.38.19.78.09 1.52.36 2.28.56 1.78.49 3.45.37 4.83-1.07.09-.1.2-.17.29-.27.2-.21.43-.26.71-.19.75.17 1.51.26 2.28.24.43 0 .86-.05 1.28-.1.13-.01.35 0 .32-.22-.03-.18-.2-.11-.33-.11h-.06c-3.42.31-6.49-.82-9.38-2.53-2.01-1.19-3.79-2.71-5.34-4.5-1.11-1.28-2.11-2.64-2.59-4.33-.1-.34-.16-.66-.1-1.02.4-2.3-.09-4.42-1.2-6.42-.19-.35-.41-.69-.73-.93-.37-.27-.59-.63-.75-1.05-.05-.12-.1-.24-.16-.36-.08-.17-.2-.29-.39-.26-.19.03-.18.21-.22.36-.19.67-.31 1.35-.31 2.04-.02 2.46.58 4.67 2.47 6.35.22.19.51.34.61.65.48 1.41 1.28 2.64 2.08 3.86 1.55 2.05 3.39 3.8 5.54 5.31-1.13.3-1.82-.29-2.45-1-.3-.34-.55-.72-.92-1-1.1-.84-2.36-1.29-3.7-1.53-.88-.15-1.78-.24-2.6-.65-.08-.04-.16-.14-.24-.04Zm2-5.8c-1.99-1.2-3-5.19-2.26-7.59.04 2.74.94 5.21 2.26 7.59Zm-.53-1.76c-.91-1.63-1.33-3.4-1.37-5.27.91 1.64 1.16 3.45 1.37 5.27Zm1.12 2.31c-.47-.83-.72-1.7-.85-2.61-.24-1.59-.49-3.18-1.17-4.66-.01-.03 0-.07.01-.11 1.54.91 2.69 5.09 2.01 7.37ZM22 64.87c1.93.09 3.85.16 5.72-.51-.44.63-1.05.96-1.74 1.15-.76.2-1.52.05-2.26-.11-.58-.13-1.14-.31-1.71-.52Zm3.62-1.21c-1.15.14-2.32.2-3.43.57 1.06-.73 2.23-.76 3.43-.57Zm2.07.29c-1.65.8-3.38.77-5.13.59 1.67-.55 3.4-.55 5.13-.59Zm-7.64-3.09c-.65-.07-1.12-.49-1.59-.89-1.01-.85-2.06-1.62-3.28-2.13 2.02.31 3.79 1.07 4.88 3.02Zm-5.98-2.08c1.93 1.71 4.67 2.93 7.03 2.9-2.63.85-5.93-.52-7.03-2.9Zm-.55-1.16c1.3.39 2.57.83 3.66 1.69.65.51 1.26 1.07 1.97 1.5.38.23.83.27 1.19.54-2.71-.4-5.09-1.44-6.83-3.74Zm14.82 4.74c.03-.13-.08-.24-.19-.33-.47-.38-.73-.91-.91-1.48-.09-.29-.18-.59-.28-.87-.52-1.42-1.23-2.7-2.46-3.62-1.06-.79-2.08-1.61-2.86-2.72-.06-.09-.13-.21-.27-.11-.12.09-.07.21-.03.32.4 1.15.47 2.36.64 3.55.04.3.1.6.19.9.54 1.8 1.83 2.93 3.4 3.98.18.08.45.25.76.34.53.16 1.07.34 1.64.26.16-.02.32-.05.36-.21Zm-1.59-1.81c-.92-1.45-1.65-3.02-2.74-4.36 1.53 1.04 2.29 2.59 2.74 4.36Zm.07.7c-2.09-1.63-3.68-3.44-4.2-6.05 1.88 1.62 2.89 3.87 4.2 6.05Zm.91 1s-.14.04-.21.03c-.79-.09-1.51-.38-2.18-.82-1.35-.9-2.44-2.02-2.91-3.65-.25-.85-.25-1.74-.38-2.61-.02-.16-.11-.32-.02-.53.22.25.28.53.34.79.56 2.26 1.91 3.94 3.58 5.42.51.45 1.07.83 1.65 1.18.07.04.2.08.13.2ZM9.95 49.62c.37 1.39.76 2.78 1.48 4.03.51.88 1.21 1.57 2.08 2.05.91.5 1.93.54 2.95.51.3 0 .32-.19.29-.42-.66-.46-1.04-1.14-1.41-1.83-.67-1.28-1.6-2.3-2.85-3-.84-.46-1.68-.92-2.27-1.73-.06-.08-.14-.15-.23-.09-.05.04-.07.13-.08.2 0 .09.02.19.04.28Zm5.53 5.35c-1.39-.89-2.2-2.34-3.22-3.63.98.22 1.63.94 3.22 3.63Zm-4.52-3.29c1.08 2.09 3.01 3.09 4.97 4.12-2.41.25-4.28-1.59-4.97-4.12Zm-.25-1.33c1.79 1.18 2.59 3.32 4.25 4.64-2.07-.91-3.38-2.55-4.25-4.64Zm10.47 9.03c-.01-.07-.02-.14-.04-.21-.29-.86-.3-1.77-.42-2.66-.13-.97-.15-1.95-.41-2.9-.45-1.62-1.61-2.73-2.59-3.98-.05-.06-.1-.12-.19-.08-.12.06-.06.16-.04.25.23.81.08 1.61-.11 2.38-.27 1.08-.13 2.08.28 3.09.7 1.72 1.98 2.94 3.27 4.15.08.07.17.07.25-.03Zm-3.02-6.42c-.01.65.03 1.3.17 1.94.19.9.65 1.67 1.13 2.42.11.16.27.3.28.63-1.1-1.29-2-2.58-2.24-4.24-.04-.25-.05-.5 0-.74.14-.67.28-1.34.37-2.03.25.66.3 1.34.29 2.03Zm.29-1.1c.8 1.65.85 3.5 1.32 5.34-1.4-1.59-1.39-3.46-1.32-5.34Zm2.11 6.36c-.35-.52-.6-1.09-.71-1.72-.33-1.81-.54-3.64-1.31-5.34.87.92 1.41 2.02 1.63 3.27.23 1.24.21 2.52.39 3.78Z" style="fill:url(#e);fill-rule:evenodd"/></svg>