<svg xmlns="http://www.w3.org/2000/svg" width="470" height="272" viewBox="0 0 470 272">
  <g id="グループ_23" data-name="グループ 23" transform="translate(-1193 -2974)">
    <rect id="implant08" width="470" height="272" transform="translate(1193 2974)" fill="#efefef" opacity="0.34"/>
    <path id="線_22" data-name="線 22" d="M352,.5H0v-1H352Z" transform="translate(1273.75 3203.555)" fill="#707070"/>
    <path id="線_23" data-name="線 23" d="M.5,11.55h-1V0h1Z" transform="translate(1317.75 3192.005)" fill="#707070"/>
    <path id="線_24" data-name="線 24" d="M.5,11.55h-1V0h1Z" transform="translate(1361.75 3192.005)" fill="#707070"/>
    <path id="線_25" data-name="線 25" d="M.5,11.55h-1V0h1Z" transform="translate(1405.75 3192.005)" fill="#707070"/>
    <path id="線_26" data-name="線 26" d="M.5,11.55h-1V0h1Z" transform="translate(1449.75 3192.005)" fill="#707070"/>
    <path id="線_27" data-name="線 27" d="M.5,11.55h-1V0h1Z" transform="translate(1493.75 3192.005)" fill="#707070"/>
    <path id="線_28" data-name="線 28" d="M.5,11.55h-1V0h1Z" transform="translate(1537.75 3192.005)" fill="#707070"/>
    <path id="線_29" data-name="線 29" d="M.5,11.55h-1V0h1Z" transform="translate(1581.75 3192.005)" fill="#707070"/>
    <path id="線_30" data-name="線 30" d="M352,.5H0v-1H352Z" transform="translate(1273.75 3165.555)" fill="#707070" opacity="0.21"/>
    <path id="線_31" data-name="線 31" d="M352,.5H0v-1H352Z" transform="translate(1273.75 3135.555)" fill="#707070" opacity="0.21"/>
    <path id="線_32" data-name="線 32" d="M352,.5H0v-1H352Z" transform="translate(1273.75 3105.555)" fill="#707070" opacity="0.21"/>
    <path id="線_33" data-name="線 33" d="M352,.5H0v-1H352Z" transform="translate(1273.75 3075.555)" fill="#707070" opacity="0.21"/>
    <path id="線_34" data-name="線 34" d="M352,.5H0v-1H352Z" transform="translate(1273.75 3045.555)" fill="#707070" opacity="0.21"/>
    <path id="線_35" data-name="線 35" d="M352,.5H0v-1H352Z" transform="translate(1273.75 3015.555)" fill="#707070" opacity="0.21"/>
    <path id="パス_13" data-name="パス 13" d="M-10-10.258a2.475,2.475,0,0,1,1.828.711,2.756,2.756,0,0,1,.813,2.031A5.437,5.437,0,0,1-9.191-3.656a9.981,9.981,0,0,0-1.98,2.691h3.707V.254H-12.8V-.863a11.88,11.88,0,0,1,2.488-3.555A4.545,4.545,0,0,0-8.684-7.465,1.655,1.655,0,0,0-9.09-8.684,1.237,1.237,0,0,0-10-9.039q-1.32,0-1.371,2.488H-12.7A4.123,4.123,0,0,1-11.629-9.6,2.209,2.209,0,0,1-10-10.258Zm7.008,0A2.335,2.335,0,0,1-1.27-9.6Q0-8.328,0-4.977T-1.27-.355A2.335,2.335,0,0,1-3,.3a2.335,2.335,0,0,1-1.727-.66q-1.27-1.27-1.27-4.621T-4.723-9.6A2.335,2.335,0,0,1-3-10.258Zm0,1.219a1.213,1.213,0,0,0-.863.406q-.812.813-.812,3.656t.813,3.656A1.213,1.213,0,0,0-3-.914a1.213,1.213,0,0,0,.863-.406q.812-.812.813-3.656t-.812-3.656A1.213,1.213,0,0,0-3-9.039ZM7.516-10.715q.609.051.2.406V-9.8h3.453v1.32H7.719v.355h4.723V-6.8H10.766a5.54,5.54,0,0,0,.457.406l-.406.254h1.574v1.32H9.141a8.418,8.418,0,0,0,.508,2.336,7.661,7.661,0,0,0,.863-1.98l1.016.508a2.484,2.484,0,0,0,.254.152q.152.152.1.254t-.254.1a22.844,22.844,0,0,1-1.168,2.234,1.533,1.533,0,0,0,.508.609q.3.2.355-.2l.152-.914,1.371.457L12.543,0q-.051.2-.1.355a1.694,1.694,0,0,1-.355.66,2.484,2.484,0,0,1-.254.152.707.707,0,0,1-.3.051A2.993,2.993,0,0,1,9.395-.152,15.845,15.845,0,0,1,7.414,1.32L6.551.1A5.5,5.5,0,0,0,7.82-.609a3.549,3.549,0,0,0,.813-.66,9.394,9.394,0,0,1-.965-3.555H3.352V-2.59A7.181,7.181,0,0,1,3-.3a9.332,9.332,0,0,0,.762-2.488l1.168.3v-.559H3.5v-1.32H7.516v1.32h-.2a9.33,9.33,0,0,1,.965,1.828L7.211-.508a16.318,16.318,0,0,0-.863-1.828V.355A1.125,1.125,0,0,1,6.3.711a.826.826,0,0,1-.863.559H4.316l-.1-1.32-.2.508L2.945-.152A4.3,4.3,0,0,1,1.93,1.473L.965.406a4.2,4.2,0,0,0,.965-3V-6.145H7.617V-6.8H1.523v-1.32H3.4v-2.082H4.621q.609.051.2.406v1.676H6.3v-2.59ZM9.039-6.8v.66h.609q-.254-.2-.457-.355L9.7-6.8ZM6.348-3.047v.508l.863-.508Zm-1.422.711q-.355,1.32-.66,2.184h.355A.4.4,0,0,0,4.875-.2a.294.294,0,0,0,.051-.2Z" transform="translate(1318.25 3222.555)"/>
    <path id="パス_14" data-name="パス 14" d="M-7.516-7.617A3,3,0,0,1-8.531-5.281a3.516,3.516,0,0,1,1.27,2.641A2.959,2.959,0,0,1-8.125-.457,2.679,2.679,0,0,1-10.105.3a2.553,2.553,0,0,1-1.879-.762A4.43,4.43,0,0,1-12.9-3.25h1.32a2.72,2.72,0,0,0,.609,1.98,1.237,1.237,0,0,0,.914.355A1.378,1.378,0,0,0-9.039-1.32a1.788,1.788,0,0,0,.457-1.32,1.864,1.864,0,0,0-.559-1.371,1.85,1.85,0,0,0-1.574-.457V-5.992q1.879.2,1.879-1.625a1.51,1.51,0,0,0-.406-1.117,1.1,1.1,0,0,0-.812-.3,1.1,1.1,0,0,0-.812.3,2.131,2.131,0,0,0-.508,1.676H-12.7a3.723,3.723,0,0,1,.914-2.488,2.351,2.351,0,0,1,1.727-.711,2.475,2.475,0,0,1,1.828.711A2.607,2.607,0,0,1-7.516-7.617ZM-3-10.258A2.335,2.335,0,0,1-1.27-9.6Q0-8.328,0-4.977T-1.27-.355A2.335,2.335,0,0,1-3,.3a2.335,2.335,0,0,1-1.727-.66q-1.27-1.27-1.27-4.621T-4.723-9.6A2.335,2.335,0,0,1-3-10.258Zm0,1.219a1.213,1.213,0,0,0-.863.406q-.812.813-.812,3.656t.813,3.656A1.213,1.213,0,0,0-3-.914a1.213,1.213,0,0,0,.863-.406q.812-.812.813-3.656t-.812-3.656A1.213,1.213,0,0,0-3-9.039ZM7.516-10.715q.609.051.2.406V-9.8h3.453v1.32H7.719v.355h4.723V-6.8H10.766a5.54,5.54,0,0,0,.457.406l-.406.254h1.574v1.32H9.141a8.418,8.418,0,0,0,.508,2.336,7.661,7.661,0,0,0,.863-1.98l1.016.508a2.484,2.484,0,0,0,.254.152q.152.152.1.254t-.254.1a22.844,22.844,0,0,1-1.168,2.234,1.533,1.533,0,0,0,.508.609q.3.2.355-.2l.152-.914,1.371.457L12.543,0q-.051.2-.1.355a1.694,1.694,0,0,1-.355.66,2.484,2.484,0,0,1-.254.152.707.707,0,0,1-.3.051A2.993,2.993,0,0,1,9.395-.152,15.845,15.845,0,0,1,7.414,1.32L6.551.1A5.5,5.5,0,0,0,7.82-.609a3.549,3.549,0,0,0,.813-.66,9.394,9.394,0,0,1-.965-3.555H3.352V-2.59A7.181,7.181,0,0,1,3-.3a9.332,9.332,0,0,0,.762-2.488l1.168.3v-.559H3.5v-1.32H7.516v1.32h-.2a9.33,9.33,0,0,1,.965,1.828L7.211-.508a16.318,16.318,0,0,0-.863-1.828V.355A1.125,1.125,0,0,1,6.3.711a.826.826,0,0,1-.863.559H4.316l-.1-1.32-.2.508L2.945-.152A4.3,4.3,0,0,1,1.93,1.473L.965.406a4.2,4.2,0,0,0,.965-3V-6.145H7.617V-6.8H1.523v-1.32H3.4v-2.082H4.621q.609.051.2.406v1.676H6.3v-2.59ZM9.039-6.8v.66h.609q-.254-.2-.457-.355L9.7-6.8ZM6.348-3.047v.508l.863-.508Zm-1.422.711q-.355,1.32-.66,2.184h.355A.4.4,0,0,0,4.875-.2a.294.294,0,0,0,.051-.2Z" transform="translate(1362.25 3222.555)"/>
    <path id="パス_15" data-name="パス 15" d="M-7.312-3.605v1.219H-8.328V.2h-1.32v-2.59h-3.2V-3.555l2.945-6.6h1.574v6.551Zm-2.336,0V-7.82l-1.879,4.215ZM-3-10.258A2.335,2.335,0,0,1-1.27-9.6Q0-8.328,0-4.977T-1.27-.355A2.335,2.335,0,0,1-3,.3a2.335,2.335,0,0,1-1.727-.66q-1.27-1.27-1.27-4.621T-4.723-9.6A2.335,2.335,0,0,1-3-10.258Zm0,1.219a1.213,1.213,0,0,0-.863.406q-.812.813-.812,3.656t.813,3.656A1.213,1.213,0,0,0-3-.914a1.213,1.213,0,0,0,.863-.406q.812-.812.813-3.656t-.812-3.656A1.213,1.213,0,0,0-3-9.039ZM7.516-10.715q.609.051.2.406V-9.8h3.453v1.32H7.719v.355h4.723V-6.8H10.766a5.54,5.54,0,0,0,.457.406l-.406.254h1.574v1.32H9.141a8.418,8.418,0,0,0,.508,2.336,7.661,7.661,0,0,0,.863-1.98l1.016.508a2.484,2.484,0,0,0,.254.152q.152.152.1.254t-.254.1a22.844,22.844,0,0,1-1.168,2.234,1.533,1.533,0,0,0,.508.609q.3.2.355-.2l.152-.914,1.371.457L12.543,0q-.051.2-.1.355a1.694,1.694,0,0,1-.355.66,2.484,2.484,0,0,1-.254.152.707.707,0,0,1-.3.051A2.993,2.993,0,0,1,9.395-.152,15.845,15.845,0,0,1,7.414,1.32L6.551.1A5.5,5.5,0,0,0,7.82-.609a3.549,3.549,0,0,0,.813-.66,9.394,9.394,0,0,1-.965-3.555H3.352V-2.59A7.181,7.181,0,0,1,3-.3a9.332,9.332,0,0,0,.762-2.488l1.168.3v-.559H3.5v-1.32H7.516v1.32h-.2a9.33,9.33,0,0,1,.965,1.828L7.211-.508a16.318,16.318,0,0,0-.863-1.828V.355A1.125,1.125,0,0,1,6.3.711a.826.826,0,0,1-.863.559H4.316l-.1-1.32-.2.508L2.945-.152A4.3,4.3,0,0,1,1.93,1.473L.965.406a4.2,4.2,0,0,0,.965-3V-6.145H7.617V-6.8H1.523v-1.32H3.4v-2.082H4.621q.609.051.2.406v1.676H6.3v-2.59ZM9.039-6.8v.66h.609q-.254-.2-.457-.355L9.7-6.8ZM6.348-3.047v.508l.863-.508Zm-1.422.711q-.355,1.32-.66,2.184h.355A.4.4,0,0,0,4.875-.2a.294.294,0,0,0,.051-.2Z" transform="translate(1406.25 3222.555)"/>
    <path id="パス_16" data-name="パス 16" d="M-12.746-4.469l.355-5.687h4.57v1.219h-3.25l-.254,2.895A2.43,2.43,0,0,1-9.8-6.551a2.237,2.237,0,0,1,1.625.711A3.594,3.594,0,0,1-7.312-3.2,3.752,3.752,0,0,1-8.176-.457,2.615,2.615,0,0,1-10.105.3a2.335,2.335,0,0,1-1.727-.66,4.124,4.124,0,0,1-1.016-2.488h1.32a2.572,2.572,0,0,0,.609,1.625,1.1,1.1,0,0,0,.813.3,1.318,1.318,0,0,0,.965-.406A2.657,2.657,0,0,0-8.633-3.2a2.392,2.392,0,0,0-.508-1.727,1.378,1.378,0,0,0-1.016-.406,1.369,1.369,0,0,0-1.32.863ZM-3-10.258A2.335,2.335,0,0,1-1.27-9.6Q0-8.328,0-4.977T-1.27-.355A2.335,2.335,0,0,1-3,.3a2.335,2.335,0,0,1-1.727-.66q-1.27-1.27-1.27-4.621T-4.723-9.6A2.335,2.335,0,0,1-3-10.258Zm0,1.219a1.213,1.213,0,0,0-.863.406q-.812.813-.812,3.656t.813,3.656A1.213,1.213,0,0,0-3-.914a1.213,1.213,0,0,0,.863-.406q.812-.812.813-3.656t-.812-3.656A1.213,1.213,0,0,0-3-9.039ZM7.516-10.715q.609.051.2.406V-9.8h3.453v1.32H7.719v.355h4.723V-6.8H10.766a5.54,5.54,0,0,0,.457.406l-.406.254h1.574v1.32H9.141a8.418,8.418,0,0,0,.508,2.336,7.661,7.661,0,0,0,.863-1.98l1.016.508a2.484,2.484,0,0,0,.254.152q.152.152.1.254t-.254.1a22.844,22.844,0,0,1-1.168,2.234,1.533,1.533,0,0,0,.508.609q.3.2.355-.2l.152-.914,1.371.457L12.543,0q-.051.2-.1.355a1.694,1.694,0,0,1-.355.66,2.484,2.484,0,0,1-.254.152.707.707,0,0,1-.3.051A2.993,2.993,0,0,1,9.395-.152,15.845,15.845,0,0,1,7.414,1.32L6.551.1A5.5,5.5,0,0,0,7.82-.609a3.549,3.549,0,0,0,.813-.66,9.394,9.394,0,0,1-.965-3.555H3.352V-2.59A7.181,7.181,0,0,1,3-.3a9.332,9.332,0,0,0,.762-2.488l1.168.3v-.559H3.5v-1.32H7.516v1.32h-.2a9.33,9.33,0,0,1,.965,1.828L7.211-.508a16.318,16.318,0,0,0-.863-1.828V.355A1.125,1.125,0,0,1,6.3.711a.826.826,0,0,1-.863.559H4.316l-.1-1.32-.2.508L2.945-.152A4.3,4.3,0,0,1,1.93,1.473L.965.406a4.2,4.2,0,0,0,.965-3V-6.145H7.617V-6.8H1.523v-1.32H3.4v-2.082H4.621q.609.051.2.406v1.676H6.3v-2.59ZM9.039-6.8v.66h.609q-.254-.2-.457-.355L9.7-6.8ZM6.348-3.047v.508l.863-.508Zm-1.422.711q-.355,1.32-.66,2.184h.355A.4.4,0,0,0,4.875-.2a.294.294,0,0,0,.051-.2Z" transform="translate(1450.25 3222.555)"/>
    <path id="パス_17" data-name="パス 17" d="M-10-5.383a1.213,1.213,0,0,0-.863.406A2.478,2.478,0,0,0-11.375-3.2a2.478,2.478,0,0,0,.508,1.777A1.213,1.213,0,0,0-10-1.016a1.213,1.213,0,0,0,.863-.406A2.408,2.408,0,0,0-8.531-3.2a2.408,2.408,0,0,0-.609-1.777A1.213,1.213,0,0,0-10-5.383Zm.1-4.875a2.13,2.13,0,0,1,1.574.609A3.4,3.4,0,0,1-7.414-7.77h-1.32a1.9,1.9,0,0,0-.457-.863,1.033,1.033,0,0,0-.762-.3,1.118,1.118,0,0,0-.812.355,4.331,4.331,0,0,0-.812,2.793A2.042,2.042,0,0,1-9.953-6.7a2.436,2.436,0,0,1,1.777.762A3.709,3.709,0,0,1-7.211-3.2,3.709,3.709,0,0,1-8.176-.457,2.493,2.493,0,0,1-10,.3a2.493,2.493,0,0,1-1.828-.762Q-12.9-1.523-12.9-4.723q0-3.555,1.168-4.723A2.526,2.526,0,0,1-9.9-10.258Zm6.906,0A2.335,2.335,0,0,1-1.27-9.6Q0-8.328,0-4.977T-1.27-.355A2.335,2.335,0,0,1-3,.3a2.335,2.335,0,0,1-1.727-.66q-1.27-1.27-1.27-4.621T-4.723-9.6A2.335,2.335,0,0,1-3-10.258Zm0,1.219a1.213,1.213,0,0,0-.863.406q-.812.813-.812,3.656t.813,3.656A1.213,1.213,0,0,0-3-.914a1.213,1.213,0,0,0,.863-.406q.812-.812.813-3.656t-.812-3.656A1.213,1.213,0,0,0-3-9.039ZM7.516-10.715q.609.051.2.406V-9.8h3.453v1.32H7.719v.355h4.723V-6.8H10.766a5.54,5.54,0,0,0,.457.406l-.406.254h1.574v1.32H9.141a8.418,8.418,0,0,0,.508,2.336,7.661,7.661,0,0,0,.863-1.98l1.016.508a2.484,2.484,0,0,0,.254.152q.152.152.1.254t-.254.1a22.844,22.844,0,0,1-1.168,2.234,1.533,1.533,0,0,0,.508.609q.3.2.355-.2l.152-.914,1.371.457L12.543,0q-.051.2-.1.355a1.694,1.694,0,0,1-.355.66,2.484,2.484,0,0,1-.254.152.707.707,0,0,1-.3.051A2.993,2.993,0,0,1,9.395-.152,15.845,15.845,0,0,1,7.414,1.32L6.551.1A5.5,5.5,0,0,0,7.82-.609a3.549,3.549,0,0,0,.813-.66,9.394,9.394,0,0,1-.965-3.555H3.352V-2.59A7.181,7.181,0,0,1,3-.3a9.332,9.332,0,0,0,.762-2.488l1.168.3v-.559H3.5v-1.32H7.516v1.32h-.2a9.33,9.33,0,0,1,.965,1.828L7.211-.508a16.318,16.318,0,0,0-.863-1.828V.355A1.125,1.125,0,0,1,6.3.711a.826.826,0,0,1-.863.559H4.316l-.1-1.32-.2.508L2.945-.152A4.3,4.3,0,0,1,1.93,1.473L.965.406a4.2,4.2,0,0,0,.965-3V-6.145H7.617V-6.8H1.523v-1.32H3.4v-2.082H4.621q.609.051.2.406v1.676H6.3v-2.59ZM9.039-6.8v.66h.609q-.254-.2-.457-.355L9.7-6.8ZM6.348-3.047v.508l.863-.508Zm-1.422.711q-.355,1.32-.66,2.184h.355A.4.4,0,0,0,4.875-.2a.294.294,0,0,0,.051-.2Z" transform="translate(1494.25 3222.555)"/>
    <path id="パス_18" data-name="パス 18" d="M-10.156.2h-1.32l2.641-9.141h-3.809v-1.219h5.18v1.168ZM-3-10.258A2.335,2.335,0,0,1-1.27-9.6Q0-8.328,0-4.977T-1.27-.355A2.335,2.335,0,0,1-3,.3a2.335,2.335,0,0,1-1.727-.66q-1.27-1.27-1.27-4.621T-4.723-9.6A2.335,2.335,0,0,1-3-10.258Zm0,1.219a1.213,1.213,0,0,0-.863.406q-.812.813-.812,3.656t.813,3.656A1.213,1.213,0,0,0-3-.914a1.213,1.213,0,0,0,.863-.406q.812-.812.813-3.656t-.812-3.656A1.213,1.213,0,0,0-3-9.039ZM7.516-10.715q.609.051.2.406V-9.8h3.453v1.32H7.719v.355h4.723V-6.8H10.766a5.54,5.54,0,0,0,.457.406l-.406.254h1.574v1.32H9.141a8.418,8.418,0,0,0,.508,2.336,7.661,7.661,0,0,0,.863-1.98l1.016.508a2.484,2.484,0,0,0,.254.152q.152.152.1.254t-.254.1a22.844,22.844,0,0,1-1.168,2.234,1.533,1.533,0,0,0,.508.609q.3.2.355-.2l.152-.914,1.371.457L12.543,0q-.051.2-.1.355a1.694,1.694,0,0,1-.355.66,2.484,2.484,0,0,1-.254.152.707.707,0,0,1-.3.051A2.993,2.993,0,0,1,9.395-.152,15.845,15.845,0,0,1,7.414,1.32L6.551.1A5.5,5.5,0,0,0,7.82-.609a3.549,3.549,0,0,0,.813-.66,9.394,9.394,0,0,1-.965-3.555H3.352V-2.59A7.181,7.181,0,0,1,3-.3a9.332,9.332,0,0,0,.762-2.488l1.168.3v-.559H3.5v-1.32H7.516v1.32h-.2a9.33,9.33,0,0,1,.965,1.828L7.211-.508a16.318,16.318,0,0,0-.863-1.828V.355A1.125,1.125,0,0,1,6.3.711a.826.826,0,0,1-.863.559H4.316l-.1-1.32-.2.508L2.945-.152A4.3,4.3,0,0,1,1.93,1.473L.965.406a4.2,4.2,0,0,0,.965-3V-6.145H7.617V-6.8H1.523v-1.32H3.4v-2.082H4.621q.609.051.2.406v1.676H6.3v-2.59ZM9.039-6.8v.66h.609q-.254-.2-.457-.355L9.7-6.8ZM6.348-3.047v.508l.863-.508Zm-1.422.711q-.355,1.32-.66,2.184h.355A.4.4,0,0,0,4.875-.2a.294.294,0,0,0,.051-.2Z" transform="translate(1538.25 3222.555)"/>
    <path id="パス_19" data-name="パス 19" d="M-10.055-10.258a2.471,2.471,0,0,1,1.828.66,2.745,2.745,0,0,1,.762,2.031A2.746,2.746,0,0,1-8.582-5.281a2.955,2.955,0,0,1,1.32,2.488A3.09,3.09,0,0,1-8.074-.508,2.7,2.7,0,0,1-10.055.3a2.7,2.7,0,0,1-1.98-.812,3.09,3.09,0,0,1-.812-2.285,3.434,3.434,0,0,1,1.219-2.488,2.851,2.851,0,0,1-1.016-2.285A2.745,2.745,0,0,1-11.883-9.6,2.471,2.471,0,0,1-10.055-10.258Zm1.27,2.742a1.442,1.442,0,0,0-.406-1.066,1.175,1.175,0,0,0-.863-.355,1.175,1.175,0,0,0-.863.355,1.442,1.442,0,0,0-.406,1.066,1.442,1.442,0,0,0,.406,1.066,1.175,1.175,0,0,0,.863.355,1.175,1.175,0,0,0,.863-.355A1.442,1.442,0,0,0-8.785-7.516Zm-2.742,4.723a1.853,1.853,0,0,0,.508,1.371,1.318,1.318,0,0,0,.965.406,1.318,1.318,0,0,0,.965-.406,1.853,1.853,0,0,0,.508-1.371A1.853,1.853,0,0,0-9.09-4.164a1.318,1.318,0,0,0-.965-.406,1.318,1.318,0,0,0-.965.406A1.853,1.853,0,0,0-11.527-2.793ZM-3-10.258A2.335,2.335,0,0,1-1.27-9.6Q0-8.328,0-4.977T-1.27-.355A2.335,2.335,0,0,1-3,.3a2.335,2.335,0,0,1-1.727-.66q-1.27-1.27-1.27-4.621T-4.723-9.6A2.335,2.335,0,0,1-3-10.258Zm0,1.219a1.213,1.213,0,0,0-.863.406q-.812.813-.812,3.656t.813,3.656A1.213,1.213,0,0,0-3-.914a1.213,1.213,0,0,0,.863-.406q.812-.812.813-3.656t-.812-3.656A1.213,1.213,0,0,0-3-9.039ZM7.516-10.715q.609.051.2.406V-9.8h3.453v1.32H7.719v.355h4.723V-6.8H10.766a5.54,5.54,0,0,0,.457.406l-.406.254h1.574v1.32H9.141a8.418,8.418,0,0,0,.508,2.336,7.661,7.661,0,0,0,.863-1.98l1.016.508a2.484,2.484,0,0,0,.254.152q.152.152.1.254t-.254.1a22.844,22.844,0,0,1-1.168,2.234,1.533,1.533,0,0,0,.508.609q.3.2.355-.2l.152-.914,1.371.457L12.543,0q-.051.2-.1.355a1.694,1.694,0,0,1-.355.66,2.484,2.484,0,0,1-.254.152.707.707,0,0,1-.3.051A2.993,2.993,0,0,1,9.395-.152,15.845,15.845,0,0,1,7.414,1.32L6.551.1A5.5,5.5,0,0,0,7.82-.609a3.549,3.549,0,0,0,.813-.66,9.394,9.394,0,0,1-.965-3.555H3.352V-2.59A7.181,7.181,0,0,1,3-.3a9.332,9.332,0,0,0,.762-2.488l1.168.3v-.559H3.5v-1.32H7.516v1.32h-.2a9.33,9.33,0,0,1,.965,1.828L7.211-.508a16.318,16.318,0,0,0-.863-1.828V.355A1.125,1.125,0,0,1,6.3.711a.826.826,0,0,1-.863.559H4.316l-.1-1.32-.2.508L2.945-.152A4.3,4.3,0,0,1,1.93,1.473L.965.406a4.2,4.2,0,0,0,.965-3V-6.145H7.617V-6.8H1.523v-1.32H3.4v-2.082H4.621q.609.051.2.406v1.676H6.3v-2.59ZM9.039-6.8v.66h.609q-.254-.2-.457-.355L9.7-6.8ZM6.348-3.047v.508l.863-.508Zm-1.422.711q-.355,1.32-.66,2.184h.355A.4.4,0,0,0,4.875-.2a.294.294,0,0,0,.051-.2Z" transform="translate(1582.25 3222.555)"/>
    <path id="パス_26" data-name="パス 26" d="M-2.717-4.469l.355-5.687h4.57v1.219h-3.25l-.254,2.895A2.43,2.43,0,0,1,.229-6.551a2.237,2.237,0,0,1,1.625.711A3.594,3.594,0,0,1,2.717-3.2,3.752,3.752,0,0,1,1.854-.457,2.615,2.615,0,0,1-.076.3,2.335,2.335,0,0,1-1.8-.355,4.124,4.124,0,0,1-2.818-2.844H-1.5A2.572,2.572,0,0,0-.889-1.219a1.1,1.1,0,0,0,.813.3A1.318,1.318,0,0,0,.889-1.32,2.657,2.657,0,0,0,1.4-3.2,2.392,2.392,0,0,0,.889-4.926,1.378,1.378,0,0,0-.127-5.332a1.369,1.369,0,0,0-1.32.863Z" transform="translate(1262.25 3170.055)"/>
    <path id="パス_27" data-name="パス 27" d="M-2.641-10.156V.2h-1.32V-7.719H-5.637V-8.836q1.828-.1,2.031-1.32Zm6.145-.1A2.335,2.335,0,0,1,5.23-9.6Q6.5-8.328,6.5-4.977T5.23-.355A2.335,2.335,0,0,1,3.5.3a2.335,2.335,0,0,1-1.727-.66Q.508-1.625.508-4.977T1.777-9.6A2.335,2.335,0,0,1,3.5-10.258Zm0,1.219a1.213,1.213,0,0,0-.863.406q-.813.813-.812,3.656T2.641-1.32A1.213,1.213,0,0,0,3.5-.914a1.213,1.213,0,0,0,.863-.406q.812-.812.813-3.656T4.367-8.633A1.213,1.213,0,0,0,3.5-9.039Z" transform="translate(1262.25 3140.055)"/>
    <path id="パス_28" data-name="パス 28" d="M-2.641-10.156V.2h-1.32V-7.719H-5.637V-8.836q1.828-.1,2.031-1.32ZM.813-4.469l.355-5.687h4.57v1.219H2.488L2.234-6.043a2.43,2.43,0,0,1,1.523-.508,2.237,2.237,0,0,1,1.625.711A3.594,3.594,0,0,1,6.246-3.2,3.752,3.752,0,0,1,5.383-.457,2.615,2.615,0,0,1,3.453.3a2.335,2.335,0,0,1-1.727-.66A4.124,4.124,0,0,1,.711-2.844h1.32a2.572,2.572,0,0,0,.609,1.625,1.1,1.1,0,0,0,.813.3,1.318,1.318,0,0,0,.965-.406A2.657,2.657,0,0,0,4.926-3.2a2.392,2.392,0,0,0-.508-1.727A1.378,1.378,0,0,0,3.4-5.332a1.369,1.369,0,0,0-1.32.863Z" transform="translate(1262.25 3110.055)"/>
    <path id="パス_29" data-name="パス 29" d="M-3.5-10.258a2.475,2.475,0,0,1,1.828.711A2.756,2.756,0,0,1-.863-7.516,5.437,5.437,0,0,1-2.691-3.656,9.981,9.981,0,0,0-4.672-.965H-.965V.254H-6.3V-.863A11.88,11.88,0,0,1-3.809-4.418,4.545,4.545,0,0,0-2.184-7.465,1.655,1.655,0,0,0-2.59-8.684,1.237,1.237,0,0,0-3.5-9.039q-1.32,0-1.371,2.488H-6.2A4.123,4.123,0,0,1-5.129-9.6,2.209,2.209,0,0,1-3.5-10.258Zm7.008,0A2.335,2.335,0,0,1,5.23-9.6Q6.5-8.328,6.5-4.977T5.23-.355A2.335,2.335,0,0,1,3.5.3a2.335,2.335,0,0,1-1.727-.66Q.508-1.625.508-4.977T1.777-9.6A2.335,2.335,0,0,1,3.5-10.258Zm0,1.219a1.213,1.213,0,0,0-.863.406q-.813.813-.812,3.656T2.641-1.32A1.213,1.213,0,0,0,3.5-.914a1.213,1.213,0,0,0,.863-.406q.812-.812.813-3.656T4.367-8.633A1.213,1.213,0,0,0,3.5-9.039Z" transform="translate(1262.25 3080.055)"/>
    <path id="パス_30" data-name="パス 30" d="M-3.5-10.258a2.475,2.475,0,0,1,1.828.711A2.756,2.756,0,0,1-.863-7.516,5.437,5.437,0,0,1-2.691-3.656,9.981,9.981,0,0,0-4.672-.965H-.965V.254H-6.3V-.863A11.88,11.88,0,0,1-3.809-4.418,4.545,4.545,0,0,0-2.184-7.465,1.655,1.655,0,0,0-2.59-8.684,1.237,1.237,0,0,0-3.5-9.039q-1.32,0-1.371,2.488H-6.2A4.123,4.123,0,0,1-5.129-9.6,2.209,2.209,0,0,1-3.5-10.258ZM.813-4.469l.355-5.687h4.57v1.219H2.488L2.234-6.043a2.43,2.43,0,0,1,1.523-.508,2.237,2.237,0,0,1,1.625.711A3.594,3.594,0,0,1,6.246-3.2,3.752,3.752,0,0,1,5.383-.457,2.615,2.615,0,0,1,3.453.3a2.335,2.335,0,0,1-1.727-.66A4.124,4.124,0,0,1,.711-2.844h1.32a2.572,2.572,0,0,0,.609,1.625,1.1,1.1,0,0,0,.813.3,1.318,1.318,0,0,0,.965-.406A2.657,2.657,0,0,0,4.926-3.2a2.392,2.392,0,0,0-.508-1.727A1.378,1.378,0,0,0,3.4-5.332a1.369,1.369,0,0,0-1.32.863Z" transform="translate(1262.25 3050.055)"/>
    <path id="パス_31" data-name="パス 31" d="M-1.016-7.617A3,3,0,0,1-2.031-5.281,3.516,3.516,0,0,1-.762-2.641,2.959,2.959,0,0,1-1.625-.457,2.679,2.679,0,0,1-3.605.3,2.553,2.553,0,0,1-5.484-.457,4.43,4.43,0,0,1-6.4-3.25h1.32a2.72,2.72,0,0,0,.609,1.98,1.237,1.237,0,0,0,.914.355A1.378,1.378,0,0,0-2.539-1.32a1.788,1.788,0,0,0,.457-1.32,1.864,1.864,0,0,0-.559-1.371,1.85,1.85,0,0,0-1.574-.457V-5.992q1.879.2,1.879-1.625a1.51,1.51,0,0,0-.406-1.117,1.1,1.1,0,0,0-.812-.3,1.1,1.1,0,0,0-.812.3,2.131,2.131,0,0,0-.508,1.676H-6.2a3.723,3.723,0,0,1,.914-2.488,2.351,2.351,0,0,1,1.727-.711,2.475,2.475,0,0,1,1.828.711A2.607,2.607,0,0,1-1.016-7.617ZM3.5-10.258A2.335,2.335,0,0,1,5.23-9.6Q6.5-8.328,6.5-4.977T5.23-.355A2.335,2.335,0,0,1,3.5.3a2.335,2.335,0,0,1-1.727-.66Q.508-1.625.508-4.977T1.777-9.6A2.335,2.335,0,0,1,3.5-10.258Zm0,1.219a1.213,1.213,0,0,0-.863.406q-.813.813-.812,3.656T2.641-1.32A1.213,1.213,0,0,0,3.5-.914a1.213,1.213,0,0,0,.863-.406q.812-.812.813-3.656T4.367-8.633A1.213,1.213,0,0,0,3.5-9.039Z" transform="translate(1262.25 3020.055)"/>
    <path id="パス_23" data-name="パス 23" d="M2.5-13.187q.437,0,.5.25v.125a.678.678,0,0,1-.25.125l.063,2,1.5-.062a6.125,6.125,0,0,0-1.437-1.062l1.063-.937a11.125,11.125,0,0,1,1,.5,11.109,11.109,0,0,1,.938.688l-.687.688L6.688-11l.188,1.75-4,.313v.688l3.5-.187L6.5-6.687,3.063-6.5a5.422,5.422,0,0,0,.063.75L7.25-6.062l.125,1.75-1.937.125.625.5q.313.313.188.438-.062.188-.437.125A13.874,13.874,0,0,1,4.375-1.75a3.058,3.058,0,0,1,.188.313,2.828,2.828,0,0,0,.5.5.36.36,0,0,0,.25.125q.313.063.438-.562L6-2.312l1.688,1L7.375,0A2.087,2.087,0,0,1,6.313,1.25a1.664,1.664,0,0,1-.75.188A3.422,3.422,0,0,1,2.875-.687,21.366,21.366,0,0,1-1.812,1.625L-2.687-.187A23.147,23.147,0,0,0,1.25-1.625a6.469,6.469,0,0,0,.875-.562,4.993,4.993,0,0,1-.562-1.687l-2.812.188-.125-1.75,2.688-.187a5.422,5.422,0,0,1-.062-.75L-.812-6.25-.937-8l2.063-.125v-.687l-2.25.125a19.129,19.129,0,0,1-.312,2.75A14.038,14.038,0,0,1-5.75,1.625L-6.937.188q.875-.812,1.5-1.5A8.469,8.469,0,0,0-4.25-3a8.17,8.17,0,0,0,.438-1,4.758,4.758,0,0,0-1.25-.875,7.822,7.822,0,0,1-1.125,1.75L-7.375-4.312A10.145,10.145,0,0,0-5.937-6.937a16.489,16.489,0,0,0,.813-3.937H-6.937V-12.5h6.75v1.625h-3.25l-.25,1.75h2.5l-.187-1.312,2.438-.125L1-13.187ZM-4-7.625a5.432,5.432,0,0,1-.375,1.313l1.125.75a6.136,6.136,0,0,0,.313-2.062ZM3.375-4a1.836,1.836,0,0,0,.063.438.555.555,0,0,0,.063.25.727.727,0,0,0,.125.188l1-1ZM-.437,6.125q.375.062.438.25a.266.266,0,0,1,0,.25.769.769,0,0,1-.312.125q-.125.375-.25.813H7V9.188H-1.062a16.629,16.629,0,0,1-2.062,4v7.438H-5V15.063A13.048,13.048,0,0,1-6.562,16.5l-1-1.562A12.8,12.8,0,0,0-5,12.688V11.063l1.063.375a9.465,9.465,0,0,0,1.125-2.25h-4.25V7.563h4.75A8.583,8.583,0,0,0-2,5.813Zm6.375,5q.5.563-.062.5L3.313,13.563v.625h4v1.625h-4v3.313a2.055,2.055,0,0,1-.062.5,1.109,1.109,0,0,1-1.187.813H.438l-.25-1.75h1q.25,0,.313-.125a.7.7,0,0,0,.063-.312V15.813h-4.25V14.188h4.25V12.375l.813.188.75-.687H-1.187V10.25H4.438l.313-.187ZM.625,24.75q.75.062.25.5v.688H5.188v1.5H.875v.813H7.313v1.5H2.75l.813.438q.312.188.125.375a.362.362,0,0,1-.25.063,17.478,17.478,0,0,0-.875,1.563h1.25v1.5H1.5a5.1,5.1,0,0,0,1.188.938,4.728,4.728,0,0,0,1.563.625V29.938h1.5q.75.062.25.5V39.5H4.25v-.437H-4.437v.625h-1.75v-9.75h1.5q.75.062.25.5V35.25a5.612,5.612,0,0,0,1.125-.437,5.657,5.657,0,0,0,1.625-1.125H-4.062v-1.5H-2.5A15.336,15.336,0,0,0-3.875,30.5l1.063-.75H-7.437v-1.5H-4.5V25.813H-3q.75.062.25.5V28.25H-.875v-3.5ZM.5,29.938q.75.062.25.5v1.75H2.188l-1.062-.625a8.268,8.268,0,0,0,.938-1.812H-2.625a11.632,11.632,0,0,1,1.438,1.625l-1.125.813H-1v-2.25Zm.25,7.438H-1V35.063l-.5.5a8.291,8.291,0,0,1-2.312,1.375l-.625-1.312v1.938H4.25v-2l-.687,1.375a7.232,7.232,0,0,1-2.812-2Zm-3.312,6.438q.75.063.25.5v2.563h1.125l-.937-.562a9.552,9.552,0,0,0,1.375-2L.375,45q.437.375.125.438H.313q-.562.75-1,1.438H.875v1.5H-2.25A8.6,8.6,0,0,1,.375,49.688l-1,1.25a6.9,6.9,0,0,0-1.687-1.312v.938H-3.5l1.063.313q.312.125.313.25a.18.18,0,0,1-.062.125.255.255,0,0,1-.187.063l-.312.563H.625l-.875-.812a9.336,9.336,0,0,0,1.063-1.75,20.244,20.244,0,0,0,1.25-5.25l1.625.375A.449.449,0,0,1,4,44.625a.2.2,0,0,1-.062.313.362.362,0,0,1-.25.063,20.153,20.153,0,0,1-.437,2H7.313v1.625H6.438a21.824,21.824,0,0,1-1.625,5.938A7.006,7.006,0,0,0,6.5,56.188a6.265,6.265,0,0,0,1.125.688l-1,1.625A19.561,19.561,0,0,1,3.75,55.938,8.908,8.908,0,0,1,1.5,57.813,9.056,9.056,0,0,1-.75,58.875l-.875-1.625A11.326,11.326,0,0,0-.5,56.938a7.831,7.831,0,0,0,3.313-2.312A14.586,14.586,0,0,1,1.688,51.25q-.313.5-.562,1L.75,51.938v1.438H-.375a7.264,7.264,0,0,1-.687,1.75l1.25.625-1,1.25q-.562-.312-1.125-.562a4.54,4.54,0,0,1-.937.813A10.434,10.434,0,0,1-6.562,58.5l-.5-1.812a4.555,4.555,0,0,0,.75-.062,9.834,9.834,0,0,0,2.188-.562,3.389,3.389,0,0,0,.688-.375l-.875-.25-.375.5-1.375-.687L-5,53.375H-7.125v-1.5h2.75l.563-1.312h-.125v-.937a4.435,4.435,0,0,1-1.187,1.25,8.949,8.949,0,0,1-1.375.938l-.937-1.25a14.987,14.987,0,0,0,2.375-1.625,2.3,2.3,0,0,0,.438-.562H-7v-1.5h1.313A5.43,5.43,0,0,0-6.75,45.313l1.313-.937a8.32,8.32,0,0,1,1.375,1.813l-1,.688h1.125V43.813ZM3,48.625a10.825,10.825,0,0,0,.813,4.438,13.556,13.556,0,0,0,.813-4.437Zm-6.687,5.563a7.126,7.126,0,0,1,1.25.375,4.086,4.086,0,0,0,.25-.437,2.648,2.648,0,0,0,.25-.75H-3.25Z" transform="translate(1230.442 3057.055)"/>
    <path id="パス_25" data-name="パス 25" d="M-6.437-11.875A7,7,0,0,0-10.062-5.75,7,7,0,0,0-6.437.375L-7.5,1.625q-4.312-3-4.312-7.375T-7.5-13.125ZM11.75-5.75q0,4.375-4.312,7.375L6.375.375A7,7,0,0,0,10-5.75a7,7,0,0,0-3.625-6.125l1.063-1.25Q11.75-10.125,11.75-5.75Z" transform="translate(1224.942 3133.055) rotate(90)"/>
    <path id="パス_24" data-name="パス 24" d="M.688-13.062q.625,0,.5.313a.707.707,0,0,1-.25.25v2.25H6.75v1.625H1.313a15.385,15.385,0,0,0,2,2.75A13.137,13.137,0,0,0,7.438-2.687L6.5-.875A16.568,16.568,0,0,1,.938-6.187v2.813H3.125V-1.75H.938V1.563H-.937V-1.75H-3V-3.375H-.937v-2.75A15.656,15.656,0,0,1-3.562-2.812a15.244,15.244,0,0,1-3,2.375l-1-1.625A16.815,16.815,0,0,0-5.25-3.75,19.3,19.3,0,0,0-2.437-6.812a6.542,6.542,0,0,0,.875-1.812h-5.25V-10.25H-.937v-2.812Z" transform="translate(1230.442 3138.055)"/>
    <path id="パス_8" data-name="パス 8" d="M264.031,175.145l-44.542-37.693-.076-.088L174.8,85.833,131.432,70.568,87.243,33.337,43.665,17.081-.5,1.414l1-2.827L44.7,14.267,88.778,30.708l.2.167L132.946,67.92l43.6,15.347L221.6,135.312l44.364,37.543Z" transform="translate(1317.75 3029.555)" fill="#4b4b4b"/>
    <path id="パス_9" data-name="パス 9" d="M263.726,17.515l-43.8-3.824-44.461-2.084H87.705L44.173,3.945,1.846,1.139l.2-2.993L44.533.962l.08.014,43.354,7.63,87.6,0L220.156,10.7l43.831,3.827Z" transform="translate(1317.75 3029.555)" fill="#c0995a"/>
    <circle id="楕円形_15" data-name="楕円形 15" cx="3" cy="3" r="3" transform="translate(1403.25 3059.055)" fill="#4b4b4b"/>
    <circle id="楕円形_16" data-name="楕円形 16" cx="3" cy="3" r="3" transform="translate(1360.25 3043.055)" fill="#4b4b4b"/>
    <circle id="楕円形_17" data-name="楕円形 17" cx="3" cy="3" r="3" transform="translate(1448.25 3096.055)" fill="#4b4b4b"/>
    <circle id="楕円形_18" data-name="楕円形 18" cx="3" cy="3" r="3" transform="translate(1490.25 3111.055)" fill="#4b4b4b"/>
    <circle id="楕円形_19" data-name="楕円形 19" cx="3" cy="3" r="3" transform="translate(1579.25 3200.055)" fill="#4b4b4b"/>
    <circle id="楕円形_20" data-name="楕円形 20" cx="3" cy="3" r="3" transform="translate(1535.25 3163.055)" fill="#4b4b4b"/>
    <circle id="楕円形_21" data-name="楕円形 21" cx="3" cy="3" r="3" transform="translate(1360.25 3029.055)" fill="#c0995a"/>
    <circle id="楕円形_22" data-name="楕円形 22" cx="3" cy="3" r="3" transform="translate(1403.25 3036.055)" fill="#c0995a"/>
    <circle id="楕円形_23" data-name="楕円形 23" cx="3" cy="3" r="3" transform="translate(1448.25 3036.055)" fill="#c0995a"/>
    <circle id="楕円形_24" data-name="楕円形 24" cx="3" cy="3" r="3" transform="translate(1535.25 3039.055)" fill="#c0995a"/>
    <circle id="楕円形_25" data-name="楕円形 25" cx="3" cy="3" r="3" transform="translate(1493.25 3036.055)" fill="#c0995a"/>
    <circle id="楕円形_26" data-name="楕円形 26" cx="3" cy="3" r="3" transform="translate(1579.25 3043.055)" fill="#c0995a"/>
    <path id="パス_3" data-name="パス 3" d="M3,0V6A3,3,0,0,1,3,0Z" transform="translate(1321.886 3027.87) rotate(104)" fill="#c0995a"/>
    <path id="パス_4" data-name="パス 4" d="M0,0V6A3,3,0,0,0,3,3,3,3,0,0,0,0,0Z" transform="translate(1321.161 3030.781) rotate(104)" fill="#4b4b4b"/>
    <path id="パス_10" data-name="パス 10" d="M0,0H94V19.726H15.753l-2.682,3.345L8.426,35.121v-15.4H0Z" transform="translate(1494.221 2995.445)" fill="#c0995a"/>
    <path id="パス_11" data-name="パス 11" d="M0,0H114.859l6.827-13.992V0H128V20H0Z" transform="translate(1308.25 3104.055)" fill="#4b4b4b"/>
    <path id="パス_22" data-name="パス 22" d="M-52.766-4a4.261,4.261,0,0,0-.043-1.031,4.025,4.025,0,0,0-.258-1.117l1.117-.258a6.777,6.777,0,0,1,.344,2.234Zm5.543-5.113q.43,0,.344.215a.486.486,0,0,1-.172.172v.945h3.7V-6.66h-6.961v3.48a8.161,8.161,0,0,1-.172,1.762,4.155,4.155,0,0,1-1.8,2.449l-.73-.988q.3-.215.559-.43a2.56,2.56,0,0,0,.945-2.105l-.773.43a.545.545,0,0,1-.129.258.277.277,0,0,1-.215,0,.277.277,0,0,1-.129-.172l-.559-1.074,1.8-.687V-7.777h3.18V-9.109Zm3.609,4.469h-2.578v1.332h2.148v1.117h-2.148v1.8h3.137V.73H-50.66V-.387h1.2V-3.91h1.031q.516.043.172.344v3.18h.859V-4.641H-50.1V-5.758h6.488Zm4.641-4.34q.516.043.172.344V-.215a2.678,2.678,0,0,0,1.117-.859,6.805,6.805,0,0,0,1.16-3.781h-2.191v-1.2h2.234V-8.98h1.031q.516.043.172.344v2.578h3.008v1.2h-2.707A5.118,5.118,0,0,0-34.5-3.137,5.964,5.964,0,0,0-31.926-.344L-32.484.9a6.581,6.581,0,0,1-3.137-3.867,4.551,4.551,0,0,1-.645,1.934,5.312,5.312,0,0,1-2.105,2.105l-.43-.9v.9H-40V-2.578l-1.375.859a.529.529,0,0,1-.086.215.183.183,0,0,1-.172,0,.308.308,0,0,1-.129-.215l-.43-1.074L-40-3.824V-4.77l-1.16.516A10.371,10.371,0,0,0-41.98-6.66l1.2-.43A16.4,16.4,0,0,1-40-4.812V-8.98Zm4.684.559A7.152,7.152,0,0,1-32.828-7.09l-.859.816a7.8,7.8,0,0,0-1.375-1.375Zm7.219.043q.773.344.129.43-.215.816-.473,1.762a7,7,0,0,1,.773-.043,2.56,2.56,0,0,1,.559.043,1.283,1.283,0,0,1,.645.344,1.485,1.485,0,0,1,.387.988q.043.645.043,1.289a12.818,12.818,0,0,1-.129,1.719A6.858,6.858,0,0,1-25.48-.473a1.289,1.289,0,0,1-.859.859,1.926,1.926,0,0,1-.516.086q-.773,0-1.8-1.2l.73-.945q.6.73,1.031.73.344,0,.473-.516a9.114,9.114,0,0,0,.258-2.062A3.016,3.016,0,0,0-26.34-4.9.635.635,0,0,0-26.9-5.07q-.387.043-.859.086-.258.859-.988,2.75A18.316,18.316,0,0,1-30.121.645L-31.281,0a13.445,13.445,0,0,0,1.332-2.535,21.062,21.062,0,0,0,.859-2.277q-.773.086-1.762.172l-.086-1.289q.6,0,1.16-.043t1.074-.086a19.377,19.377,0,0,0,.6-2.75ZM-23.848-7a7.941,7.941,0,0,1,2.578,4.6l-1.332.43a8.04,8.04,0,0,0-2.234-4.34Zm.988-2.191q.516.258.988.516a4.456,4.456,0,0,1,.988.773l-.687.688a7.2,7.2,0,0,0-1.891-1.332Zm-.816.988A6.936,6.936,0,0,1-21.7-6.918l-.73.688a8.705,8.705,0,0,0-1.934-1.332Zm6.832-.859q.387,0,.473.172.086.129-.172.258-.043.73-.129,1.461A13.081,13.081,0,0,0-15.039-7.3q.9-.129,1.934-.344l.129,1.289q-1.461.215-3.738.387v.9a2.825,2.825,0,0,1,.688-.086A4.906,4.906,0,0,1-15.34-5.2l.086-.687,1.117.215q.3.086.258.215,0,.129-.172.129l-.086.3a3.969,3.969,0,0,1,1.934.816,2.5,2.5,0,0,1,.9,1.8A2.659,2.659,0,0,1-12.332.258a4.732,4.732,0,0,1-1.2.6,4.519,4.519,0,0,1-1.2.258l-.645-1.16A7.429,7.429,0,0,0-13.664-.43,1.561,1.561,0,0,0-12.5-2.32q-.172-1.332-1.848-1.633a6.312,6.312,0,0,1-1.59,3.008q.172.258.344.473l-.9.73a3.91,3.91,0,0,0-.3-.43,2.8,2.8,0,0,1-1.8.945A1.33,1.33,0,0,1-20.2-.43a3.927,3.927,0,0,1,2.234-4.211q.043-.645.043-1.289-.9.043-1.848.043l-.086-1.246q1.2.043,1.977,0,.043-.945.086-1.934Zm1.289,4.984a4.249,4.249,0,0,0-.6.043,1.682,1.682,0,0,0-.559.129,4.841,4.841,0,0,0,.086.859q.086.43.215.9A4.466,4.466,0,0,0-15.555-4.082Zm-2.277.645a2.487,2.487,0,0,0-1.074,1.289,2.659,2.659,0,0,0-.215,1.074q0,1.074.988.6a2.588,2.588,0,0,0,.816-.645A8.458,8.458,0,0,1-17.832-3.437ZM-3.566-8.164q.344.344-.086.344Q-4.727-6.574-6.145-5.07A3.855,3.855,0,0,1-2.621-4.3a2.628,2.628,0,0,1,.859,1.891A3.253,3.253,0,0,1-2.621,0,3.941,3.941,0,0,1-5.5.9,2.825,2.825,0,0,1-7.562.258,1.971,1.971,0,0,1-8.207-1.16a1.6,1.6,0,0,1,.516-1.16,1.577,1.577,0,0,1,1.16-.473A1.8,1.8,0,0,1-5.2-2.32,3.666,3.666,0,0,1-4.426-.43,1.362,1.362,0,0,0-3.48-.9a1.8,1.8,0,0,0,.473-1.332,1.63,1.63,0,0,0-.473-1.2,2.583,2.583,0,0,0-1.891-.6A4.523,4.523,0,0,0-6.66-3.91a2.547,2.547,0,0,0-.816.473,11.8,11.8,0,0,0-1.762,1.8l-.9-.816q1.16-1.2,2.449-2.492A19.935,19.935,0,0,0-5.629-7.391q-1.2.129-2.664.258l-.3-1.332h2.148A8.2,8.2,0,0,0-4.6-8.723l.344-.129ZM-6.488-1.8a.583.583,0,0,0-.43.172.583.583,0,0,0-.172.43.824.824,0,0,0,.258.6,1.742,1.742,0,0,0,1.2.3Q-5.715-1.8-6.488-1.8ZM5.07-2.449A10.906,10.906,0,0,1,6.145-1.074l-1.117.73A5.823,5.823,0,0,0,4-1.762Zm1.2-6.617q.516.043.172.344v1.117H8.637v1.117H6.445v.945H9.453v1.117H7.906v.816H9.2v1.117H7.906V.172a1.413,1.413,0,0,1-.043.344.762.762,0,0,1-.816.559h-1.2l-.129-1.2h.73q.172,0,.215-.086A.478.478,0,0,0,6.7-.43V-2.492H3.137V-3.609H6.7v-.816H2.965V-.344h-1.2V-.687H.9V.086H-.3V-8.121H2.965v2.578H5.242v-.945h-1.8V-7.605h1.8V-9.066ZM.9-7v1.891h.859V-7ZM.9-4V-1.8h.859V-4Zm14.48-4.168a5.024,5.024,0,0,1,3.309,1.031,3.743,3.743,0,0,1,1.2,3.008,4.158,4.158,0,0,1-.945,2.707A6.5,6.5,0,0,1,16.371.43L15.383-.645q3.266-1.246,3.266-3.437a2.9,2.9,0,0,0-.773-2.148,3.326,3.326,0,0,0-2.449-.816q.687.172.688.344a.294.294,0,0,1-.258.215,26.611,26.611,0,0,1-.645,2.965,7.185,7.185,0,0,1-.988,2.492,1.79,1.79,0,0,1-1.375.816,1.893,1.893,0,0,1-1.375-.6,3.741,3.741,0,0,1-.9-2.75,4.413,4.413,0,0,1,1.375-3.223A4.664,4.664,0,0,1,15.383-8.164ZM12.332-1.848a.715.715,0,0,0,.473.258q.473,0,.773-.645a20.461,20.461,0,0,0,1.074-4.727A2.864,2.864,0,0,0,12.5-5.629a3.929,3.929,0,0,0-.645,2.105A2.343,2.343,0,0,0,12.332-1.848Zm13.02-6.145a2.169,2.169,0,0,0,.516-.258l.859.73q.344.3-.172.516l-.945,2.32a13.987,13.987,0,0,1,2.578.6q.043-1.332,0-2.492l1.117.215q.3.086.344.215,0,.129-.215.172A17.272,17.272,0,0,1,29.348-3.7a13.22,13.22,0,0,1,1.934.945l-.6,1.117a13.428,13.428,0,0,0-1.547-.816,7.017,7.017,0,0,1-1.8,3.137L26.3-.129a5.663,5.663,0,0,0,1.719-2.75,11.314,11.314,0,0,0-2.836-.687,11.166,11.166,0,0,1-.773,1.676,5.087,5.087,0,0,1-.9,1.2,1.457,1.457,0,0,1-1.074.43,1.314,1.314,0,0,1-.945-.43,1.685,1.685,0,0,1-.473-1.246,2.549,2.549,0,0,1,.816-1.848,3.543,3.543,0,0,1,2.621-.988,21.246,21.246,0,0,0,.773-2.062q-.988.215-2.277.516l-.387-1.246a10.042,10.042,0,0,0,1.676-.172A11.209,11.209,0,0,0,25.352-7.992ZM22.129-1.934a.382.382,0,0,0,.3.473q.258.043.645-.473.473-.773.9-1.633A1.791,1.791,0,0,0,22.129-1.934ZM40.82-7.949a.245.245,0,0,1,.086.258q0,.043-.086.086a.413.413,0,0,1-.3-.043q-.387.043-.6.086l.688.43q.215.172.215.258,0,.129-.258.129a13.531,13.531,0,0,1-.773,1.16h2.02v2.277h-1.2v-1.16H33.73v1.2h-1.2v-2.32h1.719a4.878,4.878,0,0,0-.859-1.16l.73-.516a6.814,6.814,0,0,1-.945.043l-.086-1.16a28.976,28.976,0,0,0,6.789-.559Zm-1.246.43q-1.117.129-2.492.172a5.6,5.6,0,0,1,1.031,1.2l-.773.559H38.5Q39.059-6.531,39.574-7.52Zm-2.965.172q-.859.086-2.105.086a6.753,6.753,0,0,1,.945,1.2l-.6.473h2.02a7.045,7.045,0,0,0-.9-1.289Zm3.48,3.738a.281.281,0,0,1,.129.129.054.054,0,0,1,0,.086q-.043.086-.258.129a4.235,4.235,0,0,1-.344.559,6.642,6.642,0,0,1-1.461,1.5,17.306,17.306,0,0,0,3.824.945l-.258,1.375q-.988-.172-1.8-.387A11.719,11.719,0,0,1,37.125-.387a2,2,0,0,1-.516.344A9.262,9.262,0,0,1,34.848.73a7.971,7.971,0,0,1-2.191.473L32.4-.043A14.516,14.516,0,0,0,33.945-.3a6.529,6.529,0,0,0,2.063-.816L35.621-1.5a7.338,7.338,0,0,1-.945-1.375h-.645V-3.91H38.8l.258-.3Zm-4.082.73a2.994,2.994,0,0,0,1.074,1.16,7.366,7.366,0,0,0,1.16-1.16ZM46.492-4.727H43.57v-.945h2.922Zm3.867-4q.3.172.129.344a.6.6,0,0,1-.258.043,4.172,4.172,0,0,0,.688.773,6.851,6.851,0,0,0,2.363,1.418l-.559,1.117A8.489,8.489,0,0,1,51.434-5.8a7.962,7.962,0,0,1-1.762-1.676,11.528,11.528,0,0,1-1.5,1.719,5.529,5.529,0,0,1-1.117.816l-.6-.9q.258-.172.559-.344H42.969V-7.3h4.125v1.031q.172-.129.387-.3a8.2,8.2,0,0,0,1.375-1.59,2.763,2.763,0,0,0,.387-.859Zm-3.867.945H43.613V-8.809h2.879ZM50.66-5.586q.43.473-.172.387a11.932,11.932,0,0,1-1.2,1.117,8.1,8.1,0,0,1-2.02,1.16l-.344-1.2a4.085,4.085,0,0,0,.773-.258A5.905,5.905,0,0,0,49.93-6.273ZM51.82-4.3q.258.215.172.344a.256.256,0,0,1-.258.043,3.776,3.776,0,0,1-.859.945,10.557,10.557,0,0,1-1.891,1.332,4.09,4.09,0,0,1-1.5.516l-.387-1.16a3.141,3.141,0,0,0,.816-.215,7.333,7.333,0,0,0,2.234-1.375,3.319,3.319,0,0,0,.9-1.074ZM46.406-3.223H43.742v-.945h2.664Zm6.359.473q.258.258.172.344-.043.086-.258.043a8.113,8.113,0,0,1-5.328,3.395L46.965-.258a7.548,7.548,0,0,0,3.309-1.375,6.141,6.141,0,0,0,1.8-1.762ZM46.793.9h-1.2V.516H44.516v.559h-1.2V-2.707h3.48ZM44.516-1.762V-.516H45.59V-1.762Z" transform="translate(1372.25 3118.055)" fill="#fff"/>
    <path id="パス_21" data-name="パス 21" d="M-31.883-9.066q.43,0,.344.215a.486.486,0,0,1-.172.172v.859h3.953v2.449h-1.2V-6.7H-35.75v1.418h-1.2V-7.82H-33V-9.066Zm2.707,4.426h-2.492v1.289h3.008v1.117h-3.008V-.473q.258.043.645.086H-27.5l-.172,1.2h-3.437A3.755,3.755,0,0,1-31.926.73,4.74,4.74,0,0,1-34.5-.859,4.868,4.868,0,0,1-36.48,1.2L-37.3.172a3.676,3.676,0,0,0,1.719-1.633,7.268,7.268,0,0,0,.559-2.621l1.117.344a.539.539,0,0,1,.215.129.33.33,0,0,1,.043.129.465.465,0,0,1-.215.172q-.129.73-.258,1.418a1.707,1.707,0,0,0,.215.258,3.927,3.927,0,0,0,1.031.73V-4.641h-2.664V-5.758h6.359Zm8.938-3.953h3.566V.129a1.413,1.413,0,0,1-.043.344.762.762,0,0,1-.816.559h-1.16L-18.82-.258h.688q.172,0,.215-.086a.478.478,0,0,0,.043-.215V-2.535h-1.16v.129a3.526,3.526,0,0,1-.172,1.031A5.332,5.332,0,0,1-21.312,1.2l-.816-.945a7.209,7.209,0,0,0,1.16-1.074,2.871,2.871,0,0,0,.73-1.8Zm-1.5-.473q.516.043.172.344v1.16h.9v1.031h-.9v3.523h1.031v1.031h-1.719A13.6,13.6,0,0,1-21.141-.9L-22-.086a16.753,16.753,0,0,0-1.2-1.246l.816-.645h-1.891l.816.473a10.124,10.124,0,0,1-.516.9,9.076,9.076,0,0,1-1.418,1.633l-.9-.9a7.353,7.353,0,0,0,1.074-1.16,4.949,4.949,0,0,0,.6-.945h-1.8V-3.008h1.289V-6.531h-1.031V-7.562h1.031V-9.023h.945q.516.043.172.344v1.117h1.332v-1.5Zm2.707,1.59v1.332h1.16V-7.477Zm-4.984.945v.43h1.332v-.43Zm0,1.461V-4.6h1.332V-5.07Zm4.984.043v1.375h1.16V-5.027ZM-24.02-3.566v.559h1.332v-.559ZM-8.379-8.852q.6.215.129.473a8.423,8.423,0,0,0,1.031.945A6.617,6.617,0,0,0-5.2-6.359L-5.672-5.2q-.559-.215-1.074-.473v.516H-8.164v.516H-5.93v2.965H-7.047v-.172h-.9a3.918,3.918,0,0,0,.6.559A5.408,5.408,0,0,0-5.113-.3L-5.672.859-6.445.6A5.139,5.139,0,0,1-8.68-1.074,4.311,4.311,0,0,1-10.055.215a6.479,6.479,0,0,1-1.977.859l-.387-1.16a5.1,5.1,0,0,0,.559-.129,4.852,4.852,0,0,0,1.719-.859A3.077,3.077,0,0,0-9.5-1.848h-.945v.215h-1.117V-3.609l-.559.988q-.3-.3-.6-.559V1.16h-1.2V-2.707a6.7,6.7,0,0,1-1.031,1.461l-.645-1.16a5.809,5.809,0,0,0,1.633-3.352H-15.3V-6.875h1.375V-8.98h1.031q.516.043.172.344v1.762h1.031v.387A5.017,5.017,0,0,0-9.238-9.109ZM-8.852-7.52a7.109,7.109,0,0,1-1.2,1.332h2.578A5.4,5.4,0,0,1-8.852-7.52Zm-3.867,1.762v1.2q.473.3,1.16.816v-.9h2.191v-.516h-1.5v-.43a4.419,4.419,0,0,1-.988.516l-.215-.687Zm3.352,2.148h-1.074v.73h1.074Zm1.2,0v.73h1.117v-.73ZM-.945-4.727H-3.867v-.945H-.945Zm3.867-4q.3.172.129.344a.6.6,0,0,1-.258.043,4.172,4.172,0,0,0,.688.773A6.851,6.851,0,0,0,5.844-6.145L5.285-5.027A8.489,8.489,0,0,1,4-5.8,7.962,7.962,0,0,1,2.234-7.477,11.528,11.528,0,0,1,.73-5.758a5.529,5.529,0,0,1-1.117.816l-.6-.9q.258-.172.559-.344H-4.469V-7.3H-.344v1.031q.172-.129.387-.3a8.2,8.2,0,0,0,1.375-1.59A2.763,2.763,0,0,0,1.8-9.023Zm-3.867.945H-3.824V-8.809H-.945ZM3.223-5.586q.43.473-.172.387a11.932,11.932,0,0,1-1.2,1.117,8.1,8.1,0,0,1-2.02,1.16l-.344-1.2a4.085,4.085,0,0,0,.773-.258A5.905,5.905,0,0,0,2.492-6.273ZM4.383-4.3q.258.215.172.344A.256.256,0,0,1,4.3-3.91a3.776,3.776,0,0,1-.859.945A10.557,10.557,0,0,1,1.547-1.633a4.09,4.09,0,0,1-1.5.516l-.387-1.16a3.141,3.141,0,0,0,.816-.215A7.333,7.333,0,0,0,2.707-3.867a3.319,3.319,0,0,0,.9-1.074ZM-1.031-3.223H-3.7v-.945h2.664Zm6.359.473q.258.258.172.344-.043.086-.258.043A8.113,8.113,0,0,1-.086,1.031L-.473-.258A7.548,7.548,0,0,0,2.836-1.633a6.141,6.141,0,0,0,1.8-1.762ZM-.645.9h-1.2V.516H-2.922v.559h-1.2V-2.707h3.48ZM-2.922-1.762V-.516h1.074V-1.762ZM11.3-8.723q.344.086.344.258t-.215.172q-.129.43-.3.9l2.879-.3.129,1.246-3.48.258a6.066,6.066,0,0,1-.6.988,2,2,0,0,1,1.418.172,1.075,1.075,0,0,1,.645.988q1.461-.559,2.707-.945l.43,1.2q-1.719.473-3.051.9V-.945H10.957V-2.406a9.728,9.728,0,0,0-1.246.688,1.213,1.213,0,0,0-.6.859q-.086.773,1.117.773h4v1.16H10.27A3.054,3.054,0,0,1,8.551.645,1.447,1.447,0,0,1,7.863-.73,2.09,2.09,0,0,1,8.68-2.277a7.922,7.922,0,0,1,2.234-1.289q0-.645-.516-.645a1.978,1.978,0,0,0-1.16.344,8.063,8.063,0,0,0-1.676,1.2L6.7-3.523a14.072,14.072,0,0,0,1.5-1.16A5.517,5.517,0,0,0,9.324-6.1L7-5.93,6.832-7.176,9.84-7.3a13.1,13.1,0,0,0,.473-1.719Zm13.793.773a.245.245,0,0,1,.086.258q0,.043-.086.086a.413.413,0,0,1-.3-.043q-.387.043-.6.086l.688.43q.215.172.215.258,0,.129-.258.129a13.532,13.532,0,0,1-.773,1.16h2.02v2.277h-1.2v-1.16H18v1.2H16.8v-2.32H18.52a4.878,4.878,0,0,0-.859-1.16l.73-.516a6.814,6.814,0,0,1-.945.043l-.086-1.16a28.976,28.976,0,0,0,6.789-.559Zm-1.246.43q-1.117.129-2.492.172a5.6,5.6,0,0,1,1.031,1.2l-.773.559h1.16Q23.332-6.531,23.848-7.52Zm-2.965.172q-.859.086-2.105.086a6.754,6.754,0,0,1,.945,1.2l-.6.473h2.02a7.045,7.045,0,0,0-.9-1.289Zm3.48,3.738a.281.281,0,0,1,.129.129.054.054,0,0,1,0,.086q-.043.086-.258.129a4.235,4.235,0,0,1-.344.559A6.642,6.642,0,0,1,22.43-1.2a17.306,17.306,0,0,0,3.824.945L26,1.117q-.988-.172-1.8-.387A11.719,11.719,0,0,1,21.4-.387a2,2,0,0,1-.516.344A9.262,9.262,0,0,1,19.121.73,7.971,7.971,0,0,1,16.93,1.2L16.672-.043A14.516,14.516,0,0,0,18.219-.3a6.529,6.529,0,0,0,2.063-.816L19.895-1.5a7.338,7.338,0,0,1-.945-1.375H18.3V-3.91h4.77l.258-.3Zm-4.082.73a2.994,2.994,0,0,0,1.074,1.16,7.366,7.366,0,0,0,1.16-1.16ZM30.766-4.727H27.844v-.945h2.922Zm3.867-4q.3.172.129.344a.6.6,0,0,1-.258.043,4.172,4.172,0,0,0,.688.773,6.851,6.851,0,0,0,2.363,1.418L37-5.027A8.489,8.489,0,0,1,35.707-5.8a7.962,7.962,0,0,1-1.762-1.676,11.528,11.528,0,0,1-1.5,1.719,5.529,5.529,0,0,1-1.117.816l-.6-.9q.258-.172.559-.344H27.242V-7.3h4.125v1.031q.172-.129.387-.3a8.2,8.2,0,0,0,1.375-1.59,2.763,2.763,0,0,0,.387-.859Zm-3.867.945H27.887V-8.809h2.879Zm4.168,2.191q.43.473-.172.387a11.932,11.932,0,0,1-1.2,1.117,8.1,8.1,0,0,1-2.02,1.16l-.344-1.2a4.085,4.085,0,0,0,.773-.258A5.905,5.905,0,0,0,34.2-6.273ZM36.094-4.3q.258.215.172.344a.256.256,0,0,1-.258.043,3.776,3.776,0,0,1-.859.945,10.557,10.557,0,0,1-1.891,1.332,4.09,4.09,0,0,1-1.5.516l-.387-1.16a3.141,3.141,0,0,0,.816-.215,7.333,7.333,0,0,0,2.234-1.375,3.319,3.319,0,0,0,.9-1.074ZM30.68-3.223H28.016v-.945H30.68Zm6.359.473q.258.258.172.344-.043.086-.258.043a8.113,8.113,0,0,1-5.328,3.395L31.238-.258a7.548,7.548,0,0,0,3.309-1.375,6.141,6.141,0,0,0,1.8-1.762ZM31.066.9h-1.2V.516H28.789v.559h-1.2V-2.707h3.48ZM28.789-1.762V-.516h1.074V-1.762Z" transform="translate(1540.25 3009.416)" fill="#fff"/>
    <path id="パス_12" data-name="パス 12" d="M0,0H12V129H0Z" transform="translate(1575.25 3056.055)" fill="#c0995a"/>
    <path id="多角形_3" data-name="多角形 3" d="M14,0,28,11H0Z" transform="translate(1567.25 3051.055)" fill="#c0995a"/>
    <path id="多角形_4" data-name="多角形 4" d="M14,0,28,11H0Z" transform="translate(1595.25 3190.055) rotate(180)" fill="#c0995a"/>
    <path id="パス_20" data-name="パス 20" d="M-1.332-8.852a1.667,1.667,0,0,1,.215.086q.129.086.129.172t-.215.129q-.172.387-.3.773H4.469v1.2H1.332v1.074H3.91v1.2H1.332v1.5H5.07v1.2H1.332V1.16H.129V-1.5H-4.812v-1.2h1.934V-5.285a7.4,7.4,0,0,1-1.16,1.16l-.816-.988A6.364,6.364,0,0,0-3.566-6.445a6.386,6.386,0,0,0,1.16-2.578Zm-.73,2.363A11.692,11.692,0,0,1-2.75-5.414H.129V-6.488Zm.387,2.277v1.5h1.8v-1.5Zm.559,15.051-.258.6a2.55,2.55,0,0,0-.73-.988V11.7h.988Zm-2.836-.387a5.126,5.126,0,0,0,.816-1.117h-.816Zm1.848-1.117v.086a5.125,5.125,0,0,1,.988.73V9.336Zm4.9-6.273q.258.086.215.215a.308.308,0,0,1-.215.129l.086.086a4.921,4.921,0,0,0,.688,1.117,7.619,7.619,0,0,0,1.8,1.676L4.727,7.4Q4.211,6.93,3.7,6.414v.859H1.375v-.6a9.926,9.926,0,0,1-.73.859l-.6-.988A7.4,7.4,0,0,0,1.8,2.848ZM-.258,6.5q.516.043.172.344v6.145H-1.117V12.73H-3.953v.387H-4.984V6.5h.859q.516.043.172.344V6.93l.516-.215a5.038,5.038,0,0,1,.387,1.031V6.457h.773q.516.043.172.258V7.789l.344-1.2.645.215V6.5ZM-3.609,8.391q-.172-.6-.344-1.16V8.477h.9V8.133Zm.559,2.449a3.9,3.9,0,0,1-.687.688l-.215-.73v.9h.9Zm1.074-7.992q.516.043.172.344v.6h1.59V4.824H-1.8V5.34H.129V6.414l-5.414-.043V5.34h.816V3.578h.945q.516.043.172.344V5.34h.43V2.848ZM2.406,4.7a9.8,9.8,0,0,1-.73,1.547H3.566A9.087,9.087,0,0,1,2.406,4.7ZM-1.117,7.059A8.61,8.61,0,0,1-1.5,8.391l-.6-.215v.3h.988Zm5.758,4.125a1.413,1.413,0,0,1-.043.344.762.762,0,0,1-.816.559H3.094l-.129-1.031h.3q.172,0,.215-.086a.478.478,0,0,0,.043-.215V9.035H2.707v4.039H1.59V9.035H.516V8H4.641ZM-.365,15.406q.387,0,.43.172.043.129-.172.258.043,1.719.172,3.309a23.2,23.2,0,0,1,3.223-.9l.387,1.246a10.968,10.968,0,0,0-4.211,1.16q-1.676.859-1.676,1.676a.887.887,0,0,0,.344.816,2.071,2.071,0,0,0,1.031.172H3.588l-.086,1.2H-1.01a2.516,2.516,0,0,1-1.848-.6,2.094,2.094,0,0,1-.6-1.547,2.217,2.217,0,0,1,.73-1.59,6.051,6.051,0,0,1,1.59-1.117,12.873,12.873,0,0,1-.172-1.934q-.043-1.289-.043-2.32Zm-.752,11.742q.516.043.172.344v1.762h1.8V27.148H1.891q.516.043.172.344v1.762H4.211v1.117H2.063v2.063H4.77v1.117H1.676a8.5,8.5,0,0,0,3.008,2.191L3.91,36.816a8.563,8.563,0,0,1-1.461-.9A10.141,10.141,0,0,1,.773,34.281l.73-.73H-1.5l.73.73q.43.516-.215.43a12.718,12.718,0,0,1-2.922,2.32l-.73-1.117a8.838,8.838,0,0,0,3.008-2.363h-3.18V32.434h2.664V30.371H-4.039V29.254h1.891V27.148Zm.172,3.223v2.063h1.8V30.371ZM-2.9,39.922q.387.086.43.258.043.129-.258.172a29.115,29.115,0,0,0-.258,8.035l-1.332.086a31.775,31.775,0,0,1,.344-8.809ZM3.975,42.2a30.493,30.493,0,0,0-5.156.258V41.211a38.86,38.86,0,0,1,5.156-.258Zm.6,4.168v1.289H1.4a3.015,3.015,0,0,1-1.5-.387,5.758,5.758,0,0,1-1.375-1.031l.773-.9a4.456,4.456,0,0,0,.988.773,2.707,2.707,0,0,0,1.289.258ZM2.535,51.32q.215.086.215.215a.175.175,0,0,1-.043.129.478.478,0,0,1-.215.043q-.215.3-.43.645H4.3v1.117H.559v.516H3.652V55.1H.559v.645H4.9v1.117h-6.23q-.086.215-.172.473H3.652v1.117H1.289v1.289H4.727v1.117H-2.836V59.742H.086V58.453H-1.977a3.259,3.259,0,0,1-.43.688,9.568,9.568,0,0,1-1.8,1.762l-.816-.988A5.061,5.061,0,0,0-3.953,59.1a4.76,4.76,0,0,0,1.375-2.234H-4.941V55.746h4.3V55.1H-3.7V53.984H-.645v-.516H-4.383V52.352H-2.32q-.215-.258-.6-.645l.859-.559a7.179,7.179,0,0,1,1.246,1.2H.816a7.209,7.209,0,0,0,.73-1.418Zm-3.416,12.3q.773.344.129.43-.215.816-.473,1.762a7,7,0,0,1,.773-.043,2.56,2.56,0,0,1,.559.043,1.282,1.282,0,0,1,.645.344,1.485,1.485,0,0,1,.387.988q.043.645.043,1.289a12.818,12.818,0,0,1-.129,1.719,6.858,6.858,0,0,1-.344,1.375,1.289,1.289,0,0,1-.859.859,1.926,1.926,0,0,1-.516.086q-.773,0-1.8-1.2l.73-.945q.6.73,1.031.73.344,0,.473-.516a9.114,9.114,0,0,0,.258-2.062A3.016,3.016,0,0,0-.15,67.1a.635.635,0,0,0-.559-.172q-.387.043-.859.086-.258.859-.988,2.75a18.316,18.316,0,0,1-1.375,2.879L-5.092,72A13.446,13.446,0,0,0-3.76,69.465,21.062,21.062,0,0,0-2.9,67.188q-.773.086-1.762.172l-.086-1.289q.6,0,1.16-.043t1.074-.086a19.377,19.377,0,0,0,.6-2.75ZM2.342,65a7.941,7.941,0,0,1,2.578,4.6l-1.332.43a8.04,8.04,0,0,0-2.234-4.34ZM3.33,62.8q.516.258.988.516a4.456,4.456,0,0,1,.988.773l-.687.688a7.2,7.2,0,0,0-1.891-1.332Zm-.816.988A6.936,6.936,0,0,1,4.49,65.082l-.73.688a8.705,8.705,0,0,0-1.934-1.332ZM.387,75.191q.516.043.172.344v3.051H2.707V76.094H3.738q.516.043.172.344V80h-1.2v-.215H.559V83.1H3.051V80.477H4.082q.516.043.172.344v3.953h-1.2V84.3H-3.266v.6h-1.2V80.391h1.031q.516.043.172.344V83.1H-.645V79.789H-2.836v.3h-1.2V76.051h1.031q.516.043.172.344v2.191H-.645V75.191ZM2.342,87.836q.344.344-.086.344Q1.182,89.426-.236,90.93a3.855,3.855,0,0,1,3.523.773,2.628,2.628,0,0,1,.859,1.891A3.253,3.253,0,0,1,3.287,96a3.941,3.941,0,0,1-2.879.9,2.825,2.825,0,0,1-2.062-.645A1.971,1.971,0,0,1-2.3,94.84a1.6,1.6,0,0,1,.516-1.16,1.577,1.577,0,0,1,1.16-.473,1.8,1.8,0,0,1,1.332.473,3.666,3.666,0,0,1,.773,1.891,1.362,1.362,0,0,0,.945-.473A1.8,1.8,0,0,0,2.9,93.766a1.63,1.63,0,0,0-.473-1.2,2.583,2.583,0,0,0-1.891-.6,4.523,4.523,0,0,0-1.289.129,2.547,2.547,0,0,0-.816.473,11.8,11.8,0,0,0-1.762,1.8l-.9-.816q1.16-1.2,2.449-2.492A19.936,19.936,0,0,0,.279,88.609q-1.2.129-2.664.258l-.3-1.332H-.537a8.2,8.2,0,0,0,1.848-.258l.344-.129ZM-.58,94.2a.583.583,0,0,0-.43.172.583.583,0,0,0-.172.43.824.824,0,0,0,.258.6,1.742,1.742,0,0,0,1.2.3Q.193,94.2-.58,94.2Z" transform="translate(1600.25 3078.555)" fill="#c0995a"/>
  </g>
</svg>
