<svg xmlns="http://www.w3.org/2000/svg" width="102.261" height="439.603"><g data-name="グループ 105"><g data-name="グループ 104"><path data-name="パス 37" d="M16.176 273.26v-3.349h9.668l.316-.6a20.815 20.815 0 0 0-1.99-2.117l-1.548 1.925h-6.446v-1.927c.916-.316 1.359-.6 1.359-.885 0-.474-1.043-.7-3.159-.727v7.68H8.689v-4.834c.853-.316 1.3-.6 1.3-.853 0-.411-1.011-.632-3.065-.7v6.387H.731l.316.79h27.641l.284-.632a10.822 10.822 0 0 0-2.148-2.18l-1.517 2.022Zm-2.306 8.5H6.129l.348.79h6.6a23.276 23.276 0 0 1-7.232 6.568l.474.632a24.169 24.169 0 0 0 7.551-5.529v6.35h1.643v-5.876a15.115 15.115 0 0 1 5.024 3.317 1.657 1.657 0 0 0 1.043.663.88.88 0 0 0 .979-1.015c0-.7-.7-1.422-2.085-2.148a20.766 20.766 0 0 0-4.96-1.675v-1.3h7.613l.348-.6a18.4 18.4 0 0 0-1.927-1.927l-1.391 1.75h-4.644v-5.182c.79-.221 1.169-.442 1.169-.663 0-.411-.948-.632-2.812-.727Zm-9.162 10.486h19.936v1.706h1.8v-16.777q1.232-.427 1.232-.853 0-.711-3.033-.853v15.991H4.708v-14.285c.79-.316 1.2-.6 1.2-.821 0-.474-1.011-.727-3-.821v18.419h1.8ZM17.6 281.06a26.569 26.569 0 0 0 3.41-3.348 2.391 2.391 0 0 0 .474.032c.537 0 .821-.095.821-.316 0-.411-.821-.948-2.5-1.675a26.489 26.489 0 0 1-2.775 4.866Zm-9.952-4.423a6.768 6.768 0 0 1 2.243 3.444c.158.6.474.916.916.916a1.033 1.033 0 0 0 1.106-1.169c0-1.422-1.3-2.654-3.918-3.728Zm14.974 55.745-11.658 2.5.506.916 11.247-2.438v9.036h1.9v-9.446l4.234-.916.253-.7a31.443 31.443 0 0 0-1.8-2.148l-1.144 2.437-1.643.348v-15.766c.948-.253 1.422-.506 1.422-.79q0-.711-3.317-.948ZM6.445 342.397h1.864v-14.66a11.739 11.739 0 0 1 2.749 3.918c.316.79.663 1.2 1.074 1.2.727 0 1.074-.411 1.074-1.232a2.7 2.7 0 0 0-.7-1.611 10.738 10.738 0 0 0-3.728-3l-.474-.253v-2.94h5.061l.348-.537a11.752 11.752 0 0 0-1.832-2.4l-1.39 2.148h-2.18v-5.593a31.1 31.1 0 0 0 3.349-.948 3.914 3.914 0 0 0 .948.126c.348 0 .537-.095.537-.284 0-.348-.7-.979-2.085-1.832a31.437 31.437 0 0 1-9.731 3.412l.348.727a48.467 48.467 0 0 0 4.771-.79v5.182H.887l.221.79h5.245a34.648 34.648 0 0 1-6.035 12.669l.663.506a34.136 34.136 0 0 0 5.466-8.309Zm8.594-24.549a7.929 7.929 0 0 1 3.475 4.044c.253.727.632 1.106 1.137 1.106.663 0 1.011-.411 1.011-1.2a3.305 3.305 0 0 0-1.232-2.243 10.483 10.483 0 0 0-4.044-2.306Zm-1.074 6.982a9.385 9.385 0 0 1 3.57 4.36c.253.79.632 1.17 1.137 1.17.7 0 1.043-.411 1.043-1.264a3.3 3.3 0 0 0-1.074-2.148 11.617 11.617 0 0 0-4.329-2.749ZM26 373.907a13.452 13.452 0 0 1 1.011 2.18c.221.537.537.821 1.011.821.727 0 1.074-.411 1.074-1.2 0-1.927-2.275-4.55-6.793-7.8l-.474.537a25.57 25.57 0 0 1 3.671 4.578c-3.065.221-6.319.348-9.763.411l-1.643.063a64.254 64.254 0 0 0 5.024-8.689c1.043-.095 1.548-.284 1.548-.6 0-.474-1.074-1.011-3.191-1.643a58.834 58.834 0 0 1-4.363 10.932c-.379.032-.916.032-1.611.032-.885.032-1.517.032-1.927.032.284 1.99.663 2.97 1.106 2.97.284 0 .537-.411.758-1.2 4.2-.284 8.846-.727 13.933-1.359ZM3.22 363.639a5.734 5.734 0 0 1 2.909 3.191.939.939 0 0 0 .948.758c.758 0 1.137-.411 1.137-1.264q0-2.18-4.644-3.317Zm7.93 4.929-.758-.537a89.934 89.934 0 0 1-5.906 12.954 2.247 2.247 0 0 1-2.054 1.011 11.527 11.527 0 0 1-1.2-.095v.821a4.374 4.374 0 0 1 1.832.79 3.084 3.084 0 0 1 .79 2.433 19.834 19.834 0 0 1-.19 2.464l-.158 1.327c0 .7.379 1.043 1.169 1.043.979 0 1.453-.663 1.453-1.99a13.541 13.541 0 0 0-.442-2.907 8.025 8.025 0 0 1-.158-1.169 6.363 6.363 0 0 1 .506-2.306ZM.948 370.4a6 6 0 0 1 2.591 3.1c.158.727.537 1.074 1.137 1.074.663 0 1.011-.411 1.011-1.232 0-1.485-1.485-2.654-4.423-3.507Zm13.206 8.468a19.781 19.781 0 0 0-2.274-1.043v13.017h1.864v-2.211h10.331v2.212h1.864v-10.617l.7-.442a.525.525 0 0 0 .316-.442q0-.474-1.99-1.9l-1.2 1.422Zm-.411.79h10.332v8.183H13.744Zm-6.382 35.27a18.977 18.977 0 0 0-2.054-.885v11.058A22.539 22.539 0 0 1 0 428.64c.7 1.643 1.232 2.464 1.643 2.464.284 0 .411-.442.411-1.327a31.166 31.166 0 0 0 3.191-3.381v.158c-.316 5.15-1.8 9.32-4.486 12.511l.6.537c3.823-3.507 5.75-8.373 5.75-14.534v-9.352H28.72l.253-.6a17.6 17.6 0 0 0-2.148-2.18l-1.58 1.99h-7.963v-2.466c.853-.284 1.264-.537 1.264-.821 0-.411-1.011-.632-3.065-.663v3.949Zm4.076 17.061h1.738v-.821h3.633v4.866a.754.754 0 0 1-.853.853c-.663 0-1.769-.095-3.381-.253v.853a11.378 11.378 0 0 1 2.622.632 1.231 1.231 0 0 1 .537 1.106c1.9 0 2.844-.758 2.844-2.306v-5.75h3.508v.821h1.737v-6.066a20.967 20.967 0 0 0 3.76 2.37 5.591 5.591 0 0 1 1.232-1.675 21.184 21.184 0 0 1-4.992-2.622 21.147 21.147 0 0 0 2.4-2.022c.821 0 1.232-.126 1.232-.348 0-.348-.758-.885-2.243-1.548a14.834 14.834 0 0 1-2.084 3.381 20.154 20.154 0 0 1-3.444-3.507H27.9l.348-.569a25.972 25.972 0 0 0-2.054-1.9l-1.487 1.676H17.03c.316-.7.506-1.169.6-1.39.853-.158 1.3-.348 1.3-.6-.032-.379-.948-.758-2.749-1.106a27.072 27.072 0 0 1-1.2 3.1h-7.33l.316.79H14.6a24.5 24.5 0 0 1-7.362 8.215l.506.663a25.954 25.954 0 0 0 3.7-2.622ZM.632 417.74a9.887 9.887 0 0 1 1.485 4.613c.032.916.316 1.359.885 1.359q1.232 0 1.232-1.327c0-1.611-1.011-3.317-3-5.118Zm13.3 6a26.726 26.726 0 0 0 2.717-3.791h2.023a22.275 22.275 0 0 0 2.78 3.791Zm-5.655-2.749a4.37 4.37 0 0 1 1.927 2.4c.158.537.411.821.821.821.663 0 .979-.348.979-1.043 0-1.074-1.137-1.99-3.412-2.717Zm4.9 3.539h8.91v2.4h-8.912Zm8.91 5.845h-8.912v-2.654h8.91Zm-14.976 8.467a16.864 16.864 0 0 0 5.75-4.2 2.553 2.553 0 0 0 .506.032c.6 0 .885-.126.885-.348 0-.411-.79-1.011-2.338-1.832a15.87 15.87 0 0 1-5.314 5.687Zm13.52-5.652a15.263 15.263 0 0 1 4.992 4.265c.348.569.727.853 1.074.853.727 0 1.074-.379 1.074-1.137 0-1.517-2.243-3.065-6.73-4.613Z" fill="#333"/><path data-name="線 90" fill="none" stroke="#bfbfbf" d="m14.323 21.5.277 225"/><path data-name="パス 43" d="M65.3 24.658c-.941-.47-2.15-1.075-3.561-1.68-.067-.067-.2-.067-.336-.134l-.4-.2v33.592h3.762v-4.3H74.1v11.22H58.513l.672 1.68H74.1V76.39H53.743l.672 1.68h42.931l.739-1.344a61.013 61.013 0 0 0-4.569-4.77l-3.427 4.434H78V64.834h16.863l.672-1.142a40.909 40.909 0 0 0-4.367-4.636l-3.225 4.1H78v-11.22h9.809v2.62h3.83V27.682l1.68-1.075a.942.942 0 0 0 .537-.739c.067-.6-1.277-2.083-4.031-4.367l-2.62 3.158Zm-16.729 21.7h8.6l.672-1.209a40.442 40.442 0 0 0-3.83-4.7l-2.889 4.233h-2.553V28.69h9.607l.672-1.209a36.231 36.231 0 0 0-4.233-4.636l-3.225 4.165H36.207l.672 1.68h7.928v15.99h-7.928l.537 1.68h7.39v17c-2.687.806-5.711 1.545-9.137 2.284 1.277 3.83 2.419 5.778 3.359 5.778.6 0 .941-.873 1.142-2.687a165.447 165.447 0 0 0 19.013-8.4l-.739-1.68a108.967 108.967 0 0 1-9.876 3.561Zm25.53-20.021v10.884h-9.339V26.337Zm13.706 10.884H78V26.337h9.809ZM64.763 50.255V38.901H74.1v11.354Zm23.044-11.354v11.354H78V38.901Z" fill="#c19a5b"/><path data-name="パス 42" d="M66.106 113.824h2.562v-12.215a14.87 14.87 0 0 1 4.255 4.53c.457.915.961 1.372 1.555 1.372 1.006 0 1.51-.5 1.51-1.555 0-2.1-2.425-3.98-7.32-5.673v-3.706h7.686l.595-.915a18.517 18.517 0 0 0-2.7-3.248l-2.1 3.019h-3.477v-5.078c1.144-.412 1.693-.778 1.693-1.144 0-.549-1.418-.915-4.255-1.052v7.274h-8.563l.457 1.144h7.549a39.573 39.573 0 0 1-9.15 14.411l.869.869a34.667 34.667 0 0 0 8.83-10.614ZM81.02 90.858a26.936 26.936 0 0 0-2.882-1.327v24.156H80.7v-2.791h11.62v2.7h2.562v-20.77l1.1-.686a.534.534 0 0 0 .32-.5c0-.412-.915-1.372-2.7-2.882l-1.647 2.1Zm11.3 5.993H80.7v-4.849h11.62Zm0 1.144v5.032H80.7v-5.032Zm0 11.758H80.7v-5.581h11.62Zm-16.882 4.941a15.417 15.417 0 0 1 4.575 6.176 1.191 1.191 0 0 0 1.235.915c1.1 0 1.647-.595 1.647-1.738 0-2.059-2.287-4.117-6.817-6.13Zm13.267 1.052c3.294 2.836 5.307 5.49 6.039 7.915.32 1.1.915 1.647 1.693 1.647 1.1 0 1.647-.595 1.647-1.83 0-2.745-2.882-5.581-8.692-8.555Zm-2.1 3.98c-.274 3.065-.686 4.941-1.235 5.536-.5.549-3.065.823-7.777.823a28.7 28.7 0 0 1-5.4-.274c-.5-.137-.732-.595-.732-1.372v-6.725c1.141-.413 1.686-.775 1.686-1.145 0-.595-1.418-.961-4.3-1.189v9.836c0 1.327.274 2.15.869 2.562.686.5 3.523.778 8.464.778a71.674 71.674 0 0 0 9.287-.366 2.53 2.53 0 0 0 2.246-2.651 1.34 1.34 0 0 1-1.51-.961 17.484 17.484 0 0 1-.366-4.392Zm-23.332-3.248q-1.3 5.284-4.666 7.274c-.869.5-1.327 1.052-1.327 1.647a1.47 1.47 0 0 0 1.647 1.693 3.444 3.444 0 0 0 2.512-1.553c1.83-2.15 2.791-5.032 2.928-8.692Z" fill="#c19a5b"/><path data-name="パス 41" d="M70.948 152.998c0-1.344-1.134-2.184-2.9-2.184-2.688 0-6.8 1.932-10.793 7.013a4.874 4.874 0 0 0-3.864-2.016 7.08 7.08 0 0 0-2.73.63.6.6 0 0 1-.252.084c-.126 0-.21-.042-.21-.168 0-.084.042-.168.168-.294a27.874 27.874 0 0 0 4.581-8.231 6.388 6.388 0 0 0 2.94-2.814 3.928 3.928 0 0 0 .378-1.3c0-.42-.252-.714-.84-.84-.84-.168-1.932-.378-2.772-.462a2.52 2.52 0 0 0-1.722-.924c-.63 0-1.05.336-1.05.882a1.625 1.625 0 0 0 .462 1.05 3.662 3.662 0 0 1 .84 2.436 7.539 7.539 0 0 1-2.6.462 5.3 5.3 0 0 1-2.856-.756 1.679 1.679 0 0 0-.882-.294 1.054 1.054 0 0 0-1.008 1.134 2.87 2.87 0 0 0 1.47 2.184 4.416 4.416 0 0 0 2.352.546 10.505 10.505 0 0 0 2.9-.42c-1.3 3.318-4.662 7.349-9.617 11.381a2.162 2.162 0 0 0-.966 1.68 1.371 1.371 0 0 0 1.386 1.386 2.722 2.722 0 0 0 1.974-1.092c2.982-3.486 5.459-4.872 7.349-4.872 1.974 0 3.276 1.638 3.654 4.032-6.425 3.108-9.2 6.635-9.2 9.491 0 3.36 3.654 5.8 9.617 5.8a27.384 27.384 0 0 0 7.349-1.05c1.342-.381 1.926-.972 1.926-1.481 0-.8-1.134-1.47-2.646-1.47a5.035 5.035 0 0 0-1.3.168 28.865 28.865 0 0 1-7.643 1.26c-3.7 0-5.459-1.344-5.459-3.192 0-2.268 2.6-5.291 7.475-7.685a14.956 14.956 0 0 1-.672 3.906 2.922 2.922 0 0 0-.168.966 1.345 1.345 0 0 0 1.3 1.512c.756 0 1.68-.63 2.016-2.1a10.958 10.958 0 0 0 .336-2.9 12.1 12.1 0 0 0-.252-2.478l.21-.084c8.566-3.143 11.719-6.67 11.719-8.896Zm-15.832-9.7a5.6 5.6 0 0 1 1.176.252c.252.084.378.168.378.336 0 .084-.042.168-.168.294a7.853 7.853 0 0 1-1.092.714 3.864 3.864 0 0 0-.297-1.597Zm2.9 15.706c3.15-4.494 6.887-6.257 8.735-6.257.714 0 1.176.252 1.176.756 0 1.218-2.478 3.7-9.365 6.719a10.708 10.708 0 0 0-.552-1.219Z" fill="#333"/><path data-name="パス 40" d="M82.519 213.709h19.03l.713-1.425q-2.138-2.673-4.918-5.559l-3.777 5.2H82.519v-20.526c2.138-.784 3.207-1.5 3.207-2.067q0-1.6-7.7-1.924v24.517h-18.1l.641 1.782h17.462v35.85h4.49ZM45.6 196.247a32.966 32.966 0 0 0-4.633-2.423v46.041h4.134v-8.056h9.622v5.2h3.991v-37.84l1.924-1.212c.356-.214.5-.428.5-.713 0-.713-1.425-2.138-4.276-4.348l-2.637 3.35Zm-.5 1.782h9.622v32H45.1Z" fill="#c19a5b"/><path data-name="パス 39" d="M52.107 263.397a1.538 1.538 0 0 0 .534-.133 5 5 0 0 1 2.535-.889 2.259 2.259 0 0 1 .756.133 3.285 3.285 0 0 0 .845.133c.934 0 1.468-.534 1.468-1.2a1.8 1.8 0 0 0-.222-.756 8.5 8.5 0 0 0-5.292-4.492 2.2 2.2 0 0 0-.667-.133c-.4 0-.623.222-.623.489a1.314 1.314 0 0 0 .534.845 7.059 7.059 0 0 1 2.313 2.891.564.564 0 0 1 .044.267c0 .178-.133.311-.4.445a6.579 6.579 0 0 0-1.779 1.423.911.911 0 0 0-.4.667c-.002.221.131.31.354.31Zm-8.717 27.974c.845 0 1.779-.8 2.046-2.535.534-3.78 2.268-6.226 5.114-7.383a17.958 17.958 0 0 1 6.093-1.6c3.024 0 3.113 2.4 3.113 4.981 0 5.559 3.78 6.449 6.849 6.449 1.29 0 2.49-.133 3.158-.178 2.268-.089 3.158-.8 3.158-1.512 0-.934-1.423-1.957-3.158-1.957a5.433 5.433 0 0 0-1.156.133 16.071 16.071 0 0 1-3.83.666c-2.09 0-3.158-1.023-3.291-3.869-.089-3.113.311-6.271-4.18-6.271a20.9 20.9 0 0 0-4.581.667.336.336 0 0 1-.178.044c-.133 0-.222-.044-.222-.133a.538.538 0 0 1 .267-.4 48.625 48.625 0 0 1 6.626-4.981c3.113-1.868 4.536-3.647 4.536-4.892 0-1.067-1.023-1.734-2.891-1.734a13.384 13.384 0 0 0-4.047.756c-3.691 1.156-5.826 1.779-7.338 1.779a4.505 4.505 0 0 1-2.935-1.067 2.124 2.124 0 0 0-1.29-.534.876.876 0 0 0-.889.934 1.9 1.9 0 0 0 .356 1.067c1.156 2 2.357 2.713 3.647 2.713 2.357 0 4.936-2.268 8.138-3.2a6.481 6.481 0 0 1 1.823-.311c.889 0 1.334.311 1.334.8 0 .534-.578 1.334-1.823 2.135-8.005 5.248-14.854 12.942-15.7 16.233a7.428 7.428 0 0 0-.178 1.29c.006 1.284.673 1.91 1.429 1.91Z" fill="#333"/><path data-name="パス 38" d="M59.843 319.255a16.876 16.876 0 0 0-7.463 1.822.617.617 0 0 1-.26.087.093.093 0 0 1-.087-.087.577.577 0 0 1 .13-.3c4.729-5.51 7.246-8.461 9.675-10.413a3.093 3.093 0 0 0 1.128-2.3 1.969 1.969 0 0 0-2.082-2.042 5.632 5.632 0 0 0-2.907 1.041c-3.775 2.43-6.421 3.9-8.678 3.9a4.1 4.1 0 0 1-2-.477 1.789 1.789 0 0 0-.738-.174.618.618 0 0 0-.607.694 2.7 2.7 0 0 0 1.3 2 3.24 3.24 0 0 0 1.952.564c1.866 0 4.6-1.215 8.938-4.122a1.306 1.306 0 0 1 .607-.26.3.3 0 0 1 .3.3 1.265 1.265 0 0 1-.26.651c-.607.824-13.58 16.791-15.923 19.568a3.9 3.9 0 0 0-.911 2.3c0 .955.521 1.605 1.215 1.605.607 0 1.475-.607 2.3-2.169 3.818-7.55 9.155-10.2 13.667-10.2 5.076 0 9.155 3.341 9.2 6.9-.043 5.944-4.859 8.374-9.285 8.851a3.946 3.946 0 0 0 .3-1.519c0-2.126-2.083-3.037-4.3-3.037-2.473 0-5.12 1.128-5.12 2.907 0 2.213 3.992 3.818 8.461 3.818 5.872.008 12.555-2.769 12.555-10.753 0-5.768-5.163-9.155-11.107-9.155Zm-7.636 16.1c-.043-1.041 1.171-1.649 2.386-1.649 1.258 0 2.516.651 2.516 1.866a3.156 3.156 0 0 1-.521 1.562c-2.472-.133-4.421-.87-4.381-1.781Z" fill="#333"/></g><path data-name="長方形 121" fill="none" d="M11.1 0h87v22h-87z"/></g></svg>